<?xml version="1.0" encoding="iso-8859-1"?>
<!-- Generator: Adobe Illustrator 19.0.0, SVG Export Plug-In . SVG Version: 6.00 Build 0)  -->
<svg version="1.1" id="Capa_1" xmlns="http://www.w3.org/2000/svg" xmlns:xlink="http://www.w3.org/1999/xlink" x="0px" y="0px"
	 viewBox="0 0 512 512" style="enable-background:new 0 0 512 512;" xml:space="preserve">
<circle style="fill:#FFD93B;" cx="256" cy="256" r="256"/>
<path style="fill:#F4C534;" d="M512,256c0,141.44-114.64,256-256,256c-80.48,0-152.32-37.12-199.28-95.28
	c43.92,35.52,99.84,56.72,160.72,56.72c141.36,0,256-114.56,256-256c0-60.88-21.2-116.8-56.72-160.72
	C474.8,103.68,512,175.52,512,256z"/>
<path style="fill:#3E4347;" d="M264.144,421.696c-45.888-25.248-71.12-90.064-140.384-89.936
	c69.68-20.784,128.192,30.208,161.744,47.744c20.64,10.88,47.024,16.016,67.68,3.392
	C356.64,414.544,315.056,449.696,264.144,421.696z"/>
<path style="fill:#F4C534;" d="M243.488,260.304c-6.928,28.304-52.992,51.312-107.312,50.16
	c-53.968-1.04-85.872-47.296-77.808-105.44c8.016-57.936,58.976-79.68,107.136-50.224
	C213.648,184.304,250.4,232.128,243.488,260.304z"/>
<path style="fill:#FFFFFF;" d="M226.656,255.248c-9.6,22.336-51.344,40.336-94.864,37.616
	c-43.376-2.528-67.008-40.096-56.528-82.816c10.528-42.544,53.968-56.8,94.208-34.496
	C209.68,197.968,236.304,232.976,226.656,255.248z"/>
<path style="fill:#3E4347;" d="M162.464,237.68c0.032,21.52-17.52,38.992-39.04,39.04c-21.52,0.032-39.12-17.392-39.152-38.912
	c-0.032-21.664,17.52-39.136,39.04-39.168C144.816,198.608,162.432,216.032,162.464,237.68z"/>
<ellipse transform="matrix(-0.7082 -0.706 0.706 -0.7082 79.6674 477.8576)" style="fill:#5A5F63;" cx="138.584" cy="222.465" rx="13.696" ry="8.144"/>
<path style="fill:#F4C534;" d="M276.592,270.624c7.792,28.08,54.528,49.696,108.784,46.896
	c53.904-2.672,84.384-49.888,74.56-107.776c-9.792-57.664-61.376-77.856-108.608-46.944
	C304.112,193.744,268.832,242.656,276.592,270.624z"/>
<path style="fill:#FFFFFF;" d="M293.264,265.056c10.272,22.032,52.544,38.768,95.968,34.72c43.28-3.84,65.76-42.112,53.968-84.512
	c-11.808-42.208-55.68-55.136-95.216-31.632C308.48,207.28,282.944,243.072,293.264,265.056z"/>
<path style="fill:#3E4347;" d="M379.344,229.376c9.92,19.088,2.368,42.688-16.72,52.608s-42.736,2.544-52.656-16.544
	c-9.984-19.216-2.432-42.8,16.656-52.72C345.712,202.784,369.36,210.16,379.344,229.376z"/>
<ellipse transform="matrix(-0.9535 -0.3013 0.3013 -0.9535 617.5789 548.9189)" style="fill:#5A5F63;" cx="351.122" cy="226.832" rx="13.696" ry="8.144"/>
<g>
	<path style="fill:#3E4347;" d="M452.864,146.176c-17.136-14.88-39.088-25.28-62.48-29.44c-23.376-4.16-48.192-2.08-70.32,5.92
		C371.232,60.528,436.768,85.664,452.864,146.176z"/>
	<path style="fill:#3E4347;" d="M98.384,103.728c18.896-13.584,55.92-21.84,82.544-3.04c21.824,15.648,25.216,39.776,58.368,44.96
		c0,0-2.112,1.568-6.528,3.216c-32.4,11.472-49.712-17.504-65.712-28.592C147.216,105.92,115.456,107.072,98.384,103.728z"/>
</g>
<g>
</g>
<g>
</g>
<g>
</g>
<g>
</g>
<g>
</g>
<g>
</g>
<g>
</g>
<g>
</g>
<g>
</g>
<g>
</g>
<g>
</g>
<g>
</g>
<g>
</g>
<g>
</g>
<g>
</g>
</svg>
