<?xml version="1.0" encoding="iso-8859-1"?>
<!-- Generator: Adobe Illustrator 19.0.0, SVG Export Plug-In . SVG Version: 6.00 Build 0)  -->
<svg version="1.1" id="Capa_1" xmlns="http://www.w3.org/2000/svg" xmlns:xlink="http://www.w3.org/1999/xlink" x="0px" y="0px"
	 viewBox="0 0 512 512" style="enable-background:new 0 0 512 512;" xml:space="preserve">
<circle style="fill:#FFD93B;" cx="256" cy="256" r="256"/>
<path style="fill:#F4C534;" d="M512,256c0,141.44-114.64,256-256,256c-80.48,0-152.32-37.12-199.28-95.28
	c43.92,35.52,99.84,56.72,160.72,56.72c141.36,0,256-114.56,256-256c0-60.88-21.2-116.8-56.72-160.72
	C474.8,103.68,512,175.52,512,256z"/>
<path style="fill:#3E4347;" d="M361.872,422.112C291.2,408.4,220.528,408.4,150.192,421.904
	c-7.888,1.568-14.272-7.248-11.584-16.048c21.648-69.904,69.168-113.552,117.344-113.552c48.352,0,95.856,43.664,117.504,113.552
	C376.144,414.656,369.76,423.472,361.872,422.112z"/>
<path style="fill:#F4C534;" d="M241.712,184.896c0,47.04-37.92,85.12-84.96,85.12c-46.88,0-84.96-38.08-84.96-85.12
	c0-46.88,38.08-84.96,84.96-84.96C203.792,99.936,241.712,138.032,241.712,184.896z"/>
<path style="fill:#FFFFFF;" d="M227.712,184.912c-3.056,41.392-37.2,74.912-76.48,74.912c-39.152,0-68.48-33.52-65.424-74.912
	c3.04-41.248,37.312-74.768,76.464-74.768C201.552,110.144,230.752,143.664,227.712,184.912z"/>
<ellipse style="fill:#3E4347;" cx="165.07" cy="183.786" rx="46.24" ry="46.24"/>
<ellipse transform="matrix(-0.7071 -0.7071 0.7071 -0.7071 193.9254 413.0609)" style="fill:#FFFFFF;" cx="182.51" cy="166.367" rx="14.688" ry="9.824"/>
<path style="fill:#F4C534;" d="M439.712,184.896c0,47.04-37.92,85.12-84.96,85.12c-46.88,0-84.96-38.08-84.96-85.12
	c0-46.88,38.08-84.96,84.96-84.96C401.792,99.936,439.712,138.032,439.712,184.896z"/>
<path style="fill:#FFFFFF;" d="M425.712,184.912c-3.056,41.392-37.2,74.912-76.48,74.912c-39.152,0-68.48-33.52-65.424-74.912
	c3.04-41.248,37.312-74.768,76.464-74.768C399.552,110.144,428.752,143.664,425.712,184.912z"/>
<ellipse style="fill:#3E4347;" cx="363.06" cy="183.78" rx="46.24" ry="46.24"/>
<g>
	
		<ellipse transform="matrix(-0.7071 -0.7071 0.7071 -0.7071 531.8533 553.0557)" style="fill:#FFFFFF;" cx="380.468" cy="166.377" rx="14.688" ry="9.824"/>
	<path style="fill:#FFFFFF;" d="M161.856,419.952c62.64-10.688,125.536-10.672,188.448,0.192
		c-17.024-37.376-52.784-45.184-94.272-45.184C214.624,374.96,178.912,382.736,161.856,419.952z"/>
</g>
<g>
</g>
<g>
</g>
<g>
</g>
<g>
</g>
<g>
</g>
<g>
</g>
<g>
</g>
<g>
</g>
<g>
</g>
<g>
</g>
<g>
</g>
<g>
</g>
<g>
</g>
<g>
</g>
<g>
</g>
</svg>
