<?xml version="1.0" encoding="iso-8859-1"?>
<!-- Generator: Adobe Illustrator 19.0.0, SVG Export Plug-In . SVG Version: 6.00 Build 0)  -->
<svg version="1.1" id="Capa_1" xmlns="http://www.w3.org/2000/svg" xmlns:xlink="http://www.w3.org/1999/xlink" x="0px" y="0px"
	 viewBox="0 0 512 512" style="enable-background:new 0 0 512 512;" xml:space="preserve">
<circle style="fill:#FFD93B;" cx="256" cy="256" r="256"/>
<path style="fill:#F4C534;" d="M512,256c0,141.44-114.64,256-256,256c-80.48,0-152.32-37.12-199.28-95.28
	c43.92,35.52,99.84,56.72,160.72,56.72c141.36,0,256-114.56,256-256c0-60.88-21.2-116.8-56.72-160.72
	C474.8,103.68,512,175.52,512,256z"/>
<path style="fill:#3E4347;" d="M194.384,443.376c21.04,10.672,98.88,2.88,127.216-14.08c16.912-12.384,5.6-39.856,32.832-66.368
	c23.728-25.776-4.736-50.608-47.664-68.816c-8.64-4.064-15.28-6.752-19.792-7.168c-21.168-2.224-42.336-4.416-63.504-6.624
	c-4.496-0.512-12.672,1.296-23.36,5.072c-53.2,16.448-79.456,45.296-44.448,79.84C195.856,401.44,184.352,436.448,194.384,443.376z"
	/>
<path style="fill:#FFFFFF;" d="M306.768,294.112c-8.64-4.064-15.28-6.752-19.792-7.168c-21.168-2.224-42.336-4.416-63.504-6.624
	c-4.496-0.512-12.672,1.296-23.36,5.072c-13.28,4.112-24.88,8.976-34.256,14.528c10.16,13.92,46.512,17.6,84.256,19.328
	c38.864,1.696,75.312,0.832,86.032-10.016C327.68,303.84,317.712,298.752,306.768,294.112z"/>
<path style="fill:#E24B4B;" d="M321.584,429.296c4.048-2.304,6.336-5.408,7.872-8.8c-0.352-0.448-0.592-0.896-0.944-1.344
	c-18.416-24.784-18.288-46.384-45.104-46.176c-6.336,0.16-12.272,2.112-16.944,5.536c-7.712,5.616-16.096,7.504-25.584,5.104
	c-2.832-0.72-5.744-1.04-8.576-0.944c-23.632,0.544-16.976,24.112-43.12,52.624c0.56,3.632,1.76,6.544,5.2,8.08
	C215.424,454.048,293.264,446.256,321.584,429.296z"/>
<path style="fill:#FFFFFF;" d="M303.264,394.336c-0.912,3.92-6.32,5.456-12.352,3.248c-5.872-2.32-9.76-7.504-8.608-11.568
	c1.136-4.208,7.216-5.344,12.912-2.976C300.976,385.408,304.176,390.448,303.264,394.336z"/>
<path style="fill:#F4C534;" d="M448.176,181.488c0,37.76-41.12,68.48-91.84,68.48s-91.84-30.72-91.84-68.48
	c0-37.92,41.12-68.48,91.84-68.48S448.176,143.568,448.176,181.488z"/>
<path style="fill:#FFFFFF;" d="M437.136,181.488c-4.144,31.344-43.664,56.832-88.304,56.832s-77.44-25.472-73.296-56.832
	c4.128-31.344,43.664-56.816,88.304-56.816C408.48,124.672,441.28,150.144,437.136,181.488z"/>
<path style="fill:#3E4347;" d="M366.096,186.336c-0.112,20.928-16.976,37.792-37.904,37.904
	c-21.168-0.112-38.016-16.976-38.128-37.904c0.112-21.152,16.976-38.016,38.128-38.128
	C349.12,148.304,365.968,165.168,366.096,186.336z"/>
<path style="fill:#5A5F63;" d="M321.536,179.76c-6.224,6.224-14.368,8.256-18.224,4.416c-3.84-3.84-1.808-12,4.416-18.208
	c6.336-6.336,14.48-8.368,18.336-4.528S327.872,173.424,321.536,179.76z"/>
<path style="fill:#F4C534;" d="M63.824,181.488c0,37.76,41.12,68.48,91.84,68.48s91.84-30.72,91.84-68.48
	c0-37.92-41.12-68.48-91.84-68.48S63.824,143.568,63.824,181.488z"/>
<path style="fill:#FFFFFF;" d="M74.864,181.488c4.144,31.344,43.664,56.832,88.304,56.832s77.44-25.472,73.296-56.832
	c-4.128-31.344-43.664-56.816-88.304-56.816S70.72,150.144,74.864,181.488z"/>
<path style="fill:#3E4347;" d="M145.904,186.336c0.112,20.928,16.976,37.792,37.904,37.904
	c21.168-0.112,38.016-16.976,38.128-37.904c-0.112-21.152-16.976-38.016-38.128-38.128
	C162.88,148.304,146.032,165.168,145.904,186.336z"/>
<path style="fill:#5A5F63;" d="M190.464,179.76c6.224,6.224,14.368,8.256,18.208,4.416s1.808-12-4.416-18.208
	c-6.336-6.336-14.48-8.368-18.336-4.528C182.096,165.28,184.128,173.424,190.464,179.76z"/>
<g>
	<path style="fill:#3E4347;" d="M269.84,124.672c0,0,48.432-67.328,143.104-59.328C412.944,65.344,282.08,14.672,269.84,124.672z"/>
	<path style="fill:#3E4347;" d="M242.16,124.672c0,0-48.432-67.328-143.104-59.328C99.072,65.344,229.92,14.672,242.16,124.672z"/>
</g>
<g>
</g>
<g>
</g>
<g>
</g>
<g>
</g>
<g>
</g>
<g>
</g>
<g>
</g>
<g>
</g>
<g>
</g>
<g>
</g>
<g>
</g>
<g>
</g>
<g>
</g>
<g>
</g>
<g>
</g>
</svg>
