<?xml version="1.0" encoding="iso-8859-1"?>
<!-- Generator: Adobe Illustrator 19.0.0, SVG Export Plug-In . SVG Version: 6.00 Build 0)  -->
<svg version="1.1" id="Capa_1" xmlns="http://www.w3.org/2000/svg" xmlns:xlink="http://www.w3.org/1999/xlink" x="0px" y="0px"
	 viewBox="0 0 512 512" style="enable-background:new 0 0 512 512;" xml:space="preserve">
<circle style="fill:#FFD93B;" cx="256" cy="256" r="256"/>
<path style="fill:#F4C534;" d="M510.784,256c0,141.44-114.64,256-256,256c-80.48,0-152.32-37.12-199.28-95.28
	c43.92,35.52,99.84,56.72,160.72,56.72c141.36,0,256-114.56,256-256c0-60.88-21.2-116.8-56.72-160.72
	C473.584,103.68,510.784,175.52,510.784,256z"/>
<g>
	<path style="fill:#FFFFFF;" d="M235.408,208.528c0,43.792-35.424,79.376-79.376,79.376c-43.792,0-79.376-35.584-79.376-79.376
		c0-43.952,35.584-79.52,79.376-79.52C199.984,129.008,235.408,164.592,235.408,208.528z"/>
	<path style="fill:#FFFFFF;" d="M435.344,208.528c0,43.792-35.424,79.376-79.376,79.376c-43.792,0-79.376-35.584-79.376-79.376
		c0-43.952,35.568-79.52,79.376-79.52C399.92,129.008,435.344,164.592,435.344,208.528z"/>
</g>
<g>
	<path style="fill:#3E4347;" d="M485.232,196.464h-39.504c-5.92-44.336-43.888-78.64-89.76-78.64
		c-33.952,0-63.552,18.816-79.04,46.56c-4.208,7.536-12.16,11.92-20.784,11.872c-0.048,0-0.096,0-0.16,0c-0.08,0-0.144,0-0.224,0
		c-8.592,0.064-16.512-4.336-20.688-11.84c-15.488-27.76-45.088-46.592-79.04-46.592c-45.856,0-83.744,34.336-89.68,78.64H26.72v24
		h39.904c5.568,41.408,39.216,74.736,81.6,78.32c53.632,4.544,99.44-38.224,98.288-92.144c0.912-4.512,4.72-7.968,9.472-7.968
		c4.864,0,9.376,3.504,9.376,9.872c0,52.288,44.56,94.384,97.696,90.304c42.528-3.264,76.832-36.528,82.368-78.384H485.2v-24
		H485.232z M156.032,276.688c-37.584,0-68.176-30.592-68.176-68.16c0-37.664,30.576-68.304,68.176-68.304
		c37.584,0,68.16,30.64,68.16,68.304C224.192,246.112,193.616,276.688,156.032,276.688z M355.968,276.688
		c-37.584,0-68.176-30.592-68.176-68.16c0-37.664,30.576-68.304,68.176-68.304c37.584,0,68.16,30.64,68.16,68.304
		C424.128,246.112,393.552,276.688,355.968,276.688z"/>
	<path style="fill:#3E4347;" d="M366.32,208.496c0,16.688-13.424,30.432-30.32,30.432c-16.688,0-30.32-13.744-30.32-30.432
		c0-16.784,13.648-30.544,30.32-30.544C352.896,177.968,366.32,191.712,366.32,208.496z"/>
</g>
<ellipse transform="matrix(-0.7071 -0.7071 0.7071 -0.7071 451.626 582.9016)" style="fill:#FFFFFF;" cx="346.536" cy="197.916" rx="10" ry="6.912"/>
<path style="fill:#3E4347;" d="M206.32,208.496c0,16.688-13.424,30.432-30.32,30.432c-16.688,0-30.32-13.744-30.32-30.432
	c0-16.784,13.648-30.544,30.32-30.544C192.896,177.968,206.32,191.712,206.32,208.496z"/>
<ellipse transform="matrix(-0.7071 -0.7071 0.7071 -0.7071 178.4889 469.7645)" style="fill:#FFFFFF;" cx="186.536" cy="197.916" rx="10" ry="6.912"/>
<g>
	<path style="fill:#3E4347;" d="M392.192,89.76c-37.488-32.736-82.704-27.664-83.136-27.616c-5.68,0.528-10.96-3.392-11.696-9.12
		c-0.72-5.744,3.344-10.976,9.088-11.712c2.224-0.288,54.816-6.448,99.568,32.624c4.352,3.808,4.816,10.448,1.008,14.816
		C403.2,93.104,396.576,93.568,392.192,89.76z"/>
	<path style="fill:#3E4347;" d="M119.808,89.76c37.488-32.736,82.704-27.664,83.152-27.616c5.68,0.528,10.96-3.392,11.696-9.12
		c0.72-5.744-3.344-10.976-9.072-11.712c-2.224-0.288-54.816-6.448-99.568,32.624c-4.384,3.824-4.848,10.448-1.024,14.832
		C108.8,93.104,115.424,93.568,119.808,89.76z"/>
	<path style="fill:#3E4347;" d="M376.384,434.624c-78.56-25.6-158.88-25.44-240.96,0.32c-10.4,3.2-20-6.4-17.76-16.96
		c13.92-63.68,70.56-111.36,138.4-111.36c67.68,0,124.16,47.52,138.24,111.04C396.704,428.384,386.784,437.984,376.384,434.624z"/>
</g>
<path style="fill:#E24B4B;" d="M334.208,423.696c-4.304-18.656-15.072-34.992-30.24-46.144c-9.568-7.152-22.464-8.464-33.44-3.36
	c-9.472,4.24-20.72,6.432-33.792,5.44l-0.16-0.016c-22.016-1.68-44.112,8.176-53.504,28.16c-2.368,5.152-4.096,10.688-5.376,16.432
	C230.608,413.2,282.768,413.024,334.208,423.696z"/>
<g>
</g>
<g>
</g>
<g>
</g>
<g>
</g>
<g>
</g>
<g>
</g>
<g>
</g>
<g>
</g>
<g>
</g>
<g>
</g>
<g>
</g>
<g>
</g>
<g>
</g>
<g>
</g>
<g>
</g>
</svg>
