<?xml version="1.0" encoding="iso-8859-1"?>
<!-- Generator: Adobe Illustrator 19.0.0, SVG Export Plug-In . SVG Version: 6.00 Build 0)  -->
<svg version="1.1" id="Capa_1" xmlns="http://www.w3.org/2000/svg" xmlns:xlink="http://www.w3.org/1999/xlink" x="0px" y="0px"
	 viewBox="0 0 511.998 511.998" style="enable-background:new 0 0 511.998 511.998;" xml:space="preserve">
<path style="fill:#FFD93B;" d="M508.06,221.406C528.764,387.55,389.02,527.038,222.956,506.11
	C109.74,491.838,18.316,400.446,3.996,287.23C-17.044,120.91,122.988-19.042,289.34,2.126
	C402.588,16.542,493.932,108.11,508.06,221.406z"/>
<path style="fill:#F4C534;" d="M508.38,283.982c-13.264,116.032-107.136,209.664-223.2,222.592
	c-91.552,10.192-174.768-28.272-226.992-92.944c50.48,40.832,116.944,62.592,188.528,54.688
	c116.48-12.864,210.64-107.008,223.488-223.488c7.904-71.584-13.872-138.048-54.688-188.528
	C480.268,108.654,518.876,192.158,508.38,283.982z"/>
<path style="fill:#FFD93B;" d="M416.044,425.806c-5.936,47.584-45.392,86.192-88.128,86.192c-42.576,0-72.4-38.608-66.464-86.192
	c5.904-47.408,45.36-86.016,87.936-86.016C392.124,339.79,421.948,378.398,416.044,425.806z"/>
<g>
	<path style="fill:#3E4347;" d="M389.884,425.806c-3.936,31.52-29.968,57.024-58.336,57.024c-28.192,0-47.872-25.504-43.936-57.024
		c3.904-31.344,29.968-57.024,58.16-57.024C374.124,368.782,393.788,394.446,389.884,425.806z"/>
	<path style="fill:#3E4347;" d="M221.372,255.646c-17.76-5.44-37.76-8.48-59.04-8.48s-41.44,3.04-59.2,8.48
		c-6.88,2.08-12.48-5.44-8.64-11.52c14.24-22.24,39.36-36.96,67.84-36.96c28.32,0,53.44,14.72,67.68,36.96
		C233.852,250.206,228.252,257.726,221.372,255.646z"/>
	<path style="fill:#3E4347;" d="M408.86,255.646c-17.76-5.44-37.76-8.48-59.04-8.48s-41.44,3.04-59.2,8.48
		c-6.88,2.08-12.48-5.44-8.64-11.52c14.24-22.24,39.36-36.96,67.84-36.96c28.32,0,53.44,14.72,67.68,36.96
		C421.34,250.206,415.74,257.726,408.86,255.646z"/>
</g>
<g>
	<path style="fill:#65B1EF;" d="M432.284,87.662c0,16.48-13.28,29.76-29.76,29.76c-16.32,0-29.6-13.28-29.6-29.76
		s29.6-67.52,29.6-67.52S432.284,71.182,432.284,87.662z"/>
	<path style="fill:#65B1EF;" d="M500.604,179.39c0,21.328-17.2,38.528-38.528,38.528c-21.12,0-38.32-17.2-38.32-38.528
		c0-21.344,38.32-87.408,38.32-87.408S500.604,158.062,500.604,179.39z"/>
</g>
<g>
</g>
<g>
</g>
<g>
</g>
<g>
</g>
<g>
</g>
<g>
</g>
<g>
</g>
<g>
</g>
<g>
</g>
<g>
</g>
<g>
</g>
<g>
</g>
<g>
</g>
<g>
</g>
<g>
</g>
</svg>
