<?xml version="1.0" encoding="iso-8859-1"?>
<!-- Generator: Adobe Illustrator 19.0.0, SVG Export Plug-In . SVG Version: 6.00 Build 0)  -->
<svg version="1.1" id="Capa_1" xmlns="http://www.w3.org/2000/svg" xmlns:xlink="http://www.w3.org/1999/xlink" x="0px" y="0px"
	 viewBox="0 0 512.004 512.004" style="enable-background:new 0 0 512.004 512.004;" xml:space="preserve">
<circle style="fill:#FFD93B;" cx="256.008" cy="256.002" r="237.904"/>
<path style="fill:#F4C534;" d="M493.912,256.002c0,131.44-106.544,237.904-237.904,237.904c-74.8,0-141.552-34.496-185.2-88.544
	c40.816,33.008,92.784,52.72,149.36,52.72c131.376,0,237.904-106.464,237.904-237.904c0-56.576-19.696-108.544-52.72-149.36
	C459.336,114.45,493.912,181.202,493.912,256.002z"/>
<g>
	<circle style="fill:#FFFFFF;" cx="161.288" cy="231.538" r="72.256"/>
	<circle style="fill:#FFFFFF;" cx="350.744" cy="231.538" r="72.256"/>
</g>
<ellipse transform="matrix(-0.707 -0.7072 0.7072 -0.707 136.4398 549.5283)" style="fill:#3E4347;" cx="182.054" cy="246.501" rx="31.904" ry="31.888"/>
<path style="fill:#FFFFFF;" d="M198.504,256.162c-3.36,0-5.936-4.352-5.936-9.68c0-5.328,2.576-9.68,5.936-9.68
	c3.168,0,5.92,4.352,5.92,9.68C204.44,251.81,201.768,256.258,198.504,256.162z"/>
<ellipse transform="matrix(-0.7072 -0.707 0.707 -0.7072 389.0722 654.1697)" style="fill:#3E4347;" cx="329.992" cy="246.521" rx="31.904" ry="31.888"/>
<path style="fill:#FFFFFF;" d="M313.544,256.21c3.36,0,5.92-4.352,5.92-9.68c0-5.328-2.576-9.68-5.936-9.68
	c-3.168,0-5.92,4.352-5.92,9.68S310.28,256.306,313.544,256.21z"/>
<path style="fill:#FFD93B;" d="M503.32,349.554c-60.064,81.04-152.56,129.504-247.28,129.504
	c-94.864,0-187.344-48.464-247.28-129.504c-14.72-19.92-10.416-47.872,9.36-62.448s47.728-10.416,62.304,9.36
	c43.264,58.432,108.992,93.376,175.6,93.376s132.192-34.944,175.456-93.376c14.72-19.776,42.672-23.936,62.448-9.36
	C513.72,301.682,517.88,329.634,503.32,349.554z"/>
<g>
	<path style="fill:#3E4347;" d="M482.344,334.082c-55.168,74.496-139.776,118.96-226.304,118.96
		c-86.688,0-171.296-44.448-226.304-118.96c-6.24-8.32-4.464-19.92,3.872-26.016c8.176-6.096,19.92-4.304,26.016,3.872
		c48.032,65.12,121.488,103.936,196.416,103.936c74.784,0,148.24-38.8,196.416-103.936c6.096-8.336,17.696-10.112,26.016-3.872
		C486.664,314.162,488.44,325.762,482.344,334.082z"/>
	<path style="fill:#3E4347;" d="M399.256,125.538c-19.968-55.776-75.088-46.8-77.424-46.384c-6.064,1.072-11.856-2.976-12.912-9.04
		c-1.072-6.064,2.976-11.856,9.04-12.912c26.192-4.576,81.296,2.16,102.288,60.816c2.08,5.808-0.944,12.192-6.736,14.256
		C407.816,134.322,401.352,131.41,399.256,125.538z"/>
	<path style="fill:#3E4347;" d="M98.504,132.274c-5.792-2.08-8.816-8.448-6.736-14.256c20.992-58.656,76.128-65.488,102.288-60.816
		c6.064,1.056,10.128,6.832,9.04,12.912c-1.04,6.048-6.8,10-12.864,9.056l0,0c-2.384-0.4-57.648-9.072-77.472,46.368
		C110.664,131.41,104.2,134.322,98.504,132.274z"/>
</g>
<g>
</g>
<g>
</g>
<g>
</g>
<g>
</g>
<g>
</g>
<g>
</g>
<g>
</g>
<g>
</g>
<g>
</g>
<g>
</g>
<g>
</g>
<g>
</g>
<g>
</g>
<g>
</g>
<g>
</g>
</svg>
