<?xml version="1.0" encoding="iso-8859-1"?>
<!-- Generator: Adobe Illustrator 19.0.0, SVG Export Plug-In . SVG Version: 6.00 Build 0)  -->
<svg version="1.1" id="Capa_1" xmlns="http://www.w3.org/2000/svg" xmlns:xlink="http://www.w3.org/1999/xlink" x="0px" y="0px"
	 viewBox="0 0 512 512" style="enable-background:new 0 0 512 512;" xml:space="preserve">
<circle style="fill:#FFD93B;" cx="196.016" cy="256" r="196.016"/>
<path style="fill:#F4C534;" d="M392.032,256c0,108.304-87.776,196.016-196.016,196.016c-61.616,0-116.624-28.416-152.592-72.96
	c33.632,27.2,76.448,43.424,123.056,43.424c108.24,0,196.016-87.712,196.016-196.016c0-46.608-16.224-89.44-43.424-123.056
	C363.552,139.376,392.032,194.384,392.032,256z"/>
<g>
	<circle style="fill:#FFFFFF;" cx="117.952" cy="209.6" r="59.536"/>
	<circle style="fill:#FFFFFF;" cx="274.08" cy="209.6" r="59.536"/>
</g>
<g>
	<path style="fill:#3E4347;" d="M99.152,381.872c50.176,51.52,143.92,50.144,193.728,0c7.392-7.44,10.192-17.52,9.584-28.976
		c1.904-36.352-34.56-54.72-106.448-53.824c-71.872-0.944-108.336,17.456-106.448,53.824
		C88.976,364.352,91.84,374.352,99.152,381.872z"/>
	<circle style="fill:#3E4347;" cx="130.192" cy="209.6" r="26.272"/>
</g>
<ellipse transform="matrix(-0.7071 -0.7071 0.7071 -0.7071 97.2279 440.19)" style="fill:#FFFFFF;" cx="139.78" cy="199.958" rx="7.984" ry="4.88"/>
<circle style="fill:#3E4347;" cx="261.792" cy="209.6" r="26.272"/>
<g>
	
		<ellipse transform="matrix(-0.7071 -0.7071 0.7071 -0.7071 321.8199 533.3448)" style="fill:#FFFFFF;" cx="271.369" cy="200.021" rx="7.984" ry="4.88"/>
	<path style="fill:#FFFFFF;" d="M196.016,325.712c36.384,0,69.632-0.288,95.312-3.328c-15.664-15.984-47.648-23.904-95.312-23.312
		c-47.68-0.624-79.664,7.296-95.328,23.296C126.368,325.424,159.616,325.712,196.016,325.712z"/>
</g>
<g>
	<path style="fill:#3E4347;" d="M322.576,141.472c-0.128,4.304-5.664,6.224-8.64,3.088c-21.552-22.768-47.552-39.888-70.208-46.656
		c-4.56-1.328-4.688-7.776-0.16-9.568C279.728,74.16,324.224,103.104,322.576,141.472z"/>
	<path style="fill:#3E4347;" d="M69.456,141.472c0.128,4.304,5.664,6.224,8.64,3.088c21.568-22.768,47.552-39.888,70.208-46.656
		c4.56-1.328,4.688-7.776,0.16-9.568C112.304,74.16,67.808,103.104,69.456,141.472z"/>
</g>
<g>
	<path style="fill:#E24B4B;" d="M275.04,396.416c-2.24-3.984-4.704-7.808-7.504-11.376c-14.176-18.24-39.024-26.384-60.576-18.032
		c-7.248,2.848-15.504,4.4-24.848,4.4c-2.192,0-4.288-0.112-6.368-0.224c-23.056-1.952-45.76,7.456-58.288,25.808
		C163.296,428.032,229.552,427.184,275.04,396.416z"/>
	<path style="fill:#E24B4B;" d="M511.76,275.28c-3.6,41.072-47.136,70.976-97.376,66.56c-3.568-0.32-7.008-0.736-10.432-1.392
		L340.8,362.736c-4.832,1.744-9.552-3.36-7.328-8.08l18.656-40.352c-15.248-14.896-23.856-34.368-22.048-54.96
		c3.616-41.2,47.248-70.96,97.376-66.56C477.696,197.184,515.376,234.08,511.76,275.28z"/>
</g>
<path style="fill:#FFFFFF;" d="M466.208,257.488c-0.288,21.376-32.832,45.584-43.712,53.024c-1.952,1.376-4.8,1.376-6.768,0
	c-10.688-7.744-42.736-32.64-42.544-54.016c0.288-27.152,38.432-32.64,46.656-7.152c3.232-9.504,12.352-16.08,22.736-16.08
	C455.824,233.456,466.416,244.352,466.208,257.488z"/>
<g>
</g>
<g>
</g>
<g>
</g>
<g>
</g>
<g>
</g>
<g>
</g>
<g>
</g>
<g>
</g>
<g>
</g>
<g>
</g>
<g>
</g>
<g>
</g>
<g>
</g>
<g>
</g>
<g>
</g>
</svg>
