<?xml version="1.0" encoding="iso-8859-1"?>
<!-- Generator: Adobe Illustrator 19.0.0, SVG Export Plug-In . SVG Version: 6.00 Build 0)  -->
<svg version="1.1" id="Capa_1" xmlns="http://www.w3.org/2000/svg" xmlns:xlink="http://www.w3.org/1999/xlink" x="0px" y="0px"
	 viewBox="0 0 512 512" style="enable-background:new 0 0 512 512;" xml:space="preserve">
<circle style="fill:#FFD93B;" cx="256" cy="256" r="256"/>
<path style="fill:#F4C534;" d="M512,256c0,141.44-114.64,256-256,256c-80.48,0-152.32-37.12-199.28-95.28
	c43.92,35.52,99.84,56.72,160.72,56.72c141.36,0,256-114.56,256-256c0-60.88-21.2-116.8-56.72-160.72
	C474.8,103.68,512,175.52,512,256z"/>
<g>
	<path style="fill:#3E4347;" d="M288.096,418.128c0,17.76-14.4,32.16-32.16,32.16c-17.6,0-32-14.4-32-32.16c0-17.6,14.4-32,32-32
		C273.68,386.128,288.096,400.528,288.096,418.128z"/>
	<path style="fill:#3E4347;" d="M240.016,281.6c-19.472-16.048-48.272-26.048-80.368-26.048c-33.936,0-64.192,11.184-83.664,28.816
		c5.392-40.656,40.112-71.952,82.208-71.952C199.376,212.4,233.568,242.256,240.016,281.6z"/>
	<path style="fill:#3E4347;" d="M436.016,281.6c-19.472-16.048-48.272-26.048-80.384-26.048c-33.936,0-64.192,11.184-83.664,28.816
		c5.392-40.656,40.112-71.952,82.224-71.952C395.376,212.4,429.568,242.256,436.016,281.6z"/>
</g>
<g>
</g>
<g>
</g>
<g>
</g>
<g>
</g>
<g>
</g>
<g>
</g>
<g>
</g>
<g>
</g>
<g>
</g>
<g>
</g>
<g>
</g>
<g>
</g>
<g>
</g>
<g>
</g>
<g>
</g>
</svg>
