<?xml version="1.0" encoding="iso-8859-1"?>
<!-- Generator: Adobe Illustrator 19.0.0, SVG Export Plug-In . SVG Version: 6.00 Build 0)  -->
<svg version="1.1" id="Capa_1" xmlns="http://www.w3.org/2000/svg" xmlns:xlink="http://www.w3.org/1999/xlink" x="0px" y="0px"
	 viewBox="0 0 512 512" style="enable-background:new 0 0 512 512;" xml:space="preserve">
<circle style="fill:#FFD93B;" cx="256" cy="256" r="256"/>
<g>
	<path style="fill:#F4C534;" d="M512,256c0,141.44-114.64,256-256,256c-80.48,0-152.32-37.12-199.28-95.28
		c43.92,35.52,99.84,56.72,160.72,56.72c141.36,0,256-114.56,256-256c0-60.88-21.2-116.8-56.72-160.72
		C474.8,103.68,512,175.52,512,256z"/>
	<ellipse style="fill:#F4C534;" cx="151.552" cy="267.088" rx="78.656" ry="78.736"/>
</g>
<path style="fill:#FFFFFF;" d="M230.208,267.088c0,0-35.232,38.976-78.656,38.976s-78.656-38.976-78.656-38.976
	s35.232-38.912,78.656-38.912S230.208,267.088,230.208,267.088z"/>
<path style="fill:#3E4347;" d="M172.064,253.616c-17.824,0-32.256,14.432-32.256,32.256c0,7.568,2.704,14.432,7.072,19.936
	c1.552,0.112,3.088,0.256,4.672,0.256c20.192,0,38.56-8.432,52.496-17.456c0.08-0.912,0.272-1.792,0.272-2.736
	C204.32,268.032,189.888,253.616,172.064,253.616z"/>
<path style="fill:#FFFFFF;" d="M190.032,271.44c-1.136,1.968-5.232,1.968-9.2-0.288c-3.824-2.128-6.08-5.52-4.96-7.648
	c1.136-1.984,5.232-1.84,9.2,0.288C188.896,266.064,191.168,269.456,190.032,271.44z"/>
<path style="fill:#3E4347;" d="M92.032,160.416c0,0,62.336-30.944,140.144,26.528C232.176,186.944,166.736,82.176,92.032,160.416z"
	/>
<ellipse style="fill:#F4C534;" cx="358.496" cy="267.088" rx="78.656" ry="78.736"/>
<path style="fill:#FFFFFF;" d="M437.152,267.088c0,0-35.232,38.976-78.656,38.976c-43.44,0-78.656-38.976-78.656-38.976
	s35.232-38.912,78.656-38.912C401.92,228.176,437.152,267.088,437.152,267.088z"/>
<path style="fill:#3E4347;" d="M379.008,253.616c-17.824,0-32.256,14.432-32.256,32.256c0,7.568,2.72,14.432,7.072,19.936
	c1.552,0.112,3.088,0.256,4.672,0.256c20.192,0,38.56-8.432,52.496-17.456c0.08-0.912,0.272-1.792,0.272-2.736
	C411.264,268.032,396.832,253.616,379.008,253.616z"/>
<path style="fill:#FFFFFF;" d="M396.96,271.44c-1.136,1.968-5.232,1.968-9.2-0.288c-3.824-2.128-6.08-5.52-4.944-7.648
	c1.136-1.984,5.232-1.84,9.2,0.288C395.84,266.064,398.096,269.456,396.96,271.44z"/>
<g>
	<path style="fill:#3E4347;" d="M439.104,160.416c0,0-62.336-30.944-140.144,26.528C298.96,186.944,364.4,82.176,439.104,160.416z"
		/>
	<path style="fill:#3E4347;" d="M325.84,400c0,12.16-9.92,22.08-22.08,22.08h-95.68c-12.16,0-21.92-9.92-21.92-22.08
		c0-12.16,9.76-21.92,21.92-21.92h95.68C315.92,378.08,325.84,387.84,325.84,400z"/>
</g>
<g>
</g>
<g>
</g>
<g>
</g>
<g>
</g>
<g>
</g>
<g>
</g>
<g>
</g>
<g>
</g>
<g>
</g>
<g>
</g>
<g>
</g>
<g>
</g>
<g>
</g>
<g>
</g>
<g>
</g>
</svg>
