<?xml version="1.0" encoding="iso-8859-1"?>
<!-- Generator: Adobe Illustrator 19.0.0, SVG Export Plug-In . SVG Version: 6.00 Build 0)  -->
<svg version="1.1" id="Capa_1" xmlns="http://www.w3.org/2000/svg" xmlns:xlink="http://www.w3.org/1999/xlink" x="0px" y="0px"
	 viewBox="0 0 512.007 512.007" style="enable-background:new 0 0 512.007 512.007;" xml:space="preserve">
<circle style="fill:#FFD93B;" cx="256.004" cy="251.168" r="251.168"/>
<path style="fill:#F4C534;" d="M507.172,251.168c0,138.768-112.48,251.168-251.168,251.168c-78.96,0-149.456-36.416-195.52-93.488
	c43.088,34.848,97.952,55.648,157.696,55.648c138.688,0,251.184-112.4,251.184-251.168c0-59.728-20.8-114.592-55.648-157.696
	C470.676,101.728,507.172,172.208,507.172,251.168z"/>
<path style="fill:#E24B4B;" d="M324.644,511.984c-52.832,1.536-56.24-73.872-91.712-141.232l125.472-35.536
	C390.58,425.792,355.572,512.912,324.644,511.984z"/>
<g>
	<ellipse style="fill:#FFFFFF;" cx="139.524" cy="205.856" rx="83.12" ry="83.04"/>
	<ellipse style="fill:#FFFFFF;" cx="372.484" cy="205.856" rx="83.12" ry="83.04"/>
</g>
<g>
	<path style="fill:#3E4347;" d="M471.38,194.416c-5.168-46.544-43.472-83.728-90.128-87.712c-24.496-2.096-47.36,4.752-65.68,17.6
		c-17.488,12.272-38,18.976-59.376,19.024c-0.304,0-0.608,0-0.928,0.048c-21.168,0.464-41.728-7.168-59.12-19.28
		c-16.064-11.2-35.552-17.744-56.56-17.744c-54.368,0-98.72,43.68-99.632,97.744c-0.864,52.432,40.4,97.536,92.672,101.12
		c56.464,3.888,105.104-40.144,106.288-97.184c0.096-5.424,2.304-10.848,6.752-14.016c1.184-0.816,2.448-1.536,3.728-2.048
		c11.104-4.4,23.424,4.288,23.68,16.208c1.184,54.464,45.872,97.232,99.488,97.232C431.172,305.408,478.084,254.416,471.38,194.416z
		 M139.588,281.12c-41.536,0-75.344-33.808-75.344-75.28c0-41.488,33.808-75.184,75.344-75.184
		c41.424,0,75.136,33.696,75.136,75.184C214.724,247.312,181.012,281.12,139.588,281.12z M372.564,281.12
		c-41.536,0-75.344-33.808-75.344-75.28c0-41.488,33.808-75.184,75.344-75.184c41.424,0,75.136,33.696,75.136,75.184
		C447.7,247.312,413.988,281.12,372.564,281.12z"/>
	<path style="fill:#3E4347;" d="M180.548,235.136c0,16.096-13.04,29.136-29.264,29.136c-16.096,0-29.136-13.04-29.136-29.136
		c0-16.24,13.04-29.28,29.136-29.264C167.508,205.856,180.548,218.896,180.548,235.136z"/>
</g>
<path style="fill:#FFFFFF;" d="M168.996,230.944c-2.24,2.24-6.864,0.848-10.656-2.96c-3.792-3.648-5.056-8.4-2.944-10.512
	c2.24-2.24,6.864-0.832,10.656,2.8C169.844,224.064,171.092,228.832,168.996,230.944z"/>
<path style="fill:#3E4347;" d="M389.86,235.136c0,16.096-13.04,29.136-29.264,29.136c-16.096,0-29.136-13.04-29.136-29.136
	c0-16.24,13.04-29.28,29.136-29.264C376.82,205.856,389.86,218.896,389.86,235.136z"/>
<path style="fill:#FFFFFF;" d="M378.308,230.944c-2.24,2.24-6.88,0.848-10.656-2.96c-3.792-3.648-5.056-8.4-2.944-10.512
	c2.24-2.24,6.864-0.832,10.656,2.8C379.14,224.064,380.404,228.832,378.308,230.944z"/>
<path style="fill:#3E4347;" d="M403.924,336.624c-31.04,4.432-56.624,2.992-135.328,27.152
	c-50.736,14.976-113.184,43.712-128.88,50.384c22.592-19.568,68.848-47.888,124.176-65.296
	C310.356,334.672,355.956,327.776,403.924,336.624z"/>
<g>
</g>
<g>
</g>
<g>
</g>
<g>
</g>
<g>
</g>
<g>
</g>
<g>
</g>
<g>
</g>
<g>
</g>
<g>
</g>
<g>
</g>
<g>
</g>
<g>
</g>
<g>
</g>
<g>
</g>
</svg>
