<?xml version="1.0" encoding="iso-8859-1"?>
<!-- Generator: Adobe Illustrator 19.0.0, SVG Export Plug-In . SVG Version: 6.00 Build 0)  -->
<svg version="1.1" id="Capa_1" xmlns="http://www.w3.org/2000/svg" xmlns:xlink="http://www.w3.org/1999/xlink" x="0px" y="0px"
	 viewBox="0 0 512 512" style="enable-background:new 0 0 512 512;" xml:space="preserve">
<circle style="fill:#FFD93B;" cx="256" cy="256" r="256"/>
<path style="fill:#F4C534;" d="M512,256c0,141.44-114.64,256-256,256c-80.48,0-152.32-37.12-199.28-95.28
	c43.92,35.52,99.84,56.72,160.72,56.72c141.36,0,256-114.56,256-256c0-60.88-21.2-116.8-56.72-160.72
	C474.8,103.68,512,175.52,512,256z"/>
<path style="fill:#3E4347;" d="M391.808,375.088c-11.52,41.6-48.16,73.28-92.16,78.4c-29.12,3.36-58.24,3.36-87.52,0
	c-43.84-5.12-80.48-36.8-92-78.4c-1.44-5.28,2.88-10.24,8.16-9.28c85.12,14.08,170.24,14.08,255.36,0
	C388.928,364.848,393.248,369.808,391.808,375.088z"/>
<path style="fill:#FFFFFF;" d="M137.584,367.152c5.616,9.968,13.696,16.88,23.424,24.576c9.84,7.632,21.344,13.2,33.984,14.896
	c40.384,5.648,81.296,5.648,121.984,0c12.48-1.696,24-7.072,33.696-14.72c9.808-7.776,17.984-14.688,23.648-24.736
	C295.408,379.264,216.496,379.264,137.584,367.152z"/>
<path style="fill:#F4C534;" d="M313.936,214.784c0,75.136-61.28,136.416-136.608,136.416c-75.136,0-136.416-61.296-136.416-136.416
	c0-75.312,61.28-136.608,136.416-136.608C252.64,78.192,313.936,139.472,313.936,214.784z"/>
<path style="fill:#FFFFFF;" d="M282.464,214.768c0,57.856-47.04,104.896-105.056,104.896c-57.856,0-104.896-47.04-104.896-104.896
	c0-58.016,47.04-105.056,104.896-105.056C235.424,109.728,282.464,156.768,282.464,214.768z"/>
<path style="fill:#3E4347;" d="M237.952,214.784c0,33.232-27.136,60.368-60.544,60.368c-33.232,0-60.176-27.136-60.176-60.368
	c0-33.216,26.944-60.368,60.176-60.368C210.816,154.416,237.952,181.568,237.952,214.784z"/>
<path style="fill:#F4C534;" d="M471.088,218.448c0,49.808-40.56,90.368-90.544,90.368c-49.808,0-90.368-40.56-90.368-90.368
	s40.56-90.368,90.368-90.368C430.528,128.096,471.088,168.656,471.088,218.448z"/>
<circle style="fill:#FFFFFF;" cx="380.656" cy="218.48" r="64.16"/>
<path style="fill:#3E4347;" d="M422.432,218.448c0,22.944-18.848,41.616-41.808,41.616c-22.944,0-41.44-18.672-41.44-41.616
	s18.496-41.616,41.44-41.616C403.568,176.832,422.432,195.504,422.432,218.448z"/>
<g>
	<circle style="fill:#FFFFFF;" cx="365.504" cy="202.448" r="11.92"/>
	<path style="fill:#FFFFFF;" d="M171.872,191.52c0,9.056-7.2,16.24-16.24,16.24c-8.864,0-16.24-7.2-16.24-16.24
		c0-8.864,7.376-16.24,16.24-16.24C164.672,175.28,171.872,182.672,171.872,191.52z"/>
	<circle style="fill:#FFFFFF;" cx="380.672" cy="216.144" r="5.52"/>
	<circle style="fill:#FFFFFF;" cx="176.64" cy="211.104" r="9.232"/>
</g>
<g>
</g>
<g>
</g>
<g>
</g>
<g>
</g>
<g>
</g>
<g>
</g>
<g>
</g>
<g>
</g>
<g>
</g>
<g>
</g>
<g>
</g>
<g>
</g>
<g>
</g>
<g>
</g>
<g>
</g>
</svg>
