<?xml version="1.0" encoding="iso-8859-1"?>
<!-- Generator: Adobe Illustrator 19.0.0, SVG Export Plug-In . SVG Version: 6.00 Build 0)  -->
<svg version="1.1" id="Capa_1" xmlns="http://www.w3.org/2000/svg" xmlns:xlink="http://www.w3.org/1999/xlink" x="0px" y="0px"
	 viewBox="0 0 512 512" style="enable-background:new 0 0 512 512;" xml:space="preserve">
<circle style="fill:#FFD93B;" cx="256" cy="256" r="256"/>
<g>
	<path style="fill:#F4C534;" d="M512,256c0,141.44-114.64,256-256,256c-80.48,0-152.32-37.12-199.28-95.28
		c43.92,35.52,99.84,56.72,160.72,56.72c141.36,0,256-114.56,256-256c0-60.88-21.2-116.8-56.72-160.72
		C474.8,103.68,512,175.52,512,256z"/>
	<path style="fill:#F4C534;" d="M244.72,226.432c0,44.496-36.064,80.56-80.416,80.56c-44.496,0-80.544-36.048-80.544-80.56
		c0-44.368,36.064-80.416,80.544-80.416C208.656,146.016,244.72,182.064,244.72,226.432z"/>
</g>
<circle style="fill:#FFFFFF;" cx="164.256" cy="226.48" r="63.664"/>
<path style="fill:#3E4347;" d="M196.272,226.432c0,17.552-14.416,32.112-31.984,31.984c-17.552,0-31.968-14.432-31.968-31.984
	s14.416-31.984,31.968-31.984C181.856,194.448,196.272,208.88,196.272,226.432z"/>
<path style="fill:#F4C534;" d="M244.176,235.136c-4.224,40.416-38.512,71.856-79.872,71.856c-41.504,0-75.792-31.44-80-71.856
	C137.632,255.28,190.832,255.28,244.176,235.136z"/>
<ellipse transform="matrix(-0.7071 -0.7071 0.7071 -0.7071 148.6226 490.994)" style="fill:#FFFFFF;" cx="175.999" cy="214.716" rx="8.704" ry="5.984"/>
<path style="fill:#F4C534;" d="M267.28,226.432c0,44.496,36.064,80.56,80.416,80.56c44.496,0,80.56-36.048,80.56-80.56
	c0-44.368-36.064-80.416-80.56-80.416C303.344,146.016,267.28,182.064,267.28,226.432z"/>
<circle style="fill:#FFFFFF;" cx="347.744" cy="226.48" r="63.664"/>
<path style="fill:#3E4347;" d="M315.728,226.432c0,17.552,14.416,32.112,31.984,31.984c17.552,0,31.968-14.432,31.968-31.984
	s-14.416-31.984-31.968-31.984C330.144,194.448,315.728,208.88,315.728,226.432z"/>
<path style="fill:#F4C534;" d="M267.824,235.136c4.224,40.416,38.512,71.856,79.872,71.856c41.504,0,75.792-31.44,80.016-71.856
	C374.368,255.28,321.168,255.28,267.824,235.136z"/>
<ellipse transform="matrix(-0.7071 -0.7071 0.7071 -0.7071 421.6843 604.0718)" style="fill:#FFFFFF;" cx="335.95" cy="214.702" rx="5.984" ry="8.704"/>
<path style="fill:#3E4347;" d="M390.8,348.224c13.712,7.008-28.128,88.4-133.296,88.24c-105.168,0.144-147.008-81.232-133.296-88.24
	c11.184-8.736,60.336,33.856,133.296,31.936C330.464,382.048,379.616,339.52,390.8,348.224z"/>
<g>
	<path style="fill:#F4C534;" d="M391.472,387.648c6.288-11.76,15.76-34.096,7.472-44.608c-10.048-13.328-26.816-6.352-43.6-1.648
		c16.048-11.264,36.752-17.616,48.768-2.112C413.936,353.264,403.808,376,391.472,387.648z"/>
	<path style="fill:#F4C534;" d="M120.528,387.648c-6.288-11.76-15.76-34.096-7.456-44.608c10.048-13.328,26.816-6.352,43.6-1.648
		c-16.048-11.264-36.752-17.616-48.768-2.112C98.064,353.264,108.192,376,120.528,387.648z"/>
</g>
<g>
	<path style="fill:#3E4347;" d="M58.928,129.568c0,0,47.024-53.408,110-46.448C168.912,83.12,99.968,26.064,58.928,129.568z"/>
	<path style="fill:#3E4347;" d="M453.072,129.568c0,0-47.024-53.408-110-46.448C343.088,83.12,412.032,26.064,453.072,129.568z"/>
</g>
<g>
	<path style="fill:#FFFFFF;" d="M259.328,380.144l3.904,35.312c0.256,3.088,2.448,5.488,5.232,5.824
		c14.288,0.928,30.064-3.616,37.168-6c2.272-0.624,3.84-3.008,4.016-5.616l2.576-36.176
		C296.48,377.616,278.784,380.448,259.328,380.144z"/>
	<path style="fill:#FFFFFF;" d="M202.336,373.392l2.576,36.288c0.176,2.592,1.744,4.992,4.016,5.616
		c7.104,2.368,22.88,6.928,37.168,6c2.8-0.336,4.976-2.72,5.232-5.824l3.904-35.312C235.776,380.4,218.08,377.552,202.336,373.392z"
		/>
</g>
<g>
</g>
<g>
</g>
<g>
</g>
<g>
</g>
<g>
</g>
<g>
</g>
<g>
</g>
<g>
</g>
<g>
</g>
<g>
</g>
<g>
</g>
<g>
</g>
<g>
</g>
<g>
</g>
<g>
</g>
</svg>
