<?xml version="1.0" encoding="iso-8859-1"?>
<!-- Generator: Adobe Illustrator 19.0.0, SVG Export Plug-In . SVG Version: 6.00 Build 0)  -->
<svg version="1.1" id="Capa_1" xmlns="http://www.w3.org/2000/svg" xmlns:xlink="http://www.w3.org/1999/xlink" x="0px" y="0px"
	 viewBox="0 0 512 512" style="enable-background:new 0 0 512 512;" xml:space="preserve">
<circle style="fill:#FFD93B;" cx="256" cy="256" r="256"/>
<path style="fill:#F4C534;" d="M512,256c0,141.44-114.64,256-256,256c-80.48,0-152.32-37.12-199.28-95.28
	c43.92,35.52,99.84,56.72,160.72,56.72c141.36,0,256-114.56,256-256c0-60.88-21.2-116.8-56.72-160.72
	C474.8,103.68,512,175.52,512,256z"/>
<path style="fill:#3E4347;" d="M421.568,346.624c-24.912,60.864-89.68,104.256-165.616,104.256S115.424,407.488,90.336,346.624
	c-2.704-6.784,1.184-14.4,8.304-15.76c105.264-19.152,210.192-18.992,314.624,0C420.384,332.224,424.272,339.84,421.568,346.624z"/>
<path style="fill:#FFFFFF;" d="M104.928,329.856c38.544,56,74.288,48.944,150.64,53.84c73.728,4.72,115.792,11.68,150.704-53.952
	C306.24,312.368,205.744,312.256,104.928,329.856z"/>
<g>
	<path style="fill:#3E4347;" d="M226.192,200.288c-49.232-8.272-108.064,17.136-136.736,59.424c-4.288,6.352-14.336,3.536-14.928-4
		c-3.104-50.704,37.248-97.568,92.096-97.568c26.32,0,49.968,11.088,66.816,28.832C238.768,192.448,233.584,201.472,226.192,200.288
		z"/>
	<path style="fill:#3E4347;" d="M285.792,200.288c49.232-8.272,108.064,17.136,136.736,59.424c4.288,6.352,14.336,3.536,14.928-4
		c3.104-50.704-37.248-97.568-92.096-97.568c-26.304,0-49.968,11.088-66.816,28.832
		C273.232,192.448,278.416,201.472,285.792,200.288z"/>
</g>
<g>
</g>
<g>
</g>
<g>
</g>
<g>
</g>
<g>
</g>
<g>
</g>
<g>
</g>
<g>
</g>
<g>
</g>
<g>
</g>
<g>
</g>
<g>
</g>
<g>
</g>
<g>
</g>
<g>
</g>
</svg>
