<?xml version="1.0" encoding="iso-8859-1"?>
<!-- Generator: Adobe Illustrator 19.0.0, SVG Export Plug-In . SVG Version: 6.00 Build 0)  -->
<svg version="1.1" id="Capa_1" xmlns="http://www.w3.org/2000/svg" xmlns:xlink="http://www.w3.org/1999/xlink" x="0px" y="0px"
	 viewBox="0 0 512.006 512.006" style="enable-background:new 0 0 512.006 512.006;" xml:space="preserve">
<circle style="fill:#FFD93B;" cx="255.987" cy="241.6" r="241.6"/>
<path style="fill:#F4C534;" d="M497.619,241.632c0,133.504-108.208,241.632-241.632,241.632c-75.968,0-143.776-35.04-188.096-89.936
	c41.456,33.52,94.24,53.536,151.696,53.536c133.424,0,241.632-108.128,241.632-241.632c0-57.456-20.016-110.24-53.536-151.696
	C462.499,97.856,497.619,165.664,497.619,241.632z"/>
<g>
	<path style="fill:#3E4347;" d="M392.963,366.928c-9.488,6.384-59.248-45.616-131.456-43.344
		c-72.032-1.984-121.712,49.84-131.44,43.344c-13.456-4.272,32.4-98.64,131.28-98.544
		C360.403,268.368,406.163,362.864,392.963,366.928z"/>
	<path style="fill:#3E4347;" d="M225.155,201.792c-11.168-3.392-23.248-4.896-35.744-3.952c-24.4,1.856-45.712,12.4-60.896,27.936
		c-5.2,5.248-13.744,0.592-12.624-6.608c4.272-29.552,28.528-53.344,59.696-55.712c23.488-1.776,45.072,9.152,57.776,26.976
		C237.443,196.016,231.827,203.872,225.155,201.792z"/>
	<path style="fill:#3E4347;" d="M286.819,201.792c11.168-3.392,23.248-4.896,35.744-3.952c24.4,1.856,45.712,12.4,60.896,27.936
		c5.2,5.248,13.744,0.592,12.624-6.608c-4.272-29.552-28.528-53.344-59.696-55.712c-23.488-1.776-45.072,9.152-57.776,26.976
		C274.531,196.016,280.147,203.872,286.819,201.792z"/>
</g>
<path style="fill:#8CC63E;" d="M336.643,340v154.336c0,23.408-150.416,23.712-150.416,0V340.144
	C195.923,296.72,325.235,297.2,336.643,340z"/>
<g>
</g>
<g>
</g>
<g>
</g>
<g>
</g>
<g>
</g>
<g>
</g>
<g>
</g>
<g>
</g>
<g>
</g>
<g>
</g>
<g>
</g>
<g>
</g>
<g>
</g>
<g>
</g>
<g>
</g>
</svg>
