<?xml version="1.0" encoding="iso-8859-1"?>
<!-- Generator: Adobe Illustrator 19.0.0, SVG Export Plug-In . SVG Version: 6.00 Build 0)  -->
<svg version="1.1" id="Capa_1" xmlns="http://www.w3.org/2000/svg" xmlns:xlink="http://www.w3.org/1999/xlink" x="0px" y="0px"
	 viewBox="0 0 512 512" style="enable-background:new 0 0 512 512;" xml:space="preserve">
<circle style="fill:#FFD93B;" cx="256" cy="256" r="256"/>
<path style="fill:#F4C534;" d="M512,256c0,141.44-114.64,256-256,256c-80.48,0-152.32-37.12-199.28-95.28
	c43.92,35.52,99.84,56.72,160.72,56.72c141.36,0,256-114.56,256-256c0-60.88-21.2-116.8-56.72-160.72
	C474.8,103.68,512,175.52,512,256z"/>
<g>
	<path style="fill:#3E4347;" d="M387.712,149.952c-9.152-19.392-49.472-65.44-86.96-44.496
		C331.904,58.496,381.472,79.52,387.712,149.952z"/>
	<path style="fill:#3E4347;" d="M124.288,149.952c9.152-19.392,49.488-65.44,86.96-44.496
		C180.096,58.496,130.528,79.52,124.288,149.952z"/>
	<path style="fill:#3E4347;" d="M231.264,222.304c-8.16,26.72-37.44,49.76-73.76,41.12c-31.84-7.68-51.04-41.44-46.24-69.44
		c0.96-5.12,7.84-6.24,11.36-2.24c20.8,24.32,68.8,35.36,100.16,23.2C227.744,213.024,232.864,217.328,231.264,222.304z"/>
	<path style="fill:#3E4347;" d="M354.464,263.408c-36.32,8.64-65.6-14.4-73.76-41.12c-1.6-4.96,3.68-9.28,8.48-7.36
		c31.36,12.16,79.36,1.12,100.32-23.2c3.36-4,10.24-2.88,11.2,2.24C405.664,221.968,386.464,255.728,354.464,263.408z"/>
	<path style="fill:#3E4347;" d="M128.176,406.896c19.68-60.672,73.04-106.336,127.776-106.544
		c54.848,0.208,108.192,45.92,127.872,106.544c2.384,7.632-7.232,14.72-16.56,11.936c-77.504-23.392-145.152-23.296-222.656,0
		C135.408,421.6,125.792,414.592,128.176,406.896z"/>
</g>
<path style="fill:#FFFFFF;" d="M185.376,325.92c21.296,3.728,45.216,5.872,70.624,5.872c25.392,0,49.312-2.144,70.592-5.872
	c-21.264-15.952-45.776-25.472-70.656-25.568C231.12,300.448,206.608,309.952,185.376,325.92z"/>
<path style="fill:#E24B4B;" d="M304.4,364.928c-9.808-3.968-20.656-3.392-30.464,0.704c-9.216,3.728-19.84,5.952-31.872,5.952
	c-6.192,0-11.904-0.576-17.392-1.632c-16.224-3.152-33.616,0.928-44.72,13.184c-6.768,7.36-10.624,15.872-10.624,24.976
	c0,1.36,0.16,2.688,0.336,4.032c59.104-14.24,113.584-14.288,172.688,0.016c0.176-1.344,0.336-2.672,0.336-4.048
	C342.688,390.016,327.504,374.272,304.4,364.928z"/>
<g>
</g>
<g>
</g>
<g>
</g>
<g>
</g>
<g>
</g>
<g>
</g>
<g>
</g>
<g>
</g>
<g>
</g>
<g>
</g>
<g>
</g>
<g>
</g>
<g>
</g>
<g>
</g>
<g>
</g>
</svg>
