<?xml version="1.0" encoding="iso-8859-1"?>
<!-- Generator: Adobe Illustrator 19.0.0, SVG Export Plug-In . SVG Version: 6.00 Build 0)  -->
<svg version="1.1" id="Capa_1" xmlns="http://www.w3.org/2000/svg" xmlns:xlink="http://www.w3.org/1999/xlink" x="0px" y="0px"
	 viewBox="0 0 512.004 512.004" style="enable-background:new 0 0 512.004 512.004;" xml:space="preserve">
<circle style="fill:#FFD93B;" cx="256.002" cy="232.336" r="232.336"/>
<path style="fill:#F4C534;" d="M488.338,232.336c0,128.368-104.048,232.336-232.336,232.336c-73.04,0-138.24-33.696-180.864-86.48
	c39.856,32.24,90.608,51.472,145.856,51.472c128.288,0,232.336-103.968,232.336-232.336c0-55.248-19.232-106-51.472-145.856
	C454.578,94.096,488.338,159.296,488.338,232.336z"/>
<g>
	<path style="fill:#3E4347;" d="M208.578,198.352l-19.6,19.6l19.6,19.6c6.24,6.24,6.24,16.704,0,22.944l-0.144,0.144
		c-6.24,6.24-16.704,6.24-22.944,0l-19.6-19.6l-19.6,19.6c-6.24,6.24-16.704,6.24-22.944,0l-0.144-0.144
		c-6.24-6.24-6.24-16.704,0-22.944l19.6-19.6l-19.6-19.6c-6.24-6.24-6.24-16.704,0-23.088c6.368-6.352,17.312-6.048,23.088,0
		l19.6,19.6l19.6-19.6c6.24-6.24,16.704-6.24,22.944,0h0.144C214.818,181.664,214.818,192.112,208.578,198.352z"/>
	<path style="fill:#3E4347;" d="M388.818,260.512v0.144c-6.384,6.24-16.848,6.24-23.088,0l-19.6-19.6l-19.456,19.6
		c-6.384,6.24-16.848,6.24-23.088,0v-0.144c-6.384-6.24-6.384-16.704,0-22.944l19.456-19.6l-19.456-19.6
		c-6.384-6.24-6.384-16.704,0-23.088c6.432-6.416,17.088-6,23.088,0l19.456,19.6l19.6-19.6c6.24-6.24,16.704-6.24,23.088,0
		c6.224,6.528,6.176,16.912,0,23.088l-19.6,19.6l19.6,19.6C395.058,243.808,395.058,254.272,388.818,260.512z"/>
	<path style="fill:#3E4347;" d="M392.722,312.144c12.032,3.056-27.744,94.592-135.28,94.368
		c-107.568,0.416-147.424-91.168-135.168-94.368c8.464-5.552,54.912,52.112,135.28,52.112
		C337.986,364.272,384.482,306.768,392.722,312.144z"/>
</g>
<g>
	<path style="fill:#F4C534;" d="M375.89,294.064c0,0,41.616-3.84,38.016,27.552C413.906,321.616,431.506,273.488,375.89,294.064z"/>
	<path style="fill:#F4C534;" d="M136.114,294.064c0,0-41.616-3.84-38.016,27.552C98.098,321.616,80.498,273.488,136.114,294.064z"/>
</g>
<path style="fill:#3E4347;" d="M125.858,312.112h-3.632C123.09,311.536,124.258,311.68,125.858,312.112z"/>
<path style="fill:#E24B4B;" d="M257.41,512c-31.376,0.56-65.264-54.8-64.56-123.616c1.088-11.984,13.776-17.776,24.704-13.728
	c25.728,8.992,53.856,9.28,79.888,0.896c10.912-3.76,23.568,2.176,24.64,13.904C322.69,456.816,288.77,511.536,257.41,512z"/>
<g>
</g>
<g>
</g>
<g>
</g>
<g>
</g>
<g>
</g>
<g>
</g>
<g>
</g>
<g>
</g>
<g>
</g>
<g>
</g>
<g>
</g>
<g>
</g>
<g>
</g>
<g>
</g>
<g>
</g>
</svg>
