<?xml version="1.0" encoding="iso-8859-1"?>
<!-- Generator: Adobe Illustrator 19.0.0, SVG Export Plug-In . SVG Version: 6.00 Build 0)  -->
<svg version="1.1" id="Capa_1" xmlns="http://www.w3.org/2000/svg" xmlns:xlink="http://www.w3.org/1999/xlink" x="0px" y="0px"
	 viewBox="0 0 512 512" style="enable-background:new 0 0 512 512;" xml:space="preserve">
<circle style="fill:#FFD93B;" cx="256" cy="256" r="256"/>
<path style="fill:#F4C534;" d="M510.784,256c0,141.44-114.64,256-256,256c-80.48,0-152.32-37.12-199.28-95.28
	c43.92,35.52,99.84,56.72,160.72,56.72c141.36,0,256-114.56,256-256c0-60.88-21.2-116.8-56.72-160.72
	C473.584,103.68,510.784,175.52,510.784,256z"/>
<path style="fill:#3E4347;" d="M334.48,76.224c-87.36-51.84-151.68-4.32-156.96-0.32C256-34,334.48,76.224,334.48,76.224z"/>
<circle style="fill:#F4C534;" cx="256" cy="207.424" r="118.08"/>
<ellipse style="fill:#DE9C25;" cx="256" cy="207.424" rx="118.08" ry="86.592"/>
<path style="fill:#FFFFFF;" d="M374.032,207.424c0,24.64-52.8,44.64-118.08,44.64s-118.08-20-118.08-44.64
	c0-47.84,52.8-86.56,118.08-86.56S374.032,159.584,374.032,207.424z"/>
<path style="fill:#3E4347;" d="M293.92,249.664c-11.84,1.6-24.64,2.4-37.92,2.4s-26.08-0.8-37.92-2.4
	c-32.32-32.88-8.624-89.28,37.92-89.28C302.416,160.384,326.352,216.672,293.92,249.664z"/>
<ellipse transform="matrix(-0.7071 -0.7071 0.7071 -0.7071 335.269 524.4749)" style="fill:#FFFFFF;" cx="276.257" cy="192.801" rx="15.856" ry="8.8"/>
<path style="fill:#3E4347;" d="M384.592,355.232c15.744,8.864-22.048,91.184-128.592,91.232
	c-106.544-0.048-144.336-82.352-128.592-91.232c12.96-10.88,56.016,32.304,128.592,30.976
	C328.576,387.552,371.616,344.336,384.592,355.232z"/>
<g>
	<path style="fill:#FFFFFF;" d="M317.568,409.584c0.608,1.808,2.432,2.832,4.016,2.256l22.48-8.224
		c1.344-0.48,1.984-2.016,1.52-3.568l-7.36-31.296c-8.512,3.552-18.144,7.136-28.864,10.16L317.568,409.584z"/>
	<path style="fill:#FFFFFF;" d="M277.488,424.048c0.784,2.256,3.024,3.632,5.12,3.024l25.392-7.28
		c2.288-0.688,3.376-3.376,2.48-5.84l-3.776-34.256c-11.296,3.04-23.664,5.36-37.008,6.176L277.488,424.048z"/>
	<path style="fill:#FFFFFF;" d="M178.192,370.56l-6.944,30.496c-0.448,1.568,0.208,3.088,1.552,3.584l17.632,7.184
		c1.568,0.576,3.392-0.464,4-2.256l8.224-30.656C193.76,376.4,185.584,373.52,178.192,370.56z"/>
	<path style="fill:#FFFFFF;" d="M205.312,379.696l-3.776,34.256c-0.896,2.464,0.176,5.152,2.48,5.84l37.888,8.944
		c2.112,0.608,4.336-0.784,5.072-3.04l7.344-39.536C236.384,386.304,219.936,383.616,205.312,379.696z"/>
</g>
<g>
	<path style="fill:#F4C534;" d="M401.76,384.64c1.696-11.888,6.912-24.32,0.56-35.488c-3.472-7.68-11.552-12.624-17.984-14.08
		c-8.448-1.488-4.272-0.08-11.76-0.992c16.384-6.848,29.76-0.56,36.176,11.856C415.408,359.888,410.272,372.432,401.76,384.64z"/>
	<path style="fill:#F4C534;" d="M110.24,384.64c-1.696-11.888-6.912-24.32-0.56-35.488c3.472-7.68,11.536-12.624,17.984-14.08
		c8.448-1.488,4.272-0.08,11.76-0.992c-16.384-6.848-29.76-0.56-36.176,11.856C96.592,359.888,101.728,372.432,110.24,384.64z"/>
</g>
<g>
</g>
<g>
</g>
<g>
</g>
<g>
</g>
<g>
</g>
<g>
</g>
<g>
</g>
<g>
</g>
<g>
</g>
<g>
</g>
<g>
</g>
<g>
</g>
<g>
</g>
<g>
</g>
<g>
</g>
</svg>
