<?xml version="1.0" encoding="iso-8859-1"?>
<!-- Generator: Adobe Illustrator 19.0.0, SVG Export Plug-In . SVG Version: 6.00 Build 0)  -->
<svg version="1.1" id="Capa_1" xmlns="http://www.w3.org/2000/svg" xmlns:xlink="http://www.w3.org/1999/xlink" x="0px" y="0px"
	 viewBox="0 0 512 512" style="enable-background:new 0 0 512 512;" xml:space="preserve">
<circle style="fill:#FFD93B;" cx="256" cy="256" r="256"/>
<g>
	<path style="fill:#FFFFFF;" d="M473.216,254.992l-0.8,1.76c-3.52,8.64-12.96,14.56-23.68,14.56h-1.76l-136.16-13.76
		c-9.28-1.12-24.64-7.52-25.44-36.96c-0.64-29.12,15.04-87.52,41.44-91.84l104.64-13.76c0.48-0.16,1.92-0.16,2.88-0.16
		c9.28,0,17.92,5.12,22.72,13.28C481.696,169.552,487.616,217.072,473.216,254.992z"/>
	<path style="fill:#FFFFFF;" d="M205.52,145.072c14.4,21.12,25.6,60.8,18.24,92.64c-2.4,10.56-11.04,18.4-22.24,19.84l-135.68,13.76
		c-1.44,0-2.24,0.16-3.36,0.16c-10.4,0-19.84-6.4-23.36-15.84c-14.88-37.76-8.96-85.6,15.84-127.68c3.04-5.76,9.6-12.96,23.52-12.96
		l106.08,13.6C192.416,130.192,199.136,135.472,205.52,145.072z"/>
</g>
<path style="fill:#F4C534;" d="M512,256c0,141.44-114.64,256-256,256c-80.48,0-152.32-37.12-199.28-95.28
	c43.92,35.52,99.84,56.72,160.72,56.72c141.36,0,256-114.56,256-256c0-60.88-21.2-116.8-56.72-160.72
	C474.8,103.68,512,175.52,512,256z"/>
<g>
	<path style="fill:#3E4347;" d="M469.856,120.432c-8.32-14.24-24.16-22.4-40.48-20c-102.4,13.6-112,11.84-124,22.08
		c-28.8,24.96-73.44,21.76-98.56,0c-5.12-4.32-11.2-7.2-20.16-8.32l-104-13.76c-16.16-2.08-32.16,5.76-40.32,20
		c-27.36,46.08-33.44,98.72-16.64,141.12c6.88,17.28,25.76,26.56,41.28,24.32l135.84-13.92c16.32-1.6,30.56-12.64,34.88-28.64
		c2.72-10.56,3.84-21.92,3.2-33.76c-0.48-8.48,6.4-16.32,15.04-16.32h0.16c21.28,0,11.2,23.2,18.24,50.08
		c4.16,16,18.56,27.04,34.88,28.64c3.52,0.48,136.48,14.08,140,14.08c16.32,0,31.36-9.76,37.12-24.48
		C502.96,219.152,497.056,166.512,469.856,120.432z M215.936,235.952c-1.6,7.36-7.68,12.64-15.36,13.6l-135.52,13.76
		c-0.64,0-1.28,0.16-2.56,0.16c-6.88,0-13.44-4.32-15.84-10.72c-14.08-35.68-8.32-80.8,15.2-120.8c3.2-6.08,8.8-8.96,16.64-8.96
		l105.12,13.6c4.96,0.96,10.08,5.12,15.36,12.96C212.416,169.392,222.8,206.512,215.936,235.952z M465.696,252.112l-0.48,0.96
		c-2.56,6.24-9.12,10.24-16.48,10.24h-0.96l-136.16-13.76c-11.52-1.44-17.76-11.52-18.24-29.12c-0.64-29.44,15.36-80.64,34.72-83.84
		l104.32-13.6c0.64-0.16,1.28-0.16,1.92-0.16c6.4,0,12.48,3.52,15.84,9.28C473.52,171.632,479.28,216.576,465.696,252.112z"/>
	<circle style="fill:#3E4347;" cx="351.072" cy="203.712" r="35.376"/>
</g>
<path style="fill:#FFFFFF;" d="M342.224,198.272c-1.888,5.328-6.736,8.608-10.96,7.2c-4.384-1.408-6.416-6.896-4.544-12.368
	c1.728-5.328,6.576-8.608,10.8-7.2C341.904,187.312,343.936,192.8,342.224,198.272z"/>
<circle style="fill:#3E4347;" cx="161.12" cy="203.712" r="35.376"/>
<path style="fill:#FFFFFF;" d="M160.64,193.12c-1.728,5.328-6.576,8.608-10.96,7.2c-4.224-1.408-6.256-6.896-4.544-12.368
	c1.728-5.328,6.736-8.608,10.96-7.2S162.352,187.632,160.64,193.12z"/>
<path style="fill:#3E4347;" d="M389.248,353.952c-19.968,55.616-72.096,95.44-133.28,95.44c-61.008,0-113.136-39.824-133.28-95.44
	c-2.912-8,2.896-16.688,9.984-15.12c82.256,16.896,164.512,16.896,246.768,0C386.512,337.264,392.336,345.952,389.248,353.952z"/>
<g>
	<path style="fill:#FFFFFF;" d="M255.968,367.456c9.92,0,19.84-0.16,29.92-0.64l-1.28,28.48c-9.6,0.96-19.2,1.28-28.64,1.28
		c-21.6,0-43.2-2.08-64.96-6.08c-7.04-1.28-13.92-2.88-20.8-4.48c-4.8-1.12-9.44-2.4-14.24-3.84c-5.76-7.68-10.88-16.32-14.88-25.44
		c9.12,1.76,18.24,3.2,27.36,4.48c6.08,0.96,12.32,1.76,18.4,2.4C210.048,366.176,233.088,367.456,255.968,367.456z"/>
	<path style="fill:#FFFFFF;" d="M370.848,356.752c-4,9.28-9.12,17.76-15.04,25.6c-16.8,4.8-33.6,8.32-50.4,10.72l-1.28-27.52
		C326.528,363.776,348.768,360.912,370.848,356.752z"/>
</g>
<path style="fill:#E24B4B;" d="M255.952,449.392c19.184,0,37.472-3.92,54.176-11.008c-0.72-3.536-1.776-6.96-3.152-10.208
	c-6.688-15.872-24.672-24.704-41.184-19.808c-4.16,1.232-8.752,1.92-13.808,1.92c-1.728,0-3.392-0.08-5.008-0.24
	c-20.416-1.952-39.36,10-44.64,28.512C218.88,445.52,236.992,449.392,255.952,449.392z"/>
<g>
</g>
<g>
</g>
<g>
</g>
<g>
</g>
<g>
</g>
<g>
</g>
<g>
</g>
<g>
</g>
<g>
</g>
<g>
</g>
<g>
</g>
<g>
</g>
<g>
</g>
<g>
</g>
<g>
</g>
</svg>
