<?xml version="1.0" encoding="iso-8859-1"?>
<!-- Generator: Adobe Illustrator 19.0.0, SVG Export Plug-In . SVG Version: 6.00 Build 0)  -->
<svg version="1.1" id="Capa_1" xmlns="http://www.w3.org/2000/svg" xmlns:xlink="http://www.w3.org/1999/xlink" x="0px" y="0px"
	 viewBox="0 0 512 512" style="enable-background:new 0 0 512 512;" xml:space="preserve">
<circle style="fill:#FFD93B;" cx="256" cy="256" r="256"/>
<g>
	<path style="fill:#F4C534;" d="M512,256c0,141.44-114.64,256-256,256c-80.48,0-152.32-37.12-199.28-95.28
		c43.92,35.52,99.84,56.72,160.72,56.72c141.36,0,256-114.56,256-256c0-60.88-21.2-116.8-56.72-160.72
		C474.8,103.68,512,175.52,512,256z"/>
	<path style="fill:#F4C534;" d="M243.392,194.016c0,43.328-42.048,78.48-93.872,78.48s-93.872-35.152-93.872-78.48
		c0-43.472,42.048-78.608,93.872-78.608C201.36,115.408,243.392,150.544,243.392,194.016z"/>
</g>
<path style="fill:#FFFFFF;" d="M157.552,259.616c-43.328,0-82.16-29.376-86.496-65.6c-4.496-36.352,27.12-65.744,70.448-65.744
	s82,29.376,86.496,65.728C232.496,230.24,200.88,259.616,157.552,259.616z"/>
<path style="fill:#3E4347;" d="M210.976,199.024c-0.096,19.44-15.648,34.992-35.088,35.088
	c-19.248-0.096-34.816-15.648-34.912-35.088c0.096-19.248,15.648-34.816,34.896-34.912
	C195.328,164.208,210.88,179.776,210.976,199.024z"/>
<ellipse transform="matrix(-0.7071 -0.7071 0.7071 -0.7071 190.6826 451.4551)" style="fill:#5A5F63;" cx="188.841" cy="186.236" rx="9.952" ry="7.312"/>
<path style="fill:#F4C534;" d="M268.464,194.032c0,51.872,42.08,93.936,93.936,93.936c51.872,0,93.936-42.08,93.936-93.936
	c0-52.032-42.064-94.096-93.936-94.096C310.544,99.936,268.464,142,268.464,194.032z"/>
<path style="fill:#FFFFFF;" d="M354.384,272.56c43.36,0,82.224-35.168,86.56-78.528c4.496-43.52-27.136-78.688-70.496-78.688
	s-82.048,35.168-86.544,78.688C279.392,237.376,311.024,272.56,354.384,272.56z"/>
<path style="fill:#3E4347;" d="M389.936,192.336c-0.096,19.44-15.664,34.992-35.088,35.088
	c-19.248-0.096-34.816-15.648-34.896-35.088c0.096-19.248,15.648-34.816,34.896-34.912
	C374.272,157.52,389.84,173.088,389.936,192.336z"/>
<ellipse transform="matrix(-0.7071 -0.7071 0.7071 -0.7071 500.8984 566.5726)" style="fill:#5A5F63;" cx="367.79" cy="179.547" rx="9.968" ry="7.312"/>
<path style="fill:#3E4347;" d="M348.816,417.584c-5.552,3.472-12.784,2.768-17.84-2.272
	c-40.656-41.104-100.736-56.928-156.368-41.104c-14.048,4.064-25.136-13.92-13.696-24.4
	c64.112-58.032,167.072-32.128,194.176,50.944C357.232,407.312,354.656,414.016,348.816,417.584z"/>
<g>
</g>
<g>
</g>
<g>
</g>
<g>
</g>
<g>
</g>
<g>
</g>
<g>
</g>
<g>
</g>
<g>
</g>
<g>
</g>
<g>
</g>
<g>
</g>
<g>
</g>
<g>
</g>
<g>
</g>
</svg>
