<?xml version="1.0" encoding="iso-8859-1"?>
<!-- Generator: Adobe Illustrator 19.0.0, SVG Export Plug-In . SVG Version: 6.00 Build 0)  -->
<svg version="1.1" id="Capa_1" xmlns="http://www.w3.org/2000/svg" xmlns:xlink="http://www.w3.org/1999/xlink" x="0px" y="0px"
	 viewBox="0 0 512 512" style="enable-background:new 0 0 512 512;" xml:space="preserve">
<circle style="fill:#FFD93B;" cx="256" cy="256" r="256"/>
<path style="fill:#3E4347;" d="M440.672,296.592c-18.56,85.12-94.08,148.8-184.64,148.8s-166.24-63.68-184.8-148.8
	c-1.44-6.72,4.48-12.8,11.2-11.2c115.68,27.52,231.36,27.52,347.04,0C436.352,283.776,442.272,289.872,440.672,296.592z"/>
<path style="fill:#E24B4B;" d="M346.304,412.528c0.032-0.64,0.192-1.232,0.192-1.888c0-33.44-27.04-60.64-60.64-60.64
	c-16.48,0-31.36,6.56-42.08,17.12c-8.64-4.96-18.72-7.68-29.44-7.68c-30.8,0-56.032,23.168-59.856,53.072h191.824V412.528z"/>
<path style="fill:#F4C534;" d="M512,256c0,141.44-114.64,256-256,256c-80.48,0-152.32-37.12-199.28-95.28
	c43.92,35.52,99.84,56.72,160.72,56.72c141.36,0,256-114.56,256-256c0-60.88-21.2-116.8-56.72-160.72
	C474.8,103.68,512,175.52,512,256z"/>
<g>
	<path style="fill:#FFFFFF;" d="M94.128,287.744c28.256,41.664,89.296,54.784,161.872,54.784s133.616-13.12,161.872-54.784
		C309.952,311.632,202.048,311.632,94.128,287.744z"/>
	<path style="fill:#FFFFFF;" d="M115.104,382.032C149.712,420.8,199.92,445.328,256,445.328c56.448,0,106.928-24.848,141.568-64.048
		C302.56,408.448,206.128,409.84,115.104,382.032z"/>
</g>
<g style="opacity:0.2;">
	<path style="fill:#FFFFFF;" d="M315.072,375.312c-1.44,6.4-11.36,9.44-22.08,6.88c-10.56-2.56-18.08-9.76-16.48-16.16
		c1.44-6.4,11.36-9.44,22.08-6.88C309.152,361.712,316.672,368.912,315.072,375.312z"/>
</g>
<g>
	<path style="fill:#3E4347;" d="M419.376,187.904c-0.816,1.504-1.776,2.944-2.768,4.4c-8.864-21.056-33.136-39.088-61.92-51.936
		c-28.736-12.48-56.56-16.976-81.152-13.664c0.896-1.232,1.808-2.48,2.784-3.632c24.368-25.728,62.112-32.432,96.608-18.656
		C407.264,119.44,436.624,152.72,419.376,187.904z"/>
	<path style="fill:#3E4347;" d="M92.624,187.904c0.816,1.504,1.776,2.944,2.768,4.4c8.864-21.056,33.136-39.088,61.92-51.936
		c28.736-12.48,56.56-16.976,81.152-13.664c-0.896-1.232-1.808-2.48-2.784-3.632c-24.368-25.728-62.112-32.432-96.608-18.656
		C104.736,119.44,75.376,152.72,92.624,187.904z"/>
</g>
<g>
	<path style="fill:#38C0DC;" d="M498.768,251.184c-6.576-15.648-55.584-52.928-55.584-52.928s-7.664,61.104-1.088,76.752
		c6.576,15.648,24.592,23.008,40.24,16.432C498,284.864,505.344,266.848,498.768,251.184z"/>
	<path style="fill:#38C0DC;" d="M13.232,251.184c6.576-15.648,55.584-52.928,55.584-52.928s7.664,61.104,1.088,76.752
		c-6.576,15.648-24.592,23.008-40.24,16.432S6.656,266.848,13.232,251.184z"/>
</g>
<g>
</g>
<g>
</g>
<g>
</g>
<g>
</g>
<g>
</g>
<g>
</g>
<g>
</g>
<g>
</g>
<g>
</g>
<g>
</g>
<g>
</g>
<g>
</g>
<g>
</g>
<g>
</g>
<g>
</g>
</svg>
