<?xml version="1.0" encoding="iso-8859-1"?>
<!-- Generator: Adobe Illustrator 19.0.0, SVG Export Plug-In . SVG Version: 6.00 Build 0)  -->
<svg version="1.1" id="Capa_1" xmlns="http://www.w3.org/2000/svg" xmlns:xlink="http://www.w3.org/1999/xlink" x="0px" y="0px"
	 viewBox="0 0 511.998 511.998" style="enable-background:new 0 0 511.998 511.998;" xml:space="preserve">
<circle style="fill:#FFD93B;" cx="255.999" cy="224.64" r="224.64"/>
<path style="fill:#F4C534;" d="M480.623,224.624c0,124.096-100.592,224.624-224.624,224.624c-70.608,0-133.648-32.576-174.848-83.6
	c38.528,31.168,87.6,49.76,141.024,49.76c124.032,0,224.624-100.512,224.624-224.608c0-53.424-18.608-102.48-49.76-141.024
	C447.983,90.976,480.623,154,480.623,224.624z"/>
<path style="fill:#3E4347;" d="M391.823,319.84c-26.608,47.536-77.504,79.696-135.76,79.696c-58.384,0-109.28-32.16-135.888-79.696
	c-9.68-17.312,7.616-37.2,26.352-30.88c72.976,24.672,145.952,24.672,218.944,0C384.191,282.64,401.503,302.528,391.823,319.84z"/>
<g>
	<path style="fill:#FFFFFF;" d="M232.463,306.48c-1.856,8.608-4.096,23.392,1.552,27.904c8.08,6.464,106.16-6.864,123.92-18.976
		c10.064-6.864,8.72-17.744,5.664-25.888C319.887,304.048,276.175,309.648,232.463,306.48z"/>
	<path style="fill:#FFFFFF;" d="M198.095,333.584c2.784,0,10.288-16.16,12.72-29.52c-16.736-2.336-33.472-6-50.208-10.928
		c-2.304,8.752-5.728,23.008-4.912,27.936C156.911,328.336,194.463,333.584,198.095,333.584z"/>
</g>
<path style="fill:#E24B4B;" d="M332.815,479.264c-3.36,38.352-65.488,37.328-93.264,25.44c-42.88-18.48-57.712-64.4-64.88-110.176
	c-7.536-45.84,26.416-41.984,50.864-23.136c13.568-12.528,36.448-15.728,52.208-8.608c31.264,14.208,11.792,37.184,9.6,50.096
	C278.959,463.168,336.559,436.688,332.815,479.264z"/>
<g style="opacity:0.25;">
	
		<ellipse transform="matrix(-0.9869 -0.1615 0.1615 -0.9869 463.9088 786.2524)" style="fill:#FFFFFF;" cx="263.908" cy="374.273" rx="15.84" ry="7.44"/>
</g>
<path style="fill:#3E4347;" d="M188.143,197.472c0,16.992-13.76,30.608-30.752,30.608c-16.848,0-30.608-13.616-30.608-30.608
	s13.76-30.592,30.608-30.592C174.383,166.88,188.143,180.496,188.143,197.472z"/>
<ellipse transform="matrix(-0.7071 -0.7071 0.7071 -0.7071 158.5789 436.3176)" style="fill:#5A5F63;" cx="169.654" cy="185.316" rx="10.464" ry="6.384"/>
<circle style="fill:#F4C534;" cx="169.055" cy="186.496" r="72.768"/>
<path style="fill:#FFFFFF;" d="M226.431,186.544c-2.048,34.288-29.408,62.128-61.04,62.128c-31.792,0-55.808-27.84-53.76-62.128
	c2.064-34.448,29.424-62.304,61.216-62.304C204.479,124.256,228.495,152.096,226.431,186.544z"/>
<path style="fill:#3E4347;" d="M213.935,193.136c0,18.704-15.152,33.696-33.856,33.696c-18.544,0-33.696-14.992-33.696-33.696
	s15.152-33.696,33.696-33.696C198.783,159.44,213.935,174.432,213.935,193.136z"/>
<ellipse transform="matrix(-0.7071 -0.7071 0.7071 -0.7071 203.342 443.945)" style="fill:#5A5F63;" cx="193.615" cy="179.859" rx="11.52" ry="7.04"/>
<circle style="fill:#F4C534;" cx="342.943" cy="189.36" r="72.768"/>
<path style="fill:#FFFFFF;" d="M400.303,189.424c-2.048,34.288-29.408,62.128-61.04,62.128c-31.792,0-55.808-27.84-53.76-62.128
	c2.064-34.448,29.424-62.304,61.216-62.304C378.351,127.12,402.367,154.96,400.303,189.424z"/>
<path style="fill:#3E4347;" d="M367.487,175.232c0,18.704-15.152,33.696-33.856,33.696c-18.544,0-33.696-14.992-33.696-33.696
	s15.152-33.696,33.696-33.696C352.351,141.536,367.487,156.528,367.487,175.232z"/>
<ellipse transform="matrix(-0.7071 -0.7071 0.7071 -0.7071 478.2272 521.9852)" style="fill:#5A5F63;" cx="347.22" cy="161.949" rx="11.52" ry="7.04"/>
<g>
	<path style="fill:#3E4347;" d="M226.607,69.312C157.679,131.776,88.751,46.704,85.663,42.768
		C151.503,77.68,226.607,74.128,226.607,69.312z"/>
	<path style="fill:#3E4347;" d="M280.879,87.184c68.928-62.464,137.856,22.608,140.944,26.544
		C359.167,78.304,282.655,82.224,280.879,87.184z"/>
</g>
<path style="fill:#D03F3F;" d="M332.815,479.264c0.08-0.992-0.016-1.76,0-2.672c-1.744,5.856-5.472,11.216-10.432,14.88
	c-7.44,5.504-16.848,7.728-26.096,8.256c-29.68,1.68-58.448-13.28-79.504-34.272c-16.32-16.288-28.624-35.968-39.488-56.4
	c8.064,40.672,23.92,79.136,62.256,95.648C267.327,516.592,329.455,517.632,332.815,479.264z"/>
<g>
</g>
<g>
</g>
<g>
</g>
<g>
</g>
<g>
</g>
<g>
</g>
<g>
</g>
<g>
</g>
<g>
</g>
<g>
</g>
<g>
</g>
<g>
</g>
<g>
</g>
<g>
</g>
<g>
</g>
</svg>
