<?xml version="1.0" encoding="iso-8859-1"?>
<!-- Generator: Adobe Illustrator 19.0.0, SVG Export Plug-In . SVG Version: 6.00 Build 0)  -->
<svg version="1.1" id="Capa_1" xmlns="http://www.w3.org/2000/svg" xmlns:xlink="http://www.w3.org/1999/xlink" x="0px" y="0px"
	 viewBox="0 0 512 512" style="enable-background:new 0 0 512 512;" xml:space="preserve">
<circle style="fill:#FFD93B;" cx="256" cy="256" r="256"/>
<path style="fill:#F4C534;" d="M512,256c0,141.44-114.64,256-256,256c-80.48,0-152.32-37.12-199.28-95.28
	c43.92,35.52,99.84,56.72,160.72,56.72c141.36,0,256-114.56,256-256c0-60.88-21.2-116.8-56.72-160.72
	C474.8,103.68,512,175.52,512,256z"/>
<g>
	<path style="fill:#3E4347;" d="M445.744,124.688c0,0-64.784-53.92-149.504-34.576c12.16-18.08,50.496-36.128,77.536-32.256
		C417.04,64.048,445.744,124.688,445.744,124.688z"/>
	<path style="fill:#3E4347;" d="M143.76,320.08c0,0,93.92,78.176,216.752,50.128c-17.632,26.208-109.68,43.296-148.896,37.68
		C148.896,398.912,143.76,320.08,143.76,320.08z"/>
	<path style="fill:#3E4347;" d="M66.256,124.688c0,0,64.784-53.92,149.504-34.576c-12.16-18.08-50.496-36.128-77.536-32.256
		C94.96,64.048,66.256,124.688,66.256,124.688z"/>
</g>
<ellipse style="fill:#F4C534;" cx="352.32" cy="197.856" rx="80.976" ry="73.168"/>
<path style="fill:#FFFFFF;" d="M419.952,200.72c0,34.8-30.272,61.744-67.616,60.16c-37.344-1.584-67.616-31.072-67.616-65.888
	s30.272-61.744,67.616-60.16S419.952,165.904,419.952,200.72z"/>
<path style="fill:#3E4347;" d="M369.456,197.168c0.064,19.792-15.392,36.336-34.512,36.944s-34.672-14.944-34.736-34.736
	s15.392-36.336,34.512-36.944S369.392,177.376,369.456,197.168z"/>
<path style="fill:#5A5F63;" d="M356.96,191.456c-2.784,2.64-8.368,1.472-12.64-2.784c-4.112-4.112-5.44-9.84-2.64-12.496
	c2.64-2.784,8.384-1.472,12.496,2.64C358.432,183.072,359.616,188.656,356.96,191.456z"/>
<ellipse style="fill:#F4C534;" cx="163.808" cy="197.856" rx="80.976" ry="73.168"/>
<path style="fill:#FFFFFF;" d="M231.408,200.72c0,34.8-30.272,61.744-67.6,60.16c-37.344-1.584-67.616-31.072-67.616-65.888
	s30.272-61.744,67.616-60.16S231.408,165.904,231.408,200.72z"/>
<path style="fill:#3E4347;" d="M180.928,197.168c0.064,19.792-15.392,36.336-34.512,36.944s-34.672-14.944-34.736-34.736
	s15.392-36.336,34.512-36.944S180.864,177.376,180.928,197.168z"/>
<path style="fill:#5A5F63;" d="M168.432,191.456c-2.8,2.64-8.384,1.472-12.64-2.784c-4.112-4.112-5.44-9.84-2.64-12.496
	c2.64-2.784,8.384-1.472,12.496,2.64C169.904,183.072,171.072,188.656,168.432,191.456z"/>
<g>
</g>
<g>
</g>
<g>
</g>
<g>
</g>
<g>
</g>
<g>
</g>
<g>
</g>
<g>
</g>
<g>
</g>
<g>
</g>
<g>
</g>
<g>
</g>
<g>
</g>
<g>
</g>
<g>
</g>
</svg>
