<?xml version="1.0" encoding="iso-8859-1"?>
<!-- Generator: Adobe Illustrator 19.0.0, SVG Export Plug-In . SVG Version: 6.00 Build 0)  -->
<svg version="1.1" id="Capa_1" xmlns="http://www.w3.org/2000/svg" xmlns:xlink="http://www.w3.org/1999/xlink" x="0px" y="0px"
	 viewBox="0 0 512 512" style="enable-background:new 0 0 512 512;" xml:space="preserve">
<circle style="fill:#FFD93B;" cx="256" cy="256" r="256"/>
<path style="fill:#F4C534;" d="M512,256c0,141.44-114.64,256-256,256c-80.48,0-152.32-37.12-199.28-95.28
	c43.92,35.52,99.84,56.72,160.72,56.72c141.36,0,256-114.56,256-256c0-60.88-21.2-116.8-56.72-160.72
	C474.8,103.68,512,175.52,512,256z"/>
<path style="fill:#FFFFFF;" d="M246.064,220.08c0,53.84-37.44,97.44-83.6,97.44c-46.32,0-83.76-43.6-83.76-97.44
	s37.44-97.44,83.76-97.44C208.624,122.64,246.064,166.24,246.064,220.08z"/>
<ellipse style="fill:#3E4347;" cx="187.312" cy="217.2" rx="38.752" ry="42.864"/>
<path style="fill:#5A5F63;" d="M210.784,203.072c-2.272,3.552-7.904,4.208-12.48,1.232c-4.592-2.816-6.512-8.08-4.24-11.632
	c2.144-3.712,7.744-4.224,12.336-1.248C210.976,194.256,212.896,199.52,210.784,203.072z"/>
<path style="fill:#FFFFFF;" d="M270.704,220.08c0,53.84,37.44,97.44,83.6,97.44c46.32,0,83.76-43.6,83.76-97.44
	s-37.44-97.44-83.76-97.44C308.144,122.64,270.704,166.24,270.704,220.08z"/>
<ellipse style="fill:#3E4347;" cx="329.456" cy="217.2" rx="38.752" ry="42.864"/>
<path style="fill:#5A5F63;" d="M352.912,203.072c-2.272,3.552-7.904,4.208-12.48,1.232c-4.592-2.816-6.512-8.08-4.24-11.632
	c2.144-3.712,7.744-4.224,12.336-1.248C353.12,194.256,355.04,199.52,352.912,203.072z"/>
<path style="fill:#3E4347;" d="M335.28,389.36c-13.024-23.504-32.608-44.672-68.288-44.672s-77.264,21.168-90.288,44.672
	C216.24,362.704,269.088,362.704,335.28,389.36z"/>
<g>
</g>
<g>
</g>
<g>
</g>
<g>
</g>
<g>
</g>
<g>
</g>
<g>
</g>
<g>
</g>
<g>
</g>
<g>
</g>
<g>
</g>
<g>
</g>
<g>
</g>
<g>
</g>
<g>
</g>
</svg>
