<?xml version="1.0" encoding="iso-8859-1"?>
<!-- Generator: Adobe Illustrator 19.0.0, SVG Export Plug-In . SVG Version: 6.00 Build 0)  -->
<svg version="1.1" id="Capa_1" xmlns="http://www.w3.org/2000/svg" xmlns:xlink="http://www.w3.org/1999/xlink" x="0px" y="0px"
	 viewBox="0 0 512 512" style="enable-background:new 0 0 512 512;" xml:space="preserve">
<circle style="fill:#FFD93B;" cx="256" cy="256" r="256"/>
<path style="fill:#F4C534;" d="M512,256c0,141.44-114.64,256-256,256c-80.48,0-152.32-37.12-199.28-95.28
	c43.92,35.52,99.84,56.72,160.72,56.72c141.36,0,256-114.56,256-256c0-60.88-21.2-116.8-56.72-160.72
	C474.8,103.68,512,175.52,512,256z"/>
<g>
	<path style="fill:#3E4347;" d="M430.416,192.72c0,0-62.656-49.792-98.672-40.4c-16.288,4.144-29.168,19.456-37.984,45.376
		l-6.992,20.128C286.752,217.824,369.152,157.76,430.416,192.72z"/>
	<path style="fill:#3E4347;" d="M81.584,192.72c0,0,62.656-49.792,98.672-40.4c16.288,4.144,29.168,19.456,37.984,45.376
		l6.992,20.128C225.232,217.824,142.848,157.76,81.584,192.72z"/>
	<path style="fill:#3E4347;" d="M418.272,284.4c-4.928-2.368-55.264,84.144-162.272,81.568
		c-107.008,2.608-157.344-83.92-162.272-81.568C80.272,283.472,124.72,409.776,256,409.024
		C387.28,409.728,431.728,283.504,418.272,284.4z"/>
</g>
<g>
</g>
<g>
</g>
<g>
</g>
<g>
</g>
<g>
</g>
<g>
</g>
<g>
</g>
<g>
</g>
<g>
</g>
<g>
</g>
<g>
</g>
<g>
</g>
<g>
</g>
<g>
</g>
<g>
</g>
</svg>
