<?xml version="1.0" encoding="iso-8859-1"?>
<!-- Generator: Adobe Illustrator 19.0.0, SVG Export Plug-In . SVG Version: 6.00 Build 0)  -->
<svg version="1.1" id="Capa_1" xmlns="http://www.w3.org/2000/svg" xmlns:xlink="http://www.w3.org/1999/xlink" x="0px" y="0px"
	 viewBox="0 0 512.554 512.554" style="enable-background:new 0 0 512.554 512.554;" xml:space="preserve">
<circle style="fill:#FFD93B;" cx="256.277" cy="256.277" r="256"/>
<path style="fill:#F4C534;" d="M512.277,256.277c0,141.44-114.64,256-256,256c-80.48,0-152.32-37.12-199.28-95.28
	c43.92,35.52,99.84,56.72,160.72,56.72c141.36,0,256-114.56,256-256c0-60.88-21.2-116.8-56.72-160.72
	C475.077,103.957,512.277,175.797,512.277,256.277z"/>
<g>
	<path style="fill:#FFFFFF;" d="M190.261,279.141c-41.408,15.888-180.16,39.264-143.024-125.328
		c63.04-13.76,121.552-9.824,181.488,6.72C248.917,247.045,226.165,265.605,190.261,279.141z"/>
	<path style="fill:#FFFFFF;" d="M322.373,279.141c41.408,15.888,180.16,39.264,143.024-125.328
		c-63.04-13.76-121.552-9.824-181.472,6.72C263.717,247.045,286.453,265.605,322.373,279.141z"/>
</g>
<g>
	<path style="fill:#3E4347;" d="M503.349,146.469c-31.904-11.184-112.672-32.176-214.432-5.264c-5.52,1.888-9.024,4.72-11.312,9.024
		c-10.016,17.456-34.24,14.8-42.4,0c-2.416-4.304-5.92-7.136-11.568-9.024c-101.76-26.912-182.528-5.92-214.432,5.264
		c-7.136,2.688-11.04,10.368-8.352,17.488c2.416,7.136,10.368,11.04,17.504,8.352c3.632-1.216,9.152-2.96,15.616-4.72
		c-5.648,31.36-9.968,90.192,30.56,115.632c54.784,34.192,150.896,8.752,171.76-24.24c6.592-10.224,9.152-23.824,9.696-38.096
		c0-13.28,19.888-15.616,20.464-0.672c0.544,14.544,3.36,28.272,9.824,38.768c20.864,32.976,116.976,58.416,171.76,24.24
		c40.512-25.44,36.208-84.272,30.56-115.632c6.464,1.76,11.984,3.504,15.616,4.72c7.136,2.688,15.072-1.216,17.504-8.352
		C514.373,156.821,510.469,149.157,503.349,146.469z M219.189,248.229c-15.072,23.552-97.456,46.848-143.888,17.76
		c-33.792-21.392-24.624-80.496-19.52-103.648c37.696-7.536,96.24-12.24,164.352,6.336
		C224.853,190.885,230.373,230.325,219.189,248.229z M437.253,265.989c-46.432,29.072-128.816,5.792-143.888-17.76
		c-11.168-17.904-5.648-57.344-0.944-79.552c68.112-18.576,126.656-13.856,164.352-6.336
		C461.877,185.493,471.045,244.581,437.253,265.989z"/>
	<path style="fill:#3E4347;" d="M370.037,220.997c0,20.096-16.016,36.256-36.256,36.256c-19.952,0-36.4-16.16-36.256-36.256
		c0-19.952,16.304-36.256,36.256-36.256C353.877,184.597,370.037,201.045,370.037,220.997z"/>
</g>
<ellipse transform="matrix(-0.7071 -0.7071 0.7071 -0.7071 399.7921 580.1579)" style="fill:#FFFFFF;" cx="320.051" cy="207.279" rx="6.288" ry="10.624"/>
<path style="fill:#3E4347;" d="M215.029,220.997c0,20.096-16.016,36.256-36.256,36.256c-19.952,0-36.4-16.16-36.256-36.256
	c0-19.952,16.304-36.256,36.256-36.256C198.869,184.597,215.029,201.045,215.029,220.997z"/>
<ellipse transform="matrix(-0.7072 -0.707 0.707 -0.7072 135.2554 470.4459)" style="fill:#FFFFFF;" cx="165.041" cy="207.216" rx="6.288" ry="10.624"/>
<path style="fill:#3E4347;" d="M390.725,384.869c-29.024,39.2-78.24,65.008-134.496,65.008c-56.016,0-105.232-25.808-134.272-65.008
	c-8.848-11.68-0.688-29.216,13.376-29.216h241.776C391.189,355.637,399.349,373.173,390.725,384.869z"/>
<path style="fill:#FFFFFF;" d="M377.125,355.637H135.349c-1.568,0-3.04,0.288-4.448,0.688c14.544,28.48,65.12,32.272,125.376,32.272
	c60.384,0,110.864-3.792,125.376-32.256C380.229,355.925,378.725,355.637,377.125,355.637z"/>
<path style="fill:#E24B4B;" d="M256.229,449.877c24.704,0,47.92-5.216,68.8-14.128c-0.64-24.32-25.104-41.104-48.384-31.968
	c-26.832,10.848-37.904-2.496-53.92-2.496c-19.2,0-34.752,15.328-35.216,34.416C208.389,444.645,231.589,449.877,256.229,449.877z"
	/>
<g>
</g>
<g>
</g>
<g>
</g>
<g>
</g>
<g>
</g>
<g>
</g>
<g>
</g>
<g>
</g>
<g>
</g>
<g>
</g>
<g>
</g>
<g>
</g>
<g>
</g>
<g>
</g>
<g>
</g>
</svg>
