<?xml version="1.0" encoding="iso-8859-1"?>
<!-- Generator: Adobe Illustrator 19.0.0, SVG Export Plug-In . SVG Version: 6.00 Build 0)  -->
<svg version="1.1" id="Capa_1" xmlns="http://www.w3.org/2000/svg" xmlns:xlink="http://www.w3.org/1999/xlink" x="0px" y="0px"
	 viewBox="0 0 512 512" style="enable-background:new 0 0 512 512;" xml:space="preserve">
<circle style="fill:#FFD93B;" cx="256" cy="256" r="256"/>
<path style="fill:#F4C534;" d="M512,256c0,141.44-114.64,256-256,256c-80.48,0-152.32-37.12-199.28-95.28
	c43.92,35.52,99.84,56.72,160.72,56.72c141.36,0,256-114.56,256-256c0-60.88-21.2-116.8-56.72-160.72
	C474.8,103.68,512,175.52,512,256z"/>
<path style="fill:#FFFFFF;" d="M236.48,206.72c0,41.6-33.648,75.376-75.376,75.376c-41.6,0-75.376-33.792-75.376-75.376
	c0-41.728,33.792-75.52,75.376-75.52C202.832,131.2,236.48,164.992,236.48,206.72z"/>
<circle style="fill:#3E4347;" cx="161.12" cy="206.656" r="34.336"/>
<path style="fill:#FFFFFF;" d="M275.584,206.576c0-41.6,33.648-75.376,75.376-75.376c41.6,0,75.376,33.776,75.376,75.376
	c0,41.728-33.792,75.52-75.376,75.52C309.232,282.096,275.584,248.32,275.584,206.576z"/>
<g>
	<path style="fill:#3E4347;" d="M387.952,200.864c0.768,5.632-3.184,10.8-8.816,11.552c-4.048,1.312-10.608-2.272-11.552-8.672
		c-1.056-8.352-8.352-14.592-16.56-14.592c-8.512,0-15.504,6.08-16.72,14.592c-0.752,5.616-5.92,9.584-11.552,8.672
		c-5.616-0.752-9.568-5.92-8.816-11.552c2.576-18.384,18.544-32.208,37.072-32.208C369.408,168.672,385.36,182.496,387.952,200.864z
		"/>
	<path style="fill:#3E4347;" d="M473.712,195.248h-37.52c-5.616-42.096-41.68-74.688-85.232-74.688
		c-32.24,0-60.352,17.872-75.056,44.224c-4,7.152-11.536,11.328-19.728,11.264c-0.048,0-0.096,0-0.144,0c-0.08,0-0.144,0-0.208,0
		c-8.16,0.064-15.68-4.128-19.648-11.248c-14.72-26.368-42.816-44.256-75.056-44.256c-43.552,0-79.536,32.592-85.168,74.688H38.288
		v22.784h37.904c5.296,39.328,37.248,70.976,77.488,74.368c50.928,4.32,94.432-36.304,93.344-87.504
		c0.864-4.272,4.48-7.568,8.992-7.568c4.608,0,8.912,3.328,8.912,9.376c0,49.648,42.304,89.632,92.784,85.76
		c40.384-3.104,72.96-34.688,78.224-74.432h37.776L473.712,195.248L473.712,195.248z M161.104,271.44
		c-35.696,0-64.736-29.04-64.736-64.72c0-35.776,29.04-64.864,64.736-64.864s64.72,29.104,64.72,64.864
		C225.824,242.4,196.784,271.44,161.104,271.44z M350.96,271.44c-35.696,0-64.736-29.04-64.736-64.72
		c0-35.776,29.04-64.864,64.736-64.864s64.72,29.104,64.72,64.864C415.696,242.4,386.656,271.44,350.96,271.44z"/>
</g>
<ellipse transform="matrix(-0.7071 -0.7071 0.7071 -0.7071 160.1488 453.5703)" style="fill:#FFFFFF;" cx="174.012" cy="193.617" rx="9.504" ry="6.144"/>
<g>
	<path style="fill:#3E4347;" d="M406.336,76.688c-0.16,5.008-4.4,9.12-9.424,9.12c-0.16,0-0.304,0-0.304,0
		c-65.184-1.968-94.048,25.68-94.352,25.984c-3.968,3.968-9.936,3.728-13.376,0c-3.648-3.648-3.792-9.568-0.16-13.216
		c1.376-1.52,33.888-33.888,108.48-31.76C402.384,66.96,406.48,71.36,406.336,76.688z"/>
	<path style="fill:#3E4347;" d="M112.736,72.224c1.84,4.672,7.248,7.088,11.952,5.376c0.144-0.048,0.288-0.112,0.288-0.112
		c60.64-24,97.184-7.808,97.568-7.632c5.088,2.384,10.608,0.128,12.576-4.544c2.192-4.672,0.32-10.288-4.352-12.48
		c-1.808-0.96-43.376-20.352-112.816,7.008C113.152,61.744,110.784,67.28,112.736,72.224z"/>
	<path style="fill:#3E4347;" d="M397.344,316c-8,43.36-24.8,77.28-63.2,103.36c-13.44,8.96-28.32,15.68-44,19.84
		c-45.28,11.52-84.48,2.24-118.72-21.6c46.72,10.08,72,16.8,114.24,3.04c13.92-4.48,27.36-10.88,39.52-18.88
		C370.464,372.176,386.784,334.08,397.344,316z"/>
</g>
<g>
</g>
<g>
</g>
<g>
</g>
<g>
</g>
<g>
</g>
<g>
</g>
<g>
</g>
<g>
</g>
<g>
</g>
<g>
</g>
<g>
</g>
<g>
</g>
<g>
</g>
<g>
</g>
<g>
</g>
</svg>
