<?xml version="1.0" encoding="iso-8859-1"?>
<!-- Generator: Adobe Illustrator 19.0.0, SVG Export Plug-In . SVG Version: 6.00 Build 0)  -->
<svg version="1.1" id="Capa_1" xmlns="http://www.w3.org/2000/svg" xmlns:xlink="http://www.w3.org/1999/xlink" x="0px" y="0px"
	 viewBox="0 0 512 512" style="enable-background:new 0 0 512 512;" xml:space="preserve">
<circle style="fill:#FFD93B;" cx="256" cy="256" r="256"/>
<path style="fill:#F4C534;" d="M512,256c0,141.44-114.64,256-256,256c-80.48,0-152.32-37.12-199.28-95.28
	c43.92,35.52,99.84,56.72,160.72,56.72c141.36,0,256-114.56,256-256c0-60.88-21.2-116.8-56.72-160.72
	C474.8,103.68,512,175.52,512,256z"/>
<path style="fill:#3E4347;" d="M405.984,334.24c-2.288,16-27.376,84.72-108,112.48c-57.488,18.864-113.52,7.568-153.92-24.8
	c16,2.224,73.696,28.08,146.24,2.08C338.128,408.96,381.952,370.336,405.984,334.24z"/>
<path style="fill:#F4C534;" d="M233.12,207.856c0,42.24-34.24,76.48-76.48,76.48c-42.4,0-76.64-34.24-76.64-76.48
	s34.24-76.64,76.64-76.64C198.88,131.216,233.12,165.616,233.12,207.856z"/>
<circle style="fill:#FFFFFF;" cx="156.592" cy="207.808" r="59.136"/>
<path style="fill:#3E4347;" d="M187.04,207.856c0,16.96-13.6,30.4-30.4,30.4c-16.96,0-30.56-13.44-30.56-30.4
	c0-16.8,13.6-30.56,30.56-30.56C173.44,177.28,187.04,191.04,187.04,207.856z"/>
<path style="fill:#FFFFFF;" d="M174.88,201.76c-2.08,2.08-6.56,1.12-9.92-2.24c-3.52-3.52-4.64-8-2.56-10.08s6.56-1.12,10.08,2.4
	C175.84,195.36,176.96,199.68,174.88,201.76z"/>
<g>
	<path style="fill:#3E4347;" d="M371.76,233.456c-22.736-12.176-63.472-11.984-88.896-9.952c-7.056,0.672-10.736-7.968-5.648-13.056
		c39.728-33.84,95.2-42.832,139.568-30.992c-20.064,1.936-62.208,1.216-111.104,30.016
		C328.112,210.576,355.776,217.456,371.76,233.456z"/>
	<path style="fill:#3E4347;" d="M432,190.576c-4.096,1.168-70.672,11.456-91.808,12.864C362.816,192.48,408.272,184.144,432,190.576
		z"/>
</g>
<g>
</g>
<g>
</g>
<g>
</g>
<g>
</g>
<g>
</g>
<g>
</g>
<g>
</g>
<g>
</g>
<g>
</g>
<g>
</g>
<g>
</g>
<g>
</g>
<g>
</g>
<g>
</g>
<g>
</g>
</svg>
