<?xml version="1.0" encoding="iso-8859-1"?>
<!-- Generator: Adobe Illustrator 19.0.0, SVG Export Plug-In . SVG Version: 6.00 Build 0)  -->
<svg version="1.1" id="Capa_1" xmlns="http://www.w3.org/2000/svg" xmlns:xlink="http://www.w3.org/1999/xlink" x="0px" y="0px"
	 viewBox="0 0 511.968 511.968" style="enable-background:new 0 0 511.968 511.968;" xml:space="preserve">
<circle style="fill:#FFD93B;" cx="255.984" cy="246.672" r="246.672"/>
<path style="fill:#F4C534;" d="M502.656,246.672c0,136.288-110.464,246.672-246.672,246.672
	c-77.552,0-146.768-35.776-192.016-91.808c42.32,34.224,96.208,54.656,154.864,54.656c136.208,0,246.672-110.384,246.672-246.672
	c0-58.656-20.432-112.544-54.656-154.864C466.816,99.904,502.656,169.12,502.656,246.672z"/>
<g>
	<path style="fill:#FFFFFF;" d="M234.704,202.96c0,45.328-36.656,82.144-82.144,82.144c-45.328,0-82.144-36.816-82.144-82.144
		c0-45.472,36.816-82.288,82.144-82.288C198.048,120.672,234.704,157.472,234.704,202.96z"/>
	<path style="fill:#FFFFFF;" d="M441.6,202.96c0,45.328-36.656,82.144-82.128,82.144c-45.328,0-82.144-36.816-82.144-82.144
		c0-45.472,36.816-82.288,82.144-82.288C404.944,120.672,441.6,157.472,441.6,202.96z"/>
</g>
<g>
	<path style="fill:#3E4347;" d="M485.504,190.464h-33.168c-6.112-45.872-45.424-81.392-92.88-81.392
		c-35.12,0-65.76,19.472-81.792,48.176c-4.352,7.792-12.576,12.336-21.504,12.272c-0.048,0-0.112,0-0.16,0c-0.08,0-0.16,0-0.24,0
		c-8.88,0.064-17.088-4.496-21.408-12.256c-16.032-28.736-46.656-48.208-81.792-48.208c-47.456,0-86.672,35.52-92.8,81.392H26.464
		v24.832h33.584c5.76,42.848,40.592,77.328,84.432,81.04c55.504,4.704,102.912-39.552,101.712-95.36
		c0.944-4.672,4.88-8.24,9.808-8.24c5.024,0,9.712,3.632,9.712,10.224c0,54.096,46.096,97.664,101.104,93.44
		c44.016-3.376,79.488-37.792,85.232-81.104h33.456L485.504,190.464L485.504,190.464z M152.576,273.488
		c-38.896,0-70.544-31.648-70.544-70.528c0-38.976,31.648-70.688,70.544-70.688s70.528,31.712,70.528,70.688
		C223.104,241.84,191.472,273.488,152.576,273.488z M359.472,273.488c-38.896,0-70.544-31.648-70.544-70.528
		c0-38.976,31.648-70.688,70.544-70.688S430,163.984,430,202.96C430,241.84,398.352,273.488,359.472,273.488z"/>
	<path style="fill:#3E4347;" d="M370.176,189.68c0,17.264-13.904,31.488-31.376,31.488c-17.264,0-31.376-14.224-31.376-31.488
		c0-17.376,14.112-31.6,31.376-31.6C356.272,158.08,370.176,172.304,370.176,189.68z"/>
</g>
<ellipse transform="matrix(-0.7071 -0.7071 0.7071 -0.7071 470.5911 552.3497)" style="fill:#FFFFFF;" cx="349.691" cy="178.712" rx="10.352" ry="7.152"/>
<path style="fill:#3E4347;" d="M204.608,189.68c0,17.264-13.904,31.488-31.376,31.488c-17.264,0-31.376-14.224-31.376-31.488
	c0-17.376,14.112-31.6,31.376-31.6C190.704,158.08,204.608,172.304,204.608,189.68z"/>
<ellipse transform="matrix(-0.7071 -0.7071 0.7071 -0.7071 187.9574 435.2493)" style="fill:#FFFFFF;" cx="184.122" cy="178.697" rx="10.352" ry="7.152"/>
<g>
	<path style="fill:#3E4347;" d="M467.968,93.68c-6.688,4.032-14.304,1.792-17.76-3.808C396.8,8.16,313.024,48.496,309.504,50.256
		c-6.448,3.232-14.08,0.592-17.312-5.712c-3.072-6.448-0.592-14.096,5.872-17.312c1.024-0.448,107.984-52.08,173.568,48.56
		C475.584,81.792,473.824,89.712,467.968,93.68z"/>
	<path style="fill:#3E4347;" d="M44.016,93.68c6.688,4.016,14.288,1.792,17.744-3.824C115.168,8.144,198.944,48.48,202.464,50.24
		c6.448,3.232,14.08,0.592,17.312-5.712c3.088-6.448,0.592-14.096-5.872-17.312c-1.024-0.448-107.984-52.08-173.568,48.56
		C36.384,81.792,38.144,89.712,44.016,93.68z"/>
</g>
<ellipse style="fill:#FFD93B;" cx="255.984" cy="402.4" rx="89.232" ry="109.568"/>
<ellipse style="fill:#3E4347;" cx="255.984" cy="402.4" rx="69.632" ry="87.68"/>
<g>
</g>
<g>
</g>
<g>
</g>
<g>
</g>
<g>
</g>
<g>
</g>
<g>
</g>
<g>
</g>
<g>
</g>
<g>
</g>
<g>
</g>
<g>
</g>
<g>
</g>
<g>
</g>
<g>
</g>
</svg>
