<?xml version="1.0" encoding="iso-8859-1"?>
<!-- Generator: Adobe Illustrator 19.0.0, SVG Export Plug-In . SVG Version: 6.00 Build 0)  -->
<svg version="1.1" id="Capa_1" xmlns="http://www.w3.org/2000/svg" xmlns:xlink="http://www.w3.org/1999/xlink" x="0px" y="0px"
	 viewBox="0 0 512 512" style="enable-background:new 0 0 512 512;" xml:space="preserve">
<circle style="fill:#FFD93B;" cx="256" cy="256" r="256"/>
<path style="fill:#F4C534;" d="M512,256c0,141.44-114.64,256-256,256c-80.48,0-152.32-37.12-199.28-95.28
	c43.92,35.52,99.84,56.72,160.72,56.72c141.36,0,256-114.56,256-256c0-60.88-21.2-116.8-56.72-160.72
	C474.8,103.68,512,175.52,512,256z"/>
<g>
	<path style="fill:#3E4347;" d="M303.104,396.704c0,26.08-21.12,47.04-47.04,47.04c-26.08,0-47.04-20.96-47.04-47.04
		c0-25.92,20.96-47.04,47.04-47.04C281.984,349.664,303.104,370.784,303.104,396.704z"/>
	<path style="fill:#3E4347;" d="M203.744,218.56l-21.6,21.6l21.6,21.6c6.88,6.88,6.88,18.4,0,25.28l-0.16,0.16
		c-6.88,6.88-18.4,6.88-25.28,0l-21.6-21.6l-21.6,21.6c-6.88,6.88-18.4,6.88-25.28,0l-0.16-0.16c-6.88-6.88-6.88-18.4,0-25.28
		l21.6-21.6l-21.6-21.6c-6.88-6.88-6.88-18.4,0-25.44c7.008-6.992,19.072-6.656,25.44,0l21.6,21.6l21.6-21.6
		c6.88-6.88,18.4-6.88,25.28,0h0.16C210.624,200.16,210.624,211.68,203.744,218.56z"/>
	<path style="fill:#3E4347;" d="M402.336,287.04v0.16c-7.04,6.88-18.56,6.88-25.44,0l-21.6-21.6l-21.44,21.6
		c-7.04,6.88-18.56,6.88-25.44,0v-0.16c-7.04-6.88-7.04-18.4,0-25.28l21.44-21.6l-21.44-21.6c-7.04-6.88-7.04-18.4,0-25.44
		c7.072-7.072,18.816-6.608,25.44,0l21.44,21.6l21.6-21.6c6.88-6.88,18.4-6.88,25.44,0c6.864,7.2,6.8,18.64,0,25.44l-21.6,21.6
		l21.6,21.6C409.216,268.64,409.216,280.16,402.336,287.04z"/>
</g>
<g>
</g>
<g>
</g>
<g>
</g>
<g>
</g>
<g>
</g>
<g>
</g>
<g>
</g>
<g>
</g>
<g>
</g>
<g>
</g>
<g>
</g>
<g>
</g>
<g>
</g>
<g>
</g>
<g>
</g>
</svg>
