<?xml version="1.0" encoding="iso-8859-1"?>
<!-- Generator: Adobe Illustrator 19.0.0, SVG Export Plug-In . SVG Version: 6.00 Build 0)  -->
<svg version="1.1" id="Capa_1" xmlns="http://www.w3.org/2000/svg" xmlns:xlink="http://www.w3.org/1999/xlink" x="0px" y="0px"
	 viewBox="0 0 512 512" style="enable-background:new 0 0 512 512;" xml:space="preserve">
<circle style="fill:#FFD93B;" cx="256" cy="256" r="256"/>
<g>
	<path style="fill:#F4C534;" d="M512,256c0,141.44-114.64,256-256,256c-80.48,0-152.32-37.12-199.28-95.28
		c43.92,35.52,99.84,56.72,160.72,56.72c141.36,0,256-114.56,256-256c0-60.88-21.2-116.8-56.72-160.72
		C474.8,103.68,512,175.52,512,256z"/>
	<path style="fill:#F4C534;" d="M370.944,164.016c-25.392,27.216-56.976,48.496-92.24,61.376c-2.464,8.064-3.792,16.64-3.792,25.536
		c0,48.16,39.04,87.2,87.2,87.2c48.32,0,87.36-39.04,87.36-87.2C449.456,205.6,415.088,168.448,370.944,164.016z"/>
</g>
<path style="fill:#FFFFFF;" d="M371.36,184.624c-20.24,14.304-42.8,25.28-66.88,32.304c-5.872,10-9.472,21.52-9.472,34.016
	c0,37.104,29.984,67.104,67.104,67.104c37.264,0,67.248-29.984,67.248-67.104C429.344,216.864,404.16,189.152,371.36,184.624z"/>
<g>
	<path style="fill:#3E4347;" d="M424.112,170.832l-158.56,63.552c11.04-7.52,79.84-58.24,119.68-99.696L424.112,170.832z"/>
	<path style="fill:#3E4347;" d="M396.576,251.408c0,18.992-15.328,34.48-34.496,34.496c-18.992,0-34.32-15.488-34.32-34.48
		c0-19.168,15.328-34.496,34.32-34.496C381.248,216.928,396.576,232.256,396.576,251.408z"/>
</g>
<ellipse transform="matrix(-0.7071 -0.7071 0.7071 -0.7071 472.943 671.8936)" style="fill:#FFFFFF;" cx="375.625" cy="237.997" rx="9.6" ry="6"/>
<path style="fill:#F4C534;" d="M141.072,164.016c25.408,27.216,56.976,48.496,92.24,61.376c2.464,8.064,3.792,16.64,3.792,25.536
	c0,48.16-39.04,87.2-87.2,87.2c-48.32,0-87.36-39.04-87.36-87.2C62.544,205.6,96.912,168.448,141.072,164.016z"/>
<path style="fill:#FFFFFF;" d="M140.64,184.624c20.24,14.304,42.8,25.28,66.88,32.304c5.872,10,9.472,21.52,9.472,34.016
	c0,37.104-29.984,67.104-67.104,67.104c-37.264,0-67.248-29.984-67.248-67.104C82.656,216.864,107.84,189.152,140.64,184.624z"/>
<g>
	<path style="fill:#3E4347;" d="M87.904,170.832l158.56,63.552c-11.04-7.52-79.84-58.24-119.68-99.696L87.904,170.832z"/>
	<path style="fill:#3E4347;" d="M115.424,251.408c0,18.992,15.328,34.48,34.48,34.496c18.992,0,34.32-15.488,34.32-34.48
		c0-19.168-15.328-34.496-34.32-34.496C130.752,216.928,115.424,232.256,115.424,251.408z"/>
</g>
<ellipse transform="matrix(-0.7071 -0.7071 0.7071 -0.7071 64.5721 502.6307)" style="fill:#FFFFFF;" cx="136.384" cy="237.942" rx="6" ry="9.6"/>
<path style="fill:#3E4347;" d="M303.104,396.704c0,26.08-21.12,47.04-47.04,47.04c-26.08,0-47.04-20.96-47.04-47.04
	c0-25.92,20.96-47.04,47.04-47.04C281.984,349.664,303.104,370.784,303.104,396.704z"/>
<g>
</g>
<g>
</g>
<g>
</g>
<g>
</g>
<g>
</g>
<g>
</g>
<g>
</g>
<g>
</g>
<g>
</g>
<g>
</g>
<g>
</g>
<g>
</g>
<g>
</g>
<g>
</g>
<g>
</g>
</svg>
