<?xml version="1.0" encoding="iso-8859-1"?>
<!-- Generator: Adobe Illustrator 19.0.0, SVG Export Plug-In . SVG Version: 6.00 Build 0)  -->
<svg version="1.1" id="Capa_1" xmlns="http://www.w3.org/2000/svg" xmlns:xlink="http://www.w3.org/1999/xlink" x="0px" y="0px"
	 viewBox="0 0 512 512" style="enable-background:new 0 0 512 512;" xml:space="preserve">
<circle style="fill:#FFD93B;" cx="256" cy="256" r="256"/>
<g>
	<path style="fill:#F4C534;" d="M512,256c0,141.44-114.64,256-256,256c-80.48,0-152.32-37.12-199.28-95.28
		c43.92,35.52,99.84,56.72,160.72,56.72c141.36,0,256-114.56,256-256c0-60.88-21.2-116.8-56.72-160.72
		C474.8,103.68,512,175.52,512,256z"/>
	<path style="fill:#F4C534;" d="M376.016,120.416c-25.392,27.216-56.976,48.496-92.24,61.376c-2.448,8.064-3.792,16.64-3.792,25.536
		c0,48.16,39.04,87.2,87.2,87.2c48.32,0,87.36-39.04,87.36-87.2C454.528,162,420.16,124.832,376.016,120.416z"/>
</g>
<path style="fill:#FFFFFF;" d="M376.432,141.024c-20.24,14.304-42.8,25.28-66.88,32.304c-5.872,10-9.472,21.52-9.472,34.016
	c0,37.104,29.984,67.104,67.104,67.104c37.264,0,67.248-29.984,67.248-67.104C434.432,173.248,409.232,145.552,376.432,141.024z"/>
<g>
	<path style="fill:#3E4347;" d="M413.104,135.664L270.592,190.8c10.736-7.296,76.992-56.208,115.44-96.16
		c11.808-12.256,33.088-9.456,39.744,6.016c0.64,1.072,1.072,2.144,1.28,3.216C431.792,116.544,425.344,130.512,413.104,135.664z"/>
	<path style="fill:#3E4347;" d="M401.664,207.808c0,18.992-15.328,34.48-34.496,34.496c-18.992,0-34.32-15.488-34.32-34.48
		c0-19.152,15.328-34.496,34.32-34.496C386.336,173.328,401.664,188.656,401.664,207.808z"/>
</g>
<ellipse transform="matrix(-0.7071 -0.7071 0.7071 -0.7071 512.4669 601.0424)" style="fill:#FFFFFF;" cx="380.713" cy="194.386" rx="9.6" ry="6"/>
<path style="fill:#F4C534;" d="M135.984,120.416c25.392,27.216,56.976,48.496,92.24,61.376c2.464,8.064,3.792,16.64,3.792,25.536
	c0,48.16-39.04,87.2-87.2,87.2c-48.32,0-87.36-39.04-87.36-87.2C57.472,162,91.84,124.832,135.984,120.416z"/>
<path style="fill:#FFFFFF;" d="M135.568,141.024c20.24,14.304,42.8,25.28,66.88,32.304c5.872,10,9.472,21.52,9.472,34.016
	c0,37.104-29.984,67.104-67.104,67.104c-37.264,0-67.248-29.984-67.248-67.104C77.568,173.248,102.768,145.552,135.568,141.024z"/>
<g>
	<path style="fill:#3E4347;" d="M98.896,135.664L241.408,190.8c-10.736-7.296-76.992-56.208-115.44-96.16
		c-11.824-12.256-33.088-9.456-39.744,6c-0.64,1.072-1.072,2.144-1.28,3.216C80.208,116.544,86.656,130.512,98.896,135.664z"/>
	<path style="fill:#3E4347;" d="M110.352,207.808c0,18.992,15.328,34.48,34.48,34.496c18.992,0,34.32-15.488,34.32-34.48
		c0-19.152-15.328-34.496-34.32-34.496C125.68,173.328,110.352,188.656,110.352,207.808z"/>
</g>
<ellipse transform="matrix(-0.7071 -0.7071 0.7071 -0.7071 86.7128 424.634)" style="fill:#FFFFFF;" cx="131.301" cy="194.358" rx="6" ry="9.6"/>
<path style="fill:#3E4347;" d="M256.032,462.144C140.08,461.232,70.304,396.784,92.24,320.432c1.824-6.24,8.528-9.296,14.32-6.4
	c94.016,47.376,204.928,47.376,298.944,0c5.632-2.896,12.496,0.16,14.32,6.4C441.616,396.784,371.984,461.376,256.032,462.144z"/>
<path style="fill:#E24B4B;" d="M256.032,462.144c46.496-0.304,85.344-11.008,114.032-28.464
	c-16.448-39.648-84.144-55.296-125.008-22.512c-37.92-20.352-86.928-8.448-107.36,19.808
	C166.752,450.016,207.232,461.76,256.032,462.144z"/>
<g>
	<path style="fill:#FFFFFF;" d="M159.472,335.184l-9.36,40.464c-0.544,2.336,0.416,4.784,2.32,6.16
		c11.216,7.52,23.936,12.576,38.016,15.04c2.736,0.4,5.472-1.248,6.432-3.84l16.704-46.256
		C195.344,344.4,177.232,340.592,159.472,335.184z"/>
	<path style="fill:#FFFFFF;" d="M224.112,347.92v45.648c0,3.008,2.32,5.616,5.472,5.744c21.616,0.96,43.216-0.416,64.832-4.512
		c3.008-0.544,5.056-3.408,4.656-6.432l-5.776-40.912C270.304,350.048,247.12,350.128,224.112,347.92z"/>
</g>
<g>
</g>
<g>
</g>
<g>
</g>
<g>
</g>
<g>
</g>
<g>
</g>
<g>
</g>
<g>
</g>
<g>
</g>
<g>
</g>
<g>
</g>
<g>
</g>
<g>
</g>
<g>
</g>
<g>
</g>
</svg>
