<?xml version="1.0" encoding="iso-8859-1"?>
<!-- Generator: Adobe Illustrator 19.0.0, SVG Export Plug-In . SVG Version: 6.00 Build 0)  -->
<svg version="1.1" id="Capa_1" xmlns="http://www.w3.org/2000/svg" xmlns:xlink="http://www.w3.org/1999/xlink" x="0px" y="0px"
	 viewBox="0 0 512 512" style="enable-background:new 0 0 512 512;" xml:space="preserve">
<g>
	<path style="fill:#F4C534;" d="M182.688,81.104C144.272,32.384,80.192-17.136,45.168,5.76
		C15.152,25.392,34.752,127.216,68.512,181.328C93.328,135.888,134.176,99.872,182.688,81.104z"/>
	<path style="fill:#F4C534;" d="M445.024,178.752c32.8-54.704,51.36-153.664,21.808-172.992
		C432.032-16.992,368.496,31.776,330,80.192C378.704,98.336,419.76,133.728,445.024,178.752z"/>
</g>
<circle style="fill:#FFD93B;" cx="256" cy="275.264" r="236.736"/>
<path style="fill:#F4C534;" d="M492.736,275.264C492.736,406.064,386.72,512,256,512c-74.416,0-140.864-34.336-184.288-88.112
	c40.608,32.848,92.32,52.448,148.624,52.448c130.72,0,236.736-105.936,236.736-236.736c0-56.304-19.6-108.016-52.448-148.624
	C458.336,134.4,492.736,200.832,492.736,275.264z"/>
<g>
	<path style="fill:#3E4347;" d="M341.488,385.328c-4.608-1.68-9.68,0.784-11.296,5.408c-4.752,13.488-17.456,22.544-31.648,22.544
		c-18.56,0-33.664-15.104-33.664-33.664c0-5.936,1.632-11.6,4.544-16.576h-19.408c-1.824,5.264-2.864,10.816-2.864,16.576
		c0,28.336,23.056,51.392,51.408,51.392c21.696,0,41.136-13.824,48.368-34.384C348.528,392.016,346.112,386.944,341.488,385.328z"/>
	<path style="fill:#3E4347;" d="M242.592,363.056c2.896,4.976,4.528,10.624,4.528,16.576c0,18.56-15.088,33.664-33.648,33.664
		c-14.192,0-26.912-9.056-31.664-22.544c-1.632-4.624-6.72-7.088-11.312-5.408c-4.624,1.616-7.04,6.688-5.424,11.312
		c7.232,20.56,26.672,34.384,48.384,34.384c28.336,0,51.392-23.056,51.392-51.392c0-5.744-1.056-11.312-2.864-16.576h-19.392
		V363.056z"/>
</g>
<path style="fill:#7A5B44;" d="M306.944,346.88c-5.36,14.88-19.584,27.632-31.648,36.208c-5.632,4.016-12.336,6.304-19.312,6.304
	s-13.68-2.272-19.44-6.304c-11.936-8.592-26.144-21.328-31.376-36.08c-1.872-4.96,0.544-10.736,4.832-12.48
	c31.12-13.008,61.824-12.88,92.128,0C306.4,336.288,308.688,342.048,306.944,346.88z"/>
<g>
	<path style="fill:#F4C534;" d="M329.344,362.576c0,0,13.648-14.448,31.504-4.352c10.56,7.696,10.928,20.912,7.024,31.168
		c-2.688-9.056-2.592-19.968-11.104-25.008C348.448,359.536,334.976,359.744,329.344,362.576z"/>
	<path style="fill:#F4C534;" d="M182.688,362.576c-5.696-2.848-19.04-3.072-27.424,1.808c-8.352,4.944-8.576,16.496-11.104,25.008
		c-4.16-10.88-2.96-23.888,7.024-31.168C169.056,348.128,182.64,362.608,182.688,362.576z"/>
</g>
<g>
	<path style="fill:#3E4347;" d="M382.624,263.392c-0.16,4.496-5.136,7.072-8.832,4.496c-20.56-14.624-70.192-14.624-90.752,0
		c-3.696,2.56-8.672,0-8.832-4.496c-0.8-38.72,23.616-70.832,54.128-70.832C359.008,192.544,383.424,224.672,382.624,263.392z"/>
	<path style="fill:#3E4347;" d="M217.664,279.456c-14.784-9.792-34.048-15.568-55.088-15.568c-16.704,0-32.288,3.696-45.456,10.272
		c-5.776,2.896-11.888-2.88-9.312-8.672c10.272-23.28,32.608-39.52,58.464-39.52c28.432,0,52.368,19.12,61.2,45.776
		C229.552,277.68,222.96,282.832,217.664,279.456z"/>
	<path style="fill:#3E4347;" d="M293.904,142.176c0,0,76.64,0.672,110.768,59.392C404.672,201.568,399.312,93.984,293.904,142.176z"
		/>
	<path style="fill:#3E4347;" d="M117.008,198.32c0,0,75.44-13.504,119.824,37.92C236.832,236.24,211.712,131.488,117.008,198.32z"/>
</g>
<g>
</g>
<g>
</g>
<g>
</g>
<g>
</g>
<g>
</g>
<g>
</g>
<g>
</g>
<g>
</g>
<g>
</g>
<g>
</g>
<g>
</g>
<g>
</g>
<g>
</g>
<g>
</g>
<g>
</g>
</svg>
