<?xml version="1.0" encoding="iso-8859-1"?>
<!-- Generator: Adobe Illustrator 19.0.0, SVG Export Plug-In . SVG Version: 6.00 Build 0)  -->
<svg version="1.1" id="Capa_1" xmlns="http://www.w3.org/2000/svg" xmlns:xlink="http://www.w3.org/1999/xlink" x="0px" y="0px"
	 viewBox="0 0 512 512" style="enable-background:new 0 0 512 512;" xml:space="preserve">
<circle style="fill:#FFD93B;" cx="256" cy="256" r="256"/>
<g>
	<path style="fill:#F4C534;" d="M510.784,256c0,141.44-114.64,256-256,256c-80.48,0-152.32-37.12-199.28-95.28
		c43.92,35.52,99.84,56.72,160.72,56.72c141.36,0,256-114.56,256-256c0-60.88-21.2-116.8-56.72-160.72
		C473.584,103.68,510.784,175.52,510.784,256z"/>
	<path style="fill:#F4C534;" d="M246.144,265.68c0,44.784-36.256,81.184-81.024,81.184c-44.928,0-81.168-36.4-81.168-81.184
		c0-44.928,36.24-81.184,81.168-81.184C209.904,184.496,246.144,220.752,246.144,265.68z"/>
</g>
<ellipse style="fill:#FFFFFF;" cx="165.088" cy="265.68" rx="66.016" ry="66.08"/>
<path style="fill:#3E4347;" d="M133.632,265.664c0,17.36,13.92,31.456,31.28,31.456c17.536,0,31.44-14.08,31.44-31.456
	c0-17.36-13.92-31.456-31.44-31.456C147.552,234.208,133.632,248.304,133.632,265.664z"/>
<path style="fill:#FFFFFF;" d="M147.504,261.216c2.336,2.336,6.992,1.264,10.576-2.336c3.584-3.584,4.656-8.416,2.336-10.576
	c-2.144-2.32-6.816-1.248-10.4,2.336C146.416,254.24,145.344,258.896,147.504,261.216z"/>
<path style="fill:#3E4347;" d="M97.056,168.928c-1.776-3.904,132.432,3.008,124.928-61.04L97.056,168.928z"/>
<path style="fill:#F4C534;" d="M265.856,265.68c0,44.784,36.24,81.184,81.024,81.184c44.928,0,81.184-36.4,81.184-81.184
	c0-44.928-36.256-81.184-81.184-81.184C302.096,184.496,265.856,220.752,265.856,265.68z"/>
<ellipse style="fill:#FFFFFF;" cx="346.912" cy="265.68" rx="66.016" ry="66.08"/>
<path style="fill:#3E4347;" d="M315.648,265.664c0,17.36,13.92,31.456,31.28,31.456c17.536,0,31.456-14.08,31.456-31.456
	c0-17.36-13.92-31.456-31.456-31.456C329.568,234.208,315.648,248.304,315.648,265.664z"/>
<path style="fill:#FFFFFF;" d="M329.52,261.216c2.336,2.336,6.992,1.264,10.576-2.336c3.584-3.584,4.656-8.416,2.336-10.576
	c-2.144-2.32-6.816-1.248-10.4,2.336C328.432,254.24,327.36,258.896,329.52,261.216z"/>
<g>
	<path style="fill:#3E4347;" d="M414.944,168.928c1.776-3.904-132.432,3.008-124.928-61.04L414.944,168.928z"/>
	<path style="fill:#3E4347;" d="M396.736,368.672c13.52,6.096-39.072,81.008-140.736,80.928
		c-101.664,0.08-154.256-74.832-140.736-80.928c10.528-8.016,66.16,38.72,140.736,38.72
		C330.72,407.408,386.208,360.72,396.736,368.672z"/>
</g>
<g>
</g>
<g>
</g>
<g>
</g>
<g>
</g>
<g>
</g>
<g>
</g>
<g>
</g>
<g>
</g>
<g>
</g>
<g>
</g>
<g>
</g>
<g>
</g>
<g>
</g>
<g>
</g>
<g>
</g>
</svg>
