<?xml version="1.0" encoding="iso-8859-1"?>
<!-- Generator: Adobe Illustrator 19.0.0, SVG Export Plug-In . SVG Version: 6.00 Build 0)  -->
<svg version="1.1" id="Capa_1" xmlns="http://www.w3.org/2000/svg" xmlns:xlink="http://www.w3.org/1999/xlink" x="0px" y="0px"
	 viewBox="0 0 512 512" style="enable-background:new 0 0 512 512;" xml:space="preserve">
<circle style="fill:#FFD93B;" cx="256" cy="256" r="256"/>
<path style="fill:#F4C534;" d="M510.784,256c0,141.44-114.64,256-256,256c-80.48,0-152.32-37.12-199.28-95.28
	c43.92,35.52,99.84,56.72,160.72,56.72c141.36,0,256-114.56,256-256c0-60.88-21.2-116.8-56.72-160.72
	C473.584,103.68,510.784,175.52,510.784,256z"/>
<path style="fill:#3E4347;" d="M416.672,251.136c-52.864-5.52-80.512-11.184-126-24.944c29.696-19.344,88.704-33.264,88.704-33.264
	s-32.928,18.608-41.2,29.104L416.672,251.136z"/>
<path style="fill:#F4C534;" d="M232.624,239.728c0,47.04-38.08,85.28-85.12,85.28c-47.2,0-85.28-38.24-85.28-85.28
	c0-47.2,38.08-85.28,85.28-85.28C194.544,154.448,232.624,192.544,232.624,239.728z"/>
<ellipse style="fill:#FFFFFF;" cx="147.456" cy="239.728" rx="66.016" ry="66.08"/>
<path style="fill:#3E4347;" d="M178.72,239.728c0,17.36-13.92,31.456-31.28,31.472c-17.536,0-31.456-14.08-31.456-31.456
	c0-17.36,13.92-31.456,31.456-31.456C164.8,208.272,178.72,222.368,178.72,239.728z"/>
<path style="fill:#FFFFFF;" d="M164.848,235.28c-2.336,2.336-6.992,1.264-10.576-2.336c-3.584-3.584-4.656-8.416-2.336-10.576
	c2.144-2.336,6.816-1.248,10.4,2.336C165.936,228.304,167.008,232.96,164.848,235.28z"/>
<g>
	<path style="fill:#3E4347;" d="M193.824,114.32c-12.192,7.152-39.6,7.456-74.544,6.256c0,0,74.464-26.528,82.08-49.568
		C208.112,92.56,206.784,106.848,193.824,114.32z"/>
	<path style="fill:#3E4347;" d="M318.176,114.32c12.192,7.152,39.6,7.456,74.544,6.256c0,0-74.464-26.528-82.08-49.568
		C303.888,92.56,305.216,106.848,318.176,114.32z"/>
	<path style="fill:#3E4347;" d="M139.904,345.696c-5.6,0-10.048,5.152-8.768,10.608C144.4,413.056,195.2,455.36,256,455.36
		s111.6-42.304,124.88-99.056c1.28-5.44-3.184-10.608-8.768-10.608L139.904,345.696L139.904,345.696z"/>
</g>
<path style="fill:#E24B4B;" d="M323.376,434c-1.6-12.528-6.304-24.352-14.032-34c-8.48-10.624-22.784-15.728-35.76-11.536
	c-8.064,2.56-17.472,3.168-27.888,1.12c-0.096,0-0.208-0.096-0.208-0.096c-20.944-4.096-42.496,4.896-51.488,24.208
	c-1.936,4.192-3.568,8.688-4.592,13.28c-0.544,2.336-0.592,4.672-0.864,7.024C233.504,447.52,278.448,447.536,323.376,434z"/>
<g>
	<path style="fill:#FFFFFF;" d="M372.208,345.712H139.792c-5.328,0.064-9.488,4.816-8.656,10c1.376,6,2.848,10.8,4.32,14.8
		c0.144,0.4,0.304,0.784,0.448,1.2c31.952,5.456,73.968,8.88,120.08,8.88c46.144,0,88.176-3.424,120.128-8.88
		c0.032-0.08,0.064-0.16,0.096-0.24c1.648-4.432,3.104-9.104,4.672-15.712C381.712,350.56,377.552,345.792,372.208,345.712z"/>
	<path style="fill:#FFFFFF;" d="M334.4,428.432c-23.744-1.888-50.272-2.992-78.4-2.992s-54.656,1.088-78.4,2.992
		c21.68,16.816,48.816,26.928,78.4,26.928S312.72,445.264,334.4,428.432z"/>
</g>
<g>
</g>
<g>
</g>
<g>
</g>
<g>
</g>
<g>
</g>
<g>
</g>
<g>
</g>
<g>
</g>
<g>
</g>
<g>
</g>
<g>
</g>
<g>
</g>
<g>
</g>
<g>
</g>
<g>
</g>
</svg>
