<?xml version="1.0" encoding="iso-8859-1"?>
<!-- Generator: Adobe Illustrator 19.0.0, SVG Export Plug-In . SVG Version: 6.00 Build 0)  -->
<svg version="1.1" id="Capa_1" xmlns="http://www.w3.org/2000/svg" xmlns:xlink="http://www.w3.org/1999/xlink" x="0px" y="0px"
	 viewBox="0 0 511.999 511.999" style="enable-background:new 0 0 511.999 511.999;" xml:space="preserve">
<circle style="fill:#FFD93B;" cx="247.408" cy="253.612" r="247.408"/>
<path style="fill:#F4C534;" d="M494.8,253.612c0,136.688-110.784,247.408-247.408,247.408c-77.776,0-147.2-35.872-192.592-92.08
	c42.448,34.336,96.496,54.816,155.328,54.816c136.608,0,247.408-110.72,247.408-247.408c0-58.832-20.48-112.88-54.816-155.328
	C458.864,106.396,494.8,175.82,494.8,253.612z"/>
<path style="fill:#3E4347;" d="M370.736,402.3c-85.472-40.128-165.232-38.096-246.656,0
	C173.04,338.044,311.856,335.436,370.736,402.3z"/>
<path style="fill:#E9EFF4;" d="M503.504,215.308c-11.216-11.072-29.296-10.944-40.352,0.256l-124.256,125.92
	c-8.272,8.384-10.4,20.64-6.112,30.864l-11.808,11.968c7.712,2.176,14.464,6.208,20.128,11.552l7.648-7.744
	c10.256,4.144,22.496,1.856,30.768-6.528l124.256-125.92C514.848,244.428,514.72,226.38,503.504,215.308z"/>
<path style="fill:#E24B4B;" d="M478.304,230.524L408.256,301.5c-7.888,8,2.416,18.176,10.304,10.176l70.048-70.976
	c2.8-2.848,2.768-7.424-0.064-10.24C485.712,227.66,481.12,227.676,478.304,230.524z"/>
<g>
	<path style="fill:#3E4347;" d="M356.752,343.532c-0.544,0.56-1.44,0.576-2,0.016l-4.48-4.416c-0.56-0.56-0.56-1.44-0.016-2
		s1.44-0.576,2-0.016l4.48,4.416C357.296,342.076,357.296,342.972,356.752,343.532z"/>
	<path style="fill:#3E4347;" d="M367.84,337.356c-0.544,0.56-1.44,0.576-2,0.016l-7.024-6.928c-0.56-0.56-0.56-1.44-0.016-2
		s1.44-0.576,2-0.016l7.024,6.928C368.4,335.916,368.4,336.812,367.84,337.356z"/>
	<path style="fill:#3E4347;" d="M373.856,326.188c-0.544,0.56-1.44,0.576-2,0.016l-4.48-4.416c-0.56-0.56-0.56-1.44,0-2
		c0.544-0.56,1.44-0.576,2-0.016l4.48,4.416C374.416,324.748,374.416,325.628,373.856,326.188z"/>
	<path style="fill:#3E4347;" d="M384.96,320.012c-0.544,0.56-1.44,0.576-2,0.016l-7.024-6.928c-0.56-0.56-0.56-1.44,0-2
		c0.544-0.56,1.44-0.576,2-0.016l7.024,6.928C385.504,318.572,385.504,319.452,384.96,320.012z"/>
	<path style="fill:#3E4347;" d="M390.976,308.844c-0.544,0.56-1.44,0.576-2,0.016l-4.48-4.416c-0.56-0.56-0.56-1.44-0.016-2
		s1.44-0.576,2-0.016l4.48,4.416C391.536,307.404,391.52,308.284,390.976,308.844z"/>
	<path style="fill:#3E4347;" d="M402.08,302.668c-0.544,0.56-1.44,0.576-2,0.016l-7.024-6.928c-0.56-0.56-0.56-1.44,0-2
		c0.544-0.56,1.44-0.576,2-0.016l7.024,6.928C402.624,301.228,402.624,302.124,402.08,302.668z"/>
	<path style="fill:#3E4347;" d="M408.096,291.5c-0.544,0.56-1.44,0.576-2,0.016l-4.48-4.416c-0.56-0.56-0.56-1.44,0-2
		c0.544-0.56,1.44-0.576,2-0.016l4.48,4.416C408.656,290.044,408.64,290.94,408.096,291.5z"/>
	<path style="fill:#3E4347;" d="M419.184,285.324c-0.544,0.56-1.44,0.576-2,0.016l-7.024-6.928c-0.56-0.56-0.56-1.44-0.016-2
		s1.44-0.576,2-0.016l7.024,6.928C419.744,283.884,419.744,284.78,419.184,285.324z"/>
	<path style="fill:#3E4347;" d="M425.216,274.156c-0.544,0.56-1.44,0.576-2,0.016l-4.48-4.416c-0.56-0.56-0.56-1.44-0.016-2
		s1.44-0.576,2-0.016l4.48,4.416C425.76,272.7,425.76,273.596,425.216,274.156z"/>
	<path style="fill:#3E4347;" d="M436.304,267.98c-0.544,0.56-1.44,0.576-2,0.016l-7.024-6.928c-0.56-0.56-0.56-1.44,0-2
		c0.544-0.56,1.44-0.576,2-0.016l7.024,6.928C436.848,266.54,436.848,267.42,436.304,267.98z"/>
	<path style="fill:#3E4347;" d="M442.32,256.812c-0.544,0.56-1.44,0.576-2,0.016l-4.48-4.416c-0.56-0.56-0.56-1.44,0-2
		c0.544-0.56,1.44-0.576,2-0.016l4.48,4.416C442.88,255.356,442.88,256.252,442.32,256.812z"/>
	<path style="fill:#3E4347;" d="M453.424,250.636c-0.544,0.56-1.44,0.576-2,0.016l-7.008-6.928c-0.56-0.56-0.56-1.44-0.016-2
		s1.44-0.576,2-0.016l7.024,6.928C453.968,249.18,453.968,250.076,453.424,250.636z"/>
	<path style="fill:#3E4347;" d="M459.44,239.468c-0.544,0.56-1.44,0.576-2,0.016l-4.48-4.416c-0.56-0.56-0.56-1.44,0-2
		c0.544-0.56,1.44-0.576,2-0.016l4.48,4.416C460,238.012,459.984,238.908,459.44,239.468z"/>
	<path style="fill:#3E4347;" d="M470.528,233.292c-0.544,0.56-1.44,0.576-2,0.016l-7.024-6.928c-0.56-0.56-0.56-1.44,0-2
		c0.544-0.56,1.44-0.576,2-0.016l7.024,6.928C471.088,231.836,471.088,232.732,470.528,233.292z"/>
</g>
<ellipse style="fill:#F4C534;" cx="180.845" cy="231.419" rx="84.059" ry="84.059"/>
<path style="fill:#FFFFFF;" d="M108.928,231.484c2.208,39.984,36.208,72.384,75.936,72.384s70.256-32.4,68.048-72.384
	c-2.208-39.984-36.336-72.512-76.064-72.512C137.104,158.972,106.704,191.5,108.928,231.484z"/>
<path style="fill:#3E4347;" d="M146.816,231.42c-0.08,18.832,15.264,34.176,34.112,34.096c18.848,0.08,34.192-15.264,34.112-34.112
	c0.08-18.848-15.264-34.176-34.112-34.096C162.08,197.228,146.736,212.572,146.816,231.42z"/>
<ellipse transform="matrix(-0.7071 -0.7071 0.7071 -0.7071 132.6595 492.7982)" style="fill:#FFFFFF;" cx="168.392" cy="218.924" rx="6.528" ry="10.176"/>
<g>
	<path style="fill:#F4C534;" d="M239.904,172.124c-53.76-2.768-101.104,13.344-142,48.336c1.2-8.768,3.392-17.6,7.568-26.096
		c20.48-41.6,70.864-58.896,112.48-38.432C226.432,160.108,233.552,165.772,239.904,172.124z"/>
	<path style="fill:#F4C534;" d="M135.792,301.836c2.624,1.68,5.088,3.552,7.952,4.96c41.632,20.48,92.096,3.424,112.576-38.208
		c1.424-2.896,2.256-5.92,3.312-8.896C221.52,283.132,180.24,297.196,135.792,301.836z"/>
	<ellipse style="fill:#F4C534;" cx="335.864" cy="240.983" rx="63.952" ry="63.952"/>
</g>
<path style="fill:#FFFFFF;" d="M390.608,241.036c-1.68,30.416-27.552,55.056-57.776,55.056s-53.456-24.64-51.76-55.056
	c1.68-30.416,27.648-55.152,57.872-55.152C369.168,185.868,392.288,210.62,390.608,241.036z"/>
<circle style="fill:#3E4347;" cx="335.84" cy="240.956" r="25.952"/>
<ellipse transform="matrix(-0.7071 -0.7071 0.7071 -0.7071 425.8781 639.3362)" style="fill:#FFFFFF;" cx="345.35" cy="231.466" rx="7.744" ry="4.976"/>
<g>
	<path style="fill:#F4C534;" d="M285.216,202.428c40.224-7.68,77.568-0.448,112.032,21.664c-1.808-6.48-4.384-12.912-8.416-18.88
		c-19.76-29.216-59.536-37.024-88.752-17.264C294.112,191.98,289.344,196.988,285.216,202.428z"/>
	<path style="fill:#F4C534;" d="M377.168,289.356c-1.808,1.536-3.456,3.2-5.472,4.56c-29.232,19.76-69.04,12.16-88.8-17.088
		c-1.376-2.032-2.304-4.224-3.424-6.368C310.624,284.188,343.184,290.492,377.168,289.356z"/>
</g>
<g>
	<path style="fill:#3E4347;" d="M311.376,111.356c0,0,71.856,4.848,111.488,54.752C422.864,166.108,366.976,50.924,311.376,111.356z
		"/>
	<path style="fill:#3E4347;" d="M183.424,111.356c0,0-71.856,4.848-111.488,54.752C71.952,166.108,127.824,50.924,183.424,111.356z"
		/>
</g>
<path style="fill:#E24B4B;" d="M355.952,455.884c-8.656,42.544-44.208,57.952-68.16,45.984c-45.472-22.736-12.544-94-26.416-120.848
	c-3.504-6.8-13.072-8.048-13.072-8.048c0-26.864,32.704-35.408,44.128-22.88c6.336,7.616,6.032,8.352,16.56,4.24
	C349.712,338.428,365.584,410.54,355.952,455.884z"/>
<g>
</g>
<g>
</g>
<g>
</g>
<g>
</g>
<g>
</g>
<g>
</g>
<g>
</g>
<g>
</g>
<g>
</g>
<g>
</g>
<g>
</g>
<g>
</g>
<g>
</g>
<g>
</g>
<g>
</g>
</svg>
