<?xml version="1.0" encoding="iso-8859-1"?>
<!-- Generator: Adobe Illustrator 19.0.0, SVG Export Plug-In . SVG Version: 6.00 Build 0)  -->
<svg version="1.1" id="Capa_1" xmlns="http://www.w3.org/2000/svg" xmlns:xlink="http://www.w3.org/1999/xlink" x="0px" y="0px"
	 viewBox="0 0 512 512" style="enable-background:new 0 0 512 512;" xml:space="preserve">
<circle style="fill:#FFD93B;" cx="256" cy="256" r="256"/>
<g>
	<path style="fill:#F4C534;" d="M512,256c0,141.44-114.64,256-256,256c-80.48,0-152.32-37.12-199.28-95.28
		c43.92,35.52,99.84,56.72,160.72,56.72c141.36,0,256-114.56,256-256c0-60.88-21.2-116.8-56.72-160.72
		C474.8,103.68,512,175.52,512,256z"/>
	<circle style="fill:#F4C534;" cx="147.264" cy="239.296" r="98.448"/>
</g>
<path style="fill:#FFFFFF;" d="M231.536,239.328c-2.592,46.832-42.4,84.768-88.944,84.768s-82.288-37.952-79.696-84.768
	s42.56-84.928,89.088-84.928C198.528,154.4,234.128,192.496,231.536,239.328z"/>
<g>
	<path style="fill:#3E4347;" d="M155.152,72.928c0,0-52.016-7.312-106.624,55.904C48.528,128.832,83.84,15.584,155.152,72.928z"/>
	<path style="fill:#3E4347;" d="M356.848,72.928c0,0,52.016-7.312,106.624,55.904C463.472,128.832,428.16,15.584,356.848,72.928z"/>
	<path style="fill:#3E4347;" d="M379.456,433.616c0,52.976-55.264,0-123.456,0s-123.456,52.976-123.456,0
		c0-68.624,55.28-95.92,123.456-95.92S379.456,364.992,379.456,433.616z"/>
</g>
<path style="fill:#E24B4B;" d="M335.888,451.152c2.32-5.888,3.408-12.272,2.512-19.072c-3.152-23.856-26.864-42.608-53.44-44.384
	c-15.12-1.008-29.056,3.488-38.88,11.696c-5.152-2.144-10.832-3.456-16.976-3.872c-25.648-1.728-50.864,13.648-57.12,36.64
	c-1.904,6.992-1.6,13.84,0.128,20.256c22.032-6.864,51.456-18.8,83.888-18.8C286.496,433.616,314.352,444.176,335.888,451.152z"/>
<path style="fill:#FFFFFF;" d="M142.304,389.584c28.288-11.92,67.728-27.68,112.384-27.68c45.488,0,86.24,16.336,115.296,28.32
	C351.392,353.216,307.376,337.68,256,337.68C204.912,337.696,161.072,353.04,142.304,389.584z"/>
<path style="fill:#3E4347;" d="M187.152,239.248c0.096,22.064-17.872,40.032-39.936,39.936
	c-22.064,0.096-40.048-17.888-39.952-39.952c-0.096-22.064,17.872-40.032,39.936-39.936
	C169.28,199.216,187.248,217.184,187.152,239.248z"/>
<ellipse transform="matrix(-0.7071 -0.7071 0.7071 -0.7071 117.5661 497.9214)" style="fill:#FFFFFF;" cx="161.906" cy="224.612" rx="11.92" ry="7.648"/>
<circle style="fill:#F4C534;" cx="364.832" cy="239.296" r="98.448"/>
<path style="fill:#FFFFFF;" d="M449.088,239.328c-2.592,46.832-42.4,84.768-88.944,84.768s-82.288-37.952-79.696-84.768
	c2.592-46.832,42.56-84.912,89.088-84.912C416.096,154.4,451.696,192.496,449.088,239.328z"/>
<path style="fill:#3E4347;" d="M404.72,239.248c0.096,22.064-17.872,40.032-39.936,39.936
	c-22.064,0.096-40.048-17.888-39.936-39.952c-0.096-22.064,17.872-40.032,39.936-39.936
	C386.848,199.216,404.816,217.184,404.72,239.248z"/>
<ellipse transform="matrix(-0.7071 -0.7071 0.7071 -0.7071 488.9176 651.7902)" style="fill:#FFFFFF;" cx="379.449" cy="224.637" rx="11.92" ry="7.648"/>
<g>
</g>
<g>
</g>
<g>
</g>
<g>
</g>
<g>
</g>
<g>
</g>
<g>
</g>
<g>
</g>
<g>
</g>
<g>
</g>
<g>
</g>
<g>
</g>
<g>
</g>
<g>
</g>
<g>
</g>
</svg>
