<?xml version="1.0" encoding="iso-8859-1"?>
<!-- Generator: Adobe Illustrator 19.0.0, SVG Export Plug-In . SVG Version: 6.00 Build 0)  -->
<svg version="1.1" id="Capa_1" xmlns="http://www.w3.org/2000/svg" xmlns:xlink="http://www.w3.org/1999/xlink" x="0px" y="0px"
	 viewBox="0 0 512 512" style="enable-background:new 0 0 512 512;" xml:space="preserve">
<circle style="fill:#FFD93B;" cx="256" cy="256" r="256"/>
<path style="fill:#F4C534;" d="M512,256c0,141.44-114.64,256-256,256c-80.48,0-152.32-37.12-199.28-95.28
	c43.92,35.52,99.84,56.72,160.72,56.72c141.36,0,256-114.56,256-256c0-60.88-21.2-116.8-56.72-160.72
	C474.8,103.68,512,175.52,512,256z"/>
<path style="fill:#3E4347;" d="M393.952,348.752c14.256,29.712-18.176,80.56-137.968,84.176
	c-119.776-3.664-152.192-54.496-137.968-84.176c13.936-31.536,53.136-30.448,137.968-28.576
	C340.832,318.32,379.984,317.184,393.952,348.752z"/>
<path style="fill:#FFFFFF;" d="M331.856,374.704c20.576-2.864,37.312-17.504,44.48-25.6
	c-15.456-15.328-56.112-11.776-120.416-11.408c-41.792-0.096-72.96-2.016-94.896,1.392c-13.92,2.048-21.168,5.92-25.2,9.776
	c7.008,7.984,23.936,23.056,44.896,25.936c0.064,0.032-26.144-2-50.896-13.584C127.44,382.672,170.08,414.688,256,415.632
	c0.064,0,0.128,0,0.192,0c85.744-0.912,128.32-32.88,126-54.336C357.616,372.688,331.792,374.72,331.856,374.704z"/>
<g>
	<path style="fill:#3E4347;" d="M433.056,236.512c-14.048-20.032-38.544-33.264-66.512-33.264c-36.32,0-66.8,22.272-76.128,52.752
		c-2.368-5.984-3.472-12.256-3.472-18.928c0-34.928,32.704-63.184,73.056-63.184C400.08,173.888,432.64,201.856,433.056,236.512z"/>
	<path style="fill:#3E4347;" d="M78.944,236.512c14.048-20.032,38.544-33.264,66.512-33.264c36.32,0,66.8,22.272,76.128,52.752
		c2.368-5.984,3.472-12.256,3.472-18.928c0-34.928-32.704-63.184-73.056-63.184C111.92,173.888,79.36,201.856,78.944,236.512z"/>
</g>
<g>
</g>
<g>
</g>
<g>
</g>
<g>
</g>
<g>
</g>
<g>
</g>
<g>
</g>
<g>
</g>
<g>
</g>
<g>
</g>
<g>
</g>
<g>
</g>
<g>
</g>
<g>
</g>
<g>
</g>
</svg>
