<?xml version="1.0" encoding="iso-8859-1"?>
<!-- Generator: Adobe Illustrator 19.0.0, SVG Export Plug-In . SVG Version: 6.00 Build 0)  -->
<svg version="1.1" id="Capa_1" xmlns="http://www.w3.org/2000/svg" xmlns:xlink="http://www.w3.org/1999/xlink" x="0px" y="0px"
	 viewBox="0 0 511.985 511.985" style="enable-background:new 0 0 511.985 511.985;" xml:space="preserve">
<circle style="fill:#FFD93B;" cx="255.992" cy="225.76" r="225.76"/>
<path style="fill:#F4C534;" d="M481.672,225.68c0,124.688-101.056,225.68-225.68,225.68c-70.944,0-134.272-32.72-175.68-84
	c38.72,31.312,88.016,50,141.68,50c124.608,0,225.68-100.992,225.68-225.68c0-53.664-18.688-102.96-50-141.68
	C448.872,91.392,481.672,154.736,481.672,225.68z"/>
<path style="fill:#FFFFFF;" d="M241.144,214.336c-6.256,32.384-34.368,57.504-67.344,60.256
	c-36.528,2.944-67.392-19.616-78.032-50.848c-2.848-8.112,2.928-16.336,11.568-16.608c16.16-0.624,33.472-5.84,49.68-15.776
	c18.864-11.472,32.64-27.376,40.128-44.256c3.488-7.824,13.12-10.288,19.536-4.784C236.184,159.296,246.712,186,241.144,214.336z"/>
<path style="fill:#3E4347;" d="M228.904,210.368c0,15.616-12.624,28.544-28.4,28.56c-15.616,0-28.544-12.928-28.544-28.544
	c0-15.776,12.944-28.384,28.544-28.384C216.28,181.968,228.904,194.592,228.904,210.368z"/>
<ellipse transform="matrix(-0.7071 -0.7071 0.7071 -0.7071 220.4812 489.7676)" style="fill:#5A5F63;" cx="211.675" cy="199.221" rx="8.208" ry="5.264"/>
<path style="fill:#F4C534;" d="M90.36,173.008c16.432-10.464,38.848-23.104,57.216-36.192c41.008-30.624,34.56-29.632,49.456-44.624
	c-4.32,24.864-20.384,42.896-40.224,57.76C130.76,167.2,105.32,173.6,90.36,173.008z"/>
<path style="fill:#FFFFFF;" d="M270.84,214.336c6.256,32.384,34.368,57.504,67.344,60.256c36.528,2.944,67.392-19.616,78.032-50.848
	c2.848-8.112-2.928-16.336-11.568-16.608c-16.16-0.624-33.472-5.84-49.68-15.776c-18.864-11.472-32.64-27.376-40.128-44.256
	c-3.488-7.824-13.12-10.288-19.536-4.784C275.8,159.296,265.272,186,270.84,214.336z"/>
<path style="fill:#3E4347;" d="M340.024,210.368c0,15.616-12.624,28.544-28.384,28.56c-15.616,0-28.544-12.928-28.544-28.544
	c0-15.776,12.928-28.384,28.544-28.384C327.4,181.968,340.024,194.592,340.024,210.368z"/>
<ellipse transform="matrix(-0.7071 -0.7071 0.7071 -0.7071 410.2815 568.3424)" style="fill:#5A5F63;" cx="322.848" cy="199.199" rx="8.208" ry="5.264"/>
<path style="fill:#F4C534;" d="M421.624,173.008c-16.432-10.464-38.848-23.104-57.216-36.192
	c-41.008-30.624-34.56-29.632-49.44-44.624c4.32,24.864,20.384,42.896,40.224,57.76C381.224,167.2,406.664,173.6,421.624,173.008z"
	/>
<path style="fill:#3E4347;" d="M356.088,367.808c1.552,7.056-5.072,12.976-11.984,11.136c-58.672-15.664-117.488-15.664-176.304,0
	c-6.912,1.84-13.536-4.096-11.84-11.136c10.576-45.424,51.344-79.264,100-79.264C304.744,288.544,345.368,322.4,356.088,367.808z"/>
<path style="fill:#E24B4B;" d="M270.216,365.872c-2.112,3.568-5.904,5.664-9.264,8.176
	c-35.104,27.728-11.376,102.592-79.488,132.752c-15.584,6.896-54.4,8.864-65.456-6.512c-29.728-41.392,20.64-68.592,36.8-80.128
	c22.048-15.776,12.784-53.44,32.72-71.28c12.496-11.28,32.016-9.68,43.968,2.144l-0.848-1.168
	c12.08-5.936,26.256-10.928,37.216-1.824C271.064,352.368,273.448,360.24,270.216,365.872z"/>
<g style="opacity:0.2;">
	<path style="fill:#FFFFFF;" d="M150.168,455.408c-2.688,5.568-7.904,9.024-12.448,13.136c-4.56,3.984-8.672,9.424-8.208,15.664
		c0.192,2.128,0.912,4.24,1.12,6.496s-0.496,4.768-2.416,5.712c-1.536,0.8-3.376,0.4-4.832-0.528s-2.544-2.384-3.504-3.84
		c-3.84-6.096-5.504-13.536-4.816-20.704c1.216-10.432,18.208-29.632,27.664-29.584c2.464-0.272,5.216,0.528,6.96,2.384
		C152.376,447.184,152.008,451.952,150.168,455.408z"/>
</g>
<g>
</g>
<g>
</g>
<g>
</g>
<g>
</g>
<g>
</g>
<g>
</g>
<g>
</g>
<g>
</g>
<g>
</g>
<g>
</g>
<g>
</g>
<g>
</g>
<g>
</g>
<g>
</g>
<g>
</g>
</svg>
