<?xml version="1.0" encoding="iso-8859-1"?>
<!-- Generator: Adobe Illustrator 19.0.0, SVG Export Plug-In . SVG Version: 6.00 Build 0)  -->
<svg version="1.1" id="Capa_1" xmlns="http://www.w3.org/2000/svg" xmlns:xlink="http://www.w3.org/1999/xlink" x="0px" y="0px"
	 viewBox="0 0 512 512" style="enable-background:new 0 0 512 512;" xml:space="preserve">
<circle style="fill:#FFD93B;" cx="256" cy="256" r="256"/>
<g>
	<path style="fill:#F4C534;" d="M512,256c0,141.44-114.64,256-256,256c-80.48,0-152.32-37.12-199.28-95.28
		c43.92,35.52,99.84,56.72,160.72,56.72c141.36,0,256-114.56,256-256c0-60.88-21.2-116.8-56.72-160.72
		C474.8,103.68,512,175.52,512,256z"/>
	<ellipse style="fill:#F4C534;" cx="148.688" cy="216.592" rx="92" ry="100.768"/>
</g>
<path style="fill:#FFFFFF;" d="M229.888,216.592c3.296,46.192-30.384,83.632-75.232,83.632s-83.888-37.44-87.184-83.632
	C64.176,170.4,97.856,132.96,142.72,132.96C187.568,132.96,226.592,170.4,229.888,216.592z"/>
<path style="fill:#3E4347;" d="M203.904,247.552c-14.8,14.8-38.736,14.8-53.664,0c-14.8-14.928-14.8-38.864,0-53.808
	c14.928-14.8,38.864-14.8,53.664,0C218.832,208.672,218.832,232.624,203.904,247.552z"/>
<path style="fill:#5A5F63;" d="M203.104,215.008c-3.088,2.688-8.88,0.8-13.04-4.032c-4.032-4.848-4.848-10.896-1.744-13.456
	c3.088-2.688,8.88-0.8,13.056,4.032C205.392,206.384,206.192,212.448,203.104,215.008z"/>
<ellipse style="fill:#F4C534;" cx="363.312" cy="216.592" rx="92" ry="100.768"/>
<path style="fill:#FFFFFF;" d="M282.096,216.592c-3.296,46.192,30.384,83.632,75.232,83.632s83.888-37.44,87.184-83.632
	s-30.384-83.632-75.232-83.632S285.408,170.4,282.096,216.592z"/>
<path style="fill:#3E4347;" d="M308.096,247.552c14.8,14.8,38.736,14.8,53.664,0c14.8-14.928,14.8-38.864,0-53.808
	c-14.928-14.8-38.88-14.8-53.664,0C293.152,208.672,293.152,232.624,308.096,247.552z"/>
<path style="fill:#5A5F63;" d="M308.896,215.008c3.088,2.688,8.88,0.8,13.04-4.032c4.032-4.848,4.848-10.896,1.744-13.456
	c-3.088-2.688-8.88-0.8-13.04,4.032C306.608,206.384,305.808,212.448,308.896,215.008z"/>
<ellipse style="fill:#3E4347;" cx="256" cy="386.08" rx="53.504" ry="59.84"/>
<g>
</g>
<g>
</g>
<g>
</g>
<g>
</g>
<g>
</g>
<g>
</g>
<g>
</g>
<g>
</g>
<g>
</g>
<g>
</g>
<g>
</g>
<g>
</g>
<g>
</g>
<g>
</g>
<g>
</g>
</svg>
