<?xml version="1.0" encoding="iso-8859-1"?>
<!-- Generator: Adobe Illustrator 19.0.0, SVG Export Plug-In . SVG Version: 6.00 Build 0)  -->
<svg version="1.1" id="Capa_1" xmlns="http://www.w3.org/2000/svg" xmlns:xlink="http://www.w3.org/1999/xlink" x="0px" y="0px"
	 viewBox="0 0 512 512" style="enable-background:new 0 0 512 512;" xml:space="preserve">
<circle style="fill:#FFD93B;" cx="256" cy="256" r="256"/>
<path style="fill:#F4C534;" d="M512,256c0,141.44-114.64,256-256,256c-80.48,0-152.32-37.12-199.28-95.28
	c43.92,35.52,99.84,56.72,160.72,56.72c141.36,0,256-114.56,256-256c0-60.88-21.2-116.8-56.72-160.72
	C474.8,103.68,512,175.52,512,256z"/>
<circle style="fill:#3E4347;" cx="348.864" cy="219.664" r="50"/>
<path style="fill:#5A5F63;" d="M381.552,207.472c-3.392,4.048-11.936,2.512-19.024-3.44c-7.12-5.776-10.128-13.984-6.576-18
	c3.424-4.208,11.808-2.704,18.896,3.248C382.096,195.248,384.944,203.424,381.552,207.472z"/>
<g>
	<path style="fill:#3E4347;" d="M95.456,193.104c8.288-9.488,31.088-24.864,61.008-23.104c18.384,1.088,35.664,9.84,48.768,22.784
		c13.808,13.648,23.68,31.2,30.8,52.928c-18.96-13.648-21.152-21.92-59.008-42.736c-3.6-1.968-7.408-3.808-11.28-5.2
		C143.664,189.84,120.256,187.488,95.456,193.104z"/>
	<path style="fill:#3E4347;" d="M366.608,374.528c-57.648,76.896-224.416,46.288-250.064-46.208
		c-1.84-6.672,5.888-12.048,11.456-7.744c74.064,57.536,150.8,71.808,230.352,42.992
		C364.96,361.136,370.768,368.944,366.608,374.528z"/>
</g>
<g>
</g>
<g>
</g>
<g>
</g>
<g>
</g>
<g>
</g>
<g>
</g>
<g>
</g>
<g>
</g>
<g>
</g>
<g>
</g>
<g>
</g>
<g>
</g>
<g>
</g>
<g>
</g>
<g>
</g>
</svg>
