<?xml version="1.0" encoding="iso-8859-1"?>
<!-- Generator: Adobe Illustrator 19.0.0, SVG Export Plug-In . SVG Version: 6.00 Build 0)  -->
<svg version="1.1" id="Capa_1" xmlns="http://www.w3.org/2000/svg" xmlns:xlink="http://www.w3.org/1999/xlink" x="0px" y="0px"
	 viewBox="0 0 512 512" style="enable-background:new 0 0 512 512;" xml:space="preserve">
<circle style="fill:#FFD93B;" cx="256" cy="256" r="256"/>
<path style="fill:#F4C534;" d="M512,256c0,141.44-114.64,256-256,256c-80.48,0-152.32-37.12-199.28-95.28
	c43.92,35.52,99.84,56.72,160.72,56.72c141.36,0,256-114.56,256-256c0-60.88-21.2-116.8-56.72-160.72
	C474.8,103.68,512,175.52,512,256z"/>
<path style="fill:#3E4347;" d="M343.408,430.672c-14.608,6.256-46.016-20.592-92.32-40.656c-52.32-22.192-92.4-5.792-101.472-16.096
	c-11.408-7.088,28.304-41.072,115.84-39.28C367.056,339.648,360.832,426.384,343.408,430.672z"/>
<path style="fill:#FFFFFF;" d="M241.856,222.624c0,39.584-35.552,75.952-79.392,81.232c-43.856,5.28-79.392-22.528-79.392-62.112
	s35.552-75.952,79.392-81.232S241.856,183.04,241.856,222.624z"/>
<ellipse style="fill:#3E4347;" cx="175.729" cy="222.766" rx="37.36" ry="37.36"/>
<path style="fill:#5A5F63;" d="M198.64,214.624c-2.832,2.832-8.48,1.696-12.56-2.384c-3.952-3.968-5.088-9.616-2.256-12.448
	c2.72-2.72,8.368-1.584,12.336,2.384C200.224,206.256,201.36,211.92,198.64,214.624z"/>
<path style="fill:#FFFFFF;" d="M270.144,222.624c0,39.584,35.552,75.952,79.392,81.232c43.856,5.28,79.392-22.528,79.392-62.112
	s-35.552-75.952-79.392-81.232S270.144,183.04,270.144,222.624z"/>
<ellipse style="fill:#3E4347;" cx="336.307" cy="222.747" rx="37.36" ry="37.36"/>
<path style="fill:#5A5F63;" d="M313.36,214.624c2.832,2.832,8.48,1.696,12.56-2.384c3.968-3.968,5.088-9.616,2.272-12.448
	c-2.72-2.72-8.368-1.584-12.336,2.384C311.776,206.256,310.64,211.92,313.36,214.624z"/>
<g>
	<path style="fill:#F4C534;" d="M98.656,155.376c16-7.984,44.704-21.808,63.472-35.92c26.336-18.032,38.608-34.8,54.608-48.208
		c-1.76,25.664-19.584,53.872-40.752,67.808C151.52,157.008,116.72,162.08,98.656,155.376z"/>
	<path style="fill:#F4C534;" d="M401.216,120.24c-12.432,14.992-45.2,27.824-75.136,24.496
		c-29.12-1.696-55.568-18.128-69.184-38.352c16,2.816,40.512,12.08,71.392,14.464C352.24,123.76,385.216,121.216,401.216,120.24z"/>
</g>
<g>
</g>
<g>
</g>
<g>
</g>
<g>
</g>
<g>
</g>
<g>
</g>
<g>
</g>
<g>
</g>
<g>
</g>
<g>
</g>
<g>
</g>
<g>
</g>
<g>
</g>
<g>
</g>
<g>
</g>
</svg>
