<?xml version="1.0" encoding="iso-8859-1"?>
<!-- Generator: Adobe Illustrator 19.0.0, SVG Export Plug-In . SVG Version: 6.00 Build 0)  -->
<svg version="1.1" id="Capa_1" xmlns="http://www.w3.org/2000/svg" xmlns:xlink="http://www.w3.org/1999/xlink" x="0px" y="0px"
	 viewBox="0 0 512 512" style="enable-background:new 0 0 512 512;" xml:space="preserve">
<circle style="fill:#FFD93B;" cx="256" cy="256" r="256"/>
<path style="fill:#F4C534;" d="M512,256c0,141.44-114.64,256-256,256c-80.48,0-152.32-37.12-199.28-95.28
	c43.92,35.52,99.84,56.72,160.72,56.72c141.36,0,256-114.56,256-256c0-60.88-21.2-116.8-56.72-160.72
	C474.8,103.68,512,175.52,512,256z"/>
<path style="fill:#3E4347;" d="M401.184,334.352c-18.08,61.92-75.2,107.2-143.2,107.2c-67.68,0-124.8-45.12-142.88-107.04
	c-1.6-5.44,2.88-10.72,8.48-9.44c86.88,18.08,176.64,18.08,269.12-0.16C398.144,323.792,402.784,328.912,401.184,334.352z"/>
<path style="fill:#FFFFFF;" d="M148.592,329.696c11.952,28.112,57.424,45.808,110.128,45.552
	c53.104,0.272,98.896-17.712,110.4-46.208C293.744,341.472,220.24,341.712,148.592,329.696z"/>
<path style="fill:#E24B4B;" d="M257.984,441.552c21.648,0,42.16-4.672,60.72-12.944c-0.192-22.784-18.592-41.104-41.408-41.104
	c-12.512,0-23.792,5.568-31.296,14.32c-5.568-2.912-11.824-4.448-18.496-4.448c-17.824,0-32.832,11.296-38.704,26.992
	C209.456,435.28,232.96,441.552,257.984,441.552z"/>
<g style="opacity:0.25;">
	<path style="fill:#FFFFFF;" d="M298.704,409.44c-1.952,2.992-8.96,2.928-15.504-0.112c-6.688-3.056-10.384-7.92-8.272-10.88
		c1.952-2.992,8.8-2.96,15.312,0.192C296.976,401.6,300.672,406.448,298.704,409.44z"/>
</g>
<g>
	<path style="fill:#719D34;" d="M325.04,224.928l11.488-42.848c-21.76-13.04-33.248-30.976-26.56-55.888
		c5.936-22.128,25.296-34.976,49.824-30.928l2.72-10.128l14.832,3.968l-2.72,10.128c21.712,8.688,30.48,25.168,28.608,45.808
		l-26.784-3.552c0.592-8.464-2.048-15.024-7.888-19.648l-10.72,39.984c60.944,35.408,26.16,97.168-24.416,91.12l-5.12,19.12
		l-14.832-3.968l4.992-18.608c-21.936-8.832-34.176-26.928-30.96-55.856l27.456,4.288C314.192,209.776,318.8,219.568,325.04,224.928
		z M353.808,117.536c-17.536,1.136-26.496,21.952-9.488,35.376L353.808,117.536z M339.488,230.336
		c20.976,1.616,35.248-25.072,10.688-39.888L339.488,230.336z"/>
	<path style="fill:#719D34;" d="M172.608,228.976l-11.488-42.848c-25.36-0.416-44.272-10.208-50.96-35.12
		c-5.92-22.144,4.432-42.944,27.696-51.712l-2.72-10.128l14.832-3.968l2.72,10.128c23.136-3.328,38.976,6.56,47.68,25.36
		l-24.976,10.304c-3.728-7.632-9.28-11.984-16.656-13.072l10.72,39.984c70.48,0.192,71.232,71.088,24.416,91.12l5.12,19.12
		l-14.832,3.968l-4.992-18.608c-23.408,3.328-43.056-6.24-54.736-32.896l25.92-10.016
		C155.648,221.28,164.528,227.44,172.608,228.976z M143.84,121.6c-14.608,9.76-11.968,32.256,9.488,35.392L143.84,121.6z
		 M187.824,226.432c18.992-9.088,17.984-39.328-10.688-39.888L187.824,226.432z"/>
</g>
<g>
</g>
<g>
</g>
<g>
</g>
<g>
</g>
<g>
</g>
<g>
</g>
<g>
</g>
<g>
</g>
<g>
</g>
<g>
</g>
<g>
</g>
<g>
</g>
<g>
</g>
<g>
</g>
<g>
</g>
</svg>
