<?xml version="1.0" encoding="iso-8859-1"?>
<!-- Generator: Adobe Illustrator 19.0.0, SVG Export Plug-In . SVG Version: 6.00 Build 0)  -->
<svg version="1.1" id="Capa_1" xmlns="http://www.w3.org/2000/svg" xmlns:xlink="http://www.w3.org/1999/xlink" x="0px" y="0px"
	 viewBox="0 0 512 512" style="enable-background:new 0 0 512 512;" xml:space="preserve">
<circle style="fill:#FFD93B;" cx="256" cy="256" r="256"/>
<path style="fill:#F4C534;" d="M512,256c0,141.44-114.64,256-256,256c-80.48,0-152.32-37.12-199.28-95.28
	c43.92,35.52,99.84,56.72,160.72,56.72c141.36,0,256-114.56,256-256c0-60.88-21.2-116.8-56.72-160.72
	C474.8,103.68,512,175.52,512,256z"/>
<g>
	<path style="fill:#3E4347;" d="M230.032,95.632c0,37.168-16.592,61.872-42.08,83.84c-23.328,20.112-64.464,33.008-89.12,29.76
		c20.464-9.328,63.152-32.352,76.64-45.28C208.144,137.568,217.264,116.08,230.032,95.632z"/>
	<path style="fill:#3E4347;" d="M282.032,95.632c10,16,19.408,39.936,54.56,68.32c6.272,6.016,36.448,26.752,76.48,45.28
		c-23.936,3.2-65.744-9.616-89.12-29.76C296.864,156.112,282.032,130.576,282.032,95.632z"/>
	<path style="fill:#3E4347;" d="M427.472,230.192c-33.088,20.4-80.416,34.208-118.56,40.32c-5.44,10.24-11.84,20.32-20.48,29.28
		c-1.04-16.016,1.808-30.784,5.28-46.4C356.96,232.288,398.416,228.336,427.472,230.192z"/>
	<path style="fill:#3E4347;" d="M223.632,299.792c-8.64-8.96-14.88-18.88-20.64-29.12c-38.288-6.48-85.184-20-118.4-40.48
		c45.088-2.896,91.536,9.472,133.76,23.2C221.312,269.392,224.592,282.096,223.632,299.792z"/>
	<path style="fill:#3E4347;" d="M357.968,442.272c-25.616-44.736-35.968-64.192-96.176-61.648
		c-59.344,0.992-69.104,19.664-92.768,66.768c-0.368-62.48,32.832-87.952,92.128-90.736
		C319.616,356.368,354.544,378.304,357.968,442.272z"/>
</g>
<g>
</g>
<g>
</g>
<g>
</g>
<g>
</g>
<g>
</g>
<g>
</g>
<g>
</g>
<g>
</g>
<g>
</g>
<g>
</g>
<g>
</g>
<g>
</g>
<g>
</g>
<g>
</g>
<g>
</g>
</svg>
