<?xml version="1.0" encoding="iso-8859-1"?>
<!-- Generator: Adobe Illustrator 19.0.0, SVG Export Plug-In . SVG Version: 6.00 Build 0)  -->
<svg version="1.1" id="Capa_1" xmlns="http://www.w3.org/2000/svg" xmlns:xlink="http://www.w3.org/1999/xlink" x="0px" y="0px"
	 viewBox="0 0 512 512" style="enable-background:new 0 0 512 512;" xml:space="preserve">
<circle style="fill:#FFD93B;" cx="256" cy="227.92" r="227.92"/>
<path style="fill:#F4C534;" d="M483.92,227.92c0,125.92-102.064,227.92-227.92,227.92c-71.648,0-135.616-33.056-177.424-84.832
	c39.104,31.616,88.88,50.496,143.088,50.496c125.856,0,227.92-102,227.92-227.92c0-54.208-18.88-103.984-50.496-143.088
	C450.8,92.304,483.92,156.272,483.92,227.92z"/>
<path style="fill:#3E4347;" d="M401.456,203.744c0,49.584-31.232,89.664-69.76,89.664c-38.384,0-69.616-40.08-69.616-89.664
	s31.232-89.792,69.616-89.792C370.224,113.952,401.456,154.16,401.456,203.744z"/>
<path style="fill:#FFFFFF;" d="M389.488,203.744c0,43.6-27.456,78.864-61.296,78.864c-33.712,0-61.168-35.264-61.168-78.864
	s27.456-78.992,61.168-78.992C362.016,124.752,389.488,160.144,389.488,203.744z"/>
<path style="fill:#3E4347;" d="M339.776,213.248c0,20.768-13.792,37.616-30.784,37.616c-16.864,0-30.656-16.864-30.656-37.616
	s13.792-37.616,30.656-37.616C326,175.632,339.776,192.48,339.776,213.248z"/>
<path style="fill:#5A5F63;" d="M326.176,206.64c-3.152,1.728-8.032-1.184-10.96-6.4c-2.896-5.344-2.752-10.96,0.384-12.688
	c3.024-1.76,8.064,1.056,10.96,6.4C329.504,199.168,329.328,204.912,326.176,206.64z"/>
<g>
	<path style="fill:#3E4347;" d="M402.464,138.384c0,0-27.92-57.296-84.208-52.864c-17.728,1.376-31.84,5.312-41.152,11.68
		C309.2,21.856,392.448,96.08,402.464,138.384z"/>
	<path style="fill:#3E4347;" d="M110.544,203.744c0,49.584,31.232,89.664,69.76,89.664c38.384,0,69.616-40.08,69.616-89.664
		s-31.232-89.792-69.616-89.792C141.776,113.952,110.544,154.16,110.544,203.744z"/>
</g>
<path style="fill:#FFFFFF;" d="M122.512,203.744c0,43.6,27.456,78.864,61.296,78.864c33.712,0,61.168-35.264,61.168-78.864
	s-27.456-78.992-61.168-78.992C149.968,124.752,122.512,160.144,122.512,203.744z"/>
<path style="fill:#3E4347;" d="M172.224,213.248c0,20.768,13.792,37.616,30.784,37.616c16.864,0,30.656-16.864,30.656-37.616
	s-13.792-37.616-30.656-37.616C186,175.632,172.224,192.48,172.224,213.248z"/>
<path style="fill:#5A5F63;" d="M184.816,206.144c2.992,1.984,8.112-0.48,11.472-5.408c3.36-5.056,3.712-10.672,0.72-12.656
	c-2.864-2.016-8.128,0.352-11.488,5.408C182.16,198.416,181.824,204.144,184.816,206.144z"/>
<g>
	<path style="fill:#3E4347;" d="M109.536,138.384c0,0,27.92-57.296,84.208-52.864c17.728,1.376,31.84,5.312,41.152,11.68
		C202.8,21.856,119.552,96.08,109.536,138.384z"/>
	<path style="fill:#3E4347;" d="M345.504,323.424c16.512,1.584-8.992,81.552-91.168,78.976
		c-82.112-4.032-101.104-85.792-84.512-86.064c12.768-1.328,47.312,18.752,87.152,20.352
		C296.976,338.304,332.896,321.072,345.504,323.424z"/>
</g>
<path style="fill:#32373A;" d="M254.352,402.4c17.04,0.544,31.504-2.608,43.792-7.728c-2.304-22.048-22.784-39.376-48-39.376
	c-22.192,0-40.688,13.44-46.432,31.664C216.864,395.376,233.568,401.392,254.352,402.4z"/>
<path style="fill:#E24B4B;" d="M224.672,453.232c-0.064,32.128,8.8,64.224,45.504,57.984c12.24-2.08,22.448-8.512,29.888-17.344
	c12.144-14.4,14.816-34.768,9.072-52.704c-0.32-0.976-0.64-1.952-0.976-2.912c-6.736-19.056-15.184-42.448-28.8-51.616
	c-10.176-6.864-25.04-8.24-34.192-0.048c-9.984-14.032-30.656-14.496-39.568-4.688c-3.424,3.76-0.752,7.52,1.216,11.36
	C221.68,422.384,224.96,440.432,224.672,453.232z"/>
<path style="fill:#D03F3F;" d="M248.496,393.84c0,0,3.552,5.152,7.6,13.696c4.112,8.496,8.096,20.512,10.656,32.848
	c2.304,12.384,3.184,25.024,2.464,34.448c-0.624,9.424-2.192,15.52-2.192,15.52s0.528-6.256,0.192-15.552
	c-0.24-9.296-1.456-21.632-3.952-33.728c-2.272-12.144-5.84-24.032-9.008-32.768C251.168,399.552,248.496,393.84,248.496,393.84z"/>
<g>
	<path style="fill:#FFFFFF;" d="M258.4,336.672l6.064,18.8c0.368,1.088,1.664,1.808,2.992,1.6l14.464-2.224
		c1.328-0.208,2.352-1.28,2.368-2.432l0.128-17.296C276.112,336.288,267.376,336.944,258.4,336.672z"/>
	<path style="fill:#FFFFFF;" d="M224.608,331.664l0.16,20.752c0.016,1.152,1.04,2.224,2.368,2.432l14.464,2.224
		c1.328,0.208,2.624-0.512,2.992-1.6l6.256-19.36C241.68,335.312,232.88,333.744,224.608,331.664z"/>
</g>
<g>
</g>
<g>
</g>
<g>
</g>
<g>
</g>
<g>
</g>
<g>
</g>
<g>
</g>
<g>
</g>
<g>
</g>
<g>
</g>
<g>
</g>
<g>
</g>
<g>
</g>
<g>
</g>
<g>
</g>
</svg>
