<?xml version="1.0" encoding="iso-8859-1"?>
<!-- Generator: Adobe Illustrator 19.0.0, SVG Export Plug-In . SVG Version: 6.00 Build 0)  -->
<svg version="1.1" id="Capa_1" xmlns="http://www.w3.org/2000/svg" xmlns:xlink="http://www.w3.org/1999/xlink" x="0px" y="0px"
	 viewBox="0 0 512.022 512.022" style="enable-background:new 0 0 512.022 512.022;" xml:space="preserve">
<circle style="fill:#FFD93B;" cx="256.011" cy="235.488" r="235.488"/>
<path style="fill:#F4C534;" d="M491.499,235.488c0,130.112-105.456,235.488-235.488,235.488
	c-74.032,0-140.112-34.144-183.312-87.648c40.4,32.672,91.84,52.176,147.84,52.176c130.032,0,235.488-105.376,235.488-235.488
	c0-56-19.504-107.44-52.176-147.84C457.275,95.376,491.499,161.456,491.499,235.488z"/>
<path style="fill:#FFFFFF;" d="M223.931,198.208c0,39.584-31.92,71.648-71.488,71.648c-39.424,0-71.488-32.064-71.488-71.648
	c0-39.424,32.064-71.488,71.488-71.488C192.027,126.72,223.931,158.784,223.931,198.208z"/>
<circle style="fill:#3E4347;" cx="165.627" cy="198.288" r="32.976"/>
<g>
	
		<ellipse transform="matrix(-0.7072 -0.7071 0.7071 -0.7072 172.6085 443.1868)" style="fill:#FFFFFF;" cx="178.082" cy="185.849" rx="9.089" ry="6.256"/>
	<path style="fill:#FFFFFF;" d="M288.091,198.208c0,39.584,31.92,71.648,71.488,71.648c39.424,0,71.488-32.064,71.488-71.648
		c0-39.424-32.064-71.488-71.488-71.488C320.011,126.72,288.091,158.784,288.091,198.208z"/>
</g>
<circle style="fill:#3E4347;" cx="346.395" cy="198.288" r="32.976"/>
<ellipse transform="matrix(-0.7072 -0.707 0.707 -0.7072 481.1813 570.9564)" style="fill:#FFFFFF;" cx="358.816" cy="185.842" rx="9.088" ry="6.256"/>
<g>
	<path style="fill:#3E4347;" d="M471.675,133.2h-7.344c-3.904-7.888-11.776-13.52-20.992-14.08
		c-44.352-2.688-90.416-0.976-140.88,5.232c-10.432,1.264-15.728,6.336-18.976,13.136c-5.024,10.528-15.792,17.12-27.472,17.12
		s-22.448-6.576-27.488-17.12c-3.248-6.8-8.544-11.872-18.96-13.136c-50.464-6.192-96.56-7.92-140.88-5.232
		c-9.392,0.56-17.296,6.176-21.136,14.08h-7.2c-3.68,0-6.768,3.088-6.768,6.768v25.456c0,3.824,3.088,6.768,6.768,6.768h5.264
		c1.584,23.52,6.08,48.56,13.936,76c2.944,10.288,12.336,17.6,23.04,18.016c46.064,1.856,91.664-1.056,137.936-7.344
		c12.176-1.648,21.36-11.632,21.84-23.744c0.32-8.368,0.176-16.912-0.368-25.616c-0.528-7.968,6.016-14.656,14.016-14.656
		s14.544,6.688,14.032,14.688c-0.56,8.704-0.704,17.248-0.368,25.616c0.48,12.112,9.664,22.096,21.84,23.744
		c46.56,6.304,92.32,9.216,138.464,7.312c10.656-0.432,19.632-8,22.576-18.272c7.808-27.344,12.288-52.304,13.872-75.744h5.264
		c3.68,0,6.768-3.088,6.768-6.768v-25.456C478.459,136.144,475.355,133.2,471.675,133.2z M217.627,237.584
		c-48.08,6.528-91.952,8.848-134.048,7.184c-1.568-0.064-3.008-1.2-3.44-2.72c-10.512-36.752-14.96-68.896-13.6-98.224
		c0.08-1.648,1.648-3.136,3.44-3.232c45.888-2.816,91.536-0.48,136.96,5.104c1.504,0.192,2.832,1.312,3.2,2.752
		c8.224,31.392,11.728,59.488,10.704,85.872C220.795,235.904,219.387,237.344,217.627,237.584z M431.883,242.048
		c-0.432,1.52-1.872,2.64-3.44,2.72c-42.112,1.664-85.968-0.656-134.048-7.184c-1.76-0.24-3.168-1.68-3.232-3.28
		c-1.024-26.384,2.48-54.48,10.704-85.872c0.368-1.424,1.696-2.544,3.216-2.752c45.344-5.568,90.992-7.92,136.96-5.104
		c1.792,0.096,3.36,1.584,3.44,3.232C446.843,173.136,442.395,205.28,431.883,242.048z"/>
	<path style="fill:#3E4347;" d="M411.531,86.672c-32.608,2.336-130.304,5.088-120.88-45.296c0.848-4.448,6.24-6.24,9.744-3.488
		c14.288,11.008,50.592,34.72,111.136,46.144C413.115,84.352,413.115,86.576,411.531,86.672z"/>
	<path style="fill:#3E4347;" d="M100.491,86.672c32.608,2.336,130.304,5.088,120.88-45.296c-0.848-4.448-6.24-6.24-9.744-3.488
		c-14.288,11.008-50.592,34.72-111.136,46.144C98.907,84.352,98.907,86.576,100.491,86.672z"/>
</g>
<path style="fill:#FFD93B;" d="M360.075,390.368c0,27.232-20.368,49.424-45.392,49.424c-24.912,0-45.184-22.192-45.184-49.424
	c0-27.136,20.272-49.216,45.184-49.216C339.707,341.152,360.075,363.248,360.075,390.368z"/>
<ellipse style="fill:#3E4347;" cx="314.763" cy="390.448" rx="30.256" ry="33.264"/>
<path style="fill:#E9EFF4;" d="M474.715,498.608c-7.488,12.768-24,17.024-36.752,9.536c-4.256-2.368-7.312-5.776-9.696-9.856
	l-0.16,0.512c-7.488,12.768-24,17.008-36.752,9.536c-6.128-3.744-10.384-9.536-12.256-16c-2.72-0.336-5.44-1.2-7.824-2.72
	c-10.048-5.776-13.28-18.544-7.488-28.416c2.56-4.432,6.464-7.488,10.896-9.024l-39.648-47.472
	c-6.64-7.312-2.896-13.952,5.792-9.872l57.168,18.208c5.776-5.44,14.464-7.152,21.952-4.256c8.336-8.336,21.776-10.384,32.336-4.08
	c11.568,6.8,16.16,20.928,11.392,32.832c5.952,7.328,7.664,17.36,4.432,26.368C478.619,471.888,481.691,486.864,474.715,498.608z"/>
<g>
</g>
<g>
</g>
<g>
</g>
<g>
</g>
<g>
</g>
<g>
</g>
<g>
</g>
<g>
</g>
<g>
</g>
<g>
</g>
<g>
</g>
<g>
</g>
<g>
</g>
<g>
</g>
<g>
</g>
</svg>
