<?xml version="1.0" encoding="iso-8859-1"?>
<!-- Generator: Adobe Illustrator 19.0.0, SVG Export Plug-In . SVG Version: 6.00 Build 0)  -->
<svg version="1.1" id="Capa_1" xmlns="http://www.w3.org/2000/svg" xmlns:xlink="http://www.w3.org/1999/xlink" x="0px" y="0px"
	 viewBox="0 0 512 512" style="enable-background:new 0 0 512 512;" xml:space="preserve">
<circle style="fill:#FFD93B;" cx="256" cy="256" r="256"/>
<path style="fill:#F4C534;" d="M512,256c0,141.44-114.64,256-256,256c-80.48,0-152.32-37.12-199.28-95.28
	c43.92,35.52,99.84,56.72,160.72,56.72c141.36,0,256-114.56,256-256c0-60.88-21.2-116.8-56.72-160.72
	C474.8,103.68,512,175.52,512,256z"/>
<g>
	<path style="fill:#FFFFFF;" d="M201.616,266.544c-40.56,12.752-81.888-0.512-108.48-32.112
		c-45.2-53.536-25.424-127.424,31.968-142.368C223.76,66.56,310.032,232.672,201.616,266.544z"/>
	<path style="fill:#FFFFFF;" d="M279.296,209.76c-13.28-29.488-6.864-61.92,16.944-84.688
		c52.256-49.632,142.32-15.12,147.328,60.736C449.504,275.328,312.832,283.76,279.296,209.76z"/>
</g>
<circle style="fill:#3E4347;" cx="181.088" cy="173.872" r="44.256"/>
<ellipse transform="matrix(-0.7071 -0.7071 0.7071 -0.7071 226.6722 408.0992)" style="fill:#FFFFFF;" cx="197.856" cy="157.104" rx="11.616" ry="7.888"/>
<circle style="fill:#3E4347;" cx="348.464" cy="198.448" r="44.256"/>
<ellipse transform="matrix(-0.7071 -0.7071 0.7071 -0.7071 494.985 568.4489)" style="fill:#FFFFFF;" cx="365.222" cy="181.71" rx="11.616" ry="7.888"/>
<path style="fill:#3E4347;" d="M369.84,366.512c-3.92,44.768-47.552,61.2-98.592,68.56c-61.36,8.848-123.632-9.328-118.592-66.768
	c2.48-28.336,23.808-51.104,52.128-59.376c14.352-4.192,28.56-8.896,41.168-16.256C299.264,261.552,375.648,300.384,369.84,366.512z
	"/>
<path style="fill:#E24B4B;" d="M271.248,435.072c27.104-3.904,52.048-10.432,70.128-22.336c-3.2-23.44-16.416-43.632-35.296-56.256
	c-10.944-7.344-25.376-8-36.848-1.552c-11.728,6.704-24.864,9.28-37.232,8.88c-20.736-0.512-39.808,12.896-46.896,32.464
	c-3.008,8.304-4.56,17.312-4.64,26.704C203.424,436.56,237.456,439.936,271.248,435.072z"/>
<g>
	<path style="fill:#FFFFFF;" d="M188.08,316.112l2.336,48.128c0.144,2.32,2.608,3.664,4.592,2.608l20.256-11.296
		c0.704-0.416,1.344-1.136,1.616-1.904l3.248-7.984c0.288-0.64,0.352-1.408,0.352-2.112l-1.184-39.232
		c-4.784,1.632-9.632,3.168-14.512,4.592C198.832,310.672,193.296,313.168,188.08,316.112z"/>
	<path style="fill:#FFFFFF;" d="M304.944,337.584l20.72-4.448c0.72-0.192,1.392-0.672,1.728-1.36l3.728-6.864
		c0.32-0.544,0.448-1.296,0.48-2l1.008-28.144c-9.472-5.776-20.064-9.776-31.136-11.664l-0.896,50.32
		C300.576,335.808,302.928,337.968,304.944,337.584z"/>
	<path style="fill:#FFFFFF;" d="M272.064,316.112l5.728-33.856c-10.864,1.184-21.6,4.528-31.552,10.288l-4.192,28
		c-0.288,2.112,1.632,4.416,3.552,4.384l19.76-0.656c0.688-0.048,1.376-0.384,1.76-0.928l4.256-5.504
		C271.728,317.376,271.936,316.72,272.064,316.112z"/>
	<path style="fill:#FFFFFF;" d="M271.248,435.072c10.352-1.488,20.384-3.392,29.856-5.792l3.392-38.768
		c0.16-2.128-1.904-4.304-3.824-4.16l-19.68,1.888c-0.688,0.096-1.344,0.464-1.696,1.04l-3.904,5.76
		c-0.336,0.448-0.496,1.12-0.576,1.744l-4.08,38.368C270.896,435.104,271.072,435.088,271.248,435.072z"/>
	<path style="fill:#FFFFFF;" d="M249.872,401.536c-0.288-0.608-0.896-1.056-1.584-1.216l-19.36-4.016
		c-1.888-0.352-4.176,1.6-4.256,3.728l-0.784,36.128c9.488,1.024,19.44,1.2,29.552,0.624l0.08-27.312
		c-0.016-0.624-0.112-1.296-0.384-1.792L249.872,401.536z"/>
</g>
<g>
</g>
<g>
</g>
<g>
</g>
<g>
</g>
<g>
</g>
<g>
</g>
<g>
</g>
<g>
</g>
<g>
</g>
<g>
</g>
<g>
</g>
<g>
</g>
<g>
</g>
<g>
</g>
<g>
</g>
</svg>
