<?xml version="1.0" encoding="iso-8859-1"?>
<!-- Generator: Adobe Illustrator 19.0.0, SVG Export Plug-In . SVG Version: 6.00 Build 0)  -->
<svg version="1.1" id="Capa_1" xmlns="http://www.w3.org/2000/svg" xmlns:xlink="http://www.w3.org/1999/xlink" x="0px" y="0px"
	 viewBox="0 0 512 512" style="enable-background:new 0 0 512 512;" xml:space="preserve">
<circle style="fill:#FFD93B;" cx="256" cy="256" r="256"/>
<path style="fill:#F4C534;" d="M512,256c0,141.44-114.64,256-256,256c-80.48,0-152.32-37.12-199.28-95.28
	c43.92,35.52,99.84,56.72,160.72,56.72c141.36,0,256-114.56,256-256c0-60.88-21.2-116.8-56.72-160.72
	C474.8,103.68,512,175.52,512,256z"/>
<g>
	<path style="fill:#3E4347;" d="M235.104,224c-13.84,27.024-47.12,46.08-85.712,46.08c-38.688,0-71.776-18.96-85.712-45.888
		c-1.984-3.888,2.752-7.968,6.352-5.408c20.48,14.896,48.448,23.984,79.36,23.984s58.976-9.2,79.456-24.176
		C232.352,216.032,237.184,220.112,235.104,224z"/>
	<path style="fill:#3E4347;" d="M448.272,224c-13.84,27.024-47.12,46.08-85.712,46.08c-38.688,0-71.776-18.96-85.712-45.888
		c-1.984-3.888,2.752-7.968,6.352-5.408c20.48,14.896,48.448,23.984,79.36,23.984s58.976-9.2,79.456-24.176
		C445.536,216.032,450.368,220.112,448.272,224z"/>
	<path style="fill:#3E4347;" d="M464.992,157.536c-83.216-55.088-162.064-37.568-202.832-13.104
		c-4.144,2.496-8.752,2.08-12.72-0.384c-40.416-25.12-119.616-41.408-202.448,13.488c-6.736,4.624-9.232-4.032-3.264-9.056
		C101.904,98.992,196.48,53.056,256,136.848c59.52-83.792,154.096-37.872,212.272,11.632
		C474.24,153.504,471.728,162.16,464.992,157.536z"/>
	<path style="fill:#3E4347;" d="M318.72,375.536c0,34.72-28,62.88-62.72,62.88s-62.72-28.16-62.72-62.88
		c0-34.56,28-62.72,62.72-62.72S318.72,340.976,318.72,375.536z"/>
</g>
<g>
	<polygon style="fill:#E24B4B;" points="380.64,441.776 419.84,441.776 419.84,458.576 353.12,458.576 353.12,442.576 
		353.92,441.776 389.12,403.376 357.6,403.376 357.6,386.416 418.24,386.416 418.24,400.816 	"/>
	<polygon style="fill:#E24B4B;" points="509.92,368.496 509.92,388.816 424.16,388.816 424.16,368.976 424.96,368.176 
		472.48,316.016 430.08,316.016 430.08,295.696 507.84,295.696 507.84,313.296 457.44,368.496 	"/>
</g>
<g>
</g>
<g>
</g>
<g>
</g>
<g>
</g>
<g>
</g>
<g>
</g>
<g>
</g>
<g>
</g>
<g>
</g>
<g>
</g>
<g>
</g>
<g>
</g>
<g>
</g>
<g>
</g>
<g>
</g>
</svg>
