<?xml version="1.0" encoding="iso-8859-1"?>
<!-- Generator: Adobe Illustrator 19.0.0, SVG Export Plug-In . SVG Version: 6.00 Build 0)  -->
<svg version="1.1" id="Capa_1" xmlns="http://www.w3.org/2000/svg" xmlns:xlink="http://www.w3.org/1999/xlink" x="0px" y="0px"
	 viewBox="0 0 512 512" style="enable-background:new 0 0 512 512;" xml:space="preserve">
<circle style="fill:#FFD93B;" cx="256" cy="256" r="256"/>
<path style="fill:#F4C534;" d="M512,256c0,141.44-114.64,256-256,256c-80.48,0-152.32-37.12-199.28-95.28
	c43.92,35.52,99.84,56.72,160.72,56.72c141.36,0,256-114.56,256-256c0-60.88-21.2-116.8-56.72-160.72
	C474.8,103.68,512,175.52,512,256z"/>
<path style="fill:#E24B4B;" d="M340.512,376.432c-0.768,2-10.176,30.208-15.728,39.184c-12.496,20.208-39.216,38.976-68.832,38.976
	s-55.968-17.584-68.736-38.976c-5.408-9.072-14.96-37.184-15.728-39.184c12.208,5.92,84.464,10,84.464,10
	S328.4,382.352,340.512,376.432z"/>
<path style="fill:#D03F3F;" d="M314.864,394.064c-11.264,8.944-26.336,11.968-58.864,11.968c-32.4,0-49.472-4.496-58.864-11.968
	c-10.784-8.56,26.4-21.84,58.8-21.84C288.464,372.24,325.648,385.504,314.864,394.064z"/>
<path style="fill:#E24B4B;" d="M340.608,376.336c-8.384,16.592-42.336,23.456-60.064,23.456c-5.616,0-10.96-1.328-15.536-3.616
	c-5.728-2.864-12.208-2.864-17.92,0c-4.576,2.288-9.92,3.616-15.632,3.616c-17.728,0-51.76-6.864-60.064-23.456
	c27.072-0.192,42.336-33.744,60.064-33.744c9.92,0,18.688,4.016,24.592,10.304c5.904-6.288,14.688-10.304,24.496-10.304
	C298.288,342.592,313.44,376.144,340.608,376.336z"/>
<path style="fill:#F4C534;" d="M240.24,250.992c0,45.44-36.8,82.4-82.24,82.4s-82.24-36.96-82.24-82.4
	c0-45.28,36.8-82.24,82.24-82.24C203.44,168.752,240.24,205.712,240.24,250.992z"/>
<path style="fill:#FFFFFF;" d="M223.28,250.992c0,36.128-29.296,65.28-65.28,65.28s-65.28-29.152-65.28-65.28
	c0-35.984,29.296-65.136,65.28-65.136C193.984,185.872,223.28,215.024,223.28,250.992z"/>
<path style="fill:#F4C534;" d="M158,227.632c37.248,0,67.536,10.56,67.536,23.36v-44.208
	c-14.672-20.896-39.424-34.688-67.536-34.688c-28.096,0-52.848,13.792-67.52,34.688v44.208
	C90.464,238.192,120.752,227.632,158,227.632z"/>
<path style="fill:#3E4347;" d="M188.88,269.072c0,17.12-13.76,31.04-30.88,31.04s-30.88-13.92-30.88-31.04
	c0-16.96,13.76-30.88,30.88-30.88C175.12,238.208,188.88,252.112,188.88,269.072z"/>
<ellipse transform="matrix(-0.7071 -0.7071 0.7071 -0.7071 108.412 559.1602)" style="fill:#FFFFFF;" cx="170.012" cy="257.127" rx="9.12" ry="5.84"/>
<g>
	<path style="fill:#3E4347;" d="M232.72,252.752c-22.608-26.672-130.768-24.272-149.44,0c0,0,2.448-8.112,13.76-15.52
		c0-0.16-0.16-0.16-0.16-0.32c-5.888-10.176-3.696-22.576,0.8-27.04c0,10.064-1.104,15.088,9.12,21.92c5.6-2.72,12.16-4.8,19.2-6.4
		c-4.912-9.888-7.264-33.344-2.08-50.72c-1.392,17.904,4.256,36.016,13.28,48.64c4.64-0.8,9.6-1.28,14.56-1.44
		c9.536-19.088,14.832-41.936,15.2-62.24c3.648,21.904,0.496,51.728-3.68,62.24c8.32,0.32,16.32,1.28,24,2.88
		c10.512-12.224,16.864-35.872,11.36-55.52c8.928,17.104,7.408,45.184-0.48,58.4c2.72,0.8,5.28,1.76,7.68,2.88
		c10.976-8.24,19.84-24.288,19.84-40.8c3.648,14.656-0.448,33.776-9.44,45.76C230.336,244.032,232.72,252.752,232.72,252.752z"/>
	<path style="fill:#3E4347;" d="M229.36,164.32c-46.816-57.376-93.232-57.376-138.88,0C134.16,141.648,180.56,141.648,229.36,164.32
		z"/>
</g>
<path style="fill:#F4C534;" d="M436.24,250.992c0,45.44-36.8,82.4-82.24,82.4s-82.24-36.96-82.24-82.4
	c0-45.28,36.8-82.24,82.24-82.24C399.44,168.752,436.24,205.712,436.24,250.992z"/>
<path style="fill:#FFFFFF;" d="M419.28,250.992c0,36.128-29.296,65.28-65.28,65.28s-65.28-29.152-65.28-65.28
	c0-35.984,29.296-65.136,65.28-65.136C389.984,185.872,419.28,215.024,419.28,250.992z"/>
<path style="fill:#F4C534;" d="M354,227.632c37.248,0,67.536,10.56,67.536,23.36v-44.208c-14.672-20.896-39.44-34.688-67.536-34.688
	s-52.848,13.792-67.52,34.688v44.208C286.464,238.192,316.752,227.632,354,227.632z"/>
<path style="fill:#3E4347;" d="M384.88,269.072c0,17.12-13.76,31.04-30.88,31.04s-30.88-13.92-30.88-31.04
	c0-16.96,13.76-30.88,30.88-30.88C371.12,238.208,384.88,252.112,384.88,269.072z"/>
<ellipse transform="matrix(-0.7071 -0.7071 0.7071 -0.7071 443.0039 697.7535)" style="fill:#FFFFFF;" cx="366.011" cy="257.128" rx="9.12" ry="5.84"/>
<g>
	<path style="fill:#3E4347;" d="M428.72,252.752c-22.608-26.672-130.768-24.272-149.44,0c0,0,2.448-8.112,13.76-15.52
		c0-0.16-0.16-0.16-0.16-0.32c-5.888-10.176-3.696-22.576,0.8-27.04c0,10.064-1.104,15.088,9.12,21.92c5.6-2.72,12.16-4.8,19.2-6.4
		c-4.912-9.888-7.264-33.344-2.08-50.72c-1.392,17.904,4.256,36.016,13.28,48.64c4.64-0.8,9.6-1.28,14.56-1.44
		c9.536-19.088,14.832-41.936,15.2-62.24c3.648,21.904,0.512,51.728-3.68,62.24c8.32,0.32,16.32,1.28,24,2.88
		c10.512-12.224,16.864-35.872,11.36-55.52c8.928,17.104,7.408,45.184-0.48,58.4c2.72,0.8,5.28,1.76,7.68,2.88
		c10.976-8.24,19.84-24.288,19.84-40.8c3.648,14.656-0.448,33.776-9.44,45.76C426.336,244.032,428.72,252.752,428.72,252.752z"/>
	<path style="fill:#3E4347;" d="M425.36,164.32c-46.816-57.376-93.216-57.376-138.88,0C330.16,141.648,376.56,141.648,425.36,164.32
		z"/>
</g>
<g>
</g>
<g>
</g>
<g>
</g>
<g>
</g>
<g>
</g>
<g>
</g>
<g>
</g>
<g>
</g>
<g>
</g>
<g>
</g>
<g>
</g>
<g>
</g>
<g>
</g>
<g>
</g>
<g>
</g>
</svg>
