<?xml version="1.0" encoding="iso-8859-1"?>
<!-- Generator: Adobe Illustrator 19.0.0, SVG Export Plug-In . SVG Version: 6.00 Build 0)  -->
<svg version="1.1" id="Capa_1" xmlns="http://www.w3.org/2000/svg" xmlns:xlink="http://www.w3.org/1999/xlink" x="0px" y="0px"
	 viewBox="0 0 512 512" style="enable-background:new 0 0 512 512;" xml:space="preserve">
<circle style="fill:#FFD93B;" cx="256" cy="256" r="256"/>
<path style="fill:#F4C534;" d="M510.784,256c0,141.44-114.64,256-256,256c-80.48,0-152.32-37.12-199.28-95.28
	c43.92,35.52,99.84,56.72,160.72,56.72c141.36,0,256-114.56,256-256c0-60.88-21.2-116.8-56.72-160.72
	C473.584,103.68,510.784,175.52,510.784,256z"/>
<path style="fill:#3E4347;" d="M371.632,363.04C374.224,415.92,337.248,438,255.92,438c-81.168,0-118.128-22.016-115.552-74.96
	c-2.608-53.168,33.68-74.944,115.552-74.944C337.248,288.096,374.24,309.904,371.632,363.04z"/>
<g>
	<path style="fill:#FFFFFF;" d="M238.64,366.064c11.568,0.496,23.152,0.512,34.704,0c-1.52-21.44-2.192-42.816-2.64-64.176
		c-4.848-0.24-9.776-0.448-14.8-0.432c-4.96,0-9.84,0.144-14.64,0.432C240.848,323.248,240.176,344.624,238.64,366.064z"/>
	<path style="fill:#FFFFFF;" d="M331.056,315.584c0.032,13.856,0.992,27.936,3.36,42.256c7.536-1.76,15.056-4.032,22.64-6.544
		C354.128,336.208,345.808,323.76,331.056,315.584z"/>
	<path style="fill:#FFFFFF;" d="M324.224,374.624c-12,1.984-24.144,3.296-36.368,4.08c1.44,14.32,3.6,28.704,6.656,43.104
		c16.576-2.544,30.272-7.04,40.352-13.632C330.368,396.832,326.896,385.648,324.224,374.624z"/>
	<path style="fill:#FFFFFF;" d="M286.688,365.184c11.552-0.88,23.088-2.384,34.56-4.528c-3.216-17.44-4.608-34.544-5.024-51.408
		c-8.864-2.912-19.136-4.896-30.432-6.144C285.104,323.744,285.216,344.416,286.688,365.184z"/>
	<path style="fill:#FFFFFF;" d="M337.248,372.144c2.064,8.944,4.704,17.968,8.048,27.12c7.84-8.768,11.968-20.096,12.736-32.432
		C351.12,368.912,344.208,370.688,337.248,372.144z"/>
	<path style="fill:#FFFFFF;" d="M180.944,315.552c-14.752,8.128-23.088,20.592-25.984,35.728c7.568,2.544,15.088,4.752,22.624,6.544
		C179.968,343.504,180.928,329.44,180.944,315.552z"/>
	<path style="fill:#FFFFFF;" d="M153.984,366.832c0.768,12.352,4.88,23.632,12.72,32.448c3.344-9.136,6-18.192,8.048-27.136
		C167.808,370.624,160.88,368.88,153.984,366.832z"/>
	<path style="fill:#FFFFFF;" d="M274.432,379.456c-6.128,0.24-12.272,0.352-18.432,0.352c-6.144,0.016-12.272-0.144-18.416-0.352
		c-1.312,14.704-3.072,29.408-5.504,44.16c7.632,0.608,15.648,0.992,23.84,1.008c8.256,0,16.304-0.352,24-1.024
		C277.504,408.848,275.728,394.144,274.432,379.456z"/>
	<path style="fill:#FFFFFF;" d="M195.776,309.216c-0.416,16.88-1.808,34-5.024,51.44c11.488,2.176,23.008,3.584,34.56,4.528
		c1.472-20.752,1.584-41.44,0.88-62.08C214.896,304.32,204.64,306.384,195.776,309.216z"/>
	<path style="fill:#FFFFFF;" d="M224.144,378.704c-12.24-0.864-24.368-2.064-36.368-4.08c-2.672,11.056-6.144,22.24-10.64,33.568
		c10.08,6.656,23.776,11.088,40.368,13.648C220.544,407.424,222.704,393.04,224.144,378.704z"/>
</g>
<g>
	<path style="fill:#3E4347;" d="M229.696,240.384c0,1.12,0,2.4-0.16,3.52c-10.4-10.4-32.96-17.6-59.2-17.6s-48.8,7.2-59.2,17.6
		c-0.16-1.12-0.16-2.4-0.16-3.52c0-43.2,26.56-78.08,59.36-78.08S229.696,197.184,229.696,240.384z"/>
	<path style="fill:#3E4347;" d="M401.024,240.384c0,1.12,0,2.4-0.16,3.52c-10.4-10.4-32.96-17.6-59.2-17.6
		c-26.24,0-48.8,7.2-59.2,17.6c-0.16-1.12-0.16-2.4-0.16-3.52c0-43.2,26.56-78.08,59.36-78.08
		C374.464,162.304,401.024,197.184,401.024,240.384z"/>
</g>
<g>
</g>
<g>
</g>
<g>
</g>
<g>
</g>
<g>
</g>
<g>
</g>
<g>
</g>
<g>
</g>
<g>
</g>
<g>
</g>
<g>
</g>
<g>
</g>
<g>
</g>
<g>
</g>
<g>
</g>
</svg>
