<?xml version="1.0" encoding="iso-8859-1"?>
<!-- Generator: Adobe Illustrator 19.0.0, SVG Export Plug-In . SVG Version: 6.00 Build 0)  -->
<svg version="1.1" id="Capa_1" xmlns="http://www.w3.org/2000/svg" xmlns:xlink="http://www.w3.org/1999/xlink" x="0px" y="0px"
	 viewBox="0 0 512 512" style="enable-background:new 0 0 512 512;" xml:space="preserve">
<circle style="fill:#FFD93B;" cx="256" cy="256" r="256"/>
<g>
	<path style="fill:#F4C534;" d="M510.784,256c0,141.44-114.64,256-256,256c-80.48,0-152.32-37.12-199.28-95.28
		c43.92,35.52,99.84,56.72,160.72,56.72c141.36,0,256-114.56,256-256c0-60.88-21.2-116.8-56.72-160.72
		C473.584,103.68,510.784,175.52,510.784,256z"/>
	<ellipse style="fill:#F4C534;" cx="160.32" cy="238.016" rx="78.56" ry="78.48"/>
</g>
<ellipse style="fill:#FFFFFF;" cx="160.32" cy="237.984" rx="61.52" ry="61.44"/>
<path style="fill:#3E4347;" d="M203.728,237.984c0,16.816-13.568,30.528-30.384,30.528s-30.656-13.712-30.656-30.528
	s13.84-30.512,30.656-30.512S203.728,221.168,203.728,237.984z"/>
<path style="fill:#5A5F63;" d="M190.896,231.584c-2.192,2.192-6.592,1.568-9.728-1.568c-3.136-3.136-3.76-7.536-1.568-9.728
	s6.592-1.408,9.568,1.728C192.304,225.008,193.088,229.392,190.896,231.584z"/>
<path style="fill:#45CBEA;" d="M176.688,278.784c-12.8,0-12.8-4.16-25.6-4.16s-12.8,4.16-25.44,4.16c-6.4,0-9.44-0.96-12.64-1.92
	v191.504c28.448,19.184,60.992,32.624,96,39.136v-232.4c-1.76-0.32-4-0.48-6.72-0.48
	C189.472,274.624,189.472,278.784,176.688,278.784z"/>
<g>
	<path style="fill:#38C0DC;" d="M113.008,451.664v17.216c28.496,19.024,61.008,32.288,96,38.624V473.12
		C174.912,472.176,142.496,464.672,113.008,451.664z"/>
	<path style="fill:#38C0DC;" d="M168.128,277.904l8.56,207.792v-207.12C172.928,278.576,170.32,278.288,168.128,277.904z"/>
	<path style="fill:#38C0DC;" d="M196.864,368.992c2.336,43.008,2.336,86,0,129.008C194.24,454.336,194.16,411.312,196.864,368.992z"
		/>
	<path style="fill:#38C0DC;" d="M158.048,285.68c1.68,56.4,1.68,112.784,0,169.184C156.16,397.616,156.096,341.184,158.048,285.68z"
		/>
	<path style="fill:#38C0DC;" d="M129.552,292.656c-2.336,60.384-2.336,120.768,0,181.136
		C132.176,412.496,132.256,352.08,129.552,292.656z"/>
</g>
<ellipse style="fill:#F4C534;" cx="351.632" cy="238.016" rx="78.56" ry="78.48"/>
<ellipse style="fill:#FFFFFF;" cx="351.6" cy="237.984" rx="61.52" ry="61.44"/>
<path style="fill:#3E4347;" d="M395.008,237.984c0,16.816-13.568,30.528-30.384,30.528s-30.656-13.712-30.656-30.528
	s13.84-30.512,30.656-30.512S395.008,221.168,395.008,237.984z"/>
<path style="fill:#5A5F63;" d="M382.176,231.584c-2.192,2.192-6.592,1.568-9.728-1.568c-3.136-3.136-3.76-7.536-1.568-9.728
	c2.192-2.192,6.592-1.408,9.568,1.728C383.584,225.008,384.368,229.392,382.176,231.584z"/>
<path style="fill:#45CBEA;" d="M367.952,278.784c-12.8,0-12.8-4.16-25.6-4.16s-12.8,4.16-25.44,4.16c-6.4,0-9.44-0.96-12.64-1.92
	v230.432c35.056-6.688,67.584-20.448,96-39.872v-192.32c-1.76-0.32-4-0.48-6.72-0.48
	C380.752,274.624,380.752,278.784,367.952,278.784z"/>
<g>
	<path style="fill:#38C0DC;" d="M304.272,457.568v49.552c35.12-6.88,67.616-20.96,96-40.608V395.12
		C373.68,422.672,340.944,444.112,304.272,457.568z"/>
	<path style="fill:#38C0DC;" d="M359.408,277.904l8.56,198.256V278.544C364.208,278.544,361.6,278.272,359.408,277.904z"/>
	<path style="fill:#38C0DC;" d="M388.144,343.6c2.336,31.008,2.336,62.032,0,93.04C385.52,405.152,385.424,374.128,388.144,343.6z"
		/>
	<path style="fill:#38C0DC;" d="M349.328,285.328c1.68,53.808,1.68,107.616,0,161.424
		C347.44,392.112,347.376,338.272,349.328,285.328z"/>
	<path style="fill:#38C0DC;" d="M320.832,292.656c-2.336,60.384-2.336,120.768,0,181.136
		C323.456,412.496,323.536,352.08,320.832,292.656z"/>
</g>
<g>
	<path style="fill:#3E4347;" d="M77.248,169.6c0,0,33.568-57.328,106.752-63.856C122.304,93.568,83.92,111.056,77.248,169.6z"/>
	<path style="fill:#3E4347;" d="M434.752,169.6c0,0-33.568-57.328-106.736-63.856C389.696,93.568,428.08,111.056,434.752,169.6z"/>
</g>
<g>
</g>
<g>
</g>
<g>
</g>
<g>
</g>
<g>
</g>
<g>
</g>
<g>
</g>
<g>
</g>
<g>
</g>
<g>
</g>
<g>
</g>
<g>
</g>
<g>
</g>
<g>
</g>
<g>
</g>
</svg>
