<?xml version="1.0" encoding="iso-8859-1"?>
<!-- Generator: Adobe Illustrator 19.0.0, SVG Export Plug-In . SVG Version: 6.00 Build 0)  -->
<svg version="1.1" id="Capa_1" xmlns="http://www.w3.org/2000/svg" xmlns:xlink="http://www.w3.org/1999/xlink" x="0px" y="0px"
	 viewBox="0 0 512 512" style="enable-background:new 0 0 512 512;" xml:space="preserve">
<circle style="fill:#FFD93B;" cx="256" cy="256" r="256"/>
<path style="fill:#F4C534;" d="M510.784,256c0,141.44-114.64,256-256,256c-80.48,0-152.32-37.12-199.28-95.28
	c43.92,35.52,99.84,56.72,160.72,56.72c141.36,0,256-114.56,256-256c0-60.88-21.2-116.8-56.72-160.72
	C473.584,103.68,510.784,175.52,510.784,256z"/>
<path style="fill:#3E4347;" d="M390.8,333.12c13.712,7.008-28.128,88.4-133.296,88.24c-105.168,0.144-147.008-81.232-133.296-88.24
	c11.184-8.736,60.336,33.856,133.296,31.936C330.464,366.944,379.616,324.416,390.8,333.12z"/>
<g>
	<path style="fill:#FFFFFF;" d="M323.28,434.496c6.496-28.16-5.552-60.384-12.592-75.68v-0.144
		c14.08-3.52,26.544-8.128,37.232-12.448C357.264,399.44,323.28,434.496,323.28,434.496z"/>
	<path style="fill:#FFFFFF;" d="M204.272,358.832c-6.896,15.296-19.088,47.648-12.592,75.68c0,0-33.856-35.056-24.64-88.272
		c10.704,4.336,23.152,8.928,37.232,12.448V358.832z"/>
</g>
<g>
	<path style="fill:#F4C534;" d="M411.392,367.136c4.192-12.992,8.656-31.824,1.872-43.68c-9.216-21.472-36.896-17.568-57.648-12.992
		c33.712-17.12,56.576-6.048,63.04,10.464C423.584,330.656,424.384,346.48,411.392,367.136z"/>
	<path style="fill:#F4C534;" d="M391.472,372.544c6.288-11.76,15.76-34.096,7.472-44.608c-10.048-13.328-26.816-6.352-43.6-1.648
		c16.048-11.264,36.752-17.616,48.768-2.112C413.936,338.16,403.808,360.912,391.472,372.544z"/>
	<path style="fill:#F4C534;" d="M100.608,367.136c-4.192-12.992-8.656-31.824-1.872-43.68c9.216-21.472,36.896-17.568,57.648-12.992
		c-33.712-17.12-56.576-6.048-63.04,10.464C88.416,330.656,87.632,346.48,100.608,367.136z"/>
	<path style="fill:#F4C534;" d="M120.528,372.544c-6.288-11.76-15.76-34.096-7.456-44.608c10.048-13.328,26.816-6.352,43.6-1.648
		c-16.048-11.264-36.752-17.616-48.768-2.112C98.064,338.16,108.192,360.912,120.528,372.544z"/>
</g>
<g>
	<path style="fill:#3E4347;" d="M193.072,191.776c-18.944,0-34.672-4.944-47.328-13.056c-6.816,10.56-11.072,24.704-11.072,40.352
		c0,32.592,18.112,58.992,40.464,58.992c22.336,0,40.464-26.416,40.464-58.992c0-10.528-2.048-20.272-5.36-28.832
		C204.8,191.168,199.136,191.776,193.072,191.776z"/>
	<path style="fill:#3E4347;" d="M318.928,191.776c18.944,0,34.672-4.944,47.328-13.056c6.816,10.56,11.072,24.704,11.072,40.352
		c0,32.592-18.112,58.992-40.464,58.992S296.4,251.648,296.4,219.072c0-10.528,2.048-20.272,5.36-28.832
		C307.2,191.168,312.88,191.776,318.928,191.776z"/>
</g>
<g>
</g>
<g>
</g>
<g>
</g>
<g>
</g>
<g>
</g>
<g>
</g>
<g>
</g>
<g>
</g>
<g>
</g>
<g>
</g>
<g>
</g>
<g>
</g>
<g>
</g>
<g>
</g>
<g>
</g>
</svg>
