<?xml version="1.0" encoding="iso-8859-1"?>
<!-- Generator: Adobe Illustrator 19.0.0, SVG Export Plug-In . SVG Version: 6.00 Build 0)  -->
<svg version="1.1" id="Capa_1" xmlns="http://www.w3.org/2000/svg" xmlns:xlink="http://www.w3.org/1999/xlink" x="0px" y="0px"
	 viewBox="0 0 512 512" style="enable-background:new 0 0 512 512;" xml:space="preserve">
<circle style="fill:#FFD93B;" cx="256" cy="256" r="256"/>
<path style="fill:#F4C534;" d="M510.784,256c0,141.44-114.64,256-256,256c-80.48,0-152.32-37.12-199.28-95.28
	c43.92,35.52,99.84,56.72,160.72,56.72c141.36,0,256-114.56,256-256c0-60.88-21.2-116.8-56.72-160.72
	C473.584,103.68,510.784,175.52,510.784,256z"/>
<path style="fill:#3E4347;" d="M334.48,76.224c-87.36-51.84-151.68-4.32-156.96-0.32C256-34,334.48,76.224,334.48,76.224z"/>
<circle style="fill:#F4C534;" cx="256" cy="207.424" r="118.08"/>
<ellipse style="fill:#DE9C25;" cx="256" cy="207.424" rx="118.08" ry="86.592"/>
<path style="fill:#FFFFFF;" d="M374.032,207.424c0,24.64-52.8,44.64-118.08,44.64s-118.08-20-118.08-44.64
	c0-47.84,52.8-86.56,118.08-86.56S374.032,159.584,374.032,207.424z"/>
<path style="fill:#3E4347;" d="M293.92,249.664c-11.84,1.6-24.64,2.4-37.92,2.4s-26.08-0.8-37.92-2.4
	c-32.32-32.88-8.624-89.28,37.92-89.28C302.416,160.384,326.352,216.672,293.92,249.664z"/>
<ellipse transform="matrix(-0.7071 -0.7071 0.7071 -0.7071 335.285 524.4908)" style="fill:#FFFFFF;" cx="276.268" cy="192.806" rx="15.856" ry="8.8"/>
<path style="fill:#3E4347;" d="M325.264,401.776c0,11.712-9.568,21.28-21.28,21.28h-96.48c-11.872,0-21.28-9.568-21.28-21.28
	s9.408-21.28,21.28-21.28H304C315.712,380.512,325.264,390.08,325.264,401.776z"/>
<g>
</g>
<g>
</g>
<g>
</g>
<g>
</g>
<g>
</g>
<g>
</g>
<g>
</g>
<g>
</g>
<g>
</g>
<g>
</g>
<g>
</g>
<g>
</g>
<g>
</g>
<g>
</g>
<g>
</g>
</svg>
