<?xml version="1.0" encoding="iso-8859-1"?>
<!-- Generator: Adobe Illustrator 19.0.0, SVG Export Plug-In . SVG Version: 6.00 Build 0)  -->
<svg version="1.1" id="Capa_1" xmlns="http://www.w3.org/2000/svg" xmlns:xlink="http://www.w3.org/1999/xlink" x="0px" y="0px"
	 viewBox="0 0 512 512" style="enable-background:new 0 0 512 512;" xml:space="preserve">
<circle style="fill:#FFD93B;" cx="256" cy="256" r="256"/>
<path style="fill:#F4C534;" d="M510.784,256c0,141.44-114.64,256-256,256c-80.48,0-152.32-37.12-199.28-95.28
	c43.92,35.52,99.84,56.72,160.72,56.72c141.36,0,256-114.56,256-256c0-60.88-21.2-116.8-56.72-160.72
	C473.584,103.68,510.784,175.52,510.784,256z"/>
<g>
	<path style="fill:#3E4347;" d="M284.208,269.504c-3.36,7.056,3.984,14.144,10.96,10.64c32.928-16.944,81.056-11.024,112.128,17.344
		c5.344,4.912,14.448,0.752,13.312-6.656C410.544,221.52,315.904,205.696,284.208,269.504z"/>
	<path style="fill:#3E4347;" d="M394.976,187.968c1.232,4.592-73.968-2.608-130,55.328
		C264.976,243.296,290.72,133.984,394.976,187.968z"/>
	<path style="fill:#3E4347;" d="M221.296,148.624c1.232,4.592-73.968-2.608-130,55.328
		C91.296,203.952,117.04,94.656,221.296,148.624z"/>
	<ellipse style="fill:#3E4347;" cx="175.808" cy="238.208" rx="45.504" ry="56"/>
	<path style="fill:#3E4347;" d="M387.008,346.944c-7.712-3.488-52.384,53.04-132.08,50.448
		c-79.696,2.624-124.368-53.904-132.08-50.448c-13.552,0.656,25.392,101.232,132.08,101.04
		C361.616,448.192,400.56,347.616,387.008,346.944z"/>
</g>
<g>
</g>
<g>
</g>
<g>
</g>
<g>
</g>
<g>
</g>
<g>
</g>
<g>
</g>
<g>
</g>
<g>
</g>
<g>
</g>
<g>
</g>
<g>
</g>
<g>
</g>
<g>
</g>
<g>
</g>
</svg>
