<?xml version="1.0" encoding="iso-8859-1"?>
<!-- Generator: Adobe Illustrator 19.0.0, SVG Export Plug-In . SVG Version: 6.00 Build 0)  -->
<svg version="1.1" id="Capa_1" xmlns="http://www.w3.org/2000/svg" xmlns:xlink="http://www.w3.org/1999/xlink" x="0px" y="0px"
	 viewBox="0 0 512 512" style="enable-background:new 0 0 512 512;" xml:space="preserve">
<circle style="fill:#FFD93B;" cx="256" cy="256" r="256"/>
<path style="fill:#F4C534;" d="M510.784,256c0,141.44-114.64,256-256,256c-80.48,0-152.32-37.12-199.28-95.28
	c43.92,35.52,99.84,56.72,160.72,56.72c141.36,0,256-114.56,256-256c0-60.88-21.2-116.8-56.72-160.72
	C473.584,103.68,510.784,175.52,510.784,256z"/>
<g>
	<path style="fill:#3E4347;" d="M363.12,404.064C352.8,410.544,314.672,366.4,256,366.4c-58.192,0-96.8,44.128-107.12,37.664
		c-13.056-4.768,17.968-75.776,107.12-75.888C345.168,328.256,376.176,399.28,363.12,404.064z"/>
	<path style="fill:#3E4347;" d="M417.504,296.384c-1.44,8.48-12.8,9.92-16.96,2.72c-24.464-42.016-75.28-64.464-116.32-57.28
		c-8.8,1.44-14.56-8.8-8.48-15.36C332.096,167.728,430.24,217.168,417.504,296.384z"/>
	<path style="fill:#3E4347;" d="M236.224,226.464c6.08,6.56,0.48,16.8-8.32,15.36c-41.728-7.232-92.256,15.664-116.48,57.28
		c-4.16,7.2-15.52,5.76-16.8-2.72C81.888,217.28,179.792,167.664,236.224,226.464z"/>
</g>
<g>
</g>
<g>
</g>
<g>
</g>
<g>
</g>
<g>
</g>
<g>
</g>
<g>
</g>
<g>
</g>
<g>
</g>
<g>
</g>
<g>
</g>
<g>
</g>
<g>
</g>
<g>
</g>
<g>
</g>
</svg>
