<?xml version="1.0" encoding="iso-8859-1"?>
<!-- Generator: Adobe Illustrator 19.0.0, SVG Export Plug-In . SVG Version: 6.00 Build 0)  -->
<svg version="1.1" id="Capa_1" xmlns="http://www.w3.org/2000/svg" xmlns:xlink="http://www.w3.org/1999/xlink" x="0px" y="0px"
	 viewBox="0 0 512 512" style="enable-background:new 0 0 512 512;" xml:space="preserve">
<circle style="fill:#FFD93B;" cx="256" cy="256" r="256"/>
<g>
	<path style="fill:#F4C534;" d="M510.784,256c0,141.44-114.64,256-256,256c-80.48,0-152.32-37.12-199.28-95.28
		c43.92,35.52,99.84,56.72,160.72,56.72c141.36,0,256-114.56,256-256c0-60.88-21.2-116.8-56.72-160.72
		C473.584,103.68,510.784,175.52,510.784,256z"/>
	<path style="fill:#F4C534;" d="M239.824,239.056c0,50.736-41.04,91.776-91.776,91.776s-91.776-41.04-91.776-91.776
		c0-50.592,41.04-91.776,91.776-91.776S239.824,188.464,239.824,239.056z"/>
</g>
<path style="fill:#FFFFFF;" d="M222.256,239.056c0,41.04-33.168,74.208-74.208,74.208S73.84,280.096,73.84,239.056
	c0-40.896,33.168-74.208,74.208-74.208C189.088,164.864,222.256,198.16,222.256,239.056z"/>
<path style="fill:#3E4347;" d="M188.528,239.056c0,22.352-17.984,40.48-40.48,40.48c-22.48,0-40.48-18.128-40.48-40.48
	s17.984-40.48,40.48-40.48C170.544,198.592,188.528,216.72,188.528,239.056z"/>
<ellipse transform="matrix(-0.7071 -0.7071 0.7071 -0.7071 118.5764 498.408)" style="fill:#FFFFFF;" cx="162.512" cy="224.646" rx="12.432" ry="8.064"/>
<path style="fill:#F4C534;" d="M453.28,239.056c0,50.736-41.04,91.776-91.776,91.776s-91.776-41.04-91.776-91.776
	c0-50.592,41.04-91.776,91.776-91.776S453.28,188.464,453.28,239.056z"/>
<path style="fill:#FFFFFF;" d="M435.712,239.056c0,41.04-33.168,74.208-74.208,74.208s-74.208-33.168-74.208-74.208
	c0-40.896,33.168-74.208,74.208-74.208C402.544,164.864,435.712,198.16,435.712,239.056z"/>
<path style="fill:#3E4347;" d="M401.984,239.056c0,22.352-17.984,40.48-40.48,40.48c-22.48,0-40.48-18.128-40.48-40.48
	s17.984-40.48,40.48-40.48C383.984,198.592,401.984,216.72,401.984,239.056z"/>
<ellipse transform="matrix(-0.7071 -0.7071 0.7071 -0.7071 482.9462 649.3535)" style="fill:#FFFFFF;" cx="375.959" cy="224.655" rx="12.432" ry="8.064"/>
<g>
	<path style="fill:#3E4347;" d="M207.488,71.008c0,0-53.504,1.504-100.496,47.008C106.992,118,127.488,36,207.488,71.008z"/>
	<path style="fill:#3E4347;" d="M302.064,71.008c0,0,53.504,1.504,100.496,47.008C402.56,118,382.064,36,302.064,71.008z"/>
	<ellipse style="fill:#3E4347;" cx="256" cy="397.312" rx="96.64" ry="33.808"/>
</g>
<g>
</g>
<g>
</g>
<g>
</g>
<g>
</g>
<g>
</g>
<g>
</g>
<g>
</g>
<g>
</g>
<g>
</g>
<g>
</g>
<g>
</g>
<g>
</g>
<g>
</g>
<g>
</g>
<g>
</g>
</svg>
