<?xml version="1.0" encoding="iso-8859-1"?>
<!-- Generator: Adobe Illustrator 19.0.0, SVG Export Plug-In . SVG Version: 6.00 Build 0)  -->
<svg version="1.1" id="Capa_1" xmlns="http://www.w3.org/2000/svg" xmlns:xlink="http://www.w3.org/1999/xlink" x="0px" y="0px"
	 viewBox="0 0 512 512" style="enable-background:new 0 0 512 512;" xml:space="preserve">
<circle style="fill:#FFD93B;" cx="256" cy="256" r="256"/>
<g>
	<path style="fill:#F4C534;" d="M512,256c0,141.44-114.64,256-256,256c-80.48,0-152.32-37.12-199.28-95.28
		c43.92,35.52,99.84,56.72,160.72,56.72c141.36,0,256-114.56,256-256c0-60.88-21.2-116.8-56.72-160.72
		C474.8,103.68,512,175.52,512,256z"/>
	<path style="fill:#F4C534;" d="M195.488,161.872c-21.632-3.376-43.024-7.36-59.696-22.72c-0.576-0.528-0.96-1.168-1.488-1.728
		c-16.816,2.672-32.288,8.272-43.248,16.912c-29.888,26.592-29.984,84.592,0,111.184c31.76,25.12,101.008,25.12,132.752,0
		c28.16-24.976,29.872-77.632,5.152-105.968C219.328,162.976,208.032,163.84,195.488,161.872z"/>
</g>
<path style="fill:#FFFFFF;" d="M206.512,162.8c-3.568-0.096-7.216-0.336-11.024-0.928c-13.584-2.128-27.072-4.496-39.36-9.76
	c-22.528,0.224-42.944,5.84-54.08,14.576c-10.608,9.44-16.928,25.664-16.912,43.376c0.016,17.632,6.336,33.728,16.176,42.48
	c12.096,9.568,33.072,15.28,56.112,15.28s44.016-5.712,55.408-14.672c10.608-9.408,16.944-25.568,16.944-43.216
	c0-17.664-6.336-33.824-16.224-42.624C211.472,165.68,209.056,164.192,206.512,162.8z"/>
<g>
	<path style="fill:#3E4347;" d="M231.264,126.544c12.416,11.872,15.168,38.912-14.096,43.408c-18.176,3.2-40.112-3.008-57.424-9.088
		c-40.48-16.112-70.416-36.4-87.552-53.968c22.848,4.016,73.968,23.84,95.632,32.016c10.704,3.984,36.336,13.312,48.016,13.68
		C225.888,152.976,235.712,151.104,231.264,126.544z"/>
	<ellipse style="fill:#3E4347;" cx="188.576" cy="216.464" rx="31.152" ry="36.368"/>
</g>
<ellipse transform="matrix(-0.6125 -0.7905 0.7905 -0.6125 159.9257 481.7829)" style="fill:#5A5F63;" cx="198.054" cy="201.692" rx="9.872" ry="8.064"/>
<path style="fill:#F4C534;" d="M316.512,161.872c21.648-3.376,43.024-7.36,59.696-22.72c0.576-0.528,0.96-1.168,1.488-1.728
	c16.816,2.688,32.288,8.272,43.248,16.928c29.888,26.592,30,84.592,0,111.184c-31.76,25.12-101.008,25.12-132.752,0
	c-28.16-24.976-29.872-77.632-5.152-105.968C292.672,162.976,303.968,163.84,316.512,161.872z"/>
<path style="fill:#FFFFFF;" d="M305.504,162.8c3.568-0.096,7.216-0.336,11.024-0.928c13.584-2.128,27.072-4.496,39.36-9.76
	c22.528,0.224,42.944,5.84,54.08,14.576c10.608,9.44,16.928,25.664,16.912,43.376c-0.016,17.632-6.336,33.728-16.176,42.48
	c-12.096,9.568-33.072,15.28-56.112,15.28s-44.016-5.712-55.408-14.672c-10.608-9.408-16.944-25.568-16.944-43.216
	c0-17.664,6.336-33.824,16.224-42.624C300.528,165.68,302.944,164.192,305.504,162.8z"/>
<g>
	<path style="fill:#3E4347;" d="M280.736,126.544c-12.4,11.872-15.168,38.912,14.096,43.408c18.176,3.2,40.112-3.008,57.424-9.088
		c40.496-16.112,70.432-36.4,87.552-53.968c-22.848,4.016-73.968,23.84-95.632,32.016c-10.704,3.984-36.336,13.312-48.016,13.68
		C286.112,152.976,276.288,151.104,280.736,126.544z"/>
	<ellipse style="fill:#3E4347;" cx="323.36" cy="216.464" rx="31.152" ry="36.368"/>
</g>
<ellipse transform="matrix(-0.7905 -0.6125 0.6125 -0.7905 438.5975 553.3748)" style="fill:#5A5F63;" cx="313.948" cy="201.67" rx="8.064" ry="9.872"/>
<path style="fill:#3E4347;" d="M381.456,352.192c-23.84,44.928-70.672,75.6-125.184,75.6c-54.784,0-101.632-30.96-125.728-76.16
	c-3.552-6.576,3.84-13.968,10.688-10.672c79.168,35.6,155.584,34.512,229.552,0.544
	C377.616,338.224,385.024,345.344,381.456,352.192z"/>
<g>
</g>
<g>
</g>
<g>
</g>
<g>
</g>
<g>
</g>
<g>
</g>
<g>
</g>
<g>
</g>
<g>
</g>
<g>
</g>
<g>
</g>
<g>
</g>
<g>
</g>
<g>
</g>
<g>
</g>
</svg>
