<?xml version="1.0" encoding="iso-8859-1"?>
<!-- Generator: Adobe Illustrator 19.0.0, SVG Export Plug-In . SVG Version: 6.00 Build 0)  -->
<svg version="1.1" id="Capa_1" xmlns="http://www.w3.org/2000/svg" xmlns:xlink="http://www.w3.org/1999/xlink" x="0px" y="0px"
	 viewBox="0 0 512 512" style="enable-background:new 0 0 512 512;" xml:space="preserve">
<circle style="fill:#FFD93B;" cx="256" cy="256" r="256"/>
<g>
	<path style="fill:#F4C534;" d="M512,256c0,141.44-114.64,256-256,256c-80.48,0-152.32-37.12-199.28-95.28
		c43.92,35.52,99.84,56.72,160.72,56.72c141.36,0,256-114.56,256-256c0-60.88-21.2-116.8-56.72-160.72
		C474.8,103.68,512,175.52,512,256z"/>
	
		<ellipse transform="matrix(-0.9909 -0.1347 0.1347 -0.9909 286.7144 498.2209)" style="fill:#F4C534;" cx="160.211" cy="239.411" rx="85.473" ry="85.553"/>
</g>
<path style="fill:#FFFFFF;" d="M231.056,248.992c-7.632,39.808-45.52,67.84-84.656,62.512s-64.736-41.984-57.088-81.792
	c7.632-39.808,45.648-67.824,84.784-62.512C213.232,172.528,238.704,209.184,231.056,248.992z"/>
<ellipse transform="matrix(-0.9909 -0.1347 0.1347 -0.9909 325.303 511.3269)" style="fill:#65B1EF;" cx="179.949" cy="244.659" rx="38.593" ry="46.209"/>
<ellipse transform="matrix(-0.9909 -0.1347 0.1347 -0.9909 324.032 518.0758)" style="fill:#3E4347;" cx="179.542" cy="248.076" rx="27.856" ry="33.424"/>
<ellipse style="fill:#FFFFFF;" cx="195.602" cy="227.812" rx="9.44" ry="9.44"/>
<ellipse transform="matrix(-0.9909 -0.1347 0.1347 -0.9909 671.8286 446.2143)" style="fill:#F4C534;" cx="351.009" cy="200.38" rx="85.473" ry="85.553"/>
<path style="fill:#FFFFFF;" d="M421.84,210.032c-7.632,39.808-45.52,67.84-84.656,62.512s-64.72-41.984-57.088-81.792
	s45.648-67.824,84.784-62.512C404.016,133.568,429.488,170.224,421.84,210.032z"/>
<ellipse transform="matrix(-0.9909 -0.1347 0.1347 -0.9909 642.5394 425.1881)" style="fill:#65B1EF;" cx="335.653" cy="190.858" rx="38.593" ry="46.209"/>
<ellipse transform="matrix(-0.9909 -0.1347 0.1347 -0.9909 641.2279 431.998)" style="fill:#3E4347;" cx="335.228" cy="194.307" rx="27.856" ry="33.424"/>
<ellipse style="fill:#FFFFFF;" cx="354.659" cy="177.101" rx="9.44" ry="9.44"/>
<path style="fill:#F4C534;" d="M165.136,386.752c10.752,8.544,21.664,14.544,33.376,18.944c28.528,9.776,55.12,7.072,75.52-3.104
	c33.184-15.568,70.496-61.728,116.08-40.064c-46.592,0.352-65.408,41.808-105.792,61.728c-31.808,14.672-67.152,10.976-92.144-6.4
	C177.936,408.112,171.632,399.056,165.136,386.752z"/>
<g>
</g>
<g>
</g>
<g>
</g>
<g>
</g>
<g>
</g>
<g>
</g>
<g>
</g>
<g>
</g>
<g>
</g>
<g>
</g>
<g>
</g>
<g>
</g>
<g>
</g>
<g>
</g>
<g>
</g>
</svg>
