<?xml version="1.0" encoding="iso-8859-1"?>
<!-- Generator: Adobe Illustrator 19.0.0, SVG Export Plug-In . SVG Version: 6.00 Build 0)  -->
<svg version="1.1" id="Capa_1" xmlns="http://www.w3.org/2000/svg" xmlns:xlink="http://www.w3.org/1999/xlink" x="0px" y="0px"
	 viewBox="0 0 512 512" style="enable-background:new 0 0 512 512;" xml:space="preserve">
<circle style="fill:#FFD93B;" cx="256" cy="256" r="256"/>
<g>
	<path style="fill:#F4C534;" d="M512,256c0,141.44-114.64,256-256,256c-80.48,0-152.32-37.12-199.28-95.28
		c43.92,35.52,99.84,56.72,160.72,56.72c141.36,0,256-114.56,256-256c0-60.88-21.2-116.8-56.72-160.72
		C474.8,103.68,512,175.52,512,256z"/>
	<path style="fill:#F4C534;" d="M242.816,235.088c0,45.088-36.672,81.76-81.936,81.76s-81.936-36.672-81.936-81.76
		c0-45.264,36.672-81.936,81.936-81.936C206.16,153.168,242.816,189.824,242.816,235.088z"/>
</g>
<path style="fill:#FFFFFF;" d="M227.216,235.072c4.672,36.912-21.216,66.944-57.856,66.944s-70.112-30.032-74.784-66.944
	c-4.688-37.056,21.2-67.072,57.84-67.072S222.528,198.016,227.216,235.072z"/>
<path style="fill:#3E4347;" d="M213.04,231.952c0,22.56-15.392,40.912-34.272,40.912s-34.272-18.352-34.272-40.912
	c0-22.384,15.392-40.736,34.272-40.736C197.664,191.216,213.04,209.584,213.04,231.952z"/>
<path style="fill:#65B1EF;" d="M169.376,302.016c26.528,0,47.216-15.84,54.96-38.528c-2.64-0.592-5.248-1.472-7.744-2.656
	l-0.112-0.048c-10-4.736-21.6-4.736-31.584,0.016l-0.032,0c-10,4.752-21.616,4.752-31.616,0h-0.016c-10-4.752-21.616-4.752-31.616,0
	c-5.184,2.464-10.816,3.6-16.416,3.504C118.784,286.528,143.168,302.016,169.376,302.016z"/>
<g>
	<path style="fill:#FFFFFF;" d="M169.28,241.184c0,2.96-2.4,5.552-5.552,5.552c-3.152,0-5.552-2.592-5.552-5.552
		c0-3.136,2.4-5.728,5.552-5.728C166.88,235.456,169.28,238.048,169.28,241.184z"/>
	<path style="fill:#FFFFFF;" d="M195.92,215.472c0,6.848-5.552,12.208-12.208,12.208c-6.848,0-12.208-5.36-12.208-12.208
		c0-6.656,5.36-12.016,12.208-12.016C190.368,203.456,195.92,208.816,195.92,215.472z"/>
</g>
<path style="fill:#4E99D2;" d="M205.296,257.488c-6.112,9.44-15.728,15.36-26.448,15.36c-9.072,0-17.2-4.256-23.312-11.104
	c4.256,1.856,8.88,2.784,13.504,2.784c5.36,0,10.736-1.296,15.904-3.696c4.992-2.4,10.352-3.696,15.728-3.696
	C202.144,257.104,203.808,257.296,205.296,257.488z"/>
<g>
	<path style="fill:#65B1EF;" d="M130.032,314.416c-13.04,8.8-24.048,21.568-27.76,36.864c-0.992,4.112-1.472,8.384-2.992,12.336
		c-1.52,3.968-4.336,7.712-8.368,8.992c-4.016,1.264-8.544-0.208-11.68-3.024c-3.136-2.816-5.024-6.784-6.16-10.832
		C68.784,343.616,74.4,326.72,85.168,315.2c10.768-11.504,26.016-18.064,41.536-20.8c8.192-1.44,16.528-1.904,24.832-1.824
		c2.96,0.032,19.392-1.056,17.6,3.44c-1.376,3.408-15.744,6.336-19.312,7.856C142.944,306.816,136.24,310.224,130.032,314.416z"/>
	<path style="fill:#65B1EF;" d="M67.376,319.696c-1.824,3.648-3.584,7.952-6.608,11.952c-3.392,4.48-8.688,8.416-13.312,7.728
		c-4.704-0.688-6.656-5.904-5.936-11.12c0.624-4.64,2.992-9.056,5.424-12.736c6.992-10.608,15.824-17.088,24.16-19.584
		c4.528-1.36,9.344-1.712,14.08-1.216c3.952,0.416,8.656,2.496,4.096,4.048C81.264,301.504,73.392,307.6,67.376,319.696z"/>
	<path style="fill:#65B1EF;" d="M71.728,266.288c-8.368-2.448-17.632-1.632-25.424,2.256c-3.056,1.52-6,3.6-7.632,6.608
		c-1.648,2.992-1.68,7.056,0.608,9.6c2.064,2.272,5.504,2.848,8.528,2.32c3.024-0.512,5.824-1.936,8.672-3.088
		c4.896-1.984,10.096-3.184,15.344-3.6c5.296-0.416,11.68,2.08,16.576,1.344c5.392-0.816-1.264-6.272-3.744-8.384
		C80.912,270.128,76.48,267.68,71.728,266.288z"/>
</g>
<path style="fill:#3E4347;" d="M103.712,133.36c-4.096-0.432-4.528-6.272-0.512-7.232c32.88-7.52,92.208-29.376,111.424-89.952
	c1.168-3.648,6.576-3.296,7.088,0.512C232.528,113.2,191.248,143.744,103.712,133.36z"/>
<path style="fill:#F4C534;" d="M269.184,235.088c0,45.088,36.672,81.76,81.936,81.76s81.936-36.672,81.936-81.76
	c0-45.264-36.672-81.936-81.936-81.936C305.84,153.168,269.184,189.824,269.184,235.088z"/>
<path style="fill:#FFFFFF;" d="M284.784,235.072c-4.672,36.912,21.216,66.944,57.856,66.944s70.128-30.032,74.784-66.944
	c4.688-37.056-21.2-67.088-57.84-67.088C322.944,168,289.472,198.016,284.784,235.072z"/>
<path style="fill:#3E4347;" d="M367.504,231.952c0,22.56-15.392,40.912-34.272,40.912s-34.272-18.352-34.272-40.912
	c0-22.384,15.392-40.736,34.272-40.736C352.112,191.216,367.504,209.584,367.504,231.952z"/>
<path style="fill:#65B1EF;" d="M342.624,302.016c-26.528,0-47.216-15.84-54.96-38.528c2.64-0.592,5.248-1.472,7.728-2.656
	l0.112-0.048c10-4.736,21.6-4.736,31.584,0.016l0.048,0.016c10,4.752,21.616,4.752,31.616,0h0.016c10-4.752,21.616-4.752,31.616,0
	c5.184,2.464,10.816,3.6,16.416,3.504C393.216,286.528,368.832,302.016,342.624,302.016z"/>
<g>
	<path style="fill:#FFFFFF;" d="M323.728,241.184c0,2.96-2.4,5.552-5.552,5.552s-5.552-2.592-5.552-5.552
		c0-3.136,2.4-5.728,5.552-5.728C321.328,235.456,323.728,238.048,323.728,241.184z"/>
	<path style="fill:#FFFFFF;" d="M350.368,215.472c0,6.848-5.552,12.208-12.208,12.208c-6.848,0-12.208-5.36-12.208-12.208
		c0-6.656,5.36-12.016,12.208-12.016C344.816,203.456,350.368,208.816,350.368,215.472z"/>
</g>
<path style="fill:#4E99D2;" d="M306.704,257.488c6.112,9.44,15.728,15.36,26.448,15.36c9.056,0,17.2-4.256,23.312-11.104
	c-4.256,1.856-8.88,2.784-13.504,2.784c-5.36,0-10.736-1.296-15.904-3.696c-4.992-2.4-10.352-3.696-15.728-3.696
	C309.856,257.104,308.192,257.296,306.704,257.488z"/>
<g>
	<path style="fill:#65B1EF;" d="M381.968,314.416c13.04,8.8,24.032,21.568,27.76,36.864c1.008,4.112,1.472,8.384,2.992,12.352
		c1.52,3.968,4.336,7.712,8.368,8.992c4.016,1.264,8.544-0.208,11.68-3.024c3.136-2.816,5.024-6.784,6.16-10.832
		c4.288-15.168-1.328-32.064-12.096-43.568s-26.016-18.064-41.536-20.8c-8.192-1.44-16.528-1.904-24.832-1.824
		c-2.96,0.032-19.392-1.056-17.6,3.44c1.376,3.408,15.744,6.336,19.312,7.856C369.056,306.816,375.76,310.224,381.968,314.416z"/>
	<path style="fill:#65B1EF;" d="M444.624,319.696c1.824,3.648,3.584,7.952,6.608,11.952c3.392,4.48,8.672,8.416,13.328,7.728
		c4.704-0.688,6.656-5.904,5.936-11.12c-0.64-4.64-2.992-9.056-5.424-12.736c-6.992-10.608-15.824-17.088-24.16-19.584
		c-4.528-1.36-9.344-1.712-14.08-1.216c-3.952,0.416-8.656,2.496-4.096,4.048C430.736,301.504,438.608,307.6,444.624,319.696z"/>
	<path style="fill:#65B1EF;" d="M440.272,266.288c8.368-2.448,17.632-1.632,25.424,2.256c3.056,1.52,6,3.6,7.632,6.608
		c1.648,2.992,1.68,7.056-0.608,9.6c-2.064,2.272-5.504,2.848-8.528,2.32c-3.024-0.512-5.824-1.936-8.672-3.088
		c-4.896-1.984-10.08-3.184-15.344-3.6c-5.296-0.416-11.68,2.08-16.576,1.344c-5.392-0.816,1.264-6.272,3.744-8.384
		C431.104,270.128,435.52,267.68,440.272,266.288z"/>
</g>
<g>
	<path style="fill:#3E4347;" d="M408.288,133.36c4.096-0.432,4.528-6.288,0.512-7.232c-32.88-7.52-92.208-29.376-111.424-89.952
		c-1.168-3.648-6.576-3.296-7.088,0.512C279.472,113.2,320.768,143.744,408.288,133.36z"/>
	<path style="fill:#3E4347;" d="M255.92,451.504c-51.408,0-88.64-39.904-85.6-81.216c0.32-4.384,6.8-5.504,8.912-1.552
		c13.92,25.344,43.04,42.768,76.688,42.768c33.808,0,62.944-17.424,76.848-42.768c2.112-3.936,8.592-2.816,8.912,1.552
		C344.72,411.552,307.6,451.504,255.92,451.504z"/>
</g>
<g>
</g>
<g>
</g>
<g>
</g>
<g>
</g>
<g>
</g>
<g>
</g>
<g>
</g>
<g>
</g>
<g>
</g>
<g>
</g>
<g>
</g>
<g>
</g>
<g>
</g>
<g>
</g>
<g>
</g>
</svg>
