<?xml version="1.0" encoding="iso-8859-1"?>
<!-- Generator: Adobe Illustrator 19.0.0, SVG Export Plug-In . SVG Version: 6.00 Build 0)  -->
<svg version="1.1" id="Capa_1" xmlns="http://www.w3.org/2000/svg" xmlns:xlink="http://www.w3.org/1999/xlink" x="0px" y="0px"
	 viewBox="0 0 512 512" style="enable-background:new 0 0 512 512;" xml:space="preserve">
<circle style="fill:#FFD93B;" cx="256" cy="256" r="256"/>
<g>
	<path style="fill:#F4C534;" d="M512,256c0,141.44-114.64,256-256,256c-80.48,0-152.32-37.12-199.28-95.28
		c43.92,35.52,99.84,56.72,160.72,56.72c141.36,0,256-114.56,256-256c0-60.88-21.2-116.8-56.72-160.72
		C474.8,103.68,512,175.52,512,256z"/>
	<path style="fill:#F4C534;" d="M234.272,232.288c0,42.4-34.336,76.624-76.752,76.624c-42.272,0-76.624-34.208-76.624-76.624
		s34.336-76.752,76.624-76.752C199.936,155.552,234.272,189.888,234.272,232.288z"/>
</g>
<path style="fill:#FFFFFF;" d="M221.136,232.288c0,35.12-28.496,63.472-63.616,63.472c-34.992,0-63.472-28.352-63.472-63.472
	s28.48-63.472,63.472-63.472C192.656,168.816,221.136,197.168,221.136,232.288z"/>
<ellipse style="fill:#3E4347;" cx="157.568" cy="232.288" rx="38.016" ry="37.984"/>
<path style="fill:#5A5F63;" d="M182.24,225.136c-2.608,3.52-9.488,2.736-15.088-1.696c-5.728-4.416-8.064-10.8-5.456-14.176
	c2.736-3.504,9.488-2.736,15.216,1.696C182.64,215.376,184.976,221.76,182.24,225.136z"/>
<path style="fill:#3E4347;" d="M234.288,148.656c-57.024-34.624-116.608-11.648-146.192,5.84c-3.424,2.08-8.576-3.056-5.984-6.032
	C166,52.128,224.144,121.68,238.48,143.696C240.272,146.464,236.944,150.272,234.288,148.656z"/>
<path style="fill:#F4C534;" d="M277.728,232.288c0,42.4,34.336,76.624,76.752,76.624c42.272,0,76.624-34.208,76.624-76.624
	s-34.336-76.752-76.624-76.752C312.064,155.552,277.728,189.888,277.728,232.288z"/>
<path style="fill:#FFFFFF;" d="M290.864,232.288c0,35.12,28.48,63.472,63.616,63.472c34.992,0,63.488-28.352,63.488-63.472
	s-28.496-63.472-63.488-63.472C319.344,168.816,290.864,197.168,290.864,232.288z"/>
<ellipse style="fill:#3E4347;" cx="354.4" cy="232.288" rx="38.016" ry="37.984"/>
<path style="fill:#5A5F63;" d="M329.76,225.136c2.608,3.52,9.488,2.736,15.088-1.696c5.728-4.416,8.064-10.8,5.456-14.176
	c-2.736-3.504-9.488-2.736-15.216,1.696C329.36,215.376,327.024,221.76,329.76,225.136z"/>
<g>
	<path style="fill:#3E4347;" d="M277.712,148.656c57.024-34.624,116.608-11.648,146.192,5.84c3.424,2.08,8.576-3.056,5.984-6.032
		C346,52.128,287.856,121.68,273.52,143.696C271.728,146.464,275.056,150.272,277.712,148.656z"/>
	<path style="fill:#3E4347;" d="M372.32,387.968c-22.72,36.64-63.52,61.12-109.76,61.12c-61.92,0-113.6-43.52-126.4-101.44
		c-0.64-2.56,1.6-4.8,4.32-4.48l229.28,39.04C372.32,382.688,373.76,385.728,372.32,387.968z"/>
</g>
<path style="fill:#FFFFFF;" d="M366.096,381.664L139.664,343.12C164.416,387.904,351.136,422.32,366.096,381.664z"/>
<path style="fill:#E24B4B;" d="M285.712,418.048c-9.04-7.168-20.64-9.872-32.144-9.088c-1.184,0.08-2.416,0.128-3.648,0.128
	c-8.304,0-15.632-1.504-22.016-4.128c-11.312-4.656-24.192-3.888-35.408,0.992c-5.936,2.592-11.52,5.792-16.72,9.552
	c22.96,20.768,53.312,33.504,86.768,33.504c15.408,0,30.064-2.96,43.792-7.936C300.832,432.24,293.824,424.464,285.712,418.048z"/>
<g>
</g>
<g>
</g>
<g>
</g>
<g>
</g>
<g>
</g>
<g>
</g>
<g>
</g>
<g>
</g>
<g>
</g>
<g>
</g>
<g>
</g>
<g>
</g>
<g>
</g>
<g>
</g>
<g>
</g>
</svg>
