<?xml version="1.0" encoding="iso-8859-1"?>
<!-- Generator: Adobe Illustrator 19.0.0, SVG Export Plug-In . SVG Version: 6.00 Build 0)  -->
<svg version="1.1" id="Capa_1" xmlns="http://www.w3.org/2000/svg" xmlns:xlink="http://www.w3.org/1999/xlink" x="0px" y="0px"
	 viewBox="0 0 511.991 511.991" style="enable-background:new 0 0 511.991 511.991;" xml:space="preserve">
<path style="fill:#FFD93B;" d="M375.493,240.788c41.584,99.776-5.424,214.384-104.912,256.032s-213.856-5.392-255.44-105.168
	c-41.568-99.712,5.424-214.368,104.912-256.032C219.541,93.972,333.925,141.076,375.493,240.788z"/>
<g>
	<path style="fill:#F4C534;" d="M375.493,240.788c-8.176-19.632-19.264-37.136-32.432-52.416
		c15.6,28.72,24.544,61.616,24.544,96.624c0,111.856-90.448,202.448-201.984,202.448c-38.576,0-74.528-10.96-105.184-29.76
		c54.384,52.048,136.32,70.032,210.128,39.136C370.053,455.172,417.061,340.58,375.493,240.788z"/>
	<ellipse style="fill:#F4C534;" cx="122.053" cy="288.804" rx="68.048" ry="68.208"/>
</g>
<path style="fill:#FFFFFF;" d="M178.437,288.692c0,31.184-25.2,56.512-56.384,56.512c-31.104,0-56.368-25.328-56.368-56.512
	s25.264-48,56.368-48C153.237,240.708,178.437,257.524,178.437,288.692z"/>
<circle style="fill:#3E4347;" cx="126.661" cy="313.94" r="23.456"/>
<ellipse transform="matrix(-0.2845 -0.9587 0.9587 -0.2845 -118.4273 530.1736)" style="fill:#5A5F63;" cx="138.633" cy="309.281" rx="6.192" ry="4.352"/>
<path style="fill:#F4C534;" d="M166.661,296.724c-29.712,8.544-59.488,8.544-89.2,0c-8.128-2.32-13.536-10.384-12.032-18.672
	c4.704-26.416,27.632-47.584,56.624-47.584c29.152,0,51.92,21.232,56.624,47.584C180.197,286.356,174.773,294.42,166.661,296.724z"
	/>
<path style="fill:#3E4347;" d="M180.501,222.9c-37.328-23.664-80.656-18.816-99.472-14.912c-2.368,0.496-4-2.784-2.16-4.272
	c53.936-43.888,92.032-3.104,104.8,15.904C184.933,221.524,182.421,224.116,180.501,222.9z"/>
<ellipse style="fill:#F4C534;" cx="271.525" cy="288.804" rx="68.048" ry="68.208"/>
<path style="fill:#FFFFFF;" d="M215.157,288.692c0,31.184,25.2,56.512,56.384,56.512c31.104,0,56.384-25.328,56.384-56.512
	s-25.28-48-56.384-48C240.341,240.708,215.157,257.524,215.157,288.692z"/>
<circle style="fill:#3E4347;" cx="266.917" cy="313.94" r="23.456"/>
<ellipse transform="matrix(-0.9587 -0.2845 0.2845 -0.9587 411.4335 678.1091)" style="fill:#5A5F63;" cx="254.964" cy="309.175" rx="4.352" ry="6.192"/>
<path style="fill:#F4C534;" d="M226.933,296.724c29.712,8.544,59.488,8.544,89.2,0c8.128-2.32,13.536-10.384,12.032-18.672
	c-4.704-26.416-27.632-47.584-56.624-47.584c-29.152,0-51.92,21.232-56.624,47.584C213.397,286.356,218.805,294.42,226.933,296.724z
	"/>
<g>
	<path style="fill:#3E4347;" d="M213.077,222.9c37.328-23.664,80.656-18.816,99.472-14.912c2.368,0.496,4.016-2.784,2.16-4.272
		c-53.936-43.888-92.032-3.104-104.8,15.904C208.661,221.524,211.173,224.116,213.077,222.9z"/>
	<path style="fill:#3E4347;" d="M266.533,419.764c2.944,22.048-11.248,39.92-31.712,39.92s-39.44-17.872-42.4-39.92
		c-2.944-22.048,11.248-39.904,31.712-39.904C244.597,379.86,263.589,397.716,266.533,419.764z"/>
</g>
<path style="fill:#D03F3F;" d="M387.653,194.724c9.024-121.872,52.192-142.256,104.192-90.08
	c-11.088-123.52-265.424-90.8-337.808-5.584L387.653,194.724z"/>
<path style="fill:#AD2727;" d="M154.069,99.124c72.368-85.296,341.904-174.592,337.856,5.536
	c-29.776-122.16-225.088-74.272-282.08,17.312L154.069,99.124z"/>
<path style="fill:#E24B4B;" d="M387.605,194.756l-55.792-22.848c25.712-115.072,108.784-152.16,160.128-67.264
	C449.157,81.22,396.709,72.884,387.605,194.756z"/>
<g>
	<path style="fill:#E9EFF4;" d="M370.149,225.524c-70.976-39.808-146.688-70.976-225.056-92.656
		c-9.76-2.816-15.808-13.088-13.072-23.088c2.752-10,13.056-15.856,23.04-13.104c81.264,22.48,159.792,54.816,233.392,96.096
		c9.024,5.072,12.256,16.496,7.2,25.552C390.693,227.172,379.429,230.676,370.149,225.524z"/>
	
		<ellipse transform="matrix(-0.9929 -0.1189 0.1189 -0.9929 957.897 244.4323)" style="fill:#E9EFF4;" cx="486.24" cy="93.641" rx="25.744" ry="25.728"/>
</g>
<path style="fill:#DEE4E9;" d="M483.157,119.156c-14.064-1.696-24.112-14.512-22.432-28.624c0.416-3.52,1.472-6.752,3.04-9.584
	c-1.312,13.808,8.672,26.288,22.512,27.952c10.768,1.296,20.672-4.112,25.632-13.008l-0.096,0.768
	C510.117,110.788,497.317,120.868,483.157,119.156z"/>
<g>
</g>
<g>
</g>
<g>
</g>
<g>
</g>
<g>
</g>
<g>
</g>
<g>
</g>
<g>
</g>
<g>
</g>
<g>
</g>
<g>
</g>
<g>
</g>
<g>
</g>
<g>
</g>
<g>
</g>
</svg>
