<?xml version="1.0" encoding="iso-8859-1"?>
<!-- Generator: Adobe Illustrator 19.0.0, SVG Export Plug-In . SVG Version: 6.00 Build 0)  -->
<svg version="1.1" id="Capa_1" xmlns="http://www.w3.org/2000/svg" xmlns:xlink="http://www.w3.org/1999/xlink" x="0px" y="0px"
	 viewBox="0 0 512 512" style="enable-background:new 0 0 512 512;" xml:space="preserve">
<circle style="fill:#FFD93B;" cx="256" cy="256" r="256"/>
<path style="fill:#F4C534;" d="M512,256c0,141.44-114.64,256-256,256c-80.48,0-152.32-37.12-199.28-95.28
	c43.92,35.52,99.84,56.72,160.72,56.72c141.36,0,256-114.56,256-256c0-60.88-21.2-116.8-56.72-160.72
	C474.8,103.68,512,175.52,512,256z"/>
<g>
	<path style="fill:#3E4347;" d="M424.992,244.304c11.184,21.36-135.392,51.264-147.152,26.592
		c-3.088-7.952,11.776-17.168,52.72-38.752c30.8-16.24,60.464-28.096,65.472-22.528c4.08,4.544-14.128,25.616-38.416,38.688
		C392.992,242.512,421.744,237.792,424.992,244.304z"/>
	<path style="fill:#3E4347;" d="M430.192,162.944c-14.928-2.912-32.016-6.4-57.792-2.816c-16.672,2.432-32.24,7.92-45.584,15.792
		c-17.92,10.752-26.352,21.104-33.712,33.248c-1.584,2.64-5.744,1.776-5.92-1.296c-0.912-16.128,7.536-40.64,31.184-55.248
		c1.344-0.912,2.736-1.728,4.176-2.528c9.264-5.072,19.888-8.656,31.104-10.384c27.504-4.448,56.896,0.448,79.28,17.936
		C435.968,160.048,433.984,163.744,430.192,162.944z"/>
	<path style="fill:#3E4347;" d="M87.008,244.304c-11.184,21.36,135.392,51.264,147.152,26.592
		c3.088-7.952-11.776-17.168-52.72-38.752c-30.8-16.24-60.464-28.096-65.472-22.528c-4.08,4.544,14.128,25.616,38.416,38.688
		C119.024,242.512,90.272,237.792,87.008,244.304z"/>
	<path style="fill:#3E4347;" d="M81.808,162.944c14.928-2.912,32.016-6.4,57.792-2.816c16.672,2.432,32.24,7.92,45.584,15.792
		c17.92,10.752,26.352,21.104,33.712,33.248c1.568,2.64,5.744,1.776,5.92-1.296c0.912-16.128-7.536-40.64-31.184-55.248
		c-1.344-0.912-2.736-1.728-4.176-2.528c-9.264-5.072-19.904-8.656-31.104-10.384c-27.504-4.432-56.896,0.464-79.28,17.936
		C76.032,160.048,78.016,163.744,81.808,162.944z"/>
	<path style="fill:#3E4347;" d="M393.648,371.568C359.84,423.456,310.704,456,255.968,456c-54.752,0-103.872-32.56-137.552-84.432
		c-2.464-3.776,0.688-8.72,4.928-8c88.272,15.696,176.832,15.696,265.376,0C392.96,362.848,396.112,367.776,393.648,371.568z"/>
</g>
<path style="fill:#FFFFFF;" d="M383.36,364.4c-84.976,14.448-169.952,14.464-254.672,0l13.104,16.048
	c4.8,5.888,11.536,9.824,18.8,10.88c65.872,9.68,124.816,9.68,190.848,0c7.28-1.072,14-4.992,18.816-10.88L383.36,364.4z"/>
<path style="fill:#E24B4B;" d="M324.944,437.248v0.432C303.728,449.456,280.32,456,255.968,456c-24.368,0-47.488-6.4-68.704-18.16
	c1.648-16.416,20.8-29.072,44.208-29.072c7.808,0,15.056,1.312,21.344,3.92c7.52-4.368,17.248-6.832,27.648-6.832
	C304.96,405.856,324.944,419.952,324.944,437.248z"/>
<g style="opacity:0.3;">
	<path style="fill:#FFFFFF;" d="M304.896,423.856c-1.664,3.952-10.384,5.664-19.472,3.824c-9.088-1.984-15.024-6.72-13.36-10.8
		c1.664-3.952,10.384-5.664,19.472-3.824C300.448,415.024,306.56,419.776,304.896,423.856z"/>
</g>
<g>
</g>
<g>
</g>
<g>
</g>
<g>
</g>
<g>
</g>
<g>
</g>
<g>
</g>
<g>
</g>
<g>
</g>
<g>
</g>
<g>
</g>
<g>
</g>
<g>
</g>
<g>
</g>
<g>
</g>
</svg>
