<?xml version="1.0" encoding="iso-8859-1"?>
<!-- Generator: Adobe Illustrator 19.0.0, SVG Export Plug-In . SVG Version: 6.00 Build 0)  -->
<svg version="1.1" id="Capa_1" xmlns="http://www.w3.org/2000/svg" xmlns:xlink="http://www.w3.org/1999/xlink" x="0px" y="0px"
	 viewBox="0 0 512 512" style="enable-background:new 0 0 512 512;" xml:space="preserve">
<circle style="fill:#FFD93B;" cx="256" cy="256" r="256"/>
<g>
	<path style="fill:#F4C534;" d="M512,256c0,141.44-114.64,256-256,256c-80.48,0-152.32-37.12-199.28-95.28
		c43.92,35.52,99.84,56.72,160.72,56.72c141.36,0,256-114.56,256-256c0-60.88-21.2-116.8-56.72-160.72
		C474.8,103.68,512,175.52,512,256z"/>
	<path style="fill:#F4C534;" d="M243.088,238.112c0,46.736-37.968,84.848-84.848,84.848c-46.736,0-84.848-38.112-84.848-84.848
		c0-46.88,38.112-84.848,84.848-84.848C205.12,153.28,243.088,191.232,243.088,238.112z"/>
</g>
<path style="fill:#FFFFFF;" d="M229.952,238.112c-4.096,39.488-39.52,71.68-79.152,71.68c-39.504,0-68.384-32.192-64.288-71.68
	c4.112-39.616,39.648-71.696,79.152-71.696C205.296,166.432,234.064,198.512,229.952,238.112z"/>
<ellipse style="fill:#3E4347;" cx="166.262" cy="236.576" rx="35.088" ry="35.088"/>
<ellipse transform="matrix(-0.7071 -0.7071 0.7071 -0.7071 150.0541 507.5775)" style="fill:#5A5F63;" cx="180.15" cy="222.712" rx="11.568" ry="6.8"/>
<path style="fill:#3E4347;" d="M86.128,149.824c-2.24-13.44,14.256-43.52,41.6-56.24c41.376-17.408,76.352-7.232,97.984,18.416
	c-28.72-3.792-45.744-13.76-89.312,1.616C121.872,120.128,93.616,135.776,86.128,149.824z"/>
<path style="fill:#F4C534;" d="M268.912,238.112c0,46.736,37.968,84.848,84.848,84.848c46.736,0,84.848-38.112,84.848-84.848
	c0-46.88-38.112-84.848-84.848-84.848C306.88,153.28,268.912,191.232,268.912,238.112z"/>
<path style="fill:#FFFFFF;" d="M282.048,238.112c4.096,39.488,39.52,71.68,79.152,71.68c39.504,0,68.384-32.192,64.304-71.68
	c-4.112-39.616-39.648-71.696-79.152-71.696C306.704,166.432,277.936,198.512,282.048,238.112z"/>
<ellipse style="fill:#3E4347;" cx="345.715" cy="236.579" rx="35.088" ry="35.088"/>
<ellipse transform="matrix(-0.7071 -0.7071 0.7071 -0.7071 409.0226 614.7719)" style="fill:#5A5F63;" cx="331.835" cy="222.675" rx="6.8" ry="11.568"/>
<g>
	<path style="fill:#3E4347;" d="M425.872,149.824c-6.224-8.56-30.896-21.824-40.64-26.704c-5.664-3.296-24.416-9.712-36.448-11.056
		c-22.384-4.224-46.496,0.32-62.496-0.064c16-13.136,49.104-27.968,80.592-19.232c8.16,1.696,21.264,7.68,29.008,13.568
		C406.512,113.328,427.984,138.944,425.872,149.824z"/>
	
		<ellipse transform="matrix(-0.2319 -0.9727 0.9727 -0.2319 -14.8656 794.9141)" style="fill:#3E4347;" cx="306.406" cy="403.326" rx="39.166" ry="50.798"/>
</g>
<g>
</g>
<g>
</g>
<g>
</g>
<g>
</g>
<g>
</g>
<g>
</g>
<g>
</g>
<g>
</g>
<g>
</g>
<g>
</g>
<g>
</g>
<g>
</g>
<g>
</g>
<g>
</g>
<g>
</g>
</svg>
