<?xml version="1.0" encoding="iso-8859-1"?>
<!-- Generator: Adobe Illustrator 19.0.0, SVG Export Plug-In . SVG Version: 6.00 Build 0)  -->
<svg version="1.1" id="Capa_1" xmlns="http://www.w3.org/2000/svg" xmlns:xlink="http://www.w3.org/1999/xlink" x="0px" y="0px"
	 viewBox="0 0 512 512" style="enable-background:new 0 0 512 512;" xml:space="preserve">
<circle style="fill:#FFD93B;" cx="256" cy="256" r="256"/>
<path style="fill:#F4C534;" d="M512,256c0,141.44-114.64,256-256,256c-80.48,0-152.32-37.12-199.28-95.28
	c43.92,35.52,99.84,56.72,160.72,56.72c141.36,0,256-114.56,256-256c0-60.88-21.2-116.8-56.72-160.72
	C474.8,103.68,512,175.52,512,256z"/>
<path style="fill:#3E4347;" d="M327.696,393.872c0,29.968-32.144,54.352-71.648,54.352c-39.632,0-71.776-24.384-71.776-54.352
	s32.144-54.208,71.776-54.208C295.552,339.664,327.696,363.904,327.696,393.872z"/>
<path style="fill:#F4C534;" d="M241.984,230.832c0,43.36-35.04,78.4-78.24,78.4s-78.4-35.04-78.4-78.4c0-43.2,35.2-78.24,78.4-78.24
	C206.944,152.592,241.984,187.632,241.984,230.832z"/>
<path style="fill:#FFFFFF;" d="M98.992,215.376c-1.648,4.992-2.912,10.128-3.392,15.472c-3.344,37.168,24.544,67.216,62.096,67.216
	s70.704-30.048,74.048-67.216c0.48-5.344,0.144-10.48-0.608-15.472C187.824,199.936,143.776,200.144,98.992,215.376z"/>
<ellipse style="fill:#3E4347;" cx="177.897" cy="245.802" rx="30.944" ry="30.944"/>
<ellipse transform="matrix(-0.7071 -0.7071 0.7071 -0.7071 158.361 533.594)" style="fill:#5A5F63;" cx="189.691" cy="233.999" rx="9.248" ry="6.88"/>
<path style="fill:#F4C534;" d="M277.968,230.832c0,43.36,35.04,78.4,78.24,78.4s78.4-35.04,78.4-78.4c0-43.2-35.2-78.24-78.4-78.24
	S277.968,187.632,277.968,230.832z"/>
<path style="fill:#FFFFFF;" d="M420.944,215.376c1.648,4.992,2.912,10.128,3.392,15.472c3.344,37.168-24.544,67.216-62.096,67.216
	s-70.704-30.048-74.048-67.216c-0.48-5.344-0.144-10.48,0.608-15.472C332.112,199.936,376.176,200.144,420.944,215.376z"/>
<ellipse style="fill:#3E4347;" cx="342.098" cy="245.841" rx="30.944" ry="30.944"/>
<ellipse transform="matrix(-0.7071 -0.7071 0.7071 -0.7071 398.3071 632.9869)" style="fill:#5A5F63;" cx="330.249" cy="234.001" rx="6.88" ry="9.248"/>
<g>
	<path style="fill:#3E4347;" d="M410.272,119.888c-53.008-25.44-99.472-15.168-125.568-4.768c-5.456,2.144-9.952-4.704-5.984-8.96
		c56.672-60.416,110.192-23.552,137.968,5.008C420.992,115.648,415.808,122.576,410.272,119.888z"/>
	<path style="fill:#3E4347;" d="M101.728,119.888c53.008-25.44,99.472-15.168,125.568-4.768c5.456,2.144,9.952-4.704,5.984-8.96
		c-56.672-60.416-110.192-23.552-137.968,5.008C91.008,115.648,96.192,122.576,101.728,119.888z"/>
</g>
<g>
</g>
<g>
</g>
<g>
</g>
<g>
</g>
<g>
</g>
<g>
</g>
<g>
</g>
<g>
</g>
<g>
</g>
<g>
</g>
<g>
</g>
<g>
</g>
<g>
</g>
<g>
</g>
<g>
</g>
</svg>
