<?xml version="1.0" encoding="iso-8859-1"?>
<!-- Generator: Adobe Illustrator 19.0.0, SVG Export Plug-In . SVG Version: 6.00 Build 0)  -->
<svg version="1.1" id="Capa_1" xmlns="http://www.w3.org/2000/svg" xmlns:xlink="http://www.w3.org/1999/xlink" x="0px" y="0px"
	 viewBox="0 0 512 512" style="enable-background:new 0 0 512 512;" xml:space="preserve">
<circle style="fill:#FFD93B;" cx="256" cy="256" r="256"/>
<path style="fill:#F4C534;" d="M512,256c0,141.44-114.64,256-256,256c-80.48,0-152.32-37.12-199.28-95.28
	c43.92,35.52,99.84,56.72,160.72,56.72c141.36,0,256-114.56,256-256c0-60.88-21.2-116.8-56.72-160.72
	C474.8,103.68,512,175.52,512,256z"/>
<g>
	<ellipse style="fill:#3E4347;" cx="255.968" cy="369.6" rx="52.48" ry="56.512"/>
	<path style="fill:#3E4347;" d="M221.872,251.792c0.64,5.12-1.6,10.4-5.92,13.44c-5.776,4.24-14.224,3.2-19.2-2.88
		c-4.48-3.68-20.16-14.56-38.56-26.4c-12.48,16.16-23.52,31.84-27.52,40.32c-3.216,6.64-11.536,10.144-18.72,6.56
		c-7.04-3.2-9.92-11.52-6.72-18.56c5.12-10.56,17.28-27.68,29.12-43.04c-16.96-10.24-33.44-19.2-43.36-22.88
		c-7.36-2.72-11.04-10.72-8.48-17.92c2.72-7.36,10.72-11.04,18.08-8.48c4.16,1.44,26.4,13.12,50.72,27.36
		c40.8-51.04,42.72-50.24,52.8-45.76c7.2,3.04,10.4,11.36,7.2,18.4c0,0-17.872,20.032-35.84,41.92
		C199.792,229.232,220.912,244.272,221.872,251.792z"/>
	<path style="fill:#3E4347;" d="M426.512,194.832c0,0-24.176,12.256-48.64,26.56c17.12,22.88,31.52,44.64,29.92,51.84
		c-1.12,4.96-4.96,9.12-9.92,10.56c-8.016,2-15.136-2.576-17.12-9.44c-2.88-4.96-13.92-20.64-27.2-38.24
		c-17.44,10.72-33.12,21.28-39.68,27.68c-5.408,5.408-14.48,5.36-19.84-0.32c-5.44-5.44-5.28-14.24,0.32-19.68
		c8.32-8.16,25.76-19.84,42.08-30.08c-12.16-15.52-24.16-29.76-32.16-36.8c-5.92-5.12-6.4-13.92-1.44-19.68
		c5.12-5.92,13.92-6.56,19.84-1.44c3.36,2.88,20,21.6,37.6,43.36c56.16-33.12,57.76-31.52,65.6-24.16
		C431.472,180.272,431.792,189.072,426.512,194.832z"/>
</g>
<g>
</g>
<g>
</g>
<g>
</g>
<g>
</g>
<g>
</g>
<g>
</g>
<g>
</g>
<g>
</g>
<g>
</g>
<g>
</g>
<g>
</g>
<g>
</g>
<g>
</g>
<g>
</g>
<g>
</g>
</svg>
