<?xml version="1.0" encoding="iso-8859-1"?>
<!-- Generator: Adobe Illustrator 19.0.0, SVG Export Plug-In . SVG Version: 6.00 Build 0)  -->
<svg version="1.1" id="Capa_1" xmlns="http://www.w3.org/2000/svg" xmlns:xlink="http://www.w3.org/1999/xlink" x="0px" y="0px"
	 viewBox="0 0 512 512" style="enable-background:new 0 0 512 512;" xml:space="preserve">
<circle style="fill:#FFD93B;" cx="256" cy="256" r="256"/>
<g>
	<path style="fill:#F4C534;" d="M512,256c0,141.44-114.64,256-256,256c-80.48,0-152.32-37.12-199.28-95.28
		c43.92,35.52,99.84,56.72,160.72,56.72c141.36,0,256-114.56,256-256c0-60.88-21.2-116.8-56.72-160.72
		C474.8,103.68,512,175.52,512,256z"/>
	<path style="fill:#F4C534;" d="M231.184,179.792c0,60.72-49.104,109.984-109.824,109.984c-60.88,0-109.984-49.28-109.984-109.984
		c0-60.72,49.104-109.984,109.984-109.984C182.08,69.808,231.184,119.088,231.184,179.792z"/>
</g>
<path style="fill:#FFFFFF;" d="M221.088,179.792c-3.36,51.968-50.624,94.192-105.616,94.192c-55.168,0-97.216-42.224-94.016-94.192
	c3.36-52.144,50.624-94.176,105.616-94.176C182.24,85.616,224.288,127.664,221.088,179.792z"/>
<path style="fill:#3E4347;" d="M116.56,108.144c82.64,5.056,86.512,82.976,55.92,118.672
	c-10.912,12.704-26.608,21.744-44.208,23.936C63.296,259.44,24.4,186.256,67.568,144.464c25.472-25.696,69.568-13.808,78.176,16.912
	c10.448,35.568-32.768,59.92-49.84,34.848c18.912,16.304,46.704-6.576,36.144-30.128c-7.12-16.816-33.76-22.56-48.592-6.112
	c-25.2,27.296,0.544,71.248,41.856,66.608c15.344-1.84,28.336-10.624,30.8-14.72c15.632-16.56,19.584-41.632,12.976-61.392
	C158.208,116.96,116.56,108.144,116.56,108.144z"/>
<path style="fill:#F4C534;" d="M500.64,179.792c0,60.72-49.104,109.984-109.824,109.984c-60.88,0-109.984-49.28-109.984-109.984
	c0-60.72,49.104-109.984,109.984-109.984C451.52,69.808,500.64,119.088,500.64,179.792z"/>
<path style="fill:#FFFFFF;" d="M490.544,179.792c-3.36,51.968-50.624,94.192-105.616,94.192c-55.168,0-97.216-42.224-94.016-94.192
	c3.36-52.144,50.624-94.176,105.616-94.176C451.696,85.616,493.744,127.664,490.544,179.792z"/>
<g>
	<path style="fill:#3E4347;" d="M386.016,108.144c82.64,5.056,86.512,82.976,55.92,118.672
		c-10.912,12.704-26.608,21.744-44.208,23.936c-64.976,8.688-103.872-64.496-60.704-106.288
		c25.472-25.696,69.568-13.808,78.176,16.912c10.448,35.568-32.768,59.92-49.84,34.848c18.912,16.304,46.72-6.576,36.144-30.128
		c-7.136-16.816-33.76-22.56-48.592-6.112c-25.2,27.296,0.544,71.248,41.856,66.608c15.344-1.84,28.336-10.624,30.8-14.72
		c15.632-16.56,19.584-41.632,12.976-61.392C427.664,116.96,386.016,108.144,386.016,108.144z"/>
	<path style="fill:#3E4347;" d="M344.096,419.36c-57.664-22.8-117.376-31.12-176.16,9.12c-9.696,6.992-20.272-2.848-16.336-15.696
		c16-52.208,58.768-82.352,107.36-74.112c48.528,8.096,87.68,41.44,102.4,70.768C365.104,416.848,353.728,423.056,344.096,419.36z"
		/>
</g>
<path style="fill:#E24B4B;" d="M303.664,406.416c-2.112-10.352-8.56-19.76-17.984-26.944c-5.008-3.808-11.824-5.216-18.016-3.776
	c-5.376,1.312-11.28,1.92-17.856,1.616c-1.376-0.08-2.768-0.16-4.08-0.288c-14.032-1.632-28.208,4.32-35.072,17.92
	c-2.208,4.4-3.776,9.216-4.816,14.288C238.592,397.6,271.392,398.544,303.664,406.416z"/>
<g>
</g>
<g>
</g>
<g>
</g>
<g>
</g>
<g>
</g>
<g>
</g>
<g>
</g>
<g>
</g>
<g>
</g>
<g>
</g>
<g>
</g>
<g>
</g>
<g>
</g>
<g>
</g>
<g>
</g>
</svg>
