<?xml version="1.0" encoding="iso-8859-1"?>
<!-- Generator: Adobe Illustrator 19.0.0, SVG Export Plug-In . SVG Version: 6.00 Build 0)  -->
<svg version="1.1" id="Capa_1" xmlns="http://www.w3.org/2000/svg" xmlns:xlink="http://www.w3.org/1999/xlink" x="0px" y="0px"
	 viewBox="0 0 512 512" style="enable-background:new 0 0 512 512;" xml:space="preserve">
<circle style="fill:#FFD93B;" cx="256" cy="256" r="256"/>
<g>
	<path style="fill:#F4C534;" d="M512,256c0,141.44-114.64,256-256,256c-80.48,0-152.32-37.12-199.28-95.28
		c43.92,35.52,99.84,56.72,160.72,56.72c141.36,0,256-114.56,256-256c0-60.88-21.2-116.8-56.72-160.72
		C474.8,103.68,512,175.52,512,256z"/>
	<path style="fill:#F4C534;" d="M274.224,203.008c-16.56,43.744,10.704,94.592,60.912,113.616
		c50.08,18.976,104.192-1.056,120.752-44.8c16.528-43.632-10.736-94.48-60.832-113.44
		C344.864,139.36,290.752,159.392,274.224,203.008z"/>
</g>
<circle style="fill:#FFFFFF;" cx="353.44" cy="232.624" r="68.224"/>
<path style="fill:#3E4347;" d="M378.256,236.912c0.128,22.256-17.808,40.208-40.064,40.064c-22.128,0-40.192-17.808-40.192-40.064
	s18.064-40.064,40.192-40.064C360.448,196.72,378.256,214.784,378.256,236.912z"/>
<ellipse transform="matrix(-0.7071 -0.7071 0.7071 -0.7071 443.497 629.6599)" style="fill:#FFFFFF;" cx="352.155" cy="222.979" rx="10.944" ry="7.44"/>
<path style="fill:#3E4347;" d="M430.432,131.792c-42.016,7.504-127.088,13.472-133.232-59.328c-0.304-3.504,4.224-5.152,6.304-2.352
	c12.368,16.384,45.36,45.92,126.608,54.656C434.192,125.216,434.48,131.008,430.432,131.792z"/>
<path style="fill:#F4C534;" d="M235.216,203.008c16.56,43.744-10.704,94.592-60.912,113.616
	c-50.08,18.976-104.192-1.056-120.752-44.8c-16.528-43.632,10.736-94.48,60.832-113.44
	C164.592,139.36,218.688,159.392,235.216,203.008z"/>
<circle style="fill:#FFFFFF;" cx="155.936" cy="232.624" r="68.224"/>
<path style="fill:#3E4347;" d="M211.456,236.912c0.128,22.256-17.808,40.208-40.064,40.064c-22.144,0-40.192-17.808-40.192-40.064
	s18.064-40.064,40.192-40.064C193.648,196.72,211.456,214.784,211.456,236.912z"/>
<ellipse transform="matrix(-0.7071 -0.7071 0.7071 -0.7071 158.7429 511.718)" style="fill:#FFFFFF;" cx="185.352" cy="222.982" rx="10.944" ry="7.44"/>
<g>
	<path style="fill:#3E4347;" d="M79.008,131.792c42.016,7.504,127.088,13.472,133.232-59.328c0.304-3.504-4.224-5.152-6.304-2.352
		c-12.368,16.384-45.36,45.92-126.592,54.656C75.248,125.216,74.96,131.008,79.008,131.792z"/>
	<path style="fill:#3E4347;" d="M384.224,429.584c-19.28,40.88-129.072,20.512-240.912-1.232
		c-7.664-1.504-12.72-8.752-11.488-16.416c8.48-51.552,53.184-90.928,107.056-90.928c56.464,0,137.008,45.392,146.304,100.768
		C385.584,424.384,385.312,427.264,384.224,429.584z"/>
</g>
<path style="fill:#E24B4B;" d="M343.664,451.552c0-0.32,0.048-0.624,0.048-0.928c0-18.224-5.776-35.232-15.6-49.072
	c-13.152-18.4-36.64-25.248-58.544-19.984c-7.008,1.584-14.368,2.448-22.256,2.448c-3.504,0-6.832-0.16-10-0.352
	c-20.864-2.096-41.712,6.144-52.416,24.192c-4.784,8.08-8.096,17.056-9.952,26.576C241.328,446.992,303.904,456.976,343.664,451.552
	z"/>
<g>
</g>
<g>
</g>
<g>
</g>
<g>
</g>
<g>
</g>
<g>
</g>
<g>
</g>
<g>
</g>
<g>
</g>
<g>
</g>
<g>
</g>
<g>
</g>
<g>
</g>
<g>
</g>
<g>
</g>
</svg>
