<?xml version="1.0" encoding="iso-8859-1"?>
<!-- Generator: Adobe Illustrator 19.0.0, SVG Export Plug-In . SVG Version: 6.00 Build 0)  -->
<svg version="1.1" id="Capa_1" xmlns="http://www.w3.org/2000/svg" xmlns:xlink="http://www.w3.org/1999/xlink" x="0px" y="0px"
	 viewBox="0 0 512 512" style="enable-background:new 0 0 512 512;" xml:space="preserve">
<circle style="fill:#FFD93B;" cx="256" cy="256" r="256"/>
<path style="fill:#F4C534;" d="M510.784,256c0,141.44-114.64,256-256,256c-80.48,0-152.32-37.12-199.28-95.28
	c43.92,35.52,99.84,56.72,160.72,56.72c141.36,0,256-114.56,256-256c0-60.88-21.2-116.8-56.72-160.72
	C473.584,103.68,510.784,175.52,510.784,256z"/>
<g>
	<path style="fill:#3E4347;" d="M293.184,182.608c51.664-6.752,105.984,4.576,139.552,29.984
		c7.792,5.984,18.576-1.488,15.808-10.928c-19.552-67.888-111.936-90.56-163.776-35.216
		C278.544,173.28,284.112,183.792,293.184,182.608z"/>
	<path style="fill:#3E4347;" d="M218.8,182.608c-51.664-6.752-105.984,4.576-139.552,29.984
		c-7.792,5.984-18.576-1.488-15.808-10.928c19.552-67.888,111.936-90.56,163.776-35.216
		C233.456,173.28,227.888,183.792,218.8,182.608z"/>
	<path style="fill:#3E4347;" d="M426.448,115.648c0,0-37.536-35.888-70.48-46.032c-12.928-5.184-22.848-3.472-36.336-15.264
		c-1.616-1.632,13.616-14.4,44.912-4.464C402.912,62.064,431.216,112.464,426.448,115.648z"/>
	<path style="fill:#3E4347;" d="M85.552,115.648c0,0,37.536-35.888,70.48-46.032c12.928-5.184,22.848-3.472,36.336-15.264
		c1.616-1.632-13.616-14.4-44.912-4.464C109.088,62.064,80.784,112.464,85.552,115.648z"/>
	<path style="fill:#3E4347;" d="M416.624,330.464C396.32,400,332.256,451.008,256,451.008c-76.24,0-140.496-51.008-160.608-120.896
		c-5.648-19.424,5.12-40.24,24-47.664c89.312-34.944,180.208-35.648,272.864,0.176C411.328,290.048,422.272,310.688,416.624,330.464
		z"/>
</g>
<path style="fill:#E24B4B;" d="M361.296,408.416c-10.176-43.248-42.448-70.8-84.4-55.136c-45.92,17.232-71.408-11.856-93.952,17.056
	c-8.688,11.04-14.896,23.968-18.32,38.064C222.928,440.528,289.136,437.648,361.296,408.416z"/>
<g>
	<path style="fill:#FFFFFF;" d="M256,342.912c70.512,0,131.104-5.952,158.896-38.08c-4.128-9.84-12.064-18.08-22.624-22.192
		c-92.656-35.84-183.552-35.136-272.864-0.192c-10.48,4.128-18.32,12.432-22.384,22.288
		C124.768,336.928,185.408,342.912,256,342.912z"/>
	<path style="fill:#FFFFFF;" d="M256,412.96c-62.944,0-118.096-43.808-148.976-53.632c27.6,54.4,83.872,91.68,148.992,91.68
		c65.232,0,121.44-37.392,149.072-91.712C374.208,369.072,319.008,412.96,256,412.96z"/>
</g>
<g>
</g>
<g>
</g>
<g>
</g>
<g>
</g>
<g>
</g>
<g>
</g>
<g>
</g>
<g>
</g>
<g>
</g>
<g>
</g>
<g>
</g>
<g>
</g>
<g>
</g>
<g>
</g>
<g>
</g>
</svg>
