<?xml version="1.0" encoding="iso-8859-1"?>
<!-- Generator: Adobe Illustrator 19.0.0, SVG Export Plug-In . SVG Version: 6.00 Build 0)  -->
<svg version="1.1" id="Capa_1" xmlns="http://www.w3.org/2000/svg" xmlns:xlink="http://www.w3.org/1999/xlink" x="0px" y="0px"
	 viewBox="0 0 512 512" style="enable-background:new 0 0 512 512;" xml:space="preserve">
<circle style="fill:#FFD93B;" cx="256" cy="256" r="256"/>
<g>
	<path style="fill:#F4C534;" d="M512,256c0,141.44-114.64,256-256,256c-80.48,0-152.32-37.12-199.28-95.28
		c43.92,35.52,99.84,56.72,160.72,56.72c141.36,0,256-114.56,256-256c0-60.88-21.2-116.8-56.72-160.72
		C474.8,103.68,512,175.52,512,256z"/>
	<path style="fill:#F4C534;" d="M260.944,225.664c0,54.016-43.76,97.776-97.616,97.776c-54.016,0-97.776-43.76-97.776-97.776
		c0-53.872,43.76-97.616,97.776-97.616C217.184,128.048,260.944,171.808,260.944,225.664z"/>
</g>
<path style="fill:#FFFFFF;" d="M242.336,225.68c0,43.744-35.424,79.312-79.008,79.312c-43.744,0-79.168-35.568-79.168-79.312
	c0-43.6,35.424-79.168,79.168-79.168C206.912,146.512,242.336,182.08,242.336,225.68z"/>
<path style="fill:#3E4347;" d="M95.248,225.68c0,20.592,16.464,37.2,36.912,37.2c20.592,0,37.056-16.608,37.056-37.2
	c0-20.448-16.464-37.056-37.056-37.056C111.728,188.624,95.264,205.232,95.248,225.68z"/>
<ellipse transform="matrix(-0.7071 -0.7071 0.7071 -0.7071 106.0445 462.4705)" style="fill:#FFFFFF;" cx="148.803" cy="209.273" rx="10.256" ry="5.232"/>
<g>
	<path style="fill:#F4C534;" d="M70.928,210.848c7.136-44.56,45.696-78.704,92.256-78.704c46.688,0,85.264,34.144,92.4,78.704
		C203.968,164.56,174.528,225.744,70.928,210.848z"/>
	<path style="fill:#F4C534;" d="M279.008,225.808c0-46.064,37.312-83.392,83.248-83.392c46.064,0,83.376,37.312,83.376,83.376
		c0,45.936-37.312,83.248-83.376,83.264C316.32,309.056,279.008,271.744,279.008,225.808z"/>
</g>
<path style="fill:#FFFFFF;" d="M294.88,225.808c0-37.312,30.208-67.632,67.376-67.632c37.296,0,67.504,30.32,67.504,67.632
	c0,37.184-30.208,67.504-67.504,67.504C325.088,293.312,294.88,262.992,294.88,225.808z"/>
<ellipse style="fill:#3E4347;" cx="393.84" cy="228.208" rx="31.552" ry="31.664"/>
<ellipse transform="matrix(-0.7071 -0.7071 0.7071 -0.7071 545.0167 654.0701)" style="fill:#FFFFFF;" cx="407.971" cy="214.158" rx="8.752" ry="4.464"/>
<path style="fill:#F4C534;" d="M441.056,238.448c-6.08,38-38.96,67.12-78.672,67.136c-39.824,0-72.704-29.104-78.8-67.12
	C327.6,277.92,352.704,225.744,441.056,238.448z"/>
<path style="fill:#3E4347;" d="M366.208,382.448v0.72c0.72,9.248-3.456,18.512-11.264,23.232
	c-55.376,34.128-118.928-24.144-175.76-7.44c-15.792,4.72-31.952-5.088-33.408-21.248v-0.72c-0.72-9.264,3.456-18.528,11.248-23.424
	c55.376-33.952,118.928,24.336,175.76,7.632C348.608,356.48,364.768,366.112,366.208,382.448z"/>
<path style="fill:#E24B4B;" d="M188.576,396.96c48.16-7.552,100.432,30.784,148.128,17.328c-1.504-14.752-11.36-28.128-26.368-37.68
	c-10.144-6.496-24.192-9.728-36.88-7.184c-6.496,1.28-13.76,1.792-22.064,1.232c-2.24-0.16-4.304-0.4-6.368-0.672
	c-14.768-2.032-30.16,0.112-40.288,7.616C197.52,383.008,191.936,389.568,188.576,396.96z"/>
<g>
	<path style="fill:#FFFFFF;" d="M230.656,382.288l7.6-32.976c-13.664-3.584-27.248-6.352-40.592-6.448l-2.352,31.28
		c-0.32,2.72,1.6,5.28,4.16,5.92l24.16,6.56C226.816,387.408,230.016,385.488,230.656,382.288z"/>
	<path style="fill:#FFFFFF;" d="M249.696,389.952l32.16,5.6c2.08,0.32,4.16-1.12,4.64-3.36l4.608-29.648
		c-13.728-2.224-27.632-6.272-41.52-10.176l-3.248,33.264C246.176,387.712,247.616,389.648,249.696,389.952z"/>
	<path style="fill:#FFFFFF;" d="M332.8,361.2c-10.096,2.976-20.416,3.488-30.848,2.672l-1.568,31.712
		c-0.16,3.04,2.24,5.28,5.12,5.12l31.52-2.88c2.72-0.16,4.8-2.72,4.32-5.44l-4.256-32C335.664,360.592,334.24,360.768,332.8,361.2z"
		/>
</g>
<g>
	<path style="fill:#3E4347;" d="M188.576,78.464c-66.128-31.04-115.088-1.12-125.36,63.968
		C88.208,102.096,139.152,78.656,188.576,78.464z"/>
	<path style="fill:#3E4347;" d="M425.76,110.768c-56.624-46.144-111.392-28.992-137.12,31.664
		C322.656,109.36,377.76,98.96,425.76,110.768z"/>
</g>
<g>
</g>
<g>
</g>
<g>
</g>
<g>
</g>
<g>
</g>
<g>
</g>
<g>
</g>
<g>
</g>
<g>
</g>
<g>
</g>
<g>
</g>
<g>
</g>
<g>
</g>
<g>
</g>
<g>
</g>
</svg>
