<?xml version="1.0" encoding="iso-8859-1"?>
<!-- Generator: Adobe Illustrator 19.0.0, SVG Export Plug-In . SVG Version: 6.00 Build 0)  -->
<svg version="1.1" id="Capa_1" xmlns="http://www.w3.org/2000/svg" xmlns:xlink="http://www.w3.org/1999/xlink" x="0px" y="0px"
	 viewBox="0 0 516.064 516.064" style="enable-background:new 0 0 516.064 516.064;" xml:space="preserve">
<circle style="fill:#FFD93B;" cx="258.032" cy="256" r="256"/>
<path style="fill:#F4C534;" d="M514.032,256c0,141.44-114.64,256-256,256c-80.48,0-152.32-37.12-199.28-95.28
	c43.92,35.52,99.84,56.72,160.72,56.72c141.36,0,256-114.56,256-256c0-60.88-21.2-116.8-56.72-160.72
	C476.832,103.68,514.032,175.52,514.032,256z"/>
<g>
	<path style="fill:#3E4347;" d="M216.128,190.256c6.336,6.336,6.336,16.656,0,23.152c-6.336,6.336-16.656,6.336-23.152,0
		l-19.664-19.648l-19.664,19.648c-6.496,6.336-16.832,6.336-23.152,0c-6.336-6.496-6.336-16.816,0-23.152l19.664-19.648l-19.824-20
		c-6.336-6.336-6.16-16.48,0.16-22.992c6.336-6.336,16.656-6.336,22.992,0l19.824,19.824l19.824-19.824
		c6.336-6.336,16.656-6.336,22.992,0c6.336,6.496,6.496,16.656,0.16,22.992l-19.824,20L216.128,190.256z"/>
	<path style="fill:#3E4347;" d="M385.568,190.256c6.336,6.336,6.336,16.656,0,23.152c-6.336,6.336-16.656,6.336-23.152,0
		l-19.664-19.648l-19.664,19.648c-6.496,6.336-16.832,6.336-23.152,0c-6.336-6.496-6.336-16.816,0-23.152l19.664-19.648l-19.824-20
		c-6.336-6.336-6.16-16.48,0.16-22.992c6.336-6.336,16.656-6.336,22.992,0l19.824,19.824l19.824-19.824
		c6.336-6.336,16.656-6.336,22.992,0c6.336,6.496,6.496,16.656,0.16,22.992l-19.824,20L385.568,190.256z"/>
	<path style="fill:#3E4347;" d="M386.912,385.12c-0.16,0-0.32,0.16-0.32,0.32c-6.56,7.84-18.24,9.76-26.88,4
		c-61.28-41.44-142.08-41.44-203.52,0c-8.48,5.76-20.16,3.84-26.72-4c-0.16-0.16-0.16-0.32-0.32-0.32
		c-7.68-9.44-5.6-23.52,4.48-30.24c75.2-50.4,173.6-50.4,248.8,0C392.512,361.6,394.592,375.68,386.912,385.12z"/>
</g>
<path style="fill:#E24B4B;" d="M367.744,374.464c-5.28,55.04-9.392,141.6-53.232,141.6c-43.2,0-87.088-86.4-92.048-142.88
	c-1.6-19.2,16.16-34.72,34.72-29.6c25.76,7.2,52.8,7.2,75.52,1.44C351.424,340.384,369.504,355.264,367.744,374.464z"/>
<g>
</g>
<g>
</g>
<g>
</g>
<g>
</g>
<g>
</g>
<g>
</g>
<g>
</g>
<g>
</g>
<g>
</g>
<g>
</g>
<g>
</g>
<g>
</g>
<g>
</g>
<g>
</g>
<g>
</g>
</svg>
