<?xml version="1.0" encoding="iso-8859-1"?>
<!-- Generator: Adobe Illustrator 19.0.0, SVG Export Plug-In . SVG Version: 6.00 Build 0)  -->
<svg version="1.1" id="Capa_1" xmlns="http://www.w3.org/2000/svg" xmlns:xlink="http://www.w3.org/1999/xlink" x="0px" y="0px"
	 viewBox="0 0 512 512" style="enable-background:new 0 0 512 512;" xml:space="preserve">
<circle style="fill:#FFD93B;" cx="256" cy="256" r="256"/>
<path style="fill:#F4C534;" d="M512,256c0,141.44-114.64,256-256,256c-80.48,0-152.32-37.12-199.28-95.28
	c43.92,35.52,99.84,56.72,160.72,56.72c141.36,0,256-114.56,256-256c0-60.88-21.2-116.8-56.72-160.72
	C474.8,103.68,512,175.52,512,256z"/>
<path style="fill:#3E4347;" d="M384.592,336c15.744,8.864-22.048,91.184-128.592,91.232C149.456,427.184,111.664,344.88,127.408,336
	c12.976-10.88,56.016,32.304,128.592,30.976C328.576,368.32,371.616,325.104,384.592,336z"/>
<path style="fill:#E24B4B;" d="M156.16,394.368c21.616,17.856,54.416,32.848,99.84,32.864
	c47.408-0.016,81.136-16.352,102.656-35.232c-17.888-4.608-55.088,1.68-98.224,1.68C211.664,393.696,170.4,385.616,156.16,394.368z"
	/>
<g>
	<path style="fill:#FFFFFF;" d="M317.568,390.352c0.608,1.792,2.432,2.832,4.016,2.256l22.48-8.224
		c1.344-0.48,1.984-2.016,1.52-3.568l-7.36-31.296c-8.512,3.552-18.144,7.136-28.864,10.16L317.568,390.352z"/>
	<path style="fill:#FFFFFF;" d="M277.488,404.816c0.784,2.256,3.024,3.632,5.12,3.024L308,400.56c2.304-0.688,3.376-3.376,2.48-5.84
		l-3.776-34.24c-11.296,3.04-23.664,5.36-37.008,6.176L277.488,404.816z"/>
	<path style="fill:#FFFFFF;" d="M178.192,351.344l-6.944,30.496c-0.448,1.568,0.208,3.088,1.552,3.584l17.632,7.184
		c1.568,0.576,3.408-0.464,4-2.256l8.224-30.656C193.76,357.184,185.584,354.288,178.192,351.344z"/>
	<path style="fill:#FFFFFF;" d="M205.312,360.464l-3.776,34.256c-0.896,2.464,0.192,5.152,2.48,5.84l37.888,8.944
		c2.096,0.608,4.336-0.784,5.072-3.04l7.328-39.536C236.384,367.088,219.936,364.4,205.312,360.464z"/>
</g>
<g>
	<path style="fill:#F4C534;" d="M425.44,359.216c2.832-15.392-0.176-35.392-11.296-47.056
		c-12.496-14.96-27.712-16.176-45.136-16.832c19.984-5.568,36.288-3.584,50.512,12.048
		C432.944,323.088,433.44,345.696,425.44,359.216z"/>
	<path style="fill:#F4C534;" d="M86.56,359.216c-2.832-15.392,0.176-35.392,11.296-47.056c12.496-14.96,27.712-16.176,45.136-16.832
		c-19.984-5.568-36.288-3.584-50.512,12.048C79.056,323.088,78.576,345.696,86.56,359.216z"/>
</g>
<g>
	<path style="fill:#3E4347;" d="M229.008,238.896c0.336,3.28,0.464,6.384,0.192,9.536c-16.672-20.848-45.296-35.104-75.264-35.072
		c-16.512,0.08-30.928,4.528-41.776,11.92c6.656-24.032,25.92-42.416,50.528-44.992C195.76,176.8,225.248,203.088,229.008,238.896z"
		/>
	<path style="fill:#3E4347;" d="M389.072,215.344c0,31.552-19.472,57.216-43.616,57.216c-24.128,0-43.616-25.68-43.616-57.216
		s19.472-57.056,43.616-57.056C369.6,158.288,389.072,183.808,389.072,215.344z"/>
</g>
<path style="fill:#5A5F63;" d="M370.944,199.328c-3.552,2.256-9.472-0.24-12.848-5.904c-3.376-5.504-2.944-11.68,0.784-13.936
	c3.552-2.256,9.296,0.4,12.512,5.888C374.944,190.88,374.672,197.088,370.944,199.328z"/>
<g>
	<path style="fill:#3E4347;" d="M109.136,117.552c0,0,54.928-9.664,114.88,54.672C224.016,172.224,188.416,66.896,109.136,117.552z"
		/>
	<path style="fill:#3E4347;" d="M410.048,156.32c-2.72-3.52-32.32-41.6-112.64-14.72C297.408,141.6,375.104,58.384,410.048,156.32z"
		/>
</g>
<g>
</g>
<g>
</g>
<g>
</g>
<g>
</g>
<g>
</g>
<g>
</g>
<g>
</g>
<g>
</g>
<g>
</g>
<g>
</g>
<g>
</g>
<g>
</g>
<g>
</g>
<g>
</g>
<g>
</g>
</svg>
