<?xml version="1.0" encoding="iso-8859-1"?>
<!-- Generator: Adobe Illustrator 19.0.0, SVG Export Plug-In . SVG Version: 6.00 Build 0)  -->
<svg version="1.1" id="Capa_1" xmlns="http://www.w3.org/2000/svg" xmlns:xlink="http://www.w3.org/1999/xlink" x="0px" y="0px"
	 viewBox="0 0 512.384 512.384" style="enable-background:new 0 0 512.384 512.384;" xml:space="preserve">
<circle style="fill:#FFD93B;" cx="256" cy="256.072" r="256"/>
<path style="fill:#F4C534;" d="M512.384,256.312c0,141.44-114.64,256-256,256c-80.48,0-152.32-37.12-199.28-95.28
	c43.92,35.52,99.84,56.72,160.72,56.72c141.36,0,256-114.56,256-256c0-60.88-21.2-116.8-56.72-160.72
	C475.184,103.992,512.384,175.832,512.384,256.312z"/>
<path style="fill:#3E4347;" d="M88.544,355.256c23.072,50.336,124.304,47.2,170.704,41.104c52.256-6.16,146.816-26.8,164.096-77.104
	c3.44,63.792-96.832,100.656-159.952,108.816C192.992,436.792,91.92,418.248,88.544,355.256z"/>
<path style="fill:#F4C534;" d="M244.208,223.464c0,47.68-35.52,86.24-79.36,86.24c-43.68,0-79.2-38.56-79.2-86.24
	c0-47.52,35.52-86.24,79.2-86.24C208.688,137.208,244.208,175.928,244.208,223.464z"/>
<path style="fill:#FFFFFF;" d="M230.336,223.464c0,39.344-29.312,71.152-65.472,71.152c-36.032,0-65.344-31.808-65.344-71.152
	c0-39.216,29.312-71.152,65.344-71.152C201.024,152.296,230.336,184.248,230.336,223.464z"/>
<ellipse style="fill:#3E4347;" cx="186.816" cy="227.112" rx="33.92" ry="37.92"/>
<path style="fill:#5A5F63;" d="M166.496,216.552c2.56,2.24,7.52,0.64,11.2-3.52c3.84-4,4.96-9.12,2.56-11.36
	c-2.56-2.08-7.52-0.8-11.2,3.36S164.256,214.472,166.496,216.552z"/>
<path style="fill:#F4C534;" d="M268.176,223.464c0,47.68,35.52,86.24,79.36,86.24c43.68,0,79.2-38.56,79.2-86.24
	c0-47.52-35.52-86.24-79.2-86.24C303.696,137.208,268.176,175.928,268.176,223.464z"/>
<path style="fill:#FFFFFF;" d="M282.048,223.464c0,39.344,29.312,71.152,65.472,71.152c36.032,0,65.344-31.808,65.344-71.152
	c0-39.216-29.312-71.152-65.344-71.152C311.36,152.296,282.048,184.248,282.048,223.464z"/>
<ellipse style="fill:#3E4347;" cx="325.568" cy="227.112" rx="33.92" ry="37.92"/>
<path style="fill:#5A5F63;" d="M305.248,216.552c2.56,2.24,7.52,0.64,11.2-3.52c3.84-4,4.96-9.12,2.56-11.36
	c-2.56-2.08-7.52-0.8-11.2,3.36C304.128,209.192,303.008,214.472,305.248,216.552z"/>
<g>
	<path style="fill:#3E4347;" d="M382.528,108.888c-132,18.4-80.96-46.72-80.96-46.72
		C317.248,94.968,382.528,108.888,382.528,108.888z"/>
	<path style="fill:#3E4347;" d="M129.856,108.888c132,18.4,80.96-46.72,80.96-46.72C195.136,94.968,129.856,108.888,129.856,108.888
		z"/>
</g>
<g>
</g>
<g>
</g>
<g>
</g>
<g>
</g>
<g>
</g>
<g>
</g>
<g>
</g>
<g>
</g>
<g>
</g>
<g>
</g>
<g>
</g>
<g>
</g>
<g>
</g>
<g>
</g>
<g>
</g>
</svg>
