<?xml version="1.0" encoding="iso-8859-1"?>
<!-- Generator: Adobe Illustrator 19.0.0, SVG Export Plug-In . SVG Version: 6.00 Build 0)  -->
<svg version="1.1" id="Capa_1" xmlns="http://www.w3.org/2000/svg" xmlns:xlink="http://www.w3.org/1999/xlink" x="0px" y="0px"
	 viewBox="0 0 512.384 512.384" style="enable-background:new 0 0 512.384 512.384;" xml:space="preserve">
<circle style="fill:#FFD93B;" cx="256" cy="256.072" r="256"/>
<path style="fill:#F4C534;" d="M512.384,256.312c0,141.44-114.64,256-256,256c-80.48,0-152.32-37.12-199.28-95.28
	c43.92,35.52,99.84,56.72,160.72,56.72c141.36,0,256-114.56,256-256c0-60.88-21.2-116.8-56.72-160.72
	C475.2,103.992,512.384,175.832,512.384,256.312z"/>
<g>
	<path style="fill:#3E4347;" d="M86.64,261.176c-0.592-8.816,6.08-16.432,14.896-17.024c24.08-1.616,47.104-8.768,69.696-21.728
		c-29.088-8.48-43.792-20.944-44.624-21.664c-6.688-5.776-7.408-15.888-1.616-22.56c5.776-6.688,15.872-7.424,22.576-1.632
		c0.096,0.08,21.552,17.552,65.616,21.008c6.512,0.512,12.048,4.944,14,11.168s-0.064,13.024-5.12,17.152
		c-37.248,30.528-77.072,47.424-118.368,50.192C94.016,276.488,87.184,269.448,86.64,261.176z"/>
	<path style="fill:#3E4347;" d="M408.72,276.088c-41.296-2.768-81.12-19.664-118.384-50.192c-5.056-4.144-7.072-10.944-5.12-17.152
		c1.952-6.24,7.504-10.656,14-11.168c44.048-3.472,65.536-20.944,65.744-21.12c6.736-5.584,16.8-4.784,22.496,1.904
		c5.664,6.688,4.96,16.656-1.68,22.384c-0.832,0.72-15.536,13.184-44.624,21.664c22.592,12.976,45.632,20.128,69.712,21.728
		c8.816,0.592,15.488,8.224,14.896,17.024C425.2,269.448,418.384,276.488,408.72,276.088z"/>
	<path style="fill:#3E4347;" d="M383.792,417.256c-9.2,4.352-56.784-35.536-127.584-33.904
		c-70.816-1.584-118.384,38.24-127.584,33.904c-13.12-2.608,30.336-79.76,127.584-79.664
		C353.44,337.544,396.912,414.648,383.792,417.256z"/>
</g>
<g>
</g>
<g>
</g>
<g>
</g>
<g>
</g>
<g>
</g>
<g>
</g>
<g>
</g>
<g>
</g>
<g>
</g>
<g>
</g>
<g>
</g>
<g>
</g>
<g>
</g>
<g>
</g>
<g>
</g>
</svg>
