<?xml version="1.0" encoding="iso-8859-1"?>
<!-- Generator: Adobe Illustrator 19.0.0, SVG Export Plug-In . SVG Version: 6.00 Build 0)  -->
<svg version="1.1" id="Capa_1" xmlns="http://www.w3.org/2000/svg" xmlns:xlink="http://www.w3.org/1999/xlink" x="0px" y="0px"
	 viewBox="0 0 512.288 512.288" style="enable-background:new 0 0 512.288 512.288;" xml:space="preserve">
<path style="fill:#FFD93B;" d="M512.136,256c0,141.52-114.624,256.208-255.984,256.288c-141.36,0.08-256-114.48-256-256
	C0.152,114.848,114.792,0.08,256.136,0C397.496-0.08,512.136,114.56,512.136,256z"/>
<path style="fill:#F4C534;" d="M512.136,256c0,141.52-114.624,256.208-255.984,256.288c-80.48,0.048-152.32-37.056-199.28-95.216
	c43.92,35.52,99.84,56.704,160.72,56.656c141.36-0.08,255.984-114.768,255.984-256.288c0-60.912-21.2-116.864-56.72-160.784
	C474.936,103.616,512.136,175.472,512.136,256z"/>
<g>
	<path style="fill:#3E4347;" d="M228.68,343.968c-16.704,24.832-44.384,33.488-64.784,32.656
		c-42.528-1.76-75.568-34.992-73.952-74.32c0.576-13.84,5.28-26.416,13.056-36.96C120.728,312.688,180.248,339.872,228.68,343.968z"
		/>
	<path style="fill:#3E4347;" d="M284.472,343.968c16.704,24.832,44.384,33.488,64.8,32.656c42.528-1.76,75.568-34.992,73.952-74.32
		c-0.576-13.84-5.28-26.416-13.056-36.96C392.424,312.688,332.904,339.872,284.472,343.968z"/>
	<path style="fill:#3E4347;" d="M106.648,186c-14.24-4.416,35.824-95.584,143.424-95.44c107.6-0.112,157.664,91.008,143.424,95.44
		c-10.16,6.864-64.352-31.76-143.424-31.76C170.568,154.24,116.824,192.88,106.648,186z"/>
</g>
<path style="fill:#E24B4B;" d="M333.576,111.552c-16.8,90.4-51.84,160.272-83.68,160.112c-31.52,0.16-66.56-69.536-83.36-159.936
	c22.08-12.32,50.08-21.12,83.52-21.12S311.336,99.232,333.576,111.552z"/>
<g>
</g>
<g>
</g>
<g>
</g>
<g>
</g>
<g>
</g>
<g>
</g>
<g>
</g>
<g>
</g>
<g>
</g>
<g>
</g>
<g>
</g>
<g>
</g>
<g>
</g>
<g>
</g>
<g>
</g>
</svg>
