<?xml version="1.0" encoding="iso-8859-1"?>
<!-- Generator: Adobe Illustrator 19.0.0, SVG Export Plug-In . SVG Version: 6.00 Build 0)  -->
<svg version="1.1" id="Capa_1" xmlns="http://www.w3.org/2000/svg" xmlns:xlink="http://www.w3.org/1999/xlink" x="0px" y="0px"
	 viewBox="0 0 517.062 517.062" style="enable-background:new 0 0 517.062 517.062;" xml:space="preserve">
<circle style="fill:#FFD93B;" cx="258.691" cy="258.531" r="256"/>
<g>
	<ellipse style="fill:#FFFFFF;" cx="143.411" cy="224.675" rx="87.52" ry="87.36"/>
	<path style="fill:#FFFFFF;" d="M461.491,224.675c0,48.16-39.36,87.36-87.68,87.36c-48.16,0-87.36-39.2-87.36-87.36
		s39.2-87.36,87.36-87.36C422.131,137.315,461.491,176.531,461.491,224.675z"/>
</g>
<path style="fill:#F4C534;" d="M514.707,258.531c0,141.44-114.64,256-256,256c-80.48,0-152.32-37.12-199.28-95.28
	c43.92,35.52,99.84,56.72,160.72,56.72c141.36,0,256-114.56,256-256c0-60.88-21.2-116.8-56.72-160.72
	C477.507,106.211,514.707,178.051,514.707,258.531z"/>
<path style="fill:#3E4347;" d="M375.427,224.547c0,22.608-14.96,40.944-33.456,40.944c-18.352,0-33.456-18.336-33.456-40.944
	c0-22.48,15.088-40.688,33.456-40.688C360.467,183.859,375.427,202.083,375.427,224.547z"/>
<path style="fill:#5A5F63;" d="M358.867,211.107c-2.384,2.032-6.736,0.544-9.872-3.136c-3.136-3.68-3.92-8.192-1.536-10.224
	c2.496-2.128,6.96-0.752,10.112,2.928C360.707,204.355,361.363,208.979,358.867,211.107z"/>
<path style="fill:#3E4347;" d="M208.915,224.547c0,22.608-14.96,40.944-33.456,40.944c-18.352,0-33.456-18.336-33.456-40.944
	c0-22.48,15.088-40.688,33.456-40.688C193.955,183.859,208.915,202.083,208.915,224.547z"/>
<path style="fill:#5A5F63;" d="M192.371,211.107c-2.384,2.032-6.736,0.544-9.872-3.136c-3.136-3.68-3.92-8.192-1.536-10.224
	c2.496-2.128,6.96-0.752,10.112,2.928C194.211,204.355,194.867,208.979,192.371,211.107z"/>
<path style="fill:#E24B4B;" d="M509.811,208.675h-35.04c-6.72-44.16-40-75.68-79.04-83.84c-45.28-9.44-86.88,11.36-108.48,45.92
	c-13.12,21.12-44.96,19.52-57.12,0.16c-21.28-34.4-62.56-55.2-107.52-46.24c-39.52,7.84-73.12,39.52-80,84H7.571
	c-8.64,0-9.76,32-4,32h39.04c7.68,48.8,50.08,86.08,100.8,86.08c56.48,0,103.04-45.92,102.08-103.52
	c-0.16-18.24,26.72-18.56,26.4-0.64c-1.28,58.56,46.24,104.16,101.92,104.16c51.04,0,93.28-37.28,100.96-86.08h39.04
	C520.051,240.835,516.531,208.675,509.811,208.675z M143.411,304.035c-43.68,0-79.52-35.52-79.52-79.36s35.84-79.36,79.52-79.36
	c43.84,0,79.52,35.52,79.52,79.36C222.931,268.531,187.251,304.035,143.411,304.035z M373.811,304.035
	c-43.68,0-79.36-35.52-79.36-79.36s35.68-79.36,79.36-79.36c43.84,0,79.68,35.52,79.68,79.36
	C453.491,268.531,417.651,304.035,373.811,304.035z"/>
<path style="fill:#3E4347;" d="M403.811,354.915c17.344,8.064-28.512,102.624-145.088,102.72
	c-116.592-0.112-162.448-94.64-145.088-102.72c14.144-10.128,68.352,36.56,145.088,34.208
	C335.443,391.427,389.651,344.755,403.811,354.915z"/>
<g>
</g>
<g>
</g>
<g>
</g>
<g>
</g>
<g>
</g>
<g>
</g>
<g>
</g>
<g>
</g>
<g>
</g>
<g>
</g>
<g>
</g>
<g>
</g>
<g>
</g>
<g>
</g>
<g>
</g>
</svg>
