<?xml version="1.0" encoding="iso-8859-1"?>
<!-- Generator: Adobe Illustrator 19.0.0, SVG Export Plug-In . SVG Version: 6.00 Build 0)  -->
<svg version="1.1" id="Capa_1" xmlns="http://www.w3.org/2000/svg" xmlns:xlink="http://www.w3.org/1999/xlink" x="0px" y="0px"
	 viewBox="0 0 512 512" style="enable-background:new 0 0 512 512;" xml:space="preserve">
<circle style="fill:#FFD93B;" cx="256" cy="256" r="256"/>
<path style="fill:#F4C534;" d="M512,256c0,141.44-114.64,256-256,256c-80.48,0-152.32-37.12-199.28-95.28
	c43.92,35.52,99.84,56.72,160.72,56.72c141.36,0,256-114.56,256-256c0-60.88-21.2-116.8-56.72-160.72
	C474.8,103.68,512,175.52,512,256z"/>
<path style="fill:#3E4347;" d="M431.312,234.736c11.456,24.656-121.44,50.176-133.6,21.744c-3.28-9.12,7.584-24.144,46.24-40.688
	c27.344-12.352,48.512-21.264,53.408-14.72c3.984,5.328-6.112,21.056-27.68,34.4C401.824,230.928,427.968,227.232,431.312,234.736z"
	/>
<path style="fill:#F4C534;" d="M240.224,238.736c0,44.352-35.776,80.112-80.112,80.112c-44.16,0-80.112-35.76-80.112-80.112
	c0-44.16,35.952-80.112,80.112-80.112C204.448,158.624,240.224,194.576,240.224,238.736z"/>
<path style="fill:#FFFFFF;" d="M229.2,238.736c-2.224,35.536-34.912,64.256-73.12,64.256s-67.28-28.72-65.056-64.256
	s34.912-64.256,73.12-64.256C202.352,174.48,231.424,203.2,229.2,238.736z"/>
<path style="fill:#3E4347;" d="M206.656,236.544c0,21.344-17.328,38.864-38.864,39.056c-21.36,0-38.88-17.52-38.88-38.864
	c0-21.728,17.52-39.056,39.056-39.056C189.328,197.68,206.656,215.2,206.656,236.544z"/>
<path style="fill:#5A5F63;" d="M190.24,229.056c-3.28,3.296-9.312,2.736-13.504-1.456c-4.016-4.192-4.752-10.224-1.456-13.504
	c3.472-3.28,9.488-2.736,13.696,1.456C192.976,219.76,193.696,225.776,190.24,229.056z"/>
<g>
	<path style="fill:#3E4347;" d="M376.448,313.696c-8.416-6.56-40.56,66.608-105.312,85.024c-32.72,11.552-64.416,5.664-88.16-1.376
		c-17.568-6.768-20.864,8.624-2.928,23.904c25.648,16.736,61.472,37.68,102.32,24.448
		C363.648,420.208,386.64,317.008,376.448,313.696z"/>
	<path style="fill:#3E4347;" d="M283.28,147.056c21.04-11.92,64.928-31.552,111.072-20.656c4.88,1.152,8.592-5.376,4.48-8.24
		c-48.784-33.904-90.016-29.168-122.176,22.416C274.16,144.592,279.168,149.376,283.28,147.056z"/>
	<path style="fill:#3E4347;" d="M228.72,147.056c-21.04-11.92-64.928-31.552-111.072-20.656c-4.88,1.152-8.592-5.376-4.48-8.24
		c48.784-33.904,90.016-29.168,122.176,22.416C237.84,144.592,232.832,149.376,228.72,147.056z"/>
</g>
<g>
</g>
<g>
</g>
<g>
</g>
<g>
</g>
<g>
</g>
<g>
</g>
<g>
</g>
<g>
</g>
<g>
</g>
<g>
</g>
<g>
</g>
<g>
</g>
<g>
</g>
<g>
</g>
<g>
</g>
</svg>
