<?xml version="1.0" encoding="iso-8859-1"?>
<!-- Generator: Adobe Illustrator 19.0.0, SVG Export Plug-In . SVG Version: 6.00 Build 0)  -->
<svg version="1.1" id="Capa_1" xmlns="http://www.w3.org/2000/svg" xmlns:xlink="http://www.w3.org/1999/xlink" x="0px" y="0px"
	 viewBox="0 0 512.007 512.007" style="enable-background:new 0 0 512.007 512.007;" xml:space="preserve">
<circle style="fill:#FFD93B;" cx="256.003" cy="244.352" r="244.352"/>
<g>
	<path style="fill:#F4C534;" d="M500.355,244.352c0,135.008-109.424,244.352-244.352,244.352
		c-76.816,0-145.392-35.44-190.224-90.944c41.92,33.904,95.296,54.144,153.408,54.144c134.928,0,244.352-109.344,244.352-244.352
		c0-58.112-20.24-111.488-54.144-153.408C464.851,98.96,500.355,167.536,500.355,244.352z"/>
	
		<ellipse transform="matrix(-0.9606 -0.2779 0.2779 -0.9606 590.4968 480.9002)" style="fill:#F4C534;" cx="329.331" cy="198.601" rx="66.911" ry="66.959"/>
</g>
<path style="fill:#FFFFFF;" d="M274.147,182.608c-6.768,31.104,12.416,63.488,42.912,72.304c30.496,8.832,60.672-9.28,67.44-40.384
	s-12.432-63.392-42.928-72.224C311.075,133.504,280.915,151.52,274.147,182.608z"/>
<ellipse transform="matrix(-0.7071 -0.7071 0.7071 -0.7071 400.7369 557.9452)" style="fill:#3E4347;" cx="315.923" cy="195.977" rx="30.48" ry="30.528"/>
<ellipse transform="matrix(-0.7071 -0.7071 0.7071 -0.7071 388.5667 528.6067)" style="fill:#5A5F63;" cx="303.761" cy="183.829" rx="5.968" ry="9.472"/>
<path style="fill:#3E4347;" d="M398.499,125.616c0,0-68.336-50.24-123.04-5.504C275.459,120.128,301.507,30.992,398.499,125.616z"/>
<ellipse transform="matrix(-0.2779 -0.9606 0.9606 -0.2779 42.6492 429.2804)" style="fill:#F4C534;" cx="182.671" cy="198.61" rx="66.959" ry="66.911"/>
<path style="fill:#FFFFFF;" d="M237.859,182.608c6.768,31.104-12.416,63.488-42.912,72.304c-30.496,8.832-60.672-9.28-67.44-40.384
	s12.432-63.392,42.928-72.224C200.931,133.504,231.075,151.52,237.859,182.608z"/>
<ellipse transform="matrix(-0.7071 -0.7071 0.7071 -0.7071 196.1503 473.2084)" style="fill:#3E4347;" cx="196.08" cy="195.98" rx="30.528" ry="30.48"/>
<ellipse transform="matrix(-0.7071 -0.7071 0.7071 -0.7071 225.6254 461.0135)" style="fill:#5A5F63;" cx="208.292" cy="183.778" rx="9.472" ry="5.968"/>
<g>
	<path style="fill:#3E4347;" d="M113.507,125.616c0,0,68.336-50.24,123.04-5.504C236.547,120.128,210.499,30.992,113.507,125.616z"
		/>
	<path style="fill:#3E4347;" d="M355.363,345.072c14.576,15.44-25.36,68.384-98.192,68.624
		c-72.848-0.272-112.768-53.152-98.192-68.624c13.52-16.528,55.216-8.208,98.192-8.208
		C300.371,336.864,341.843,328.576,355.363,345.072z"/>
</g>
<path style="fill:#E24B4B;" d="M296.771,373.056c-10.464-3.12-21.344,0.72-32.72,3.04c-2.48,0.64-5.248,0.912-8.256,0.864
	c-3.216-0.096-6.16-0.576-8.752-1.328c-10.096-2.752-20.672-5.36-30.416-2.208c-11.232,3.808-23.632,14.688-23.616,32.48
	c7.728,44.816,40.272,106.784,64.16,106.096c23.856,0.752,56.416-61.312,64.16-106.096
	C321.347,387.696,308.275,376.56,296.771,373.056z"/>
<g style="opacity:0.2;">
	<path style="fill:#FFFFFF;" d="M307.603,398.144c-1.392,5.392-8.176,6.208-10.448,0.656c-2.032-4.272-1.2-10.176-6.736-10.912
		c-2.032-0.176-4.032,0.704-5.968,1.36c-4.512,1.52-6.512,0.192-7.44-2.608c-0.448-1.344-0.56-2.672-0.032-4
		c1.248-2.736,4.816-4.688,12.4-3.648C301.363,380.784,309.715,392.064,307.603,398.144z"/>
</g>
<g>
</g>
<g>
</g>
<g>
</g>
<g>
</g>
<g>
</g>
<g>
</g>
<g>
</g>
<g>
</g>
<g>
</g>
<g>
</g>
<g>
</g>
<g>
</g>
<g>
</g>
<g>
</g>
<g>
</g>
</svg>
