<?xml version="1.0" encoding="iso-8859-1"?>
<!-- Generator: Adobe Illustrator 19.0.0, SVG Export Plug-In . SVG Version: 6.00 Build 0)  -->
<svg version="1.1" id="Capa_1" xmlns="http://www.w3.org/2000/svg" xmlns:xlink="http://www.w3.org/1999/xlink" x="0px" y="0px"
	 viewBox="0 0 512 512" style="enable-background:new 0 0 512 512;" xml:space="preserve">
<circle style="fill:#FFD93B;" cx="256" cy="256" r="256"/>
<g>
	<path style="fill:#F4C534;" d="M512,256c0,141.44-114.64,256-256,256c-80.48,0-152.32-37.12-199.28-95.28
		c43.92,35.52,99.84,56.72,160.72,56.72c141.36,0,256-114.56,256-256c0-60.88-21.2-116.8-56.72-160.72
		C474.8,103.68,512,175.52,512,256z"/>
	<path style="fill:#F4C534;" d="M269.504,232.976c2.08,55.552,48.928,100.56,104.672,100.56s99.216-45.008,97.136-100.56
		S422.384,132.288,366.64,132.288C310.896,132.288,267.424,177.424,269.504,232.976z"/>
</g>
<path style="fill:#FFFFFF;" d="M285.984,227.792c-3.072,46.576,32.24,86.672,78.864,89.536s86.912-32.592,89.984-79.168
	c3.072-46.72-32.224-86.8-78.848-89.664C329.344,145.632,289.056,181.072,285.984,227.792z"/>
<path style="fill:#3E4347;" d="M298.56,231.504c0,22.24,17.824,39.936,39.936,39.936c21.984,0,39.936-17.824,40.064-39.936
	c-0.128-22.112-17.952-39.936-40.064-39.936S298.56,209.536,298.56,231.504z"/>
<path style="fill:#5A5F63;" d="M314.112,226.816c3.616,3.488,9.92,2.816,14.336-1.616c4.416-4.416,5.232-10.848,1.744-14.336
	c-3.488-3.488-9.92-2.816-14.336,1.6C311.424,216.896,310.624,223.328,314.112,226.816z"/>
<path style="fill:#3E4347;" d="M280.768,140.784c0,0,48.992-46.064,134.432-38.528C415.2,102.256,302.128,59.12,280.768,140.784z"/>
<path style="fill:#F4C534;" d="M235.728,232.976c-2.08,55.552-48.928,100.56-104.672,100.56S31.84,288.528,33.92,232.976
	s48.928-100.688,104.672-100.688C194.336,132.288,237.808,177.424,235.728,232.976z"/>
<path style="fill:#FFFFFF;" d="M219.248,227.792c3.072,46.576-32.24,86.672-78.864,89.536S53.472,284.736,50.4,238.16
	c-3.088-46.72,32.224-86.8,78.848-89.664S216.16,181.072,219.248,227.792z"/>
<path style="fill:#3E4347;" d="M206.656,231.504c0,22.24-17.824,39.936-39.936,39.936c-21.984,0-39.936-17.824-40.064-39.936
	c0.128-22.112,17.952-39.936,40.064-39.936S206.656,209.536,206.656,231.504z"/>
<path style="fill:#5A5F63;" d="M191.12,226.816c-3.616,3.488-9.92,2.816-14.336-1.616c-4.416-4.416-5.232-10.848-1.744-14.336
	c3.488-3.488,9.92-2.816,14.336,1.6C193.792,216.896,194.608,223.328,191.12,226.816z"/>
<g>
	<path style="fill:#3E4347;" d="M224.448,140.784c0,0-48.992-46.064-134.432-38.528C90.016,102.256,203.088,59.12,224.448,140.784z"
		/>
	<path style="fill:#3E4347;" d="M378.096,123.536c-54.896,0-100.976,38.112-113.44,89.248c-7.648-2.912-16.448-2.912-24.096,0.016
		c-12.464-51.136-58.544-89.264-113.456-89.264c-64.448,0-116.88,52.448-116.88,116.88s52.448,116.88,116.88,116.88
		c64.448,0,116.88-52.448,116.88-116.88c0-8.176,6.592-8.832,8.624-8.832c2,0,8.608,0.656,8.608,8.832
		c0,64.448,52.448,116.88,116.88,116.88c64.448,0,116.88-52.448,116.88-116.88S442.544,123.536,378.096,123.536z M127.104,335.424
		c-52.384,0-95.008-42.608-95.008-95.008s42.624-94.992,95.008-94.992s95.008,42.608,95.008,95.008S179.504,335.424,127.104,335.424
		z M378.096,335.424c-52.384,0-95.008-42.608-95.008-95.008s42.608-95.008,95.008-95.008s95.008,42.608,95.008,95.008
		S430.496,335.424,378.096,335.424z"/>
	<ellipse style="fill:#3E4347;" cx="256" cy="413.728" rx="48.624" ry="44"/>
</g>
<g>
</g>
<g>
</g>
<g>
</g>
<g>
</g>
<g>
</g>
<g>
</g>
<g>
</g>
<g>
</g>
<g>
</g>
<g>
</g>
<g>
</g>
<g>
</g>
<g>
</g>
<g>
</g>
<g>
</g>
</svg>
