<?xml version="1.0" encoding="iso-8859-1"?>
<!-- Generator: Adobe Illustrator 19.0.0, SVG Export Plug-In . SVG Version: 6.00 Build 0)  -->
<svg version="1.1" id="Capa_1" xmlns="http://www.w3.org/2000/svg" xmlns:xlink="http://www.w3.org/1999/xlink" x="0px" y="0px"
	 viewBox="0 0 512 512" style="enable-background:new 0 0 512 512;" xml:space="preserve">
<circle style="fill:#FFD93B;" cx="256" cy="256" r="256"/>
<g>
	<path style="fill:#F4C534;" d="M512,256c0,141.44-114.64,256-256,256c-80.48,0-152.32-37.12-199.28-95.28
		c43.92,35.52,99.84,56.72,160.72,56.72c141.36,0,256-114.56,256-256c0-60.88-21.2-116.8-56.72-160.72
		C474.8,103.68,512,175.52,512,256z"/>
	<circle style="fill:#F4C534;" cx="338.88" cy="207.728" r="75.008"/>
</g>
<path style="fill:#FFFFFF;" d="M275.248,207.728c-1.84,34.24,25.168,62,60.336,62s65.168-27.76,67.008-62s-25.168-62-60.336-62
	S277.088,173.472,275.248,207.728z"/>
<path style="fill:#3E4347;" d="M285.664,220.224c0,18.72,13.12,34.08,29.44,34.08s29.44-15.36,29.44-34.08
	c0-18.88-13.12-34.24-29.44-34.24C298.784,186,285.664,201.344,285.664,220.224z"/>
<path style="fill:#5A5F63;" d="M297.488,211.104c2.4,2.4,7.2,1.44,10.88-2.24c3.68-3.68,4.64-8.48,2.24-10.88
	c-2.24-2.24-7.2-1.28-10.72,2.4C296.208,203.904,295.248,208.864,297.488,211.104z"/>
<path style="fill:#3E4347;" d="M295.488,118.848c0,0,73.984-27.648,128.096,41.84C423.584,160.672,351.072,27.584,295.488,118.848z"
	/>
<circle style="fill:#F4C534;" cx="173.088" cy="207.728" r="75.008"/>
<path style="fill:#FFFFFF;" d="M236.752,207.728c1.84,34.24-25.168,62-60.336,62s-65.152-27.76-66.992-62s25.168-62,60.336-62
	C204.912,145.728,234.912,173.472,236.752,207.728z"/>
<path style="fill:#3E4347;" d="M226.336,220.224c0,18.72-13.12,34.08-29.44,34.08s-29.44-15.36-29.44-34.08
	c0-18.88,13.12-34.24,29.44-34.24S226.336,201.344,226.336,220.224z"/>
<path style="fill:#5A5F63;" d="M214.512,211.104c-2.4,2.4-7.2,1.44-10.88-2.24c-3.68-3.68-4.64-8.48-2.24-10.88
	c2.24-2.24,7.2-1.28,10.72,2.4C215.792,203.904,216.752,208.864,214.512,211.104z"/>
<g>
	<path style="fill:#3E4347;" d="M216.512,118.848c0,0-73.984-27.648-128.096,41.84C88.416,160.672,160.928,27.584,216.512,118.848z"
		/>
	<path style="fill:#3E4347;" d="M143.824,341.12c2.8,58.384,51.872,104.928,112.176,104.928S365.392,399.52,368.176,341.12
		C292.208,375.984,217.44,375.44,143.824,341.12z"/>
</g>
<path style="fill:#E24B4B;" d="M271.888,402.496c-7.232,0-13.744,3.12-18.272,8.064c-3.408-1.84-7.232-2.832-11.328-2.832
	c-12.432,0-22.576,9.072-24.416,20.976c11.824,4.64,24.624,7.408,38.128,7.408c14.496,0,28.144-3.232,40.672-8.544
	c0-0.08,0.016-0.208,0.016-0.288C296.672,413.552,285.632,402.496,271.888,402.496z"/>
<g>
	<path style="fill:#3E4347;" d="M352.544,327.536c12.976,12.384,24.16,14.4,36.432,20.992
		C372.496,353.6,352.8,339.824,352.544,327.536z"/>
	<path style="fill:#3E4347;" d="M159.472,327.536c-0.272,12.32-19.984,26.064-36.448,20.992
		C135.472,341.856,146.432,339.984,159.472,327.536z"/>
</g>
<g>
	<path style="fill:#FFFFFF;" d="M321.888,368.208l-1.424,21.664l-8.784,3.264l-6.512-20.976
		C310.848,371.04,316.368,369.776,321.888,368.208z"/>
	<path style="fill:#FFFFFF;" d="M291.44,374.448l-1.984,19.696c-14.88,0.704-30.176,0.144-45.904-1.552l-2.128-16.016
		c4.672,0.288,9.488,0.432,14.16,0.432C267.488,376.992,279.536,376.144,291.44,374.448z"/>
	<path style="fill:#FFFFFF;" d="M281.376,432.96c-8.08,1.984-16.576,3.12-25.36,3.12c-1.552,0-3.264,0-4.816-0.288l0.416-12.752
		c9.632-0.432,19.408-0.144,29.472,0.992L281.376,432.96z"/>
	<path style="fill:#FFFFFF;" d="M222.72,374.736l-7.504,17.856l-27.056-10.48l-1.552-14.736
		C198.64,370.768,210.688,373.312,222.72,374.736z"/>
</g>
<g>
</g>
<g>
</g>
<g>
</g>
<g>
</g>
<g>
</g>
<g>
</g>
<g>
</g>
<g>
</g>
<g>
</g>
<g>
</g>
<g>
</g>
<g>
</g>
<g>
</g>
<g>
</g>
<g>
</g>
</svg>
