<?xml version="1.0" encoding="iso-8859-1"?>
<!-- Generator: Adobe Illustrator 19.0.0, SVG Export Plug-In . SVG Version: 6.00 Build 0)  -->
<svg version="1.1" id="Capa_1" xmlns="http://www.w3.org/2000/svg" xmlns:xlink="http://www.w3.org/1999/xlink" x="0px" y="0px"
	 viewBox="0 0 512 512" style="enable-background:new 0 0 512 512;" xml:space="preserve">
<circle style="fill:#FFD93B;" cx="256" cy="256" r="256"/>
<path style="fill:#F4C534;" d="M512,256c0,141.44-114.64,256-256,256c-80.48,0-152.32-37.12-199.28-95.28
	c43.92,35.52,99.84,56.72,160.72,56.72c141.36,0,256-114.56,256-256c0-60.88-21.2-116.8-56.72-160.72
	C474.8,103.68,512,175.52,512,256z"/>
<path style="fill:#3E4347;" d="M340.304,432.224c-7.52,0.16-16.208-3.504-26.4-7.68c-15.2-6.512-34.416-14.528-57.472-13.872
	c-22.896,0.496-41.44,8.352-56.304,14.368c-28.384,11.872-46.88,13.2-48.288-23.392c-0.688-44.224,47.808-99.232,102.08-100.912
	c47.616-0.832,105.76,38.416,106.928,88.208C361.28,408.864,360.08,431.328,340.304,432.224z"/>
<path style="fill:#FFFFFF;" d="M326.432,420.864c-58.848-22.224-66.496-27.568-137.664,0.16c2.08-5.568,12.192-36.432,12.192-41.6
	c10.688-5.008,22.384-10.688,35.584-13.696c-12.704,1.344-24.56,5.008-35.088,8.688c0.752-13.632-3.52-23.52-8.848-38.096
	c38.432-36.192,86.048-34.944,125.648-5.52c-4.512,13.552-10.128,29.344-7.856,42.608c-7.344-2.512-14.704-4.672-29.568-7.184
	c16.208,5.52,22.72,8.848,30.736,13.04C315.408,392.96,320.256,406.832,326.432,420.864z"/>
<path style="fill:#F4C534;" d="M269.68,217.52c-3.376,37.792,29.328,61.472,66.784,75.168c37.952,12.24,78.304,13.632,98.88-18.256
	c20.576-31.168,2.672-96.944-52.736-116.064C327.152,139.36,272.592,180.288,269.68,217.52z"/>
<path style="fill:#FFFFFF;" d="M284.912,212.736c-6.096,32.32,19.28,54.896,49.504,69.184c30.768,13.056,64.496,16.944,84.496-9.152
	c19.952-25.472,10.608-83.328-34.192-103.472C339.872,149.232,290.576,180.848,284.912,212.736z"/>
<ellipse transform="matrix(-0.7071 -0.7071 0.7071 -0.7071 414.6197 620.3788)" style="fill:#3E4347;" cx="335.794" cy="224.319" rx="32.464" ry="32.528"/>
<path style="fill:#5A5F63;" d="M315.136,219.392c2.496,2.64,7.76,1.616,11.584-2.192c3.664-3.808,4.688-8.944,2.192-11.424
	c-2.64-2.64-7.776-1.616-11.584,2.192C313.52,211.776,312.496,216.896,315.136,219.392z"/>
<path style="fill:#F4C534;" d="M242.336,217.52c3.376,37.792-29.328,61.472-66.784,75.168c-37.952,12.24-78.304,13.632-98.88-18.256
	C56.096,243.264,74,177.488,129.408,158.368C184.848,139.36,239.408,180.288,242.336,217.52z"/>
<path style="fill:#FFFFFF;" d="M227.088,212.736c6.096,32.32-19.28,54.896-49.504,69.184c-30.768,13.056-64.496,16.944-84.496-9.152
	c-19.952-25.472-10.624-83.328,34.192-103.472C172.128,149.232,221.424,180.848,227.088,212.736z"/>
<ellipse transform="matrix(-0.7071 -0.7071 0.7071 -0.7071 142.0711 507.5637)" style="fill:#3E4347;" cx="176.155" cy="224.358" rx="32.528" ry="32.464"/>
<path style="fill:#5A5F63;" d="M196.864,219.392c-2.496,2.64-7.76,1.616-11.584-2.192c-3.664-3.808-4.688-8.944-2.192-11.424
	c2.64-2.64,7.76-1.616,11.584,2.192C198.48,211.776,199.504,216.896,196.864,219.392z"/>
<g>
	<path style="fill:#3E4347;" d="M421.2,137.328c1.408,8.64-12.576-3.024-15.376-4.368c-25.728-13.12-58.096-8.928-81.088,5.76
		c-6.704,4.384-12.736,9.792-20.192,13.488c-12.576,6.08-28.336,5.792-39.888,0c9.2,3.152,23.232,0.064,38.112-15.616
		c5.392-5.68,10.288-11.824,16.656-16.72C361.264,87.728,418.688,122.992,421.2,137.328z"/>
	<path style="fill:#3E4347;" d="M90.8,137.328c-1.408,8.64,12.576-3.024,15.376-4.368c25.728-13.12,58.096-8.928,81.088,5.76
		c6.704,4.384,12.736,9.792,20.192,13.488c12.576,6.08,28.336,5.792,39.888,0c-9.2,3.152-23.232,0.064-38.128-15.616
		c-5.392-5.68-10.288-11.824-16.656-16.72C150.736,87.728,93.312,122.992,90.8,137.328z"/>
</g>
<g>
</g>
<g>
</g>
<g>
</g>
<g>
</g>
<g>
</g>
<g>
</g>
<g>
</g>
<g>
</g>
<g>
</g>
<g>
</g>
<g>
</g>
<g>
</g>
<g>
</g>
<g>
</g>
<g>
</g>
</svg>
