<?xml version="1.0" encoding="iso-8859-1"?>
<!-- Generator: Adobe Illustrator 19.0.0, SVG Export Plug-In . SVG Version: 6.00 Build 0)  -->
<svg version="1.1" id="Capa_1" xmlns="http://www.w3.org/2000/svg" xmlns:xlink="http://www.w3.org/1999/xlink" x="0px" y="0px"
	 viewBox="0 0 512 512" style="enable-background:new 0 0 512 512;" xml:space="preserve">
<circle style="fill:#FFD93B;" cx="256" cy="256" r="256"/>
<path style="fill:#F4C534;" d="M512,256c0,141.44-114.64,256-256,256c-80.48,0-152.32-37.12-199.28-95.28
	c43.92,35.52,99.84,56.72,160.72,56.72c141.36,0,256-114.56,256-256c0-60.88-21.2-116.8-56.72-160.72
	C474.8,103.68,512,175.52,512,256z"/>
<g>
	<path style="fill:#3E4347;" d="M208.752,98.416c-34.176-13.184-66.928-8.4-87.536,14.928
		c13.424-37.904,50.032-54.096,84.096-45.872L208.752,98.416z"/>
	<path style="fill:#3E4347;" d="M246.512,214.976c0.144,49.84-31.872,90.256-71.504,90.256s-71.856-40.4-72-90.256
		c-0.144-49.84,31.872-90.256,71.504-90.256C214.128,124.72,246.368,165.136,246.512,214.976z"/>
</g>
<path style="fill:#FFFFFF;" d="M233.68,214.976c3.312,43.536-20.384,78.832-52.928,78.832s-61.616-35.296-64.928-78.832
	s20.384-78.832,52.928-78.832C201.296,136.128,230.368,171.424,233.68,214.976z"/>
<ellipse style="fill:#3E4347;" cx="196" cy="228.88" rx="30.832" ry="34.496"/>
<path style="fill:#5A5F63;" d="M212.768,223.376c-3.424,3.136-9.584,1.776-13.92-2.848c-4.336-4.608-5.056-10.912-1.808-13.904
	c3.424-3.136,9.584-1.936,13.76,2.832C215.152,214.08,216.016,220.384,212.768,223.376z"/>
<g>
	<path style="fill:#3E4347;" d="M303.232,98.416c34.176-13.184,66.928-8.4,87.536,14.928
		c-13.424-37.904-50.032-54.096-84.096-45.872L303.232,98.416z"/>
	<path style="fill:#3E4347;" d="M265.488,214.976c-0.144,49.84,31.872,90.256,71.504,90.256s71.856-40.4,72-90.256
		c0.144-49.84-31.872-90.256-71.504-90.256C297.872,124.72,265.632,165.136,265.488,214.976z"/>
</g>
<path style="fill:#FFFFFF;" d="M278.32,214.976c-3.312,43.536,20.384,78.832,52.928,78.832s61.616-35.296,64.928-78.832
	s-20.384-78.832-52.928-78.832C310.704,136.128,281.632,171.424,278.32,214.976z"/>
<ellipse style="fill:#3E4347;" cx="316" cy="228.88" rx="30.832" ry="34.496"/>
<path style="fill:#5A5F63;" d="M299.232,223.376c3.408,3.136,9.584,1.776,13.92-2.848c4.336-4.608,5.04-10.912,1.808-13.904
	c-3.408-3.136-9.584-1.936-13.76,2.832C296.848,214.08,295.984,220.384,299.232,223.376z"/>
<path style="fill:#3E4347;" d="M390.416,369.568c0,0-7.552-9.824-16.64-16.32c-0.96-0.8-1.92-1.44-3.04-2.08
	c-15.76,47.344-64.88,65.968-114.56,67.84c-73.68-2.464-108.912-42.128-114.88-68c-0.96,0.8-2.08,1.44-3.2,2.24
	c-8.512,6.08-16.48,16.32-16.48,16.32c-1.056-5.28,2.784-16.336,11.84-22.72c7.632-5.84,19.136-7.376,25.12-5.28
	c-5.248,2.624-11.392,5.6-16.32,8.8c10.352,20.688,47.296,51.296,113.44,52.64c64.368-1.136,102.224-28.8,114.08-52.48
	c-6.656-4.32-9.456-5.328-16.32-8.96c5.984-2.096,17.488-0.56,25.12,5.28C385.808,351.936,390.416,359.92,390.416,369.568z"/>
<path style="fill:#F4C534;" d="M224.816,441.056c5.424,0.848,22.528,8.592,27.92,8.272c14.24,0.672,29.488-8.272,29.488-8.272
	c-2.736,10.24-13.952,20.064-28.784,19.616C238.512,460.048,227.024,449.936,224.816,441.056z"/>
<g>
</g>
<g>
</g>
<g>
</g>
<g>
</g>
<g>
</g>
<g>
</g>
<g>
</g>
<g>
</g>
<g>
</g>
<g>
</g>
<g>
</g>
<g>
</g>
<g>
</g>
<g>
</g>
<g>
</g>
</svg>
