<?xml version="1.0" encoding="iso-8859-1"?>
<!-- Generator: Adobe Illustrator 19.0.0, SVG Export Plug-In . SVG Version: 6.00 Build 0)  -->
<svg version="1.1" id="Capa_1" xmlns="http://www.w3.org/2000/svg" xmlns:xlink="http://www.w3.org/1999/xlink" x="0px" y="0px"
	 viewBox="0 0 512 512" style="enable-background:new 0 0 512 512;" xml:space="preserve">
<circle style="fill:#FFD93B;" cx="256" cy="256" r="256"/>
<path style="fill:#F4C534;" d="M512,256c0,141.44-114.64,256-256,256c-80.48,0-152.32-37.12-199.28-95.28
	c43.92,35.52,99.84,56.72,160.72,56.72c141.36,0,256-114.56,256-256c0-60.88-21.2-116.8-56.72-160.72
	C474.8,103.68,512,175.52,512,256z"/>
<path style="fill:#3E4347;" d="M445.504,196.112c-2.416,12.624-4.816,25.248-7.232,37.872c-21.6-31.568-65.216-53.328-112.832-50.72
	c-9.872,0.64-19.168,2.4-28.032,4.912c-3.936-19.2-8.144-38.368-12.592-57.52c5.488,11.824,10.8,23.712,15.936,35.616
	c-1.568-12.768-3.216-25.52-4.944-38.272c5.824-1.168,12.08-1.872,18.304-2.224c30.144-1.936,59.456,5.168,82.672,18.336
	c-0.24,11.28-0.496,22.56-0.816,33.824c1.968-10.272,3.952-20.544,5.952-30.816c6.096,3.824,11.664,7.856,16.672,12.432
	c-0.912,10-1.84,20.016-2.784,30.032c2.32-8.704,4.672-17.392,7.024-26.08C432.768,173.088,440.464,184.24,445.504,196.112z"/>
<path style="fill:#F4C534;" d="M403.184,266.736c-5.04,28.896-35.44,47.664-68.096,44.368
	c-32.656-3.424-58.464-28.064-57.504-57.344c0.944-29.184,31.632-51.904,68.384-48.096
	C382.72,209.424,408.224,237.936,403.184,266.736z"/>
<path style="fill:#FFFFFF;" d="M397.44,265.808c-1.632,24.736-27.264,40.544-57.2,37.376c-29.936-3.264-55.344-24.416-56.848-49.136
	c-1.52-24.608,23.968-43.744,57.056-40.464C373.536,216.784,399.072,241.152,397.44,265.808z"/>
<path style="fill:#3E4347;" d="M358.416,262.72c-1.76,13.968-16.384,23.712-32.704,22.224c-16.16-1.552-28.752-13.728-27.952-27.776
	c0.816-14.16,15.504-24.816,32.608-23.248C347.664,235.504,360.176,248.64,358.416,262.72z"/>
<path style="fill:#5A5F63;" d="M316.816,253.888c-1.76,3.616-5.712,5.424-8.88,4.224c-3.056-1.152-4.032-5.008-2.08-8.528
	c1.728-3.664,5.856-5.44,8.944-4.24C317.888,246.56,318.816,250.4,316.816,253.888z"/>
<path style="fill:#3E4347;" d="M66.496,196.112c2.416,12.624,4.816,25.248,7.232,37.872c21.6-31.568,65.216-53.328,112.848-50.72
	c9.856,0.64,19.168,2.4,28.032,4.912c3.936-19.2,8.144-38.368,12.592-57.52c-5.488,11.824-10.8,23.712-15.936,35.616
	c1.552-12.768,3.2-25.52,4.912-38.272c-5.824-1.168-12.08-1.872-18.304-2.224c-30.144-1.952-59.456,5.152-82.672,18.336
	c0.224,11.28,0.496,22.56,0.8,33.824c-1.968-10.272-3.952-20.544-5.952-30.816c-6.08,3.808-11.648,7.84-16.672,12.416
	c0.912,10,1.84,20.016,2.784,30.032c-2.32-8.704-4.672-17.392-7.024-26.08C79.232,173.088,71.536,184.24,66.496,196.112z"/>
<path style="fill:#F4C534;" d="M108.8,266.736c5.04,28.896,35.44,47.664,68.096,44.368c32.656-3.424,58.464-28.064,57.504-57.344
	c-0.944-29.184-31.632-51.904-68.384-48.096C129.28,209.424,103.76,237.936,108.8,266.736z"/>
<path style="fill:#FFFFFF;" d="M114.56,265.808c1.632,24.736,27.264,40.544,57.2,37.376c29.936-3.264,55.328-24.416,56.848-49.136
	c1.52-24.64-23.984-43.728-57.056-40.464C138.464,216.784,112.928,241.152,114.56,265.808z"/>
<path style="fill:#3E4347;" d="M153.584,262.72c1.76,13.968,16.384,23.712,32.704,22.224c16.16-1.552,28.752-13.728,27.936-27.776
	c-0.816-14.16-15.504-24.816-32.608-23.248C164.352,235.504,151.808,248.64,153.584,262.72z"/>
<path style="fill:#5A5F63;" d="M195.184,253.888c1.76,3.616,5.712,5.424,8.88,4.224c3.056-1.152,4.032-5.008,2.08-8.528
	c-1.728-3.664-5.856-5.44-8.944-4.24C194.112,246.56,193.184,250.4,195.184,253.888z"/>
<g>
	<path style="fill:#3E4347;" d="M233.168,405.152c0.48-0.064,16.432,2.368,25.44,2.336c13.36,0.08,19.456-2.304,25.44-2.336
		c-3.968,8-14.496,14.288-25.44,14.32C247.392,419.408,236.816,412.752,233.168,405.152z"/>
	<path style="fill:#3E4347;" d="M348.992,381.392c1.264,3.408-187.2,4.16-185.968,0.512
		C163.44,371.84,347.28,371.632,348.992,381.392z"/>
</g>
<g>
</g>
<g>
</g>
<g>
</g>
<g>
</g>
<g>
</g>
<g>
</g>
<g>
</g>
<g>
</g>
<g>
</g>
<g>
</g>
<g>
</g>
<g>
</g>
<g>
</g>
<g>
</g>
<g>
</g>
</svg>
