<?xml version="1.0" encoding="iso-8859-1"?>
<!-- Generator: Adobe Illustrator 19.0.0, SVG Export Plug-In . SVG Version: 6.00 Build 0)  -->
<svg version="1.1" id="Capa_1" xmlns="http://www.w3.org/2000/svg" xmlns:xlink="http://www.w3.org/1999/xlink" x="0px" y="0px"
	 viewBox="0 0 512 512" style="enable-background:new 0 0 512 512;" xml:space="preserve">
<circle style="fill:#FFD93B;" cx="256" cy="256" r="256"/>
<g>
	<path style="fill:#F4C534;" d="M512,256c0,141.44-114.64,256-256,256c-80.48,0-152.32-37.12-199.28-95.28
		c43.92,35.52,99.84,56.72,160.72,56.72c141.36,0,256-114.56,256-256c0-60.88-21.2-116.8-56.72-160.72
		C474.8,103.68,512,175.52,512,256z"/>
	<path style="fill:#F4C534;" d="M246.096,221.584c3.616,44.864-22.48,81.216-58.304,81.216c-35.808,0-67.776-36.368-71.392-81.216
		c-3.616-44.864,22.48-81.216,58.288-81.216S242.48,176.72,246.096,221.584z"/>
</g>
<path style="fill:#FFFFFF;" d="M235.168,221.632c0,38.96-24.128,70.656-53.984,70.656c-29.728,0-53.856-31.696-53.856-70.656
	c0-39.104,24.128-70.784,53.856-70.784C211.056,150.832,235.168,182.528,235.168,221.632z"/>
<ellipse style="fill:#3E4347;" cx="186.928" cy="223.216" rx="38.432" ry="44.432"/>
<ellipse transform="matrix(-0.8614 -0.5079 0.5079 -0.8614 218.0139 468.4735)" style="fill:#5A5F63;" cx="172.921" cy="204.493" rx="9.536" ry="13.648"/>
<path style="fill:#3E4347;" d="M101.84,166.272c-0.976-0.672,57.328-72.944,111.216-49.488
	C195.216,84.896,147.84,62.624,101.84,166.272z"/>
<path style="fill:#F4C534;" d="M265.904,221.584c-3.616,44.864,22.48,81.216,58.304,81.216c35.808,0,67.776-36.368,71.392-81.216
	c3.616-44.864-22.48-81.216-58.288-81.216C301.488,140.352,269.52,176.72,265.904,221.584z"/>
<path style="fill:#FFFFFF;" d="M276.816,221.632c0,38.96,24.128,70.656,53.984,70.656c29.728,0,53.856-31.696,53.856-70.656
	c0-39.104-24.128-70.784-53.856-70.784C300.944,150.832,276.816,182.528,276.816,221.632z"/>
<ellipse style="fill:#3E4347;" cx="325.072" cy="223.216" rx="38.432" ry="44.432"/>
<ellipse transform="matrix(-0.5078 -0.8615 0.8615 -0.5078 335.029 600.4662)" style="fill:#5A5F63;" cx="339.054" cy="204.523" rx="13.648" ry="9.536"/>
<g>
	<path style="fill:#3E4347;" d="M410.16,166.272c0.976-0.672-57.328-72.944-111.216-49.488
		C316.784,84.896,364.16,62.624,410.16,166.272z"/>
	<path style="fill:#3E4347;" d="M307.792,462.368c-38.272,9.552-68.592,10.112-109.28-0.64c-4.736-41.472,1.28-88.8,11.52-128.48
		c38.32-7.424,59.056-5.552,86.56-0.48C314.88,380.304,321.584,414.08,307.792,462.368z"/>
</g>
<path style="fill:#E24B4B;" d="M289.984,453.216c1.312-7.088,2.048-13.184,2.048-16.624c0-13.328-10.736-24.064-24.064-24.064
	c-5.744,0-10.944,2.064-15.072,5.424c-3.472-1.952-7.376-3.024-11.6-3.024c-13.328,0-24.064,10.72-24.064,24.064
	c0,3.056,0.592,8.192,1.616,14.24h71.136V453.216z"/>
<g>
	<path style="fill:#FFFFFF;" d="M296.432,355.696c-1.744-5.216-3.648-10.512-5.728-15.888c-24.704-4.768-49.392-4.688-74.096,0.24
		c-1.232,5.392-2.368,10.752-3.44,16.08C240.928,358.688,268.688,358.576,296.432,355.696z"/>
	<path style="fill:#FFFFFF;" d="M205.184,444.624c0.176,3.616,0.384,7.216,0.72,10.8c31.84,8.176,63.68,8.288,95.52,0.32
		c1.104-3.824,1.888-7.6,2.672-11.36C271.12,440.896,238.144,440.944,205.184,444.624z"/>
</g>
<g>
</g>
<g>
</g>
<g>
</g>
<g>
</g>
<g>
</g>
<g>
</g>
<g>
</g>
<g>
</g>
<g>
</g>
<g>
</g>
<g>
</g>
<g>
</g>
<g>
</g>
<g>
</g>
<g>
</g>
</svg>
