<?xml version="1.0" encoding="iso-8859-1"?>
<!-- Generator: Adobe Illustrator 19.0.0, SVG Export Plug-In . SVG Version: 6.00 Build 0)  -->
<svg version="1.1" id="Capa_1" xmlns="http://www.w3.org/2000/svg" xmlns:xlink="http://www.w3.org/1999/xlink" x="0px" y="0px"
	 viewBox="0 0 512 512" style="enable-background:new 0 0 512 512;" xml:space="preserve">
<circle style="fill:#FFD93B;" cx="256" cy="256" r="256"/>
<path style="fill:#F4C534;" d="M512,256c0,141.44-114.64,256-256,256c-80.48,0-152.32-37.12-199.28-95.28
	c43.92,35.52,99.84,56.72,160.72,56.72c141.36,0,256-114.56,256-256c0-60.88-21.2-116.8-56.72-160.72
	C474.8,103.68,512,175.52,512,256z"/>
<path style="fill:#3E4347;" d="M120.8,233.824c2.144,48.8,31.568,85.392,65.856,81.168c33.872-4.176,59.808-47.6,57.664-96.4
	c-2.16-49.232-31.568-85.392-65.44-81.216C144.592,141.6,118.656,184.576,120.8,233.824z"/>
<path style="fill:#FFFFFF;" d="M129.28,232.768c4.208,43.456,31.552,76.128,61.136,72.48c29.216-3.6,49.648-42.16,45.44-85.616
	c-4.256-43.84-31.552-76.112-60.768-72.512C145.504,150.752,125.04,188.944,129.28,232.768z"/>
<path style="fill:#3E4347;" d="M180.416,194.048c13.2,0.688,23.152,7.36,34.192,12.464c4,7.008,6.864,15.2,7.984,24.272
	c3.552,28.768-10.976,54.256-32.448,56.896s-41.744-18.528-45.296-47.312c-2-16.272,2.064-31.088,9.616-41.696
	C163.2,195.536,172.112,193.616,180.416,194.048z"/>
<path style="fill:#FFFFFF;" d="M158.512,197.296c7.408-2.304,14.88-3.616,21.904-3.248c8.384,0.432,15.44,3.312,22.32,6.64
	c7.408,7.648,13.248,18.224,15.664,30.624c5.056,25.984-6.368,48.976-25.504,51.344c-19.152,2.368-38.784-16.784-43.84-42.784
	C145.664,222.496,149.776,206.688,158.512,197.296z"/>
<g>
	<path style="fill:#3E4347;" d="M227.952,221.264c-36.128-33.536-69.664-27.072-85.248-10.112
		c-3.824,4.336-6.72,9.536-11.472,12.864c-13.216,9.168-31.136-1.12-30.256-16.576c5.472,2.544,11.84,3.216,17.6,1.536
		c-12.224-3.648-20.656-17.12-18.672-29.776c3.6,9.552,14.256,15.008,24.544,16C158.608,198.064,185.84,160.208,227.952,221.264z"/>
	<path style="fill:#3E4347;" d="M163.264,244.4c2.176,17.632,14.592,30.768,27.776,29.136c13.024-1.6,21.872-17.36,19.696-34.992
		c-2.192-17.776-14.592-30.768-27.616-29.152C169.936,211.008,161.072,226.624,163.264,244.4z"/>
</g>
<path style="fill:#5A5F63;" d="M173.952,238.256c3.056,1.232,7.2-1.696,9.344-6.64c2.128-4.944,1.344-10-1.552-11.248
	c-3.056-1.232-7.2,1.696-9.36,6.48C170.24,231.776,170.864,236.848,173.952,238.256z"/>
<g>
	<path style="fill:#3E4347;" d="M245.264,138.576c0,0-54.128-55.424-121.136-42.752C124.128,95.824,241.728,61.328,245.264,138.576z
		"/>
	<path style="fill:#3E4347;" d="M391.2,233.824c-2.144,48.8-31.568,85.392-65.856,81.168c-33.872-4.176-59.808-47.6-57.664-96.4
		c2.16-49.232,31.568-85.392,65.44-81.216C367.408,141.6,393.344,184.576,391.2,233.824z"/>
</g>
<path style="fill:#FFFFFF;" d="M382.72,232.768c-4.208,43.456-31.552,76.128-61.136,72.48c-29.216-3.6-49.648-42.16-45.44-85.616
	c4.256-43.84,31.552-76.112,60.768-72.512C366.496,150.752,386.96,188.944,382.72,232.768z"/>
<path style="fill:#3E4347;" d="M331.584,194.048c-13.2,0.688-23.152,7.36-34.192,12.464c-4,7.008-6.864,15.2-7.984,24.272
	c-3.552,28.768,10.976,54.256,32.448,56.896s41.744-18.528,45.296-47.312c2-16.272-2.064-31.088-9.616-41.696
	C348.816,195.536,339.888,193.616,331.584,194.048z"/>
<path style="fill:#FFFFFF;" d="M353.488,197.296c-7.408-2.304-14.88-3.616-21.904-3.248c-8.384,0.432-15.44,3.312-22.32,6.64
	c-7.408,7.648-13.248,18.224-15.664,30.624c-5.056,25.984,6.368,48.976,25.52,51.344c19.152,2.368,38.784-16.784,43.84-42.784
	C366.336,222.496,362.224,206.688,353.488,197.296z"/>
<g>
	<path style="fill:#3E4347;" d="M387.536,195.184c10.272-0.992,20.944-6.448,24.544-16c1.984,12.656-6.448,26.128-18.672,29.776
		c5.76,1.68,12.128,1.008,17.6-1.536c0.88,15.456-17.04,25.744-30.256,16.576c-4.752-3.328-7.648-8.528-11.472-12.864
		c-15.584-16.96-49.104-23.424-85.248,10.112C326.16,160.208,353.392,198.064,387.536,195.184z"/>
	<path style="fill:#3E4347;" d="M348.736,244.4c-2.176,17.632-14.592,30.768-27.776,29.136c-13.024-1.6-21.872-17.36-19.712-34.992
		c2.192-17.776,14.592-30.768,27.616-29.152C342.064,211.008,350.928,226.624,348.736,244.4z"/>
</g>
<path style="fill:#5A5F63;" d="M338.048,238.256c-3.056,1.232-7.2-1.696-9.344-6.64c-2.128-4.944-1.344-10,1.552-11.248
	c3.056-1.232,7.2,1.696,9.36,6.48C341.76,231.776,341.12,236.848,338.048,238.256z"/>
<path style="fill:#3E4347;" d="M266.736,138.576c0,0,54.128-55.424,121.136-42.752C387.872,95.824,270.272,61.328,266.736,138.576z"
	/>
<path style="fill:#E24B4B;" d="M340.368,365.696c-3.52,110.992-162.416,113.008-168.752,0
	C223.312,393.024,288.688,392.992,340.368,365.696z"/>
<path style="fill:#FFFFFF;" d="M271.92,404.944c-0.048,0.144,28.24-5.2,52.896-25.344c0.768-0.608,1.504-1.232,2.256-1.84
	c2.736-3.408,5.12-6.56,6.608-8.72c-48.304,22.816-107.072,22.816-155.36,0c2.256,3.632,4.576,7.088,6.912,10.336
	c0.576,0.496,1.136,0.928,1.712,1.392c12.416,9.696,25.808,16.432,36.096,19.904c10.288,3.616,17.328,4.56,17.328,4.656
	c0-0.048-7.056-0.304-17.52-2.928c-8.08-1.968-18.176-5.632-28.352-11.344c36.112,41.728,80.144,39.92,113.392,8.208
	c0.048-0.048,0.08-0.016,0.112-0.032c0.736-0.752,3.984-4.064,7.968-8.48C293.328,403.504,271.872,404.976,271.92,404.944z"/>
<path style="fill:#D03F3F;" d="M340.384,365.808c-18.864,15.12-38.944,24.528-59.088,28.784c-6.08,1.312-12,3.232-17.856,5.088
	c-2.48,0.784-5.568,1.312-8.896,1.264c-3.328-0.064-6.416-0.576-8.912-1.408c-5.952-1.968-11.952-4.048-18.096-5.504
	c-19.456-4.608-38.336-13.968-55.872-28.224C202.048,370.8,207.92,349.84,230,352.96c10.208,1.072,20.56,2.8,26.032,9.84
	c5.584-6.352,15.968-8.72,26.16-9.856C304.128,349.792,309.888,370.864,340.384,365.808z"/>
<path style="fill:#E24B4B;" d="M319.408,373.088c-0.72,1.744-2.752,2.896-4.336,3.472c-13.808,5.36-28.096,9.056-42.56,10.672
	c-4.368,0.496-8.416,2.16-12.24,4.32c-1.632,0.928-3.84,1.504-6.304,1.504c-2.96,0-5.568-0.832-7.232-2.112
	c-3.296-2.528-7.392-3.76-11.488-4.432c-10.384-1.664-20.688-4.608-30.64-8.816c-3.328-1.456-6.944-3.184-9.84-5.792
	c-4.192-3.616,2.032-2.32,4.048-2.608c5.936-0.72,11.008-3.76,16.496-6.224c7.232-3.472,16.496-6.512,25.92-3.76
	c7.824,2.32,13.904,8.832,14.192,16.064c2.608-7.232,10.56-12.304,18.96-14.336c8.544-2.176,17.088-1.6,24.176,0.432
	c7.232,1.744,13.168,5.072,18.816,7.968C318.688,370.048,320.128,371.216,319.408,373.088z"/>
<g style="opacity:0.2;">
	<path style="fill:#FFFFFF;" d="M293.04,366.896c-0.592,2.688-5.584,5.216-11.328,5.216c-5.728,0.016-10.128-2.224-9.712-4.896
		c0.416-2.608,5.664-4.512,11.44-4.624C289.248,362.528,293.504,364.16,293.04,366.896z"/>
</g>
<g style="opacity:0.2;">
	<path style="fill:#FFFFFF;" d="M218.448,426.352c6.656,4.4,2.512,9.84-2.544,6.864c-14.528-8.624-25.552-22.4-30.912-36.512
		c-0.752-2.016-1.2-7.136,2.016-5.088c1.696,1.056,3.664,4.4,4.56,5.984C196.512,406.448,210.752,421.36,218.448,426.352z"/>
</g>
<g>
	<path style="fill:#F4C534;" d="M334.864,339.28c1.792,1.792,11.12,12.192,15.376,16.672c8.672,9.568,10.816,9.072,17.424,13.088
		c-5.008,1.904-14.224,0.304-22.624-8.064C338.8,354.592,335.008,345.056,334.864,339.28z"/>
	<path style="fill:#F4C534;" d="M177.136,339.28c-0.144,5.776-3.936,15.296-10.176,21.712c-8.56,8.528-17.984,9.824-22.624,8.064
		c6.528-3.968,9.264-4.064,17.424-13.088C166.016,351.472,175.344,341.072,177.136,339.28z"/>
</g>
<g>
</g>
<g>
</g>
<g>
</g>
<g>
</g>
<g>
</g>
<g>
</g>
<g>
</g>
<g>
</g>
<g>
</g>
<g>
</g>
<g>
</g>
<g>
</g>
<g>
</g>
<g>
</g>
<g>
</g>
</svg>
