<?xml version="1.0" encoding="iso-8859-1"?>
<!-- Generator: Adobe Illustrator 19.0.0, SVG Export Plug-In . SVG Version: 6.00 Build 0)  -->
<svg version="1.1" id="Capa_1" xmlns="http://www.w3.org/2000/svg" xmlns:xlink="http://www.w3.org/1999/xlink" x="0px" y="0px"
	 viewBox="0 0 512 512" style="enable-background:new 0 0 512 512;" xml:space="preserve">
<circle style="fill:#FFD93B;" cx="256" cy="225.6" r="225.6"/>
<path style="fill:#3E4347;" d="M372.32,315.472c-19.168,45.376-64,77.104-116.288,77.104c-52.72,0-97.824-32.272-116.704-78.08
	c-3.664-9.008,4.368-18.32,14.096-16.768c68.368,11.136,136.72,11.136,205.232,0.144C368.656,296.16,376.272,306.16,372.32,315.472z
	"/>
<path style="fill:#F4C534;" d="M481.52,225.52c0,124.608-100.992,225.52-225.52,225.52c-70.896,0-134.192-32.704-175.552-83.936
	c38.688,31.296,87.952,49.968,141.584,49.968c124.528,0,225.52-100.928,225.52-225.52c0-53.632-18.672-102.896-49.968-141.584
	C448.752,91.344,481.52,154.624,481.52,225.52z"/>
<g>
	<path style="fill:#3E4347;" d="M294.016,96.672c-4.016-4.24-3.824-10.928,0.432-14.944c15.248-14.432,58.928-38.768,115.264-27.44
		c5.728,1.152,9.424,6.72,8.288,12.448c-1.136,5.712-6.736,9.36-12.448,8.288c-44.288-8.864-82.064,8.336-96.608,22.064
		C304.752,101.072,298.064,100.944,294.016,96.672z"/>
	<path style="fill:#3E4347;" d="M203.04,97.088c-14.528-13.728-52.288-30.944-96.608-22.064c-5.76,1.056-11.296-2.576-12.448-8.288
		c-1.136-5.728,2.56-11.296,8.288-12.448c56.336-11.264,100.016,13.008,115.264,27.44c4.256,4,4.448,10.688,0.432,14.944
		C213.952,100.944,207.248,101.088,203.04,97.088z"/>
</g>
<path style="fill:#FFFFFF;" d="M244.96,196.448c-3.248,43.536-41.84,75.6-86.176,71.44s-77.776-42.96-74.528-86.496
	c3.232-43.552,41.952-75.472,86.288-71.312C214.88,114.224,248.208,152.896,244.96,196.448z"/>
<ellipse style="fill:#3E4347;" cx="185.056" cy="193.12" rx="38.944" ry="38.976"/>
<g>
	
		<ellipse transform="matrix(-0.7071 -0.7071 0.7071 -0.7071 215.4718 445.6105)" style="fill:#FFFFFF;" cx="200.025" cy="178.18" rx="9.952" ry="6.784"/>
	<path style="fill:#FFFFFF;" d="M267.056,196.448c3.248,43.536,41.84,75.6,86.176,71.44s77.776-42.96,74.528-86.496
		s-41.968-75.472-86.304-71.312C297.12,114.224,263.808,152.896,267.056,196.448z"/>
</g>
<ellipse style="fill:#3E4347;" cx="326.992" cy="193.12" rx="38.944" ry="38.976"/>
<ellipse transform="matrix(-0.7071 -0.7071 0.7071 -0.7071 457.7142 546.0887)" style="fill:#FFFFFF;" cx="341.956" cy="178.249" rx="9.952" ry="6.784"/>
<path style="fill:#E24B4B;" d="M211.184,362.704c-8.192-1.584-17.312,2.56-19.312,14.816C184.544,467.392,217.728,512.016,256,512
	c38.304,0.08,71.44-44.704,64.144-134.48c-1.984-12.208-11.12-16.4-19.312-14.816C272.016,368.304,239.984,368.304,211.184,362.704z
	"/>
<g>
</g>
<g>
</g>
<g>
</g>
<g>
</g>
<g>
</g>
<g>
</g>
<g>
</g>
<g>
</g>
<g>
</g>
<g>
</g>
<g>
</g>
<g>
</g>
<g>
</g>
<g>
</g>
<g>
</g>
</svg>
