<?xml version="1.0" encoding="iso-8859-1"?>
<!-- Generator: Adobe Illustrator 19.0.0, SVG Export Plug-In . SVG Version: 6.00 Build 0)  -->
<svg version="1.1" id="Capa_1" xmlns="http://www.w3.org/2000/svg" xmlns:xlink="http://www.w3.org/1999/xlink" x="0px" y="0px"
	 viewBox="0 0 512 512" style="enable-background:new 0 0 512 512;" xml:space="preserve">
<circle style="fill:#FFD93B;" cx="256" cy="256" r="256"/>
<path style="fill:#F4C534;" d="M512,256c0,141.44-114.64,256-256,256c-80.48,0-152.32-37.12-199.28-95.28
	c43.92,35.52,99.84,56.72,160.72,56.72c141.36,0,256-114.56,256-256c0-60.88-21.2-116.8-56.72-160.72
	C474.8,103.68,512,175.52,512,256z"/>
<path style="fill:#3E4347;" d="M381.712,359.856c0,74.352-73.408,99.312-125.744,99.312c-52.208,0-125.616-24.96-125.616-99.312
	c0-32.192,43.856-57.632,93.408-51.808c21.472,2.688,43.216,2.688,64.544,0C338.816,302.272,381.712,328.032,381.712,359.856z"/>
<path style="fill:#FFFFFF;" d="M256.032,350.48c46.672,0,88.416-3.728,116.688-14.816c-15.12-19.328-47.712-31.808-84.4-27.6
	c-21.344,2.688-43.072,2.688-64.544,0c-36.096-4.256-69.104,8.144-84.384,27.616C167.632,346.752,209.36,350.48,256.032,350.48z"/>
<path style="fill:#E24B4B;" d="M261.392,381.696c-27.488,14-53.808-4.784-68.08,25.6c-5.776,12.544-7.344,25.36-5.792,37.44
	c22.032,10.112,47.008,14.432,68.448,14.432c21.504,0,46.512-4.304,68.576-14.432C329.824,403.52,296.256,363.824,261.392,381.696z"
	/>
<g>
	<path style="fill:#3E4347;" d="M231.008,201.984c-19.696-19.088-47.504-30.944-78.288-30.944
		c-30.864,0-58.576,11.856-78.192,30.864c-2.624,2.528-6.896-0.432-5.584-3.92c12.72-33.824,45.424-57.888,83.776-57.888
		c38.272,0,71.04,24.064,83.856,57.968C237.888,201.552,233.616,204.512,231.008,201.984z"/>
	<path style="fill:#3E4347;" d="M437.472,201.984c-19.696-19.088-47.504-30.944-78.288-30.944
		c-30.864,0-58.576,11.856-78.192,30.864c-2.608,2.528-6.896-0.432-5.584-3.92c12.72-33.824,45.424-57.888,83.776-57.888
		c38.272,0,71.056,24.064,83.856,57.968C444.352,201.552,440.08,204.512,437.472,201.984z"/>
	<path style="fill:#3E4347;" d="M495.008,376.528c-10.64-4.864-31.536-13.824-43.776-14.928l-9.136,64
		c-1.696,11.872-16.528,19.552-33.152,17.184c-16.688-2.384-28.784-13.904-27.088-25.776c1.68-11.824,16.528-19.472,33.2-17.088
		c4.704,0.672,9.088,2.096,12.848,4.064l9.184-64.352c1.152-8.08,9.536-12.896,17.088-9.872
		c14.048,5.632,34.368,17.76,44.928,42.736C500.208,375.104,497.536,377.712,495.008,376.528z"/>
	<path style="fill:#3E4347;" d="M493.68,255.072c-7.344-3.024-21.76-8.544-30.096-8.976l-4.48,43.664
		c-0.832,8.112-10.688,13.712-22.032,12.544c-11.376-1.168-19.888-8.672-19.072-16.784c0.832-8.064,10.688-13.648,22.064-12.48
		c3.216,0.336,6.224,1.184,8.816,2.416l4.496-43.904c0.56-5.504,6.128-8.992,11.328-7.152c9.68,3.456,23.792,11.136,31.632,27.808
		C497.168,253.968,495.44,255.808,493.68,255.072z"/>
</g>
<g>
</g>
<g>
</g>
<g>
</g>
<g>
</g>
<g>
</g>
<g>
</g>
<g>
</g>
<g>
</g>
<g>
</g>
<g>
</g>
<g>
</g>
<g>
</g>
<g>
</g>
<g>
</g>
<g>
</g>
</svg>
