<?xml version="1.0" encoding="iso-8859-1"?>
<!-- Generator: Adobe Illustrator 19.0.0, SVG Export Plug-In . SVG Version: 6.00 Build 0)  -->
<svg version="1.1" id="Capa_1" xmlns="http://www.w3.org/2000/svg" xmlns:xlink="http://www.w3.org/1999/xlink" x="0px" y="0px"
	 viewBox="0 0 512 512" style="enable-background:new 0 0 512 512;" xml:space="preserve">
<circle style="fill:#FFD93B;" cx="256" cy="278.8" r="233.2"/>
<path style="fill:#F4C534;" d="M488.096,278.8c0,128.848-104.432,233.2-233.2,233.2c-73.312,0-138.752-33.808-181.536-86.8
	c40.016,32.352,90.944,51.664,146.416,51.664c128.768,0,233.2-104.352,233.2-233.2c0-55.456-19.312-106.4-51.664-146.416
	C454.208,140.032,488.096,205.488,488.096,278.8z"/>
<g>
	<path style="fill:#FFFFFF;" d="M237.248,235.696c0,39.904-32.272,72.304-72.304,72.304c-39.904,0-72.304-32.4-72.304-72.304
		c0-40.032,32.416-72.448,72.304-72.448C204.976,163.264,237.248,195.664,237.248,235.696z"/>
	<path style="fill:#FFFFFF;" d="M419.376,235.696c0,39.904-32.272,72.304-72.304,72.304c-39.904,0-72.304-32.4-72.304-72.304
		c0-40.032,32.416-72.448,72.304-72.448C387.104,163.264,419.376,195.664,419.376,235.696z"/>
</g>
<g>
	<path style="fill:#3E4347;" d="M464.816,224.704h-35.984c-5.392-40.384-39.984-71.648-81.76-71.648
		c-30.928,0-57.888,17.136-72,42.416c-3.824,6.864-11.072,10.864-18.928,10.816c-0.048,0-0.096,0-0.144,0c-0.064,0-0.144,0-0.208,0
		c-7.824,0.048-15.04-3.952-18.848-10.784c-14.112-25.296-41.072-42.448-72-42.448c-41.776,0-76.288,31.28-81.696,71.648H47.136
		v21.856h36.352c5.072,37.728,35.728,68.08,74.336,71.344c48.864,4.144,90.592-34.816,89.536-83.952
		c0.832-4.112,4.288-7.264,8.64-7.264c4.432,0,8.544,3.2,8.544,8.992c0,47.632,40.592,85.984,89.008,82.272
		c38.736-2.976,69.984-33.28,75.04-71.408h36.24v-21.84H464.816z M164.944,297.792c-34.24,0-62.096-27.856-62.096-62.08
		c0-34.304,27.856-62.224,62.096-62.224s62.096,27.92,62.096,62.224C227.024,269.92,199.184,297.792,164.944,297.792z
		 M347.072,297.792c-34.24,0-62.096-27.856-62.096-62.08c0-34.304,27.856-62.224,62.096-62.224s62.096,27.92,62.096,62.224
		C409.168,269.92,381.312,297.792,347.072,297.792z"/>
	<path style="fill:#3E4347;" d="M356.496,235.664c0,15.2-12.24,27.728-27.632,27.728c-15.2,0-27.632-12.528-27.632-27.728
		c0-15.296,12.432-27.824,27.632-27.824C344.272,207.856,356.496,220.368,356.496,235.664z"/>
</g>
<ellipse transform="matrix(-0.7071 -0.7071 0.7071 -0.7071 418.1482 625.3335)" style="fill:#FFFFFF;" cx="338.585" cy="226.065" rx="9.104" ry="6.304"/>
<path style="fill:#3E4347;" d="M210.752,235.664c0,15.2-12.24,27.728-27.632,27.728c-15.2,0-27.632-12.528-27.632-27.728
	c0-15.296,12.432-27.824,27.632-27.824C198.512,207.856,210.752,220.368,210.752,235.664z"/>
<ellipse transform="matrix(-0.7071 -0.7071 0.7071 -0.7071 169.0662 522.2803)" style="fill:#FFFFFF;" cx="192.701" cy="226.125" rx="9.104" ry="6.304"/>
<path style="fill:#65B1EF;" d="M299.936,48.4c0-12.432-22.512-48.4-22.512-48.4s-22.512,35.968-22.512,48.4
	s10.08,22.512,22.512,22.512S299.936,60.832,299.936,48.4z"/>
<path style="fill:#FFFFFF;" d="M288.08,59.824c-3.408,3.056-7.504,3.872-9.152,2s-0.24-5.744,3.056-8.8
	c3.408-2.944,7.632-3.872,9.28-2C292.896,52.896,291.488,56.768,288.08,59.824z"/>
<path style="fill:#65B1EF;" d="M257.104,105.2c0-10.544-19.088-41.024-19.088-41.024s-19.088,30.496-19.088,41.024
	c0,10.544,8.544,19.088,19.088,19.088C248.56,124.288,257.104,115.744,257.104,105.2z"/>
<path style="fill:#FFFFFF;" d="M247.056,114.88c-2.88,2.592-6.368,3.28-7.76,1.696s-0.192-4.88,2.592-7.456
	c2.88-2.48,6.464-3.28,7.856-1.696C251.136,109.008,249.952,112.288,247.056,114.88z"/>
<g>
	<path style="fill:#3E4347;" d="M384.864,121.072c0,0-56.176,5.616-88.912-45.056C295.968,76.016,309.072,170.208,384.864,121.072z"
		/>
	<path style="fill:#3E4347;" d="M127.136,121.072c0,0,56.176,5.616,88.912-45.056C216.032,76.016,202.928,170.208,127.136,121.072z"
		/>
	<path style="fill:#3E4347;" d="M346.544,433.92c-1.264,10.272-12.576,15.92-21.92,11.648c-45.472-21.232-91.168-20.768-137.2,0.224
		c-9.456,4.272-20.544-1.504-21.92-11.648C158.576,381.056,200,331.44,256.08,331.44
		C312.032,331.456,353.344,380.848,346.544,433.92z"/>
</g>
<path style="fill:#E24B4B;" d="M309.424,439.392c-0.416-14.928-6.784-28.336-17.104-37.744c-6.272-5.808-15.536-6.592-23.376-3.136
	c-5.648,2.352-11.936,3.76-19.152,3.76c-2.352,0-4.544-0.16-6.752-0.464c-14.912-1.872-30.288,4.08-36.256,17.744
	c-2.688,6.272-4.08,13.088-4.256,20.208C238.336,426.912,273.952,426.608,309.424,439.392z"/>
<g>
</g>
<g>
</g>
<g>
</g>
<g>
</g>
<g>
</g>
<g>
</g>
<g>
</g>
<g>
</g>
<g>
</g>
<g>
</g>
<g>
</g>
<g>
</g>
<g>
</g>
<g>
</g>
<g>
</g>
</svg>
