<?xml version="1.0" encoding="iso-8859-1"?>
<!-- Generator: Adobe Illustrator 19.0.0, SVG Export Plug-In . SVG Version: 6.00 Build 0)  -->
<svg version="1.1" id="Capa_1" xmlns="http://www.w3.org/2000/svg" xmlns:xlink="http://www.w3.org/1999/xlink" x="0px" y="0px"
	 viewBox="0 0 512.002 512.002" style="enable-background:new 0 0 512.002 512.002;" xml:space="preserve">
<path style="fill:#FFD93B;" d="M509.941,223.059c20.864,167.392-119.92,307.92-287.232,286.832
	C108.661,495.523,16.549,403.443,2.117,289.379c-21.2-167.568,119.888-308.56,287.472-287.232
	C403.685,16.659,495.717,108.931,509.941,223.059z"/>
<g>
	<path style="fill:#F4C534;" d="M510.277,286.099c-13.36,116.896-107.936,211.232-224.864,224.256
		c-92.24,10.272-176.08-28.48-228.688-93.632c50.864,41.136,117.824,63.072,189.936,55.104
		c117.344-12.96,212.208-107.808,225.168-225.168c7.968-72.112-13.968-139.072-55.104-189.936
		C481.957,109.475,520.853,193.603,510.277,286.099z"/>
	<ellipse style="fill:#F4C534;" cx="124.981" cy="210.627" rx="120.992" ry="121.072"/>
</g>
<path style="fill:#FFFFFF;" d="M221.877,210.659c0,53.472-43.248,96.88-96.88,96.88s-96.88-43.408-96.88-96.88
	c0-53.632,43.248-97.056,96.88-97.056S221.877,157.027,221.877,210.659z"/>
<path style="fill:#3E4347;" d="M183.493,210.675c0,32.256-26.096,58.496-58.496,58.496s-58.496-26.256-58.496-58.496
	c0-32.4,26.096-58.656,58.496-58.656S183.493,178.275,183.493,210.675z"/>
<ellipse transform="matrix(-0.7071 -0.7071 0.7071 -0.7071 115.7161 426.6364)" style="fill:#FFFFFF;" cx="146.217" cy="189.353" rx="17.936" ry="11.712"/>
<ellipse style="fill:#F4C534;" cx="387.045" cy="210.627" rx="120.992" ry="121.072"/>
<path style="fill:#FFFFFF;" d="M483.909,210.659c0,53.472-43.264,96.88-96.896,96.88s-96.896-43.408-96.896-96.88
	c0-53.632,43.248-97.056,96.896-97.056C440.661,113.619,483.909,157.027,483.909,210.659z"/>
<path style="fill:#3E4347;" d="M445.525,210.675c0,32.256-26.096,58.496-58.496,58.496s-58.496-26.256-58.496-58.496
	c0-32.4,26.096-58.656,58.496-58.656C419.429,152.019,445.525,178.275,445.525,210.675z"/>
<ellipse transform="matrix(-0.7071 -0.7071 0.7071 -0.7071 563.0282 611.9229)" style="fill:#FFFFFF;" cx="408.247" cy="189.355" rx="17.936" ry="11.712"/>
<path style="fill:#3E4347;" d="M354.405,373.683c-16.832,28.24-52.08,59.504-103.856,61.584
	c-45.456-2.656-81.152-26.272-104.192-61.728c27.856,14.576,57.52,35.136,104.352,37.424
	C304.069,409.587,338.197,380.323,354.405,373.683z"/>
<g>
</g>
<g>
</g>
<g>
</g>
<g>
</g>
<g>
</g>
<g>
</g>
<g>
</g>
<g>
</g>
<g>
</g>
<g>
</g>
<g>
</g>
<g>
</g>
<g>
</g>
<g>
</g>
<g>
</g>
</svg>
