<?xml version="1.0" encoding="iso-8859-1"?>
<!-- Generator: Adobe Illustrator 19.0.0, SVG Export Plug-In . SVG Version: 6.00 Build 0)  -->
<svg version="1.1" id="Capa_1" xmlns="http://www.w3.org/2000/svg" xmlns:xlink="http://www.w3.org/1999/xlink" x="0px" y="0px"
	 viewBox="0 0 512 512" style="enable-background:new 0 0 512 512;" xml:space="preserve">
<circle style="fill:#FFD93B;" cx="256" cy="256" r="255.088"/>
<path style="fill:#F4C534;" d="M511.088,256c0,140.928-114.224,255.088-255.088,255.088c-80.192,0-151.776-36.992-198.576-94.944
	c43.76,35.392,99.488,56.512,160.144,56.512c140.848,0,255.088-114.144,255.088-255.088c0-60.656-21.12-116.384-56.512-160.144
	C474.016,104.224,511.088,175.808,511.088,256z"/>
<g>
	<circle style="fill:#FFFFFF;" cx="135.552" cy="212.048" r="91.856"/>
	<circle style="fill:#FFFFFF;" cx="376.448" cy="212.048" r="91.856"/>
</g>
<g>
	<path style="fill:#8CC63E;" d="M130.528,246.016v-30.128c-9.392-2.688-16.288-6.752-20.672-12.192
		c-4.384-5.44-6.576-12.048-6.576-19.808c0-7.856,2.48-14.464,7.44-19.808s11.568-8.432,19.808-9.248v-7.12h10.432v7.12
		c7.616,0.912,13.68,3.504,18.192,7.808c4.512,4.288,7.376,10.032,8.624,17.216l-18.192,2.384c-1.104-5.664-3.984-9.504-8.64-11.52
		v28.112c11.504,3.12,19.344,7.152,23.52,12.112c4.176,4.96,6.256,11.328,6.256,19.088c0,8.672-2.624,15.984-7.872,21.936
		c-5.248,5.952-12.544,9.584-21.904,10.928v13.44h-10.416v-13.088c-8.288-1.008-15.024-4.096-20.208-9.28
		c-5.184-5.184-8.48-12.496-9.92-21.936l18.768-2.016c0.768,3.84,2.208,7.136,4.32,9.92
		C125.584,242.752,127.936,244.768,130.528,246.016z M130.528,170.512c-2.832,0.96-5.088,2.592-6.752,4.896
		c-1.68,2.304-2.512,4.848-2.512,7.616c0,2.544,0.768,4.896,2.304,7.088c1.536,2.176,3.856,3.936,6.976,5.28v-24.88H130.528z
		 M140.944,247.024c3.6-0.672,6.528-2.336,8.768-4.992s3.376-5.792,3.376-9.376c0-3.216-0.944-5.984-2.848-8.304
		c-1.888-2.32-4.992-4.112-9.312-5.36v28.032H140.944z"/>
	<path style="fill:#8CC63E;" d="M371.408,246.016v-30.128c-9.392-2.688-16.288-6.752-20.672-12.192s-6.576-12.048-6.576-19.808
		c0-7.856,2.48-14.464,7.44-19.808s11.568-8.432,19.808-9.248v-7.12h10.432v7.12c7.616,0.912,13.68,3.504,18.192,7.808
		c4.512,4.288,7.376,10.032,8.624,17.216l-18.192,2.368c-1.104-5.664-3.984-9.488-8.624-11.504v28.112
		c11.504,3.12,19.344,7.152,23.52,12.112c4.176,4.96,6.256,11.328,6.256,19.088c0,8.672-2.624,15.984-7.872,21.936
		c-5.248,5.952-12.544,9.584-21.904,10.928v13.44h-10.432v-13.088c-8.288-1.008-15.024-4.096-20.208-9.28
		c-5.184-5.184-8.48-12.496-9.92-21.936l18.768-2.016c0.768,3.84,2.208,7.136,4.32,9.92
		C366.48,242.752,368.832,244.768,371.408,246.016z M371.408,170.512c-2.832,0.96-5.088,2.592-6.752,4.896
		c-1.68,2.304-2.512,4.848-2.512,7.616c0,2.544,0.768,4.896,2.304,7.088c1.536,2.176,3.856,3.936,6.976,5.28v-24.88H371.408z
		 M381.84,247.024c3.6-0.672,6.528-2.336,8.768-4.992c2.256-2.656,3.376-5.792,3.376-9.376c0-3.216-0.944-5.984-2.848-8.304
		c-1.888-2.32-4.992-4.112-9.312-5.36v28.032H381.84z"/>
</g>
<g>
	<path style="fill:#3E4347;" d="M512,196.784h-31.664c-11.776-83.44-111.168-117.936-172.96-63.952
		c-31.568,27.568-75.232,23.904-103.008-0.224C142.64,79.024,43.44,113.312,31.664,196.784H0v30.496h31.504
		c7.408,50.784,51.248,89.904,104.048,89.904c50.576,0,92.912-35.904,102.896-83.552h0.016c0-0.08,0-0.064,0-0.064
		c0.496-2.336,0.8-4.736,1.136-7.136c5.456-16.272,27.408-15.696,32.784,0.016c0.336,2.384,0.64,4.784,1.12,7.104
		c0,0,0,0.016,0,0.096h0.032c10,47.648,52.336,83.536,102.912,83.536c52.8,0,96.64-39.12,104.048-89.904H512V196.784z
		 M135.552,292.4c-44.32,0-80.368-36.048-80.368-80.368s36.064-80.352,80.368-80.352s80.352,36.048,80.352,80.368
		S179.872,292.4,135.552,292.4z M376.448,292.4c-44.32,0-80.368-36.048-80.368-80.368s36.048-80.368,80.368-80.368
		c44.304,0,80.352,36.048,80.352,80.368S420.752,292.4,376.448,292.4z"/>
	<path style="fill:#3E4347;" d="M423.568,101.712c0.384-3.008-8.8-16.896-10.192-18.8c-9.504-13.376-20.976-23.408-34.544-32.864
		c-18.384-12.112-50.688-24.464-67.408-10.272c-0.512,0.336-0.512,1.008-0.16,1.344c12.192,14.448,32.048,16.624,58.816,25.952
		c34.896,12.704,35.744,20,52.384,34.864C422.864,102.304,423.232,102.768,423.568,101.712z"/>
	<path style="fill:#3E4347;" d="M88.432,101.712c-0.4-3.008,8.784-16.912,10.192-18.8c9.504-13.376,20.976-23.408,34.544-32.864
		c18.384-12.112,50.688-24.464,67.408-10.272c0.512,0.336,0.512,1.008,0.16,1.344c-12.192,14.448-32.048,16.624-58.816,25.952
		c-34.88,12.688-35.728,20-52.368,34.864C89.136,102.304,88.768,102.768,88.432,101.712z"/>
	<path style="fill:#3E4347;" d="M386.592,366.112c-18.016,54.88-69.616,94.48-130.64,94.48c-60.896,0-112.496-39.6-130.64-94.624
		c-2.576-7.856,4.144-15.584,12.288-14.72c79.472,9.008,158.24,9.296,236.704,0.144C382.592,350.384,389.168,358.24,386.592,366.112
		z"/>
</g>
<g>
	<path style="fill:#FFFFFF;" d="M334.224,415.952c-21.2,18.176-48.784,28.688-78.272,28.688c-29.328,0-56.752-10.528-78.128-28.544
		C229.968,403.504,282.096,403.504,334.224,415.952z"/>
	<path style="fill:#FFFFFF;" d="M368.976,367.952c-3.024,7.648-6.704,14.672-11.168,21.36
		c-68.88,18.336-136.784,18.016-203.904-0.32c-4.304-6.688-7.968-13.712-11.008-21.2c38.256,4.144,77.008,6.224,114.784,6.224
		C294.848,374.016,332.32,372.112,368.976,367.952z"/>
</g>
<g>
</g>
<g>
</g>
<g>
</g>
<g>
</g>
<g>
</g>
<g>
</g>
<g>
</g>
<g>
</g>
<g>
</g>
<g>
</g>
<g>
</g>
<g>
</g>
<g>
</g>
<g>
</g>
<g>
</g>
</svg>
