<?xml version="1.0" encoding="iso-8859-1"?>
<!-- Generator: Adobe Illustrator 19.0.0, SVG Export Plug-In . SVG Version: 6.00 Build 0)  -->
<svg version="1.1" id="Capa_1" xmlns="http://www.w3.org/2000/svg" xmlns:xlink="http://www.w3.org/1999/xlink" x="0px" y="0px"
	 viewBox="0 0 512 512" style="enable-background:new 0 0 512 512;" xml:space="preserve">
<circle style="fill:#FFD93B;" cx="256" cy="256" r="256"/>
<path style="fill:#F4C534;" d="M512,256c0,141.44-114.64,256-256,256c-80.48,0-152.32-37.12-199.28-95.28
	c43.92,35.52,99.84,56.72,160.72,56.72c141.36,0,256-114.56,256-256c0-60.88-21.2-116.8-56.72-160.72
	C474.8,103.68,512,175.52,512,256z"/>
<path style="fill:#65B1EF;" d="M304.48,217.904c6.048,48.384,49.136,87.744,96.208,87.744s80.176-39.36,74.128-87.744
	c-6.064-48.544-49.008-87.888-96.08-87.888C331.664,130,298.416,169.36,304.48,217.904z"/>
<path style="fill:#3E4347;" d="M399.296,347.424c-21.808,54.992-71.152,97.264-133.696,107.168
	c-109.328,17.28-202.512-70.528-200-174.528c0.32-12.112,15.808-16.64,23.184-7.104c63.504,82.176,200.176,108.128,292.304,58.56
	C391.584,325.888,403.744,336.368,399.296,347.424z"/>
<g>
	<path style="fill:#FFFFFF;" d="M126.352,309.2l-0.624,43.44c0.112,1.76,0.864,3.424,2.336,4.496
		c4.32,2.72,13.68,8.688,23.824,13.408c3.152,1.44,6.72-0.576,7.312-3.904l5.904-34.224
		C151.296,325.936,138.352,318.112,126.352,309.2z"/>
	<path style="fill:#FFFFFF;" d="M252.784,355.488l2.16,48.928c0.208,3.792,4.912,7.168,9.712,6.656
		c15.44-1.68,30.016-4.992,36.736-6.48c2.304-0.656,3.712-2.208,4.224-4.064l7.632-46.976
		C293.44,356.624,273.072,357.232,252.784,355.488z"/>
</g>
<path style="fill:#F4C534;" d="M274.624,165.008c0,53.12-43.2,96.32-96.48,96.32s-96.32-43.2-96.32-96.32
	c0-53.28,43.04-96.48,96.32-96.48C231.424,68.528,274.624,111.712,274.624,165.008z"/>
<path style="fill:#FFFFFF;" d="M257.712,165.008c0,43.776-35.648,79.408-79.584,79.408s-79.424-35.648-79.424-79.408
	c0-43.936,35.488-79.584,79.424-79.584C222.064,85.424,257.712,121.072,257.712,165.008z"/>
<path style="fill:#F4C534;" d="M106.896,211.328C122.88,233.44,148.704,248,178.128,248s55.312-14.56,71.344-36.672H106.896z"/>
<circle style="fill:#3E4347;" cx="178.192" cy="164.944" r="34.832"/>
<ellipse transform="matrix(-0.7071 -0.7071 0.7071 -0.7071 216.4692 395.6389)" style="fill:#FFFFFF;" cx="190.174" cy="152.987" rx="10.912" ry="8.352"/>
<path style="fill:#3E4347;" d="M265.664,89.008c0,0-44.48-51.04-177.6-32.48C100.224,52.528,272.224-1.248,265.664,89.008z"/>
<path style="fill:#F4C534;" d="M291.504,184.256c0,48.032,39.056,87.104,87.248,87.104s87.104-39.072,87.104-87.104
	c0-48.176-38.928-87.248-87.104-87.248S291.504,136.064,291.504,184.256z"/>
<path style="fill:#FFFFFF;" d="M306.784,184.24c0,39.584,32.24,71.808,71.952,71.808c39.728,0,71.824-32.24,71.824-71.808
	c0-39.728-32.096-71.952-71.824-71.952C339.024,112.288,306.784,144.528,306.784,184.24z"/>
<path style="fill:#3E4347;" d="M299.6,115.52c0,0,40.224-46.16,160.592-29.376C449.2,82.544,293.664,33.92,299.6,115.52z"/>
<path style="fill:#4E99D2;" d="M447.584,238.928l-1.12,1.28c-16.8,20.32-41.44,32-67.68,32c-26.4,0-51.04-11.664-67.84-32
	l-1.12-1.28L447.584,238.928L447.584,238.928z"/>
<circle style="fill:#3E4347;" cx="378.64" cy="184.208" r="34.832"/>
<ellipse transform="matrix(-0.7071 -0.7071 0.7071 -0.7071 545.0377 570.2674)" style="fill:#FFFFFF;" cx="390.625" cy="172.253" rx="10.912" ry="8.352"/>
<g>
</g>
<g>
</g>
<g>
</g>
<g>
</g>
<g>
</g>
<g>
</g>
<g>
</g>
<g>
</g>
<g>
</g>
<g>
</g>
<g>
</g>
<g>
</g>
<g>
</g>
<g>
</g>
<g>
</g>
</svg>
