<?xml version="1.0" encoding="iso-8859-1"?>
<!-- Generator: Adobe Illustrator 19.0.0, SVG Export Plug-In . SVG Version: 6.00 Build 0)  -->
<svg version="1.1" id="Capa_1" xmlns="http://www.w3.org/2000/svg" xmlns:xlink="http://www.w3.org/1999/xlink" x="0px" y="0px"
	 viewBox="0 0 512 512" style="enable-background:new 0 0 512 512;" xml:space="preserve">
<circle style="fill:#FFD93B;" cx="256" cy="256" r="256"/>
<path style="fill:#F4C534;" d="M512,256c0,141.44-114.64,256-256,256c-80.48,0-152.32-37.12-199.28-95.28
	c43.92,35.52,99.84,56.72,160.72,56.72c141.36,0,256-114.56,256-256c0-60.88-21.2-116.8-56.72-160.72
	C474.8,103.68,512,175.52,512,256z"/>
<g>
	<path style="fill:#FFFFFF;" d="M235.44,221.632c0,43.808-35.424,79.376-79.376,79.376c-43.792,0-79.376-35.568-79.376-79.376
		c0-43.952,35.584-79.52,79.376-79.52C200.016,142.112,235.44,177.68,235.44,221.632z"/>
	<path style="fill:#FFFFFF;" d="M435.376,221.632c0,43.808-35.424,79.376-79.376,79.376c-43.792,0-79.376-35.568-79.376-79.376
		c0-43.952,35.584-79.52,79.376-79.52C399.952,142.112,435.376,177.68,435.376,221.632z"/>
</g>
<g>
	<path style="fill:#3E4347;" d="M485.264,209.552H445.76c-5.92-44.336-43.888-78.64-89.744-78.64
		c-33.952,0-63.552,18.816-79.04,46.56c-4.208,7.536-12.16,11.92-20.784,11.872c-0.048,0-0.096,0-0.16,0
		c-0.08,0-0.144,0-0.224,0.016c-8.592,0.064-16.512-4.352-20.688-11.84c-15.488-27.76-45.088-46.592-79.04-46.592
		c-45.856,0-83.744,34.32-89.68,78.64H26.736v24H66.64c5.568,41.408,39.216,74.736,81.6,78.32
		c53.632,4.544,99.44-38.224,98.304-92.144c0.912-4.512,4.704-7.968,9.472-7.968c4.864,0,9.376,3.504,9.376,9.872
		c0,52.288,44.56,94.384,97.696,90.304c42.528-3.264,76.832-36.528,82.368-78.384h39.776v-24.016H485.264z M156.064,289.792
		c-37.584,0-68.176-30.592-68.176-68.16c0-37.664,30.576-68.304,68.176-68.304c37.584,0,68.16,30.64,68.16,68.304
		C224.224,259.2,193.648,289.792,156.064,289.792z M356,289.792c-37.584,0-68.176-30.592-68.176-68.16
		c0-37.664,30.576-68.304,68.176-68.304c37.584,0,68.16,30.64,68.16,68.304C424.16,259.2,393.584,289.792,356,289.792z"/>
	<path style="fill:#3E4347;" d="M366.352,234.4c0,16.688-13.424,30.432-30.32,30.432c-16.688,0-30.32-13.744-30.32-30.432
		c0-16.784,13.648-30.544,30.32-30.544C352.928,203.856,366.352,217.6,366.352,234.4z"/>
</g>
<ellipse transform="matrix(-0.7071 -0.7071 0.7071 -0.7071 433.3604 627.0373)" style="fill:#FFFFFF;" cx="346.544" cy="223.767" rx="10" ry="6.912"/>
<path style="fill:#3E4347;" d="M206.352,234.4c0,16.688-13.424,30.432-30.32,30.432c-16.688,0-30.32-13.744-30.32-30.432
	c0-16.784,13.648-30.544,30.32-30.544C192.928,203.856,206.352,217.6,206.352,234.4z"/>
<ellipse transform="matrix(-0.7071 -0.7071 0.7071 -0.7071 160.2394 513.9388)" style="fill:#FFFFFF;" cx="186.56" cy="223.783" rx="10" ry="6.912"/>
<g>
	<path style="fill:#3E4347;" d="M276.16,135.904c42.624-23.808,92.128-39.6,146.24-43.616c-7.232-12.56-15.04-24.976-23.424-37.12
		C351.584,74.816,310.224,102.752,276.16,135.904z"/>
	<path style="fill:#3E4347;" d="M235.952,136.064c-42.672-23.6-92.176-39.6-146.512-44.256c7.184-12.704,14.96-25.216,23.328-37.456
		C160.4,74.752,201.824,103.024,235.952,136.064z"/>
	<path style="fill:#3E4347;" d="M132.656,396.496c-3.28-2.976-3.536-8.016-0.576-11.296c1.76-1.952,17.664-18.976,35.472-18.976
		c10.944,0,16.592,6.256,20.72,10.816c3.552,3.936,5.152,5.536,8.832,5.536c3.664,0,5.248-1.6,8.8-5.536
		c12.688-14.048,27.552-15.296,41.36,0c6.352,7.024,10.272,8.144,17.6,0c12.688-14.048,27.568-15.296,41.36,0
		c6.4,7.088,10.304,8.096,17.616,0c17.472-19.36,40.16-9.472,56.096,8.176c2.96,3.28,2.688,8.336-0.576,11.28
		c-3.28,2.976-8.336,2.704-11.296-0.544c-3.472-3.808-14.464-13.712-23.552-13.712c-3.664,0-5.248,1.6-8.8,5.536
		c-12.688,14.048-27.552,15.296-41.36,0c-6.4-7.088-10.304-8.096-17.6,0c-12.48,13.856-27.408,15.456-41.36,0
		c-6.4-7.088-10.304-8.096-17.616,0c-4.112,4.56-9.744,10.816-20.688,10.816s-16.576-6.256-20.704-10.816
		c-3.552-3.936-5.152-5.536-8.832-5.536c-9.152,0-20.384,10.16-23.6,13.696C140.992,399.2,135.936,399.456,132.656,396.496z"/>
</g>
<g>
</g>
<g>
</g>
<g>
</g>
<g>
</g>
<g>
</g>
<g>
</g>
<g>
</g>
<g>
</g>
<g>
</g>
<g>
</g>
<g>
</g>
<g>
</g>
<g>
</g>
<g>
</g>
<g>
</g>
</svg>
