<?xml version="1.0" encoding="iso-8859-1"?>
<!-- Generator: Adobe Illustrator 19.0.0, SVG Export Plug-In . SVG Version: 6.00 Build 0)  -->
<svg version="1.1" id="Capa_1" xmlns="http://www.w3.org/2000/svg" xmlns:xlink="http://www.w3.org/1999/xlink" x="0px" y="0px"
	 viewBox="0 0 512 512" style="enable-background:new 0 0 512 512;" xml:space="preserve">
<circle style="fill:#FFD93B;" cx="256" cy="256" r="256"/>
<g>
	<path style="fill:#F4C534;" d="M512,256c0,141.44-114.64,256-256,256c-80.48,0-152.32-37.12-199.28-95.28
		c43.92,35.52,99.84,56.72,160.72,56.72c141.36,0,256-114.56,256-256c0-60.88-21.2-116.8-56.72-160.72
		C474.8,103.68,512,175.52,512,256z"/>
	<circle style="fill:#F4C534;" cx="140.528" cy="239.296" r="98.448"/>
</g>
<path style="fill:#FFFFFF;" d="M224.8,239.328c-2.592,46.832-42.4,84.768-88.944,84.768c-46.528,0-82.288-37.952-79.696-84.768
	c2.592-46.832,42.56-84.912,89.088-84.912S227.392,192.496,224.8,239.328z"/>
<path style="fill:#3E4347;" d="M180.432,215.984c0.096,22.064-17.872,40.032-39.936,39.936
	c-22.064,0.096-40.032-17.888-39.936-39.952c-0.096-22.064,17.872-40.032,39.936-39.936
	C162.56,175.952,180.528,193.92,180.432,215.984z"/>
<ellipse transform="matrix(-0.7071 -0.7071 0.7071 -0.7071 122.4659 453.3731)" style="fill:#FFFFFF;" cx="155.13" cy="201.323" rx="11.92" ry="7.648"/>
<path style="fill:#3E4347;" d="M155.152,72.928c0,0-52.016-7.312-106.624,55.904C48.528,128.832,83.84,15.6,155.152,72.928z"/>
<circle style="fill:#F4C534;" cx="371.52" cy="239.296" r="98.448"/>
<path style="fill:#FFFFFF;" d="M287.2,239.328c2.592,46.832,42.4,84.768,88.944,84.768c46.528,0,82.288-37.952,79.696-84.768
	c-2.592-46.832-42.56-84.912-89.088-84.912S284.608,192.496,287.2,239.328z"/>
<path style="fill:#3E4347;" d="M331.568,215.984c-0.096,22.064,17.872,40.032,39.936,39.936
	c22.064,0.096,40.048-17.888,39.952-39.952c0.096-22.064-17.872-40.032-39.936-39.936
	C349.44,175.952,331.472,193.92,331.568,215.984z"/>
<ellipse transform="matrix(-0.7071 -0.7071 0.7071 -0.7071 466.7711 596.0438)" style="fill:#FFFFFF;" cx="356.83" cy="201.35" rx="7.648" ry="11.92"/>
<g>
	<path style="fill:#3E4347;" d="M356.848,72.928c0,0,52.016-7.312,106.624,55.904C463.472,128.832,428.16,15.6,356.848,72.928z"/>
	<path style="fill:#3E4347;" d="M315.472,403.28c-4.528,32.848-12.736,47.472-40.496,52.256c-27.184,4.768-44.32-11.12-53.712-52.24
		c-8.768-38.432,15.12-53.344,40.464-52.384C286.688,351.872,316.816,359.472,315.472,403.28z"/>
</g>
<g>
	<path style="fill:#E24B4B;" d="M406.608,392.464v55.552c0,8.96-7.808,16.192-17.472,16.192s-17.472-7.216-17.472-16.192
		c0-8.848,7.808-16.064,17.472-16.064c2.208,0,4.432,0.352,6.4,1.168v-23.056l-39.712,4.896v41.808
		c0,8.976-7.808,16.192-17.472,16.192c-9.664,0-17.472-7.216-17.472-16.192c0-8.848,7.808-16.064,17.472-16.064
		c2.208,0,4.432,0.352,6.4,1.168V398.4c0-3.264,2.448-6.048,5.712-6.4l48.912-5.936
		C403.232,385.584,406.608,388.496,406.608,392.464z"/>
	<path style="fill:#E24B4B;" d="M469.264,319.728v40.608c0,6.56-5.696,11.84-12.768,11.84s-12.768-5.28-12.768-11.84
		c0-6.48,5.696-11.744,12.768-11.744c1.616,0,3.232,0.256,4.688,0.848v-16.864l-29.024,3.584v30.56c0,6.56-5.712,11.84-12.768,11.84
		s-12.768-5.28-12.768-11.84c0-6.464,5.712-11.744,12.768-11.744c1.616,0,3.232,0.256,4.688,0.848v-31.76
		c0-2.384,1.792-4.416,4.176-4.688l35.76-4.336C466.8,314.72,469.264,316.848,469.264,319.728z"/>
</g>
<g>
</g>
<g>
</g>
<g>
</g>
<g>
</g>
<g>
</g>
<g>
</g>
<g>
</g>
<g>
</g>
<g>
</g>
<g>
</g>
<g>
</g>
<g>
</g>
<g>
</g>
<g>
</g>
<g>
</g>
</svg>
